<svg xmlns="http://www.w3.org/2000/svg" xmlns:xlink="http://www.w3.org/1999/xlink" fill="none" version="1.1" width="126.300048828125" height="94.402587890625" viewBox="0 0 126.300048828125 94.402587890625"><defs><filter id="master_svg0_2_8127" filterUnits="objectBoundingBox" color-interpolation-filters="sRGB" x="-0.6018518412227659" y="-0.2418604617895082" width="2.2037036824455316" height="1.6046511627906976"><feFlood flood-opacity="0" result="BackgroundImageFix"/><feColorMatrix in="SourceAlpha" type="matrix" values="0 0 0 0 0 0 0 0 0 0 0 0 0 0 0 0 0 0 127 0"/><feOffset dy="5.200000286102295" dx="0"/><feGaussianBlur stdDeviation="6.5"/><feColorMatrix type="matrix" values="0 0 0 0 0 0 0 0 0 0 0 0 0 0 0 0 0 0 0.30000001192092896 0"/><feBlend mode="normal" in2="BackgroundImageFix" result="effect1_dropShadow"/><feBlend mode="normal" in="SourceGraphic" in2="effect1_dropShadow" result="shape"/></filter><filter id="master_svg1_2_8128" filterUnits="objectBoundingBox" color-interpolation-filters="sRGB" x="-1.2037036824455318" y="-0.4837209235790164" width="3.4074073648910637" height="2.2093023255813953"><feFlood flood-opacity="0" result="BackgroundImageFix"/><feColorMatrix in="SourceAlpha" type="matrix" values="0 0 0 0 0 0 0 0 0 0 0 0 0 0 0 0 0 0 127 0"/><feOffset dy="5.200000286102295" dx="0"/><feGaussianBlur stdDeviation="6.5"/><feColorMatrix type="matrix" values="0 0 0 0 0 0 0 0 0 0 0 0 0 0 0 0 0 0 0.30000001192092896 0"/><feBlend mode="normal" in2="BackgroundImageFix" result="effect1_dropShadow"/><feBlend mode="normal" in="SourceGraphic" in2="effect1_dropShadow" result="shape"/></filter></defs><g><g transform="matrix(0,1,-1,0,131.5,-91.199951171875)" filter="url(#master_svg0_2_8127)"><path d="M112.0162414859375,61.4355584140625L150.5952265859375,20.8663849240625C151.50357458593749,19.9111938440625,152.9603655859375,19.9111938440625,153.86871358593748,20.8663849240625C154.7770695859375,21.8215760140625,154.7770695859375,23.3535035140625,153.86871358593748,24.3088260140625L116.9350409859375,63.1477964140625L153.86871358593748,101.9867634140625C154.7770695859375,102.9419554140625,154.7770695859375,104.4738844140625,153.86871358593748,105.4290774140625C153.4231075859375,105.8976824140625,152.8232535859375,106.1500244140625,152.2405355859375,106.1500244140625C151.65782158593748,106.1500244140625,151.0579685859375,105.9157864140625,150.6123655859375,105.4290774140625L112.0333802059375,64.8599014140625C111.1250634659375,63.9228174140625,111.1250634659375,62.3727764140625,112.0162414859375,61.4355584140625Z" fill="#0056AD" fill-opacity="1"/><path d="M111.5623335859375,65.3078384140625Q111.5644906159375,65.3100704140625,111.5666530559375,65.3123014140625L150.1329455859375,105.8680034140625Q150.9862445859375,106.8000264140625,152.2405355859375,106.8000264140625Q153.4620245859375,106.8000264140625,154.3397365859375,105.8769984140625Q155.1999815859375,104.9723964140625,155.1999815859375,103.7079234140625Q155.1999815859375,102.4434434140625,154.3397405859375,101.5388414140625L117.8320154859375,63.1477964140625L154.3397675859375,24.7567205140625Q155.1999815859375,23.8520262140625,155.1999815859375,22.5875563140625Q155.1999815859375,21.3230587140625,154.3397405859375,20.4184606940625Q153.4663165859375,19.4999915940625,152.23197158593752,19.4999915940625Q150.9976235859375,19.4999915940625,150.1241985859375,20.4184642440625L111.5451979459375,60.9876554140625Q110.6956323359375,61.8811114140625,110.7000042159375,63.1500164140625Q110.7043782459375,64.41954041406251,111.5623335859375,65.3078384140625ZM151.0917855859375,104.9901504140625L112.5044079859375,64.4119794140625L112.5001074859375,64.4075014140625Q112.0025759959375,63.8942144140625,111.9999964859375,63.1455424140625Q111.9974230559375,62.3986284140625,112.4872851859375,61.8834614140625L151.0662575859375,21.3143055140625Q151.5553475859375,20.7999916040625,152.23197158593752,20.7999916040625Q152.9085925859375,20.7999916040625,153.3976855859375,21.3143091140625Q154.6084705859375,22.5875182140625,153.3976595859375,23.8609316140625L116.0380658859375,63.1477964140625L153.3976855859375,102.4346774140625Q154.6084895859375,103.7079234140625,153.39768958593748,104.9811474140625Q152.9042855859375,105.5000224140625,152.2405355859375,105.5000224140625Q151.5585935859375,105.5000224140625,151.0917855859375,104.9901504140625Z" fill-rule="evenodd" fill="#0056AD" fill-opacity="1"/></g><g transform="matrix(0,1,-1,0,142.4000015258789,-37.299949645996094)" filter="url(#master_svg1_2_8128)"><path d="M90.1831085359375,73.1927929399414L109.4726005859375,52.9082061899414C109.9267745859375,52.43061065994141,110.6551705859375,52.43061065994141,111.10934458593749,52.9082061899414C111.5635225859375,53.385801729941406,111.5635225859375,54.15176543994141,111.10934458593749,54.62942673994141L92.6425082859375,74.0489119399414L111.10934458593749,93.4683949399414C111.5635225859375,93.94599193994141,111.5635225859375,94.7119559399414,111.10934458593749,95.1895519399414C110.8865415859375,95.4238549399414,110.5866145859375,95.5500259399414,110.2952555859375,95.5500259399414C110.00389858593749,95.5500259399414,109.7039715859375,95.4329069399414,109.4811705859375,95.1895519399414L90.1916778959375,74.90496493994141C89.7375195259375,74.43642193994141,89.7375195259375,73.66140193994141,90.1831085359375,73.1927929399414Z" fill="#0056AD" fill-opacity="1"/><path d="M89.7206367059375,75.35289993994141Q89.7227892759375,75.3551329399414,89.7249507259375,75.35736293994141L109.0017505859375,95.6284789399414Q109.5250205859375,96.2000239399414,110.2952555859375,96.2000239399414Q111.0454345859375,96.2000239399414,111.5803665859375,95.6374779399414Q112.8247085859375,94.32897593994142,111.5803715859375,93.02047393994141L93.53948328593751,74.04890993994141L111.5803965859375,55.07732103994141Q112.8246575859375,53.76872573994141,111.5803675859375,52.460281967941405Q111.0475735859375,51.900009509941405,110.29097358593751,51.900009509941405Q109.5343725859375,51.90000944994141,109.0015735859375,52.460285536941406L89.7120649559375,72.7448899399414Q89.1973562259375,73.28618993994141,89.1999918259375,74.05114393994141Q89.2026247359375,74.8153309399414,89.7206367059375,75.35289993994141ZM109.9605905859375,94.75062593994141L90.6627055959375,74.4570429399414L90.6584051259375,74.4525639399414Q90.2665610659375,74.0483109399414,90.6541522159375,73.64069593994141L109.9436285859375,53.3561268399414Q110.0920885859375,53.2000095199414,110.29097358593751,53.2000095199414Q110.4898565859375,53.2000095199414,110.63832058593749,53.35613041994141Q111.0307445859375,53.76878873994141,110.6382925859375,54.18153253994141L91.7455333859375,74.0489119399414L110.6383175859375,93.9163129399414Q111.03074058593751,94.32897593994142,110.6383225859375,94.74162293994141Q110.4876975859375,94.9000239399414,110.2952555859375,94.9000239399414Q110.0973715859375,94.9000239399414,109.9605905859375,94.75062593994141Z" fill-rule="evenodd" fill="#0056AD" fill-opacity="1"/></g></g></svg>