<svg xmlns="http://www.w3.org/2000/svg" xmlns:xlink="http://www.w3.org/1999/xlink" fill="none" version="1.1" width="181" height="95" viewBox="0 0 181 95"><g><g><path d="M23.68,24.254997C18.820002,31.32,10.1800003,36.584999,1.9900000100000002,39.779999C3.835,41.489998,5.7250004,43.965,6.8050003,45.855C8.6500001,44.955002,10.4950008,43.919998,12.34,42.84L12.34,44.955002L34.84,44.955002L34.84,41.985001C36.91,43.154999,38.890003,44.144997,40.915001,45.044998C41.815002,42.974998,43.705002,40.544998,45.370003,39.014999C39.835003,37.259998,34.075001,34.514999,28.045002,29.294998L29.530001,27.27L23.68,24.254997ZM18.055,38.970001C20.125,37.394997,22.105001,35.684998,23.995001,33.839996C26.110001,35.864998,28.18,37.529999,30.205002,38.970001L18.055,38.970001ZM9.0550003,47.970001L9.0550003,67.184998L15.76,67.184998L15.76,65.565002L31.915001,65.565002L31.915001,67.004997L38.935001,67.004997L38.935001,47.970001L9.0550003,47.970001ZM15.76,59.535L15.76,53.684998L31.915001,53.684998L31.915001,59.535L15.76,59.535ZM68.949997,24.884998C66.970001,31.32,63.459999,37.799999,59.544998,41.759998C60.940002,42.794998,63.459999,45.135002,64.495003,46.349998C66.474998,44.099998,68.410004,41.220001,70.209999,37.98L71.065002,37.98L71.065002,67.275002L77.815002,67.275002L77.815002,57.779999L89.380005,57.779999L89.380005,51.705002L77.815002,51.705002L77.815002,47.654999L88.794998,47.654999L88.794998,41.714996L77.815002,41.714996L77.815002,37.98L90.010002,37.98L90.010002,31.769999L73.224998,31.769999C73.990005,30.059998,74.665001,28.305,75.25,26.549999L68.949997,24.884998ZM56.440002,24.704998C54.279999,30.914997,50.544998,37.125,46.630001,41.040001C47.755001,42.705002,49.555,46.485001,50.139999,48.105C50.77,47.43,51.400002,46.754997,52.029999,45.989998L52.029999,67.230003L58.645,67.230003L58.645,35.864998C60.264999,32.849998,61.66,29.744999,62.785,26.73L56.440002,24.704998ZM108.595,26.055C109.225,27.224998,109.9,28.619999,110.44,29.924999L93.43,29.924999L93.43,36.314999L103.645,36.314999C101.125,39.419998,96.849998,42.525002,92.845001,44.369999C94.330002,45.449997,96.849998,47.834999,98.065002,49.139999C99.459999,48.285,100.989998,47.25,102.475,46.080002C104.185,49.904999,106.165,53.145,108.64,55.935001C104.365,58.544998,99.055,60.255001,92.934998,61.380001C94.150002,62.775002,96.129997,65.699997,96.849998,67.184998C103.15,65.654999,108.73,63.494999,113.455,60.345001C117.82,63.540001,123.31,65.745003,130.24001,67.050003C131.05,65.339996,132.80499,62.595001,134.2,61.200001C127.945,60.299999,122.77,58.59,118.63,56.07C121.375,53.369999,123.625,50.084999,125.425,46.260002C126.64,47.384998,127.675,48.465,128.39499999999998,49.41L134.02,45.135002C131.67999,42.525002,126.955,38.924999,123.265,36.314999L133.57001,36.314999L133.57001,29.924999L117.955,29.924999C117.325,28.169998,115.93,25.739998,114.85,23.894997L108.595,26.055ZM117.235,39.464996C119.62,41.220001,122.455,43.514999,124.795,45.674999L118.945,44.009998C117.685,47.204998,115.885,49.904999,113.545,52.154999C111.295,49.904999,109.54,47.25,108.28,44.235001L102.7,45.900002C105.49,43.739998,108.19,41.129997,110.215,38.610001L104.23,36.314999L121.6,36.314999L117.235,39.464996ZM161.11,47.07L161.11,65.294998L166.78,65.294998L166.78,47.07L161.11,47.07ZM153.685,47.16L153.685,51.029999C153.685,54.630001,153.10001,59.220001,148.105,62.685001C149.545,63.630001,151.705,65.654999,152.64999,66.959999C158.77,62.549999,159.535,56.114998,159.535,51.254997L159.535,47.16L153.685,47.16ZM168.355,47.16L168.355,59.985001C168.355,63.18,168.715,64.260002,169.57001,65.160004C170.38,66.059998,171.73,66.464996,172.89999,66.464996C173.62,66.464996,174.52,66.464996,175.33,66.464996C176.185,66.464996,177.31,66.239998,177.985,65.790001C178.795,65.339996,179.29001,64.620003,179.64999,63.584999C179.965,62.639999,180.19,60.299999,180.28,58.23C178.84,57.735001,176.905,56.790001,175.91501,55.845001C175.87,57.779999,175.825,59.355,175.78,60.075001C175.69,60.75,175.645,61.064999,175.51001,61.200001C175.42,61.290001,175.285,61.334999,175.14999,61.334999C175.015,61.334999,174.88,61.334999,174.745,61.334999C174.61,61.334999,174.47501,61.244999,174.42999,61.110001C174.34,60.974998,174.34,60.57,174.34,59.985001L174.34,47.16L168.355,47.16ZM137.17,42.345001C140.095,43.559998,143.92,45.629997,145.675,47.204998L149.32001,41.759998C147.34,40.23,143.425,38.384998,140.545,37.394997L137.17,42.345001ZM137.8,62.369999L143.33501,66.779999C146.08,62.279999,148.78,57.419998,151.16501,52.695L146.35001,48.329998C143.605,53.595001,140.185,59.040001,137.8,62.369999ZM138.925,29.834999C141.80499,31.094999,145.53999,33.254997,147.25,34.875L150.75999,30.014999L150.75999,35.504997L157.78,35.504997C156.565,36.989998,155.44,38.339996,154.89999,38.834999C153.86501,39.735001,152.11,40.139999,150.985,40.364998C151.435,41.714996,152.245,44.82,152.47,46.349998C154.315,45.629997,156.925,45.404999,173.035,44.279999C173.71001,45.269997,174.25,46.215,174.655,46.98L179.92,43.605C178.61501,41.355,176.005,38.16,173.71001,35.504997L178.75,35.504997L178.75,29.699997L168.67,29.699997C168.175,28.079998,167.32001,26.009998,166.60001,24.389999L160.52499,25.829998C161.02,27,161.515,28.395,161.875,29.699997L150.985,29.699997L151.075,29.564999C149.185,27.945,145.315,26.055,142.48,25.019997L138.925,29.834999ZM167.72501,37.125L169.345,39.150002L161.875,39.555L165.02499,35.504997L170.425,35.504997L167.72501,37.125Z" fill="#FFFFFF" fill-opacity="1"/></g><g><g><rect x="0" y="88" width="181" height="7" rx="3.5" fill="#FFFFFF" fill-opacity="1"/></g></g></g></svg>