<svg xmlns="http://www.w3.org/2000/svg" xmlns:xlink="http://www.w3.org/1999/xlink" fill="none" version="1.1" width="272" height="45" viewBox="0 0 272 45"><g><path d="M2.0400002,10.717999C3.8760002,12.621998,6.0860004,15.273998,7.0380006,16.973999L10.404,14.661999C9.3160009,12.995998,6.9700003,10.479998,5.2020001,8.6779976L2.0400002,10.717999ZM28.900002,8.1679993C25.364002,9.289999,19.142,9.9019985,13.6,10.105999L13.6,17.585999C13.6,21.801998,13.362,27.683998,10.608001,31.798C11.56,32.239998,13.396001,33.532001,14.144001,34.245998C16.490002,30.778,17.374001,25.779999,17.646002,21.427999L22.848001,21.427999L22.848001,33.939999L26.894001,33.939999L26.894001,21.427999L32.572002,21.427999L32.572002,17.653999L17.748001,17.653999L17.748001,13.437998C22.814001,13.165998,28.220001,12.519999,32.266003,11.227999L28.900002,8.1679993ZM9.4180002,20.271999L1.598,20.271999L1.598,24.284L5.4400005,24.284L5.4400005,32.478001C4.0120001,33.124001,2.3460002,34.382,0.81600004,36.048L3.5360003,39.924C4.7600002,37.952,6.2220001,35.674,7.2420006,35.674C8.0240002,35.674,9.1800003,36.762001,10.744,37.612C13.260001,38.972,16.150002,39.346001,20.434002,39.346001C23.936001,39.346001,29.580002,39.141998,31.994001,39.006001C32.062,37.849998,32.708,35.844002,33.184002,34.756001C29.750002,35.231998,24.208002,35.537998,20.604002,35.537998C16.796001,35.537998,13.668001,35.334,11.356001,34.042C10.574,33.599998,9.9280005,33.192001,9.4180002,32.852001L9.4180002,20.271999ZM38.046001,11.363998L38.046001,15.546L63.987999,15.546L63.987999,11.363998L38.046001,11.363998ZM40.391998,22.312L40.391998,26.459999L61.268002,26.459999L61.268002,22.312L40.391998,22.312ZM36.141998,33.838001L36.141998,37.986L65.790001,37.986L65.790001,33.838001L36.141998,33.838001ZM69.360001,28.84L69.360001,32.75L84.762001,32.75L84.762001,40.060001L88.977997,40.060001L88.977997,32.75L100.64,32.75L100.64,28.84L88.977997,28.84L88.977997,23.705999L97.987999,23.705999L97.987999,19.897999L88.977997,19.897999L88.977997,15.783998L98.804001,15.783998L98.804001,11.839998L79.492004,11.839998C79.900002,10.921999,80.274002,10.003998,80.613998,9.0519981L76.431999,7.9639988C74.970001,12.417999,72.318001,16.769999,69.258003,19.387999C70.278,20,72.012001,21.326,72.793999,22.039999C74.426003,20.407999,76.024002,18.231998,77.452003,15.783998L84.762001,15.783998L84.762001,19.897999L74.765999,19.897999L74.765999,28.84L69.360001,28.84ZM78.846001,28.84L78.846001,23.705999L84.762001,23.705999L84.762001,28.84L78.846001,28.84ZM122.264,16.702L122.264,21.938L122.264,22.107998L115.26,22.107998L115.26,25.882L121.958,25.882C121.312,29.689999,119.408,33.973999,114.07,37.476002C115.056,38.155998,116.382,39.278,117.062,40.127998C121.142,37.476002,123.386,34.211998,124.644,30.948C126.276,34.925999,128.65601,38.054001,132.192,39.924C132.73601,38.869999,133.892,37.34,134.776,36.591999C130.45801,34.722,127.84,30.778,126.412,25.882L134.062,25.882L134.062,22.107998L130.662,22.107998L133.11,20.373999C132.362,19.115999,130.662,17.483999,129.166,16.362L126.412,18.265999C127.704,19.387999,129.2,20.917999,129.98199,22.107998L126.072,22.107998L126.072,21.972L126.072,16.702L122.264,16.702ZM122.876,8.0999985L122.876,10.479998L115.26,10.479998L115.26,8.0999985L111.214,8.0999985L111.214,10.479998L103.904,10.479998L103.904,14.117998L111.214,14.117998L111.214,16.395998L115.26,16.395998L115.26,14.117998L122.876,14.117998L122.876,16.056L126.956,16.056L126.956,14.117998L134.164,14.117998L134.164,10.479998L126.956,10.479998L126.956,8.0999985L122.876,8.0999985ZM112.268,16.497999C111.758,17.075998,111.112,17.688,110.432,18.299999C109.582,17.518,108.562,16.735998,107.338,16.021999L104.686,18.129999C105.876,18.844,106.828,19.591999,107.644,20.407999C106.182,21.393999,104.584,22.243999,102.986,22.889999C103.768,23.57,104.856,24.793999,105.4,25.610001C106.828,24.964001,108.29,24.147999,109.718,23.23C110.024,23.841999,110.262,24.453999,110.466,25.099998C108.868,27.344,105.672,29.757999,102.986,30.879999C103.802,31.594,104.788,32.919998,105.332,33.838001C107.202,32.75,109.31,31.084,111.044,29.349998L111.044,29.622C111.044,32.784,110.772,34.891998,110.092,35.776001C109.82,36.116001,109.548,36.285999,109.038,36.32C108.324,36.422001,107.066,36.422001,105.4,36.32C106.08,37.306,106.488,38.666,106.522,39.821999C108.154,39.889999,109.48,39.855999,110.772,39.584C111.588,39.414001,112.302,39.040001,112.778,38.462002C114.342,36.796001,114.818,33.633999,114.818,29.893999C114.818,26.799999,114.478,23.807999,112.744,21.02C113.764,20.169998,114.75,19.251999,115.566,18.299999L112.268,16.497999ZM137.76801,11.431999C138.89,13.029999,140.114,15.205999,140.59,16.599998L143.82001,14.763998C143.31,13.369999,141.98399,11.296,140.79401,9.7999992L137.76801,11.431999ZM150.92599,25.439999L150.65401,27.48L137.76801,27.48L137.76801,31.049999L149.464,31.049999C147.93401,33.77,144.73801,35.537998,137.258,36.557999C138.006,37.408001,138.89,38.938,139.196,39.992001C147.15201,38.734001,151.028,36.456001,153.034,33.124001C155.856,37.068001,160.106,39.074001,166.668,39.855999C167.17801,38.734001,168.198,37.068001,169.082,36.217999C162.62201,35.810001,158.23601,34.245998,155.924,31.049999L168.23199,31.049999L168.23199,27.48L154.90401,27.48L155.17599,25.439999L150.92599,25.439999ZM155.856,7.9979992C154.59801,10.343998,151.70801,13.029999,148.81799,14.525999C149.56599,15.239998,150.688,16.667999,151.23199,17.518C152.728,16.667999,154.19,15.579998,155.55,14.321999L163.744,14.321999C162.69,16.157999,161.26199,17.619999,159.46001,18.741999C158.508,17.619999,157.14799,16.293999,155.992,15.307999L153.10201,17.075998C154.12201,18.028,155.312,19.251999,156.162,20.339998C154.02,21.155998,151.53799,21.699999,148.85201,22.039999C149.56599,22.787998,150.62,24.487999,150.994,25.439999C159.528,23.944,166.226,20.373999,168.84399,11.941999L166.43001,10.853998L165.716,10.921999L158.61,10.921999C159.01801,10.377998,159.392,9.8339977,159.73199,9.289999L155.856,7.9979992ZM137.12199,20.169998L138.78799,23.739998C140.556,22.719999,142.59599,21.529999,144.60201,20.306L144.60201,25.473999L148.54601,25.473999L148.54601,8.0999985L144.60201,8.0999985L144.60201,16.362C141.814,17.858,139.026,19.285999,137.12199,20.169998ZM171.972,14.831999C171.802,17.619999,171.29201,21.427999,170.578,23.773998L173.536,24.793999C174.25,22.141998,174.75999,18.061998,174.828,15.205999L171.972,14.831999ZM186.524,30.573999L196.724,30.573999L196.724,32.104L186.524,32.104L186.524,30.573999ZM186.524,27.717999L186.524,26.119999L196.724,26.119999L196.724,27.717999L186.524,27.717999ZM174.896,8.0999985L174.896,40.026001L178.60201,40.026001L178.60201,15.205999C179.112,16.532,179.62199,17.959999,179.86,18.911999L182.54601,17.619999L182.478,17.449999L189.55,17.449999L189.55,18.877998L180.472,18.877998L180.472,21.801998L202.912,21.801998L202.912,18.877998L193.59601,18.877998L193.59601,17.449999L200.90601,17.449999L200.90601,14.73L193.59601,14.73L193.59601,13.335999L201.82401,13.335999L201.82401,10.445999L193.59601,10.445999L193.59601,8.0999985L189.55,8.0999985L189.55,10.445999L181.526,10.445999L181.526,13.335999L189.55,13.335999L189.55,14.73L182.444,14.73L182.444,17.313999C182.036,16.056,181.22,14.185999,180.54001,12.757999L178.60201,13.573999L178.60201,8.0999985L174.896,8.0999985ZM182.75,23.127998L182.75,40.060001L186.524,40.060001L186.524,34.959999L196.724,34.959999L196.724,36.082001C196.724,36.490002,196.554,36.625999,196.112,36.625999C195.67,36.625999,194.03799,36.66,192.644,36.557999C193.12,37.543999,193.59601,39.040001,193.73199,40.026001C196.112,40.060001,197.812,40.026001,199.002,39.448002C200.26001,38.903999,200.60001,37.917999,200.60001,36.150002L200.60001,23.127998L182.75,23.127998ZM205.87,12.791998C207.978,14.491999,210.528,17.007999,211.582,18.775999L214.57401,15.681999C213.384,13.947998,210.8,11.635998,208.62399,10.071999L205.87,12.791998ZM205.02,33.09L208.14799,36.116001C210.32401,32.886002,212.67,29.043999,214.57401,25.610001L211.922,22.719999C209.71201,26.493999,206.924,30.642,205.02,33.09ZM220.048,13.641998L230.69,13.641998L230.69,20.816L220.048,20.816L220.048,13.641998ZM216.138,9.7659988L216.138,24.725998L219.40201,24.725998C219.062,30.506001,218.21201,34.518002,211.99001,36.863998C212.908,37.612,213.996,39.074001,214.438,40.094002C221.714,37.102001,223.006,31.9,223.448,24.725998L226.27,24.725998L226.27,34.756001C226.27,38.428001,227.052,39.652,230.35001,39.652C230.92801,39.652,232.56,39.652,233.20599,39.652C236.028,39.652,236.98001,38.122002,237.32001,32.512001C236.26601,32.239998,234.56601,31.594,233.784,30.914C233.68201,35.299999,233.51199,35.98,232.798,35.98C232.45801,35.98,231.26801,35.98,230.996,35.98C230.31601,35.98,230.18001,35.844002,230.18001,34.722L230.18001,24.725998L234.87201,24.725998L234.87201,9.7659988L216.138,9.7659988ZM246.5,21.053999C248.302,21.053999,249.73,19.693998,249.73,17.858C249.73,15.987999,248.302,14.627998,246.5,14.627998C244.698,14.627998,243.27,15.987999,243.27,17.858C243.27,19.693998,244.698,21.053999,246.5,21.053999ZM246.5,37.271999C248.302,37.271999,249.73,35.911999,249.73,34.076C249.73,32.206001,248.302,30.846001,246.5,30.846001C244.698,30.846001,243.27,32.206001,243.27,34.076C243.27,35.911999,244.698,37.271999,246.5,37.271999Z" fill="#2E2E2E" fill-opacity="1"/></g></svg>