<svg xmlns="http://www.w3.org/2000/svg" xmlns:xlink="http://www.w3.org/1999/xlink" fill="none" version="1.1" width="181" height="95" viewBox="0 0 181 95"><g><g><path d="M22.105001,30.645C24.490002,32.714996,27.370001,35.73,28.540001,37.709999L33.130001,33.659996C31.780001,31.679998,28.720001,28.889999,26.380001,27L22.105001,30.645ZM20.530001,42.57C22.960001,44.639999,25.975,47.654999,27.280001,49.68L31.780001,45.494999C30.340002,43.514999,27.145,40.724998,24.715,38.834999L20.530001,42.57ZM17.110001,24.794998C13.195001,26.369999,7.6600003,27.764999,2.4850000000000003,28.529999C3.1600001,29.924999,3.97,32.129997,4.1950002,33.57L8.6050005,32.985001L8.6050005,37.169998L2.215,37.169998L2.215,43.244999L7.7500005,43.244999C6.2200003,47.16,4.0150001,51.434998,1.67500001,54.18C2.6650001000000003,55.845001,4.0600002,58.59,4.6450002,60.48C6.085,58.59,7.3900003,56.114998,8.6050005,53.369999L8.6050005,67.275002L14.950001,67.275002L14.950001,50.625C15.715,51.974998,16.39,53.325001,16.84,54.360001L20.575001,49.23C19.720001,48.239998,16.120001000000002,44.415001,14.950001,43.379997L14.950001,43.244999L20.485001,43.244999L20.485001,37.169998L14.950001,37.169998L14.950001,31.769999C16.93,31.32,18.865,30.779999,20.665001,30.149998L17.110001,24.794998ZM19.585001,53.369999L20.620001,59.625L33.625,57.239998L33.625,67.230003L40.060001,67.230003L40.060001,56.07L45.100002,55.169998L44.110001,49.004997L40.060001,49.724998L40.060001,24.48L33.625,24.48L33.625,50.849998L19.585001,53.369999ZM65.035004,47.43L65.035004,50.040001L48.294998,50.040001L48.294998,56.025002L65.035004,56.025002L65.035004,60.029999C65.035004,60.615002,64.764999,60.794998,63.864998,60.794998C62.965,60.84,59.41,60.84,56.889999,60.705002C57.880001,62.369999,59.095001,65.160004,59.5,67.004997C63.190002,67.004997,66.205002,66.915001,68.589996,65.970001C70.974998,65.07,71.740005,63.404999,71.740005,60.209999L71.740005,56.025002L88.839996,56.025002L88.839996,50.040001L71.740005,50.040001L71.740005,49.77C75.43,47.834999,78.850006,45.404999,81.505005,42.974998L77.365005,39.689999L76.014999,40.004997L56.620003,40.004997L56.620003,45.629997L68.589996,45.629997C67.464996,46.305,66.205002,46.934998,65.035004,47.43ZM64.04499799999999,26.234997C65.035004,27.809998,66.07,29.834999,66.699997,31.499998L60.355,31.499998L62.110001,30.689999C61.389999,28.98,59.635002,26.639999,58.105,24.93L52.525002,27.404999C53.470001,28.619999,54.505001,30.149998,55.27,31.499998L48.654999,31.499998L48.654999,41.939999L54.775002,41.939999L54.775002,37.214996L82.044998,37.214996L82.044998,41.939999L88.480003,41.939999L88.480003,31.499998L82.404999,31.499998C83.529999,30.059998,84.699997,28.439999,85.824997,26.82L78.985001,24.84C78.175003,26.864998,76.824997,29.43,75.474998,31.499998L70.389999,31.499998L73.315002,30.375C72.730003,28.574997,71.245003,25.965,69.849998,24.074997L64.04499799999999,26.234997ZM124.165,32.714996L124.165,42.75L120.385,42.75L120.385,32.714996L124.165,32.714996ZM110.35,42.75L110.35,48.915001L114.13,48.915001C113.77,54.134998,112.645,60.075001,109.18,63.900002C110.62,64.709999,113.005,66.555,114.085,67.68C118.54,62.955002,119.89,55.529999,120.25,48.915001L124.165,48.915001L124.165,67.275002L130.375,67.275002L130.375,48.915001L134.875,48.915001L134.875,42.75L130.375,42.75L130.375,32.714996L133.97501,32.714996L133.97501,26.639999L111.475,26.639999L111.475,32.714996L114.265,32.714996L114.265,42.75L110.35,42.75ZM92.754997,26.459999L92.754997,32.355L97.074997,32.355C95.995003,37.709999,94.330002,42.705002,91.720001,46.125C92.574997,48.059998,93.654999,52.334999,93.834999,54.09C94.330002,53.504997,94.824997,52.875,95.32,52.200001L95.32,65.114998L100.675003,65.114998L100.675003,61.919998L109.09,61.919998L109.09,40.41L100.989998,40.41C101.845,37.799999,102.565,35.055,103.15,32.355L109.495,32.355L109.495,26.459999L92.754997,26.459999ZM100.675003,46.125L103.555,46.125L103.555,56.205002L100.675003,56.205002L100.675003,46.125ZM152.56,34.650002C148.78,37.305,143.47,39.509998,139.465,40.68L143.605,45.404999C148.105,43.830002,153.685,40.860001,157.69,37.709999L152.56,34.650002ZM159.75999,37.98C164.08,40.004997,169.795,43.244999,172.45,45.449997L177.31,41.535C174.25,39.285,168.355,36.314999,164.215,34.514999L159.75999,37.98ZM151.84,42.254997L151.84,46.035L141.58,46.035L141.58,52.064999L151.435,52.064999C150.39999,55.665001,147.02499,59.220001,137.35001,61.605C138.88,63.044998,140.905,65.43,141.895,67.095001C154.09,63.990002,157.645,57.959999,158.41,52.064999L163.63,52.064999L163.63,58.59C163.63,64.709999,165.16,66.555,170.02,66.555C170.965,66.555,172.63,66.555,173.62,66.555C177.895,66.555,179.515,64.394997,180.10001,56.744999C178.345,56.294998,175.465,55.169998,174.11501,54.044998C173.98001,59.489998,173.8,60.345001,172.94501,60.345001C172.58501,60.345001,171.595,60.345001,171.28,60.345001C170.47,60.345001,170.38,60.119999,170.38,58.5L170.38,46.035L158.59,46.035L158.59,42.254997L151.84,42.254997ZM153.77499,25.649998L154.89999,28.754997L138.565,28.754997L138.565,38.43L145.13499,38.43L145.13499,34.379997L171.55,34.379997L171.55,37.845001L178.48001,37.845001L178.48001,28.754997L162.86501,28.754997C162.37,27.27,161.515,25.424999,160.84,23.984997L153.77499,25.649998Z" fill="#FFFFFF" fill-opacity="1"/></g><g><g><rect x="0" y="88" width="181" height="7" rx="3.5" fill="#FFFFFF" fill-opacity="1"/></g></g></g></svg>