<svg xmlns="http://www.w3.org/2000/svg" xmlns:xlink="http://www.w3.org/1999/xlink" fill="none" version="1.1" width="181" height="95" viewBox="0 0 181 95"><g><g><path d="M22.105001,30.645C24.490002,32.714996,27.370001,35.73,28.540001,37.709999L33.130001,33.659996C31.780001,31.679998,28.720001,28.889999,26.380001,27L22.105001,30.645ZM20.530001,42.57C22.960001,44.639999,25.975,47.654999,27.280001,49.68L31.780001,45.494999C30.340002,43.514999,27.145,40.724998,24.715,38.834999L20.530001,42.57ZM17.110001,24.794998C13.195001,26.369999,7.6600003,27.764999,2.4850000000000003,28.529999C3.1600001,29.924999,3.97,32.129997,4.1950002,33.57L8.6050005,32.985001L8.6050005,37.169998L2.215,37.169998L2.215,43.244999L7.7500005,43.244999C6.2200003,47.16,4.0150001,51.434998,1.67500001,54.18C2.6650001000000003,55.845001,4.0600002,58.59,4.6450002,60.48C6.085,58.59,7.3900003,56.114998,8.6050005,53.369999L8.6050005,67.275002L14.950001,67.275002L14.950001,50.625C15.715,51.974998,16.39,53.325001,16.84,54.360001L20.575001,49.23C19.720001,48.239998,16.120001000000002,44.415001,14.950001,43.379997L14.950001,43.244999L20.485001,43.244999L20.485001,37.169998L14.950001,37.169998L14.950001,31.769999C16.93,31.32,18.865,30.779999,20.665001,30.149998L17.110001,24.794998ZM19.585001,53.369999L20.620001,59.625L33.625,57.239998L33.625,67.230003L40.060001,67.230003L40.060001,56.07L45.100002,55.169998L44.110001,49.004997L40.060001,49.724998L40.060001,24.48L33.625,24.48L33.625,50.849998L19.585001,53.369999ZM79.165001,32.714996L79.165001,42.75L75.385002,42.75L75.385002,32.714996L79.165001,32.714996ZM65.349998,42.75L65.349998,48.915001L69.130005,48.915001C68.770004,54.134998,67.645004,60.075001,64.18,63.900002C65.620003,64.709999,68.005005,66.555,69.084999,67.68C73.540001,62.955002,74.889999,55.529999,75.25,48.915001L79.165001,48.915001L79.165001,67.275002L85.375,67.275002L85.375,48.915001L89.875,48.915001L89.875,42.75L85.375,42.75L85.375,32.714996L88.975006,32.714996L88.975006,26.639999L66.474998,26.639999L66.474998,32.714996L69.264999,32.714996L69.264999,42.75L65.349998,42.75ZM47.755001,26.459999L47.755001,32.355L52.075001,32.355C50.994999,37.709999,49.330002,42.705002,46.720001,46.125C47.575001,48.059998,48.654999,52.334999,48.834999,54.09C49.330002,53.504997,49.825001,52.875,50.32,52.200001L50.32,65.114998L55.674999,65.114998L55.674999,61.919998L64.09,61.919998L64.09,40.41L55.990002,40.41C56.845001,37.799999,57.565002,35.055,58.150002,32.355L64.495003,32.355L64.495003,26.459999L47.755001,26.459999ZM55.674999,46.125L58.555,46.125L58.555,56.205002L55.674999,56.205002L55.674999,46.125ZM97.794998,36.449997C99.099998,39.285,100.315002,43.019997,100.675003,45.314999L107.065,43.334999C106.615,40.904999,105.175,37.394997,103.78,34.695L97.794998,36.449997ZM123.175,34.605C122.455,37.394997,121.06,40.994999,119.8,43.470001L125.56,45.135002C126.91,42.974998,128.62,39.689999,130.19501,36.360001L123.175,34.605ZM92.889999,46.215L92.889999,52.830002L110.08,52.830002L110.08,67.230003L116.92,67.230003L116.92,52.830002L134.245,52.830002L134.245,46.215L116.92,46.215L116.92,33.659996L131.59,33.659996L131.59,27.18L95.32,27.18L95.32,33.659996L110.08,33.659996L110.08,46.215L92.889999,46.215ZM142.795,46.845001L142.795,67.230003L149.5,67.230003L149.5,65.025002L167.14,65.025002L167.14,67.230003L174.205,67.230003L174.205,46.845001L142.795,46.845001ZM149.5,58.724998L149.5,53.099998L167.14,53.099998L167.14,58.724998L149.5,58.724998ZM141.85001,44.279999C144.55,43.379997,148.105,43.290001,171.05499,42.299999C171.91,43.424999,172.63,44.549999,173.17,45.494999L178.705,41.445C176.27499,37.619999,170.83,32.040001,166.87,28.125L161.785,31.544998C163.22501,33.029999,164.755,34.695,166.285,36.449997L150.31,36.855C153.505,33.704998,156.655,30.014999,159.22,26.279999L152.605,23.445C149.77,28.754997,145.045,34.110001,143.515,35.504997C142.03,36.900002,141.03999,37.709999,139.69,38.025002C140.455,39.779999,141.535,43.019997,141.85001,44.279999Z" fill="#FFFFFF" fill-opacity="1"/></g><g><g><rect x="0" y="88" width="181" height="7" rx="3.5" fill="#FFFFFF" fill-opacity="1"/></g></g></g></svg>