<svg xmlns="http://www.w3.org/2000/svg" xmlns:xlink="http://www.w3.org/1999/xlink" fill="none" version="1.1" width="181" height="95" viewBox="0 0 181 95"><g><g><path d="M31.465002,47.834999L36.460003,47.834999C35.965,49.77,35.245003,51.57,34.390003,53.235001C33.220001,51.57,32.230001,49.77,31.465002,47.834999ZM19.09,26.144997L19.09,67.050003L25.570002,67.050003L25.570002,63.990002C26.650002,65.114998,27.685001,66.419998,28.360001,67.5C30.700001,66.330002,32.769999999999996,64.889999,34.57,63.224998C36.370003,64.845001,38.395,66.195,40.690002,67.275002C41.68,65.565002,43.66,62.955002,45.145,61.695C42.760002,60.794998,40.690002,59.580002,38.845001,58.049999C41.41,53.955002,43.030003,48.959999,43.795002,43.064999L39.610001,41.849998L38.485001,42.029999L25.570002,42.029999L25.570002,32.174999L36.010002,32.174999C35.875,34.064999,35.695,35.099998,35.335003,35.459999C34.885002,35.864998,34.435001,35.91,33.580002,35.91C32.590002,35.91,30.340002,35.864998,27.955002,35.684998C28.765001,37.079998,29.530001,39.375,29.575001,40.949997C32.275002,41.040001,34.885002,41.040001,36.505001,40.904999C38.215,40.724998,39.880001,40.364998,41.050003,39.059998C42.175003,37.754997,42.670002,34.829998,42.850002,28.484997C42.895,27.719997,42.940002,26.144997,42.940002,26.144997L19.09,26.144997ZM30.340002,58.41C28.990002,59.669998,27.370001,60.794998,25.570002,61.740002L25.570002,48.825001C26.830002,52.379997,28.405001,55.619999,30.340002,58.41ZM7.7050004,24.524998L7.7050004,32.805L2.4400001,32.805L2.4400001,39.150002L7.7050004,39.150002L7.7050004,45.674999L1.8550000199999999,46.845001L3.2050002,53.549999L7.7050004,52.470001L7.7050004,60.119999C7.7050004,60.84,7.4800005,61.064999,6.7150002,61.064999C6.04,61.064999,3.7900002,61.064999,1.94500005,60.974998C2.8000001,62.73,3.6550002,65.474998,3.8800001,67.184998C7.4800005,67.230003,10.0900002,67.050003,11.98,66.014999C13.825001,65.025002,14.410001,63.360001,14.410001,60.165001L14.410001,50.849998L18.775002,49.724998L17.965,43.334999L14.410001,44.144997L14.410001,39.150002L18.280001,39.150002L18.280001,32.805L14.410001,32.805L14.410001,24.524998L7.7050004,24.524998ZM82.089996,26.189999C80.875,27.809998,79.525002,29.34,78.040001,30.869999L78.040001,28.844997L69.355003,28.844997L69.355003,24.524998L62.875,24.524998L62.875,28.844997L52.705002,28.844997L52.705002,34.110001L62.875,34.110001L62.875,36.764999L48.970001,36.764999L48.970001,42.209999L63.415001,42.209999C58.330002,45.224998,52.885002,47.700001,47.485001,49.5C48.25,50.939999,49.465,53.91,49.825001,55.395C53.380001,54,56.98,52.334999,60.490002,50.489998C59.275002,53.009998,57.834999,55.575001,56.620003,57.555L75.610001,57.555C75.07,59.445,74.485001,60.615002,73.809998,61.064999C73.18,61.470001,72.505005,61.514999,71.514999,61.514999C70.074997,61.514999,66.43,61.424999,63.505001,61.200001C64.720001,62.865002,65.620003,65.385002,65.709999,67.230003C68.815002,67.32,71.695,67.32,73.449997,67.184998C75.925003,67.050003,77.5,66.690002,79.029999,65.339996C80.695,63.855,81.82,60.705002,82.809998,54.945C83.035004,54.09,83.214996,52.334999,83.214996,52.334999L66.25,52.334999L67.510002,49.724998L83.980003,49.724998L83.980003,44.82L69.940002,44.82C71.154999,43.965,72.370003,43.110001,73.540001,42.209999L88.705002,42.209999L88.705002,36.764999L80.065002,36.764999C82.675003,34.334999,85.059998,31.769999,87.130005,29.07L82.089996,26.189999ZM69.355003,36.764999L69.355003,34.110001L74.620003,34.110001C73.584999,35.009998,72.505005,35.91,71.425003,36.764999L69.355003,36.764999ZM127.495,26.055C124.75,27.404999,120.835,28.799999,116.83,29.834999L116.83,24.48L110.305,24.48L110.305,36.449997C110.305,42.345001,112.06,44.189999,118.99001,44.189999C120.385,44.189999,125.29,44.189999,126.775,44.189999C132.31,44.189999,134.155,42.389999,134.92,35.775002C133.16501,35.415001,130.42,34.424999,129.02499,33.434998C128.71001,37.665001,128.35001,38.339996,126.28,38.339996C124.93,38.339996,120.835,38.339996,119.71,38.339996C117.235,38.339996,116.83,38.16,116.83,36.404999L116.83,35.235001C122.005,34.199997,127.675,32.669998,132.31,30.779999L127.495,26.055ZM116.335,58.275002L126.10001,58.275002L126.10001,60.255001L116.335,60.255001L116.335,58.275002ZM116.335,53.279999L116.335,51.434998L126.10001,51.434998L126.10001,53.279999L116.335,53.279999ZM110.17,46.125L110.17,67.275002L116.335,67.275002L116.335,65.385002L126.10001,65.385002L126.10001,67.050003L132.58,67.050003L132.58,46.125L110.17,46.125ZM97.705002,24.524998L97.705002,32.669998L92.485001,32.669998L92.485001,38.699997L97.705002,38.699997L97.705002,45.764999L91.720001,46.98L93.205002,53.235001L97.705002,52.154999L97.705002,60.435001C97.705002,61.064999,97.480003,61.244999,96.849998,61.290001C96.264999,61.290001,94.419998,61.290001,92.845001,61.200001C93.610001,62.865002,94.419998,65.519997,94.599998,67.184998C97.885002,67.184998,100.224998,67.004997,101.935,66.014999C103.645,65.025002,104.14,63.450001,104.14,60.435001L104.14,50.535L109.09,49.275002L108.325,43.290001L104.14,44.279999L104.14,38.699997L108.325,38.699997L108.325,32.669998L104.14,32.669998L104.14,24.524998L97.705002,24.524998ZM155.035,24.974998L155.035,27.809998L138.42999,27.809998L138.42999,33.884998L155.035,33.884998L155.035,36.494999L139.69,36.494999L139.69,67.139999L146.25999,67.139999L146.25999,42.48L153.685,42.48L150.04001,43.514999C150.75999,44.82,151.57001,46.574997,152.02,47.879997L148.645,47.879997L148.645,52.875L155.25999,52.875L155.25999,54.945L147.7,54.945L147.7,60.119999L155.25999,60.119999L155.25999,65.745003L161.425,65.745003L161.425,60.119999L169.21001,60.119999L169.21001,54.945L161.425,54.945L161.425,52.875L168.13,52.875L168.13,47.879997L165.07001,47.879997C165.88,46.709999,166.735,45.269997,167.63501,43.695L163.13499,42.48L170.56,42.48L170.56,60.84C170.56,61.514999,170.29001,61.740002,169.48,61.740002C168.80499,61.785,165.97,61.785,164.125,61.650002C164.935,63.09,165.925,65.474998,166.24001,67.095001C169.84,67.095001,172.54001,67.050003,174.565,66.150002C176.59,65.25,177.31,63.855,177.31,60.884998L177.31,36.494999L162.19,36.494999L162.19,33.884998L178.57001,33.884998L178.57001,27.809998L162.19,27.809998L162.19,24.974998L155.035,24.974998ZM153.955,47.879997L157.645,46.665001C157.19501,45.494999,156.38499,43.830002,155.53,42.48L162.05499,42.48C161.515,44.055,160.52499,46.169998,159.715,47.610001L160.66,47.879997L153.955,47.879997Z" fill="#FFFFFF" fill-opacity="1"/></g><g><g><rect x="0" y="88" width="181" height="7" rx="3.5" fill="#FFFFFF" fill-opacity="1"/></g></g></g></svg>