<svg xmlns="http://www.w3.org/2000/svg" xmlns:xlink="http://www.w3.org/1999/xlink" fill="none" version="1.1" width="181" height="95" viewBox="0 0 181 95"><g><g><path d="M20.035,47.43L20.035,50.040001L3.2950001,50.040001L3.2950001,56.025002L20.035,56.025002L20.035,60.029999C20.035,60.615002,19.765001,60.794998,18.865,60.794998C17.965,60.84,14.410001,60.84,11.89,60.705002C12.88,62.369999,14.095,65.160004,14.500001,67.004997C18.190001,67.004997,21.205,66.915001,23.59,65.970001C25.975,65.07,26.740002,63.404999,26.740002,60.209999L26.740002,56.025002L43.84,56.025002L43.84,50.040001L26.740002,50.040001L26.740002,49.77C30.43,47.834999,33.850002,45.404999,36.505001,42.974998L32.365002000000004,39.689999L31.015001,40.004997L11.620001,40.004997L11.620001,45.629997L23.59,45.629997C22.465,46.305,21.205,46.934998,20.035,47.43ZM19.045,26.234997C20.035,27.809998,21.070002,29.834999,21.700001,31.499998L15.355,31.499998L17.110001,30.689999C16.39,28.98,14.635,26.639999,13.105,24.93L7.5250001,27.404999C8.470000299999999,28.619999,9.5050001,30.149998,10.2700005,31.499998L3.6550002,31.499998L3.6550002,41.939999L9.7750006,41.939999L9.7750006,37.214996L37.045002,37.214996L37.045002,41.939999L43.480003,41.939999L43.480003,31.499998L37.405003,31.499998C38.530003,30.059998,39.700001,28.439999,40.825001,26.82L33.985001,24.84C33.175003,26.864998,31.825001,29.43,30.475,31.499998L25.390001,31.499998L28.315001,30.375C27.730001,28.574997,26.245001,25.965,24.85,24.074997L19.045,26.234997ZM67.105003,30.645C69.490005,32.714996,72.370003,35.73,73.540001,37.709999L78.130005,33.659996C76.779999,31.679998,73.720001,28.889999,71.380005,27L67.105003,30.645ZM65.529999,42.57C67.959999,44.639999,70.974998,47.654999,72.279999,49.68L76.779999,45.494999C75.340004,43.514999,72.145004,40.724998,69.714996,38.834999L65.529999,42.57ZM62.110001,24.794998C58.195,26.369999,52.66,27.764999,47.485001,28.529999C48.16,29.924999,48.970001,32.129997,49.195,33.57L53.605,32.985001L53.605,37.169998L47.215,37.169998L47.215,43.244999L52.75,43.244999C51.220001,47.16,49.014999,51.434998,46.674999,54.18C47.665001,55.845001,49.060001,58.59,49.645,60.48C51.084999,58.59,52.389999,56.114998,53.605,53.369999L53.605,67.275002L59.950001,67.275002L59.950001,50.625C60.715,51.974998,61.389999,53.325001,61.84,54.360001L65.574997,49.23C64.720001,48.239998,61.120003,44.415001,59.950001,43.379997L59.950001,43.244999L65.485001,43.244999L65.485001,37.169998L59.950001,37.169998L59.950001,31.769999C61.93,31.32,63.864998,30.779999,65.665001,30.149998L62.110001,24.794998ZM64.58499900000001,53.369999L65.620003,59.625L78.625,57.239998L78.625,67.230003L85.059998,67.230003L85.059998,56.07L90.100006,55.169998L89.110001,49.004997L85.059998,49.724998L85.059998,24.48L78.625,24.48L78.625,50.849998L64.58499900000001,53.369999ZM104.86,47.294998L121.78,47.294998L121.78,50.040001L104.86,50.040001L104.86,47.294998ZM118.9,32.534996C118.63,33.57,118.27,34.739998,117.86501,35.864998L109.09,35.864998C108.775,34.784996,108.28,33.57,107.65,32.534996L118.9,32.534996ZM109.54,25.469997L110.08,26.954998L95.184998,26.954998L95.184998,32.534996L105.895,32.534996L101.305,33.75C101.62,34.379997,101.935,35.144997,102.205,35.864998L93.25,35.864998L93.25,41.084999L133.795,41.084999L133.795,35.864998L124.61501,35.864998L125.605,33.525002L120.565,32.534996L131.86,32.534996L131.86,26.954998L117.235,26.954998C116.92,26.009998,116.515,25.064999,116.11,24.254997L109.54,25.469997ZM98.559998,42.074997L98.559998,55.259998L104.95,55.259998C103.915,58.455002,101.35,60.48,92.125,61.695C93.339996,63.044998,94.915001,65.699997,95.455002,67.32C107.2,65.160004,110.44,61.200001,111.655,55.259998L115.03,55.259998L115.03,59.355C115.03,64.665001,116.38,66.464996,122.275,66.464996C123.4,66.464996,126.325,66.464996,127.495,66.464996C132.04001,66.464996,133.705,64.754997,134.33501,58.23C132.625,57.825001,129.88,56.834999,128.62,55.845001C128.44,60.165001,128.17000000000002,60.794998,126.86501,60.794998C126.055,60.794998,123.895,60.794998,123.265,60.794998C121.78,60.794998,121.555,60.66,121.555,59.264999L121.555,55.259998L128.53,55.259998L128.53,42.074997L98.559998,42.074997ZM159.175,61.424999C164.8,62.955002,172.72,65.610001,176.545,67.410004L180.10001,62.865002C177.625,61.830002,173.89,60.615002,170.11,59.489998L173.125,59.489998L173.125,53.325001C174.16,53.82,175.19501,54.224998,176.27499,54.584999C177.13,53.055,178.92999,50.759998,180.28,49.59C177.76001,49.049999,175.285,48.195,173.035,47.16L178.57001,47.16L178.57001,42.794998L167.95,42.794998L167.95,41.625L173.44,41.625L173.44,38.474998L167.95,38.474998L167.95,37.214996L173.66501,37.214996L173.66501,35.144997L178.345,35.144997L178.345,27L162.91,27C162.55,25.919998,161.965,24.704998,161.425,23.759998L154.855,25.469997L155.485,27L138.745,27L138.745,35.144997L143.64999,35.144997L143.64999,37.214996L149.14,37.214996L149.14,38.474998L144.05499,38.474998L144.05499,41.625L149.14,41.625L149.14,42.794998L138.655,42.794998L138.655,47.16L145.81,47.16C143.2,48.645,140.005,49.860001,136.765,50.580002C138.02499,51.705002,139.735,53.91,140.545,55.305C142.12,54.809998,143.69501,54.18,145.22501,53.415001L145.22501,59.985001L150.715,59.985001C148.06,61.064999,144.00999,61.785,137.62,62.279999C138.61,63.494999,139.78,65.699997,140.14,67.095001C155.935,65.339996,160.345,61.695,162.37,54.764999L155.935,54.764999C155.125,56.924999,154,58.59,151.12,59.805L151.12,53.82L166.96001,53.82L166.96001,58.59L162.46001,57.465L159.175,61.424999ZM161.875,32.445L161.875,33.839996L155.125,33.839996L155.125,32.445L149.14,32.445L149.14,33.839996L144.685,33.839996L144.685,31.814999L172.13501,31.814999L172.13501,33.839996L167.95,33.839996L167.95,32.445L161.875,32.445ZM155.125,37.214996L161.875,37.214996L161.875,38.474998L155.125,38.474998L155.125,37.214996ZM155.125,41.625L161.875,41.625L161.875,42.794998L155.125,42.794998L155.125,41.625ZM153.64,47.16L164.485,47.16C165.16,47.879997,165.88,48.555,166.645,49.184998L151.57001,49.184998C152.29001,48.555,153.00999,47.879997,153.64,47.16Z" fill="#FFFFFF" fill-opacity="1"/></g><g><g><rect x="0" y="88" width="181" height="7" rx="3.5" fill="#FFFFFF" fill-opacity="1"/></g></g></g></svg>