<svg xmlns="http://www.w3.org/2000/svg" xmlns:xlink="http://www.w3.org/1999/xlink" fill="none" version="1.1" width="181" height="95" viewBox="0 0 181 95"><g><g><path d="M19.045,24.524998C18.820002,32.625,19.990002,51.84,1.9000000400000001,61.875C4.105,63.360001,6.2200003,65.474998,7.3900003,67.230003C15.985001,61.919998,20.710001,54.494999,23.275002,47.114998C26.02,54.450001,31.060001,62.369999,40.510002,66.915001C41.455002,65.07,43.300003,62.82,45.325001,61.244999C29.755001,54.314999,26.920002,38.43,26.245001,32.040001C26.470001,29.16,26.560001,26.594997,26.605001,24.524998L19.045,24.524998ZM72.190002,24.57L72.190002,33.254997L48.700001,33.254997L48.700001,40.004997L65.349998,40.004997C60.849998,46.934998,54.279999,53.369999,47.125,56.924999C49.014999,58.455002,51.220001,60.974998,52.435001,62.865002C60.130001,58.185001,67.375,50.264999,72.190002,42.029999L72.190002,58.994999C72.190002,59.849998,71.830002,60.119999,70.885002,60.165001C69.940002,60.165001,66.654999,60.165001,64.04499799999999,59.985001C64.990002,61.919998,66.025002,65.025002,66.294998,67.004997C70.794998,67.004997,74.125,66.824997,76.419998,65.745003C78.714996,64.709999,79.479996,62.91,79.479996,59.040001L79.479996,40.004997L88.615005,40.004997L88.615005,33.254997L79.479996,33.254997L79.479996,24.57L72.190002,24.57ZM109.63,49.724998L109.63,67.230003L115.525,67.230003L115.525,65.925003L125.2,65.925003L125.2,67.050003L131.41,67.050003L131.41,49.724998L109.63,49.724998ZM115.525,60.209999L115.525,55.439999L125.2,55.439999L125.2,60.209999L115.525,60.209999ZM124.705,35.099998C124.255,37.169998,123.4,39.689999,122.635,41.625L114.4,41.625L117.82,40.544998C117.55,39.059998,116.92,36.855,116.11,35.099998L124.705,35.099998ZM116.515,25.244999C116.875,26.504997,117.19,28.035,117.415,29.384998L108.01,29.384998L108.01,35.099998L114.355,35.099998L110.62,36.18C111.25,37.845001,111.925,40.004997,112.15,41.625L106.345,41.625L106.345,47.43L134.875,47.43L134.875,41.625L128.485,41.625C129.205,39.959999,130.015,37.98,130.78,35.954998L127.09,35.099998L133.21001,35.099998L133.21001,29.384998L123.67,29.384998C123.4,27.855,122.905,25.829998,122.36501,24.299999L116.515,25.244999ZM91.945,55.665001L93.925003,62.369999C97.974998,60.66,102.97,58.544998,107.605,56.474998L106.39,50.489998L102.385,51.974998L102.385,41.309998L106.345,41.309998L106.345,35.144997L102.385,35.144997L102.385,25.199997L96.580002,25.199997L96.580002,35.144997L92.440002,35.144997L92.440002,41.309998L96.580002,41.309998L96.580002,54.09L91.945,55.665001ZM161.515,50.580002L161.515,67.184998L168.44501,67.184998L168.44501,52.875C170.69501,54.360001,173.17,55.529999,175.87,56.384998C176.77,54.720001,178.705,52.154999,180.10001,50.895C176.67999,50.129997,173.485,48.869999,170.875,47.294998L178.39,47.294998L178.39,42.074997L158.14,42.074997L158.95,40.544998L174.205,40.544998L174.205,35.549999L161.065,35.549999L161.56,34.110001L176.86,34.110001L176.86,28.98L169.97501,28.98L171.91,25.559998L164.89,24.119999C164.485,25.559998,163.58501,27.539997,162.86501,28.98L152.065,28.98L154.72,28.125C154.27,26.91,153.235,25.244999,152.155,24.119999L146.30499,25.739998C147.02499,26.684998,147.745,27.899998,148.19501,28.98L140.36501,28.98L140.36501,34.110001L154.81,34.110001L154.22501,35.549999L142.795,35.549999L142.795,40.544998L151.345,40.544998L150.13,42.074997L138.47501,42.074997L138.47501,47.294998L143.965,47.294998C141.985,48.465,139.735,49.455002,137.25999,50.174999C138.745,51.614998,140.72501,54.314999,141.715,56.07C144.00999,55.259998,146.08,54.27,147.97,53.099998L147.97,53.549999C147.97,56.294998,146.98,59.939999,139.55499,62.189999C140.995,63.360001,143.11,65.879997,143.965,67.455002C153.235,64.214996,154.63,58.23,154.63,53.82L154.63,50.489998L151.52499,50.489998C152.64999,49.5,153.685,48.465,154.63,47.294998L162.325,47.294998C163.27,48.465,164.35001,49.59,165.47501,50.580002L161.515,50.580002Z" fill="#FFFFFF" fill-opacity="1"/></g><g><g><rect x="0" y="88" width="181" height="7" rx="3.5" fill="#FFFFFF" fill-opacity="1"/></g></g></g></svg>