<svg xmlns="http://www.w3.org/2000/svg" xmlns:xlink="http://www.w3.org/1999/xlink" fill="none" version="1.1" width="181" height="95" viewBox="0 0 181 95"><g><g><path d="M6.7600002,24.57L6.7600002,32.759998L2.5300001,32.759998L2.5300001,38.744999L6.7600002,38.744999L6.7600002,45.674999L1.76500005,46.754997L3.115,53.009998L6.7600002,52.064999L6.7600002,60.165001C6.7600002,60.75,6.5800004,60.93,6.04,60.93C5.5,60.93,3.97,60.93,2.575,60.84C3.385,62.685001,4.1500001,65.519997,4.2850000999999995,67.275002C7.3000002,67.275002,9.415,67.004997,11.035001,65.925003C12.655001,64.889999,13.105,63.134998,13.105,60.165001L13.105,50.355L17.785,49.049999L16.975,43.199997L13.105,44.189999L13.105,38.744999L17.785,38.744999L17.785,32.759998L13.105,32.759998L13.105,24.57L6.7600002,24.57ZM19.720001,47.879997L19.720001,67.275002L26.02,67.275002L26.02,65.565002L36.415001,65.565002L36.415001,67.095001L43.030003,67.095001L43.030003,47.879997L19.720001,47.879997ZM26.02,59.759998L26.02,53.684998L36.415001,53.684998L36.415001,59.759998L26.02,59.759998ZM18.685001,26.639999L18.685001,32.534996L24.265001,32.534996C23.725,36.900002,22.240002,40.23,16.750000999999997,42.48C18.145,43.650002,19.900002,46.035,20.575001,47.654999C27.955002,44.324997,30.070002,39.195,30.835001,32.534996L37.225002,32.534996C37,37.439999,36.775002,39.509998,36.235001,40.139999C35.830002,40.589996,35.425003,40.724998,34.795002,40.724998C33.985001,40.724998,32.545002,40.68,30.925001,40.544998C31.960001,42.165001,32.68,44.775002,32.769999999999996,46.709999C34.93,46.709999,36.955002,46.665001,38.215,46.439999C39.655003,46.215,40.780003,45.720001,41.815002,44.369999C43.030003,42.84,43.390003,38.610001,43.705002,29.024998C43.75,28.259998,43.75,26.639999,43.75,26.639999L18.685001,26.639999ZM54.595001,24.974998C53.064999,31.049999,50.185001,37.214996,46.720001,40.904999C48.384998,41.805,51.310001,43.739998,52.615002,44.864998C53.965,43.199997,55.27,41.084999,56.529999,38.744999L65.169998,38.744999L65.169998,45.629997L53.514999,45.629997L53.514999,51.93L65.169998,51.93L65.169998,59.669998L48.16,59.669998L48.16,66.059998L89.110001,66.059998L89.110001,59.669998L72.010002,59.669998L72.010002,51.93L84.925003,51.93L84.925003,45.629997L72.010002,45.629997L72.010002,38.744999L86.725006,38.744999L86.725006,32.355L72.010002,32.355L72.010002,24.524998L65.169998,24.524998L65.169998,32.355L59.41,32.355C60.174999,30.419998,60.849998,28.484997,61.389999,26.504997L54.595001,24.974998ZM105.22,45.584999L105.22,62.279999L121.015,62.279999C121.645,63.674999,122.185,65.474998,122.41,66.779999C125.83,66.824997,128.39499999999998,66.735001,130.285,65.879997C132.22,64.980003,132.80499,63.540001,132.80499,60.615002L132.80499,37.889999L125.605,37.889999L130.60001,35.549999C130.285,34.784996,129.745,33.839996,129.16,32.894997L134.29001,32.894997L134.29001,27.629997L123.265,27.629997L123.895,25.739998L117.775,24.299999C116.92,27.27,115.435,30.329998,113.59,32.625L113.59,27.629997L104.23,27.629997L105.04,25.785L98.964996,24.164997C97.480003,28.035,94.824997,32.040001,91.900002,34.514999C93.385002,35.279999,95.995003,36.945,97.209999,37.98C98.559998,36.629997,99.955002,34.875,101.215,32.894997L102.16,32.894997C103.195,34.739998,104.23,36.855,104.635,38.25L110.215,35.864998C109.9,35.009998,109.36,33.974998,108.775,32.894997L113.36501,32.894997L112.24001,34.110001C113.725,34.875,116.335,36.540001,117.55,37.574997C118.675,36.314999,119.8,34.695,120.79,32.894997L122.185,32.894997C123.265,34.605,124.39,36.494999,124.93,37.889999L107.11,37.889999L107.11,43.650002L126.37,43.650002L126.37,60.57C126.37,61.200001,126.145,61.380001,125.425,61.380001C125.02,61.424999,123.715,61.424999,122.41,61.380001L122.41,45.584999L105.22,45.584999ZM116.65,56.07L116.65,57.599998L110.665,57.599998L110.665,56.07L116.65,56.07ZM110.665,50.264999L116.65,50.264999L116.65,51.75L110.665,51.75L110.665,50.264999ZM96.985001,39.464996C98.065002,40.544998,99.279999,41.849998,100.224998,43.110001L94.510002,43.110001L94.510002,67.230003L100.900002,67.230003L100.900002,44.055L101.575,45.18L106.66,41.625C105.715,40.004997,103.555,37.754997,101.755,36.224998L96.985001,39.464996ZM148.87,50.849998L167.86,50.849998L167.86,52.334999L148.87,52.334999L148.87,50.849998ZM148.87,45.404999L167.86,45.404999L167.86,46.889999L148.87,46.889999L148.87,45.404999ZM142.48,41.174999L142.48,56.564999L154.89999,56.564999L154.89999,58.005001L137.89,58.005001L137.89,63.134998L154.89999,63.134998L154.89999,67.275002L161.83,67.275002L161.83,63.134998L179.245,63.134998L179.245,58.005001L161.83,58.005001L161.83,56.564999L174.565,56.564999L174.565,41.174999L142.48,41.174999ZM163.72,32.174999C163.54001,33.029999,163.17999,34.064999,162.86501,34.964996L154.27,34.964996C153.955,34.064999,153.595,33.074997,153.19,32.174999L163.72,32.174999ZM154.22501,25.244999L154.855,27.134998L140.905,27.134998L140.905,32.174999L149.86,32.174999L146.53,32.805L147.25,34.964996L138.11501,34.964996L138.11501,40.049999L178.84,40.049999L178.84,34.964996L169.88501,34.964996L170.875,32.669998L167.5,32.174999L176.36501,32.174999L176.36501,27.134998L162.05499,27.134998C161.69501,26.099998,161.245,24.93,160.84,23.984997L154.22501,25.244999Z" fill="#FFFFFF" fill-opacity="1"/></g><g><g><rect x="0" y="88" width="181" height="7" rx="3.5" fill="#FFFFFF" fill-opacity="1"/></g></g></g></svg>