<svg xmlns="http://www.w3.org/2000/svg" xmlns:xlink="http://www.w3.org/1999/xlink" fill="none" version="1.1" width="680" height="178" viewBox="0 0 680 178"><defs><filter id="master_svg0_60_13178" filterUnits="objectBoundingBox" color-interpolation-filters="sRGB" x="-0.03076923076923077" y="-0.13793103448275862" width="1.0615384615384615" height="1.2758620689655173"><feFlood flood-opacity="0" result="BackgroundImageFix"/><feColorMatrix in="SourceAlpha" type="matrix" values="0 0 0 0 0 0 0 0 0 0 0 0 0 0 0 0 0 0 127 0"/><feOffset dy="0" dx="0"/><feGaussianBlur stdDeviation="5"/><feColorMatrix type="matrix" values="0 0 0 0 0 0 0 0 0 0 0 0 0 0 0 0 0 0 0.10000000149011612 0"/><feBlend mode="normal" in2="BackgroundImageFix" result="effect1_dropShadow"/><feBlend mode="normal" in="SourceGraphic" in2="effect1_dropShadow" result="shape"/></filter></defs><g><g filter="url(#master_svg0_60_13178)"><rect x="15" y="18" width="650" height="145" rx="10" fill="#FFFFFF" fill-opacity="1"/><rect x="15.5" y="18.5" width="649" height="144" rx="9.5" fill-opacity="0" stroke-opacity="1" stroke="#E7E7E7" fill="none" stroke-width="1"/></g><g><rect x="29" y="0" width="254" height="76" rx="38" fill="#F37D03" fill-opacity="1"/></g><g><path d="M74.83,37.690000999999995C74.38,40.360001,73.4499998,43.060001,72.1599998,44.769999999999996C72.9399996,45.190000999999995,74.26,46.059999000000005,74.889999,46.540001000000004C76.24,44.559999000000005,77.38,41.440000999999995,78.009999,38.32L74.83,37.690000999999995ZM68.0799999,26.5L68.0799999,33.58L65.17,33.58L65.17,36.91L68.0799999,36.91L68.0799999,54.669998L71.5299997,54.669998L71.5299997,36.91L74.38,36.91L74.38,33.58L71.5299997,33.58L71.5299997,26.5L68.0799999,26.5ZM79.719999,26.68L79.719999,32.08L75.19,32.08L75.19,35.559999000000005L79.66,35.559999000000005C79.45,40.989999999999995,78.19,47.470000999999996,72.3400002,52.240002C73.1799994,52.75,74.469999,53.950001,75.07,54.73C81.58,49.27,82.869999,41.769999999999996,83.109999,35.559999000000005L85.869999,35.559999000000005C85.689999,45.700001,85.42,49.630001,84.73,50.5C84.43,50.889999,84.129999,51.009998,83.65,51.009998C82.99,51.009998,81.639999,51.009998,80.17,50.860001C80.77,51.849998,81.190001,53.32,81.25,54.34C82.779999,54.369999,84.34,54.400002,85.33,54.220001C86.379999,54.009998,87.1,53.709999,87.82,52.630001C88.629999,51.52,88.959999,48.369999,89.17,40.66C89.769999,43.060001,90.279999,45.610001,90.49,47.290001000000004L93.609999,46.480000000000004C93.25,44.290001000000004,92.32,40.540001000000004,91.44999899999999,37.720000999999996L89.26,38.17L89.35,33.700001C89.35,33.25,89.35,32.08,89.35,32.08L83.139999,32.08L83.139999,26.68L79.719999,26.68ZM101.470001,33.460001L101.470001,36.490002000000004L116.5,36.490002000000004L116.5,33.460001L101.470001,33.460001ZM106.18,41.739999999999995L111.82,41.739999999999995L111.82,45.91L106.18,45.91L106.18,41.739999999999995ZM102.880001,38.769999999999996L102.880001,50.889999L106.18,50.889999L106.18,48.880001L115.150002,48.880001L115.150002,38.769999999999996L102.880001,38.769999999999996ZM96.25,27.940001000000002L96.25,54.700001L99.759998,54.700001L99.759998,31.33L118.26999699999999,31.33L118.26999699999999,50.529999C118.26999699999999,51.009998,118.09,51.189999,117.549999,51.220001C117.04000099999999,51.25,115.299999,51.25,113.70999900000001,51.16C114.25,52.09,114.79000099999999,53.740002,114.939999,54.700001C117.45999900000001,54.73,119.110001,54.610001,120.279999,54.040001C121.41999799999999,53.470001,121.80999800000001,52.419998,121.80999800000001,50.560001L121.80999800000001,27.940001000000002L96.25,27.940001000000002ZM148.269997,27.1L148.269997,50.470001C148.269997,51.040001,148.029999,51.220001,147.43,51.25C146.83000199999998,51.25,144.82,51.25,142.900002,51.16C143.41000400000001,52.119999,143.949997,53.650002,144.129997,54.639999C146.949997,54.639999,148.900002,54.549999,150.16000400000001,53.98C151.389999,53.439999,151.83999599999999,52.509998,151.83999599999999,50.470001L151.83999599999999,27.1L148.269997,27.1ZM142.510002,29.950001L142.510002,46.989999999999995L145.95999899999998,46.989999999999995L145.95999899999998,29.950001L142.510002,29.950001ZM129.58000199999998,37.42L129.45999899999998,37.42C131.16999800000002,35.769999999999996,132.699997,33.85,133.989998,31.75C135.610001,33.610001,137.32,35.68,138.519997,37.42L129.58000199999998,37.42ZM132.91000400000001,26.440001000000002C131.32,30.280001,128.16999800000002,34.33,124.509998,36.790001000000004C125.29000099999999,37.389999,126.52000000000001,38.68,127.09,39.459998999999996L128.019997,38.709998999999996L128.019997,49.720001C128.019997,53.23,129.099998,54.189999,132.639999,54.189999C133.389999,54.189999,136.66000400000001,54.189999,137.470001,54.189999C140.559998,54.189999,141.489998,52.93,141.879997,48.669998C140.949997,48.459999,139.54000100000002,47.92,138.79000100000002,47.35C138.610001,50.529999,138.400002,51.130001,137.16999800000002,51.130001C136.389999,51.130001,133.720001,51.130001,133.08999599999999,51.130001C131.70999899999998,51.130001,131.5,50.950001,131.5,49.720001L131.5,40.510000000000005L136.269997,40.510000000000005C136.08999599999999,43.09,135.879997,44.200001,135.610001,44.559999000000005C135.370003,44.799999,135.129997,44.860001,134.739998,44.860001C134.29000100000002,44.860001,133.41999800000002,44.860001,132.43,44.739999999999995C132.91000400000001,45.58,133.239998,46.84,133.300003,47.769999999999996C134.58999599999999,47.799999,135.82,47.769999999999996,136.54000100000002,47.68C137.349998,47.559999000000005,137.979996,47.32,138.550003,46.66C139.239998,45.82,139.57,43.630001,139.779999,38.650002L139.779999,38.530001L142.08999599999999,36.369999C140.739998,34.33,137.91999800000002,31.210001,135.639999,28.780001L136.20999899999998,27.490000000000002L132.91000400000001,26.440001000000002ZM157.389999,45.25C156.82,46.869999,155.889999,48.580002,154.779999,49.720001C155.440002,50.139999,156.58000199999998,50.98,157.120003,51.43C158.29000100000002,50.080002,159.45999899999998,47.950001,160.18,45.970000999999996L157.389999,45.25ZM164.62,46.269999999999996C165.45999999999998,47.65,166.48000000000002,49.57,166.95999999999998,50.77L169.39,49.299999C169.06,50.32,168.61,51.310001,168.04000000000002,52.18C168.79000000000002,52.57,170.23000000000002,53.68,170.8,54.310001C173.41,50.529999,173.76999999999998,44.380001,173.76999999999998,39.970000999999996L173.76999999999998,39.760000000000005L176.74,39.760000000000005L176.74,54.549999L180.22,54.549999L180.22,39.760000000000005L183.04000000000002,39.760000000000005L183.04000000000002,36.43L173.76999999999998,36.43L173.76999999999998,31.720001C176.74,31.18,179.86,30.4,182.35,29.440001000000002L179.56,26.77C177.37,27.790001,173.74,28.780001,170.44,29.380001L170.44,39.970000999999996C170.44,42.82,170.35,46.269999999999996,169.39,49.240002C168.88,48.07,167.89,46.299999,166.95999999999998,44.980000000000004L164.62,46.269999999999996ZM160.059998,32.41L164.53,32.41C164.23000000000002,33.519999999999996,163.690002,35.08,163.239998,36.190000999999995L159.699997,36.190000999999995L161.139999,35.800001C160.989998,34.870001,160.599998,33.460001,160.059998,32.41ZM159.849998,27.1C160.150002,27.82,160.480003,28.690001000000002,160.75,29.5L155.58999599999999,29.5L155.58999599999999,32.41L159.66999800000002,32.41L157.18,33.010000000000005C157.599998,33.970000999999996,157.93,35.230000000000004,158.08000199999998,36.190000999999995L155.139999,36.190000999999995L155.139999,39.130001L160.870003,39.130001L160.870003,41.440000999999995L155.32,41.440000999999995L155.32,44.470000999999996L160.870003,44.470000999999996L160.870003,50.860001C160.870003,51.16,160.779999,51.25,160.449997,51.25C160.120003,51.25,159.16000400000001,51.25,158.260002,51.220001C158.68,52.060001,159.099998,53.32,159.220001,54.16C160.83999599999999,54.16,162.04000100000002,54.130001,162.940002,53.650002C163.870003,53.139999,164.11,52.360001,164.11,50.919998L164.11,44.470000999999996L169.09,44.470000999999996L169.09,41.440000999999995L164.11,41.440000999999995L164.11,39.130001L169.6,39.130001L169.6,36.190000999999995L166.45,36.190000999999995C166.87,35.230000000000004,167.35,34.059999000000005,167.8,32.890001L165.22,32.41L169.12,32.41L169.12,29.5L164.35,29.5C164.01999999999998,28.509999999999998,163.510002,27.280001,163.059998,26.35L159.849998,27.1ZM197.02,26.5L197.02,31.720001L186.64,31.720001L186.64,46.93L190.24,46.93L190.24,45.280001L197.02,45.280001L197.02,54.669998L200.83,54.669998L200.83,45.280001L207.64,45.280001L207.64,46.780001L211.42,46.780001L211.42,31.720001L200.83,31.720001L200.83,26.5L197.02,26.5ZM190.24,41.739999999999995L190.24,35.260000000000005L197.02,35.260000000000005L197.02,41.739999999999995L190.24,41.739999999999995ZM207.64,41.739999999999995L200.83,41.739999999999995L200.83,35.260000000000005L207.64,35.260000000000005L207.64,41.739999999999995ZM222.82001,35.110001L222.82001,49.060001C222.82001,52.900002,223.92999,54.099998,227.83,54.099998C228.61,54.099998,232.03,54.099998,232.87,54.099998C236.56,54.099998,237.55,52.299999,237.97,46.6C236.98,46.360001,235.42,45.700001,234.58,45.07C234.37,49.779999,234.10001,50.740002,232.57001,50.740002C231.78999,50.740002,228.97,50.740002,228.28,50.740002C226.84,50.740002,226.60001,50.529999,226.60001,49.060001L226.60001,35.110001L222.82001,35.110001ZM217.39,36.85C217.03,40.900002,216.16,45.4,215.08,48.580002L218.74001,50.080002C219.75999,46.66,220.50999,41.440000999999995,220.92999,37.540001000000004L217.39,36.85ZM236.11,37.269999999999996C237.7,40.810001,239.23,45.58,239.70999,48.639999L243.37,47.139999C242.74001,44.019999999999996,241.17999,39.459998999999996,239.47,35.890001L236.11,37.269999999999996ZM223.87,29.41C226.66,31.300001,230.38,34.18,232.03,36.040001000000004L234.67,33.220000999999996C232.87,31.360001,229.06,28.690001000000002,226.3,26.980001L223.87,29.41Z" fill="#FFFFFF" fill-opacity="1"/></g><g><g><path d="M52,92.4799995C51.6800003,94.495999,51.1360006,96.464,50.3520002,98.016L50.3520002,96.73599899999999L49.1360002,96.73599899999999C49.8240004,95.679999,50.4160004,94.511999,50.9120007,93.263999L49.5040002,92.8639994C49.2000003,93.6799994,48.8320003,94.447999,48.4160004,95.183999L48.4160004,94.063999L46.6080003,94.063999L46.6080003,92.4959993L45.2,92.4959993L45.2,94.063999L43.2160001,94.063999L43.2160001,95.36L45.2,95.36L45.2,96.73599899999999L42.57600003,96.73599899999999L42.57600003,98.048L46.3200002,98.048C46,98.415999,45.6480002,98.752,45.2800002,99.072L43.9360001,99.072L43.9360001,100.112C43.4560001,100.44800000000001,42.94400007,100.751999,42.41600001,101.024C42.72000003,101.29599999999999,43.248,101.872,43.4560001,102.176001C44.4000001,101.632,45.2800002,100.992001,46.0960002,100.271999L47.4720001,100.271999C46.9760003,100.751999,46.4000001,101.232,45.8880002,101.584L45.8880002,102.639999L42.54400003,102.927999L42.70400006,104.288L45.8880002,103.968L45.8880002,105.808001C45.8880002,105.983999,45.8240001,106.032,45.6160002,106.032C45.3920002,106.048,44.72,106.048,43.9840001,106.032C44.1920002,106.4,44.3840001,106.944,44.4480002,107.327999C45.4560001,107.327999,46.1760001,107.312,46.6880002,107.104C47.1680002,106.896,47.3120003,106.52799999999999,47.3120003,105.84L47.3120003,103.823999L50.448,103.504L50.448,102.208L47.3120003,102.511999L47.3120003,101.872C48.1440001,101.279999,48.9920001,100.511999,49.6480002,99.775999C49.9840002,100.048,50.4000006,100.416,50.592,100.62400099999999C50.928000499999996,100.175999,51.2480001,99.664,51.5360003,99.087999C51.8720007,100.52799999999999,52.288,101.855999,52.832001,103.024C51.9520006,104.304001,50.7680006,105.29599999999999,49.1680002,106.032C49.4560003,106.351999,49.9040003,107.056,50.0480003,107.408001C51.552,106.639999,52.72,105.68,53.632001,104.511999C54.400001,105.695999,55.344001,106.656,56.512001,107.360001C56.752001,106.944,57.232,106.351999,57.584001,106.048C56.336,105.392,55.344001,104.368,54.576,103.087999C55.504001,101.392,56.064001,99.344,56.432001,96.848L57.440001,96.848L57.440001,95.455999L52.912001000000004,95.455999C53.152,94.575999,53.360001,93.6639996,53.519999999999996,92.7359991L52,92.4799995ZM47.3120003,99.072C47.6160002,98.752,47.9040003,98.4,48.1920004,98.048L50.3360004,98.048C50.079999900000004,98.559999,49.7920003,99.007999,49.4880004,99.424L48.9120002,98.992L48.6400003,99.072L47.3120003,99.072ZM46.6080003,95.36L48.3200002,95.36C48.0320001,95.839999,47.7280002,96.304,47.4080005,96.73599899999999L46.6080003,96.73599899999999L46.6080003,95.36ZM54.880001,96.848C54.64,98.591999,54.272,100.096001,53.728001,101.37599900000001C53.168,100.015999,52.784,98.48,52.512,96.848L54.880001,96.848ZM69.52,100.431999L69.52,101.47200000000001L62.560001,101.47200000000001L62.560001,100.431999L69.52,100.431999ZM61.056,99.184L61.056,107.360001L62.560001,107.360001L62.560001,104.672001L69.52,104.672001L69.52,105.775999C69.52,106.048,69.408001,106.128,69.08800099999999,106.14399900000001C68.78399999999999,106.16,67.52,106.16,66.416,106.112C66.62400099999999,106.464001,66.832001,106.976,66.912001,107.344C68.48,107.344,69.52,107.360001,70.176001,107.167999C70.816002,106.959999,71.056,106.608,71.056,105.792L71.056,99.184L61.056,99.184ZM62.560001,102.54400100000001L69.52,102.54400100000001L69.52,103.584L62.560001,103.584L62.560001,102.54400100000001ZM64.799999,92.7519989L65.440001,93.9839993L58.944,93.9839993L58.944,95.327999L62.832001000000005,95.327999C62.111999999999995,95.936,61.440000999999995,96.415999,61.167998999999995,96.608C60.752001,96.879999,60.416,97.072,60.08,97.12C60.256001,97.55199999999999,60.495999999999995,98.32,60.576,98.656C61.200001,98.415999,62.096001,98.384,70.063999,97.92C70.496,98.32,70.880001,98.688,71.167999,98.976L72.416,98.096C71.648001,97.36,70.256001,96.224,69.136002,95.327999L73.08800099999999,95.327999L73.08800099999999,93.9839993L67.232,93.9839993C66.976002,93.4719992,66.608002,92.8319998,66.304001,92.3359995L64.799999,92.7519989ZM67.535999,95.728L68.752001,96.768L62.912001000000004,97.03999999999999C63.648001,96.544,64.384001,95.952,65.08800099999999,95.327999L68.176001,95.327999L67.535999,95.728ZM83.903999,93.3119993L83.903999,107.29599999999999L85.248001,107.29599999999999L85.248001,94.672L87.487999,94.672C87.071999,95.903999,86.496002,97.599999,85.968002,98.864C87.312,100.24,87.68,101.424,87.68,102.368C87.695999,102.912001,87.584,103.37599900000001,87.29600099999999,103.55199999999999C87.120003,103.648001,86.896,103.695999,86.672001,103.712C86.384003,103.728001,85.984001,103.728001,85.56800100000001,103.68C85.807999,104.096001,85.936001,104.70400000000001,85.952,105.104C86.416,105.120001,86.896,105.120001,87.26400000000001,105.072001C87.664001,105.024,88.015999,104.912001,88.304001,104.719999C88.848,104.336,89.071999,103.55199999999999,89.071999,102.52799999999999C89.071999,101.439999,88.78399999999999,100.175999,87.408001,98.688C88.048,97.247999,88.768002,95.407999,89.312,93.9039993L88.271999,93.2479992L88.048,93.3119993L83.903999,93.3119993ZM77.792,92.7839994C78,93.2479992,78.22399899999999,93.8239994,78.383999,94.32L75.200001,94.32L75.200001,95.695999L80.688,95.695999C80.448002,96.575999,80.015999,97.792,79.616001,98.639999L77.26400000000001,98.639999L78.416,98.32C78.256001,97.599999,77.855999,96.544,77.408001,95.728L76.112,96.063999C76.495998,96.879999,76.896,97.92,77.024002,98.639999L74.751999,98.639999L74.751999,100.015999L83.183998,100.015999L83.183998,98.639999L81.071999,98.639999C81.44000199999999,97.872,81.84,96.896,82.192001,96.032L80.751999,95.695999L82.83200099999999,95.695999L82.83200099999999,94.32L79.984001,94.32C79.792,93.7599993,79.456001,93.0079994,79.16799900000001,92.3999996L77.792,92.7839994ZM75.599998,101.344L75.599998,107.280001L77.024002,107.280001L77.024002,106.52799999999999L81.007999,106.52799999999999L81.007999,107.167999L82.512001,107.167999L82.512001,101.344L75.599998,101.344ZM77.024002,105.200001L77.024002,102.70400000000001L81.007999,102.70400000000001L81.007999,105.200001L77.024002,105.200001ZM102.015999,96.848L106.639999,96.848L106.639999,97.679999L102.015999,97.679999L102.015999,96.848ZM102.015999,98.719999L106.639999,98.719999L106.639999,99.568L102.015999,99.568L102.015999,98.719999ZM102.015999,94.976L106.639999,94.976L106.639999,95.80799999999999L102.015999,95.80799999999999L102.015999,94.976ZM100.015999,101.695999L100.015999,102.976L102.720001,102.976C101.903999,104.22399899999999,100.671997,105.408001,99.487999,106.048C99.807999,106.304001,100.239998,106.816,100.463997,107.136C101.551998,106.416,102.655998,105.232,103.487999,103.936001L103.487999,107.344L104.927998,107.344L104.927998,104.032C105.807999,105.247999,106.944,106.416,107.951996,107.120001C108.192001,106.768,108.624001,106.271999,108.959999,106.016001C107.792,105.37599900000001,106.479996,104.176001,105.584,102.976L108.687996,102.976L108.687996,101.695999L104.927998,101.695999L104.927998,100.672001L108.063995,100.672001L108.063995,93.8719997L104.368,93.8719997C104.543999,93.487999,104.751999,93.0559998,104.927998,92.6079998L103.360001,92.447999C103.279999,92.8479996,103.119999,93.3919992,102.944,93.8719997L100.62400099999999,93.8719997L100.62400099999999,100.672001L103.487999,100.672001L103.487999,101.695999L100.015999,101.695999ZM96.368,92.5279989C95.87199799999999,93.999999,95.023998,95.391999,94.063999,96.304C94.30399700000001,96.655999,94.688,97.44,94.799999,97.776C95.007999,97.584,95.199997,97.36,95.391998,97.12C95.77599699999999,96.655999,96.143997,96.127999,96.47999999999999,95.568L100.096001,95.568L100.096001,94.191999L97.199997,94.191999C97.391998,93.7759991,97.56799699999999,93.3439999,97.711998,92.9279995L96.368,92.5279989ZM94.495998,100.383999L94.495998,101.743999L96.655998,101.743999L96.655998,104.688C96.655998,105.47200000000001,96.143997,105.983999,95.807999,106.224001C96.063999,106.464001,96.43199899999999,106.976,96.55999800000001,107.280001C96.831997,106.976,97.312,106.656,100.096001,105.007999C99.983997,104.70400000000001,99.82399699999999,104.112,99.759998,103.712L98.031998,104.672001L98.031998,101.743999L99.84,101.743999L99.84,100.383999L98.031998,100.383999L98.031998,98.48L99.727997,98.48L99.727997,97.12L95.391998,97.12L95.391998,98.48L96.655998,98.48L96.655998,100.383999L94.495998,100.383999ZM112.479996,92.5279989C111.984001,93.999999,111.136002,95.391999,110.175995,96.304C110.416,96.655999,110.799995,97.44,110.911995,97.776C111.119995,97.584,111.311996,97.36,111.503998,97.12C111.872002,96.688,112.223999,96.176,112.543999,95.648L116.175995,95.648L116.175995,94.207999L113.295998,94.207999C113.503998,93.7919998,113.68,93.3599997,113.823997,92.9279995L112.479996,92.5279989ZM112.655998,107.280001C112.959999,106.992001,113.456001,106.719999,116.496002,105.184C116.400002,104.879999,116.288002,104.271999,116.255997,103.872L114.175995,104.864L114.175995,101.743999L116.351997,101.743999L116.351997,100.383999L114.175995,100.383999L114.175995,98.48L116,98.48L116,97.12L111.503998,97.12L111.503998,98.48L112.736,98.48L112.736,100.383999L110.624001,100.383999L110.624001,101.743999L112.736,101.743999L112.736,104.896C112.736,105.55199999999999,112.351997,105.85600099999999,112.047997,106.016001C112.271996,106.32,112.559998,106.927999,112.655998,107.280001ZM117.040001,100.44800000000001L117.040001,107.344L118.528,107.344L118.528,106.48L122.816002,106.48L122.816002,107.21600000000001L124.384003,107.21600000000001L124.384003,100.44800000000001L121.360001,100.44800000000001L121.360001,97.36L124.975998,97.36L124.975998,95.919999L121.360001,95.919999L121.360001,92.5759993L119.839996,92.5759993L119.839996,95.919999L116.559998,95.919999L116.559998,97.36L119.839996,97.36L119.839996,100.44800000000001L117.040001,100.44800000000001ZM118.528,105.087999L118.528,101.855999L122.816002,101.855999L122.816002,105.087999L118.528,105.087999ZM128.639999,102.608C129.232002,103.487999,129.855995,104.719999,130.08000199999998,105.47200000000001L131.391998,104.896C131.152,104.128,130.479996,102.959999,129.872002,102.112L128.639999,102.608ZM137.167999,102.112C136.800003,102.992001,136.127998,104.22399899999999,135.599998,104.992001L136.751999,105.488001C137.311996,104.768,138.015999,103.648001,138.608002,102.656L137.167999,102.112ZM133.503998,92.3359995C131.968002,94.719999,129.04000100000002,96.48,126.015999,97.408C126.400002,97.792,126.816002,98.368,127.040001,98.799999C127.839996,98.511999,128.62400100000002,98.176,129.37599899999998,97.792L129.37599899999998,98.624L132.751999,98.624L132.751999,100.576L127.423996,100.576L127.423996,101.952L132.751999,101.952L132.751999,105.535999L126.671997,105.535999L126.671997,106.927999L140.559998,106.927999L140.559998,105.535999L134.367996,105.535999L134.367996,101.952L139.776001,101.952L139.776001,100.576L134.367996,100.576L134.367996,98.624L137.776001,98.624L137.776001,97.648C138.575996,98.08,139.391998,98.44800000000001,140.17600299999998,98.736C140.416,98.335999,140.879997,97.743999,141.232002,97.408C138.816002,96.688,136.063995,95.167999,134.496002,93.5839996L134.912003,92.9759998L133.503998,92.3359995ZM137.024002,97.216L130.384003,97.216C131.599998,96.48,132.687996,95.615999,133.63199600000002,94.624C134.591995,95.568,135.776001,96.464,137.024002,97.216ZM145.248,94.351999L154.368,94.351999L154.368,95.535999L145.248,95.535999L145.248,94.351999ZM143.76,93.1679993L143.76,97.872C143.76,100.431999,143.61599999999999,104,142.064,106.496C142.43200000000002,106.639999,143.10399999999998,107.024,143.376,107.264C145.00799999999998,104.639999,145.248,100.62400099999999,145.248,97.872L145.248,96.719999L155.888,96.719999L155.888,93.1679993L143.76,93.1679993ZM147.696,100.08L150.128,100.08L150.128,101.056L147.696,101.056L147.696,100.08ZM151.50400000000002,100.08L154,100.08L154,101.056L151.50400000000002,101.056L151.50400000000002,100.08ZM154.38400000000001,96.976C152.48000000000002,97.36,148.94400000000002,97.568,146.048,97.599999C146.17599,97.856,146.304,98.288,146.336,98.559999C147.536,98.559999,148.848,98.511999,150.128,98.44800000000001L150.128,99.184L146.336,99.184L146.336,101.952L150.128,101.952L150.128,102.736L145.696,102.736L145.696,107.360001L147.088,107.360001L147.088,103.76L150.128,103.76L150.128,104.879999L147.584,104.959999L147.68,106.063999L153.136,105.76L153.36,106.304001L153.2,106.288C153.344,106.591999,153.50400000000002,107.007999,153.56799999999998,107.327999C154.512,107.327999,155.184,107.327999,155.6,107.152C156.03199999999998,106.976,156.128,106.70400000000001,156.128,106.096001L156.128,102.736L151.50400000000002,102.736L151.50400000000002,101.952L155.40800000000002,101.952L155.40800000000002,99.184L151.50400000000002,99.184L151.50400000000002,98.351999C152.89600000000002,98.24,154.224,98.08,155.264,97.856L154.38400000000001,96.976ZM152.304,104.191999L152.64,104.78399999999999L151.50400000000002,104.832001L151.50400000000002,103.76L154.736,103.76L154.736,106.096001C154.736,106.256001,154.688,106.288,154.512,106.304001L153.888,106.32L154.352,106.16C154.144,105.584,153.632,104.639999,153.184,103.952L152.304,104.191999ZM163.312,102.736C163.792,103.52,164.352,104.576,164.608,105.247999L165.64799,104.62400099999999C165.392,103.968,164.832,102.959999,164.32,102.191999L163.312,102.736ZM159.61599999999999,102.304001C159.296,103.232,158.784,104.191999,158.16,104.864C158.44799999999998,105.040001,158.94400000000002,105.392,159.168,105.6C159.792,104.864,160.43200000000002,103.695999,160.8,102.608L159.61599999999999,102.304001ZM166.416,94.032L166.416,99.6C166.416,101.695999,166.304,104.4,165.024,106.271999C165.344,106.431999,165.936,106.896,166.17599,107.184C167.61599999999999,105.120001,167.824,101.92,167.824,99.6L167.824,99.247999L169.888,99.247999L169.888,107.264L171.36,107.264L171.36,99.247999L172.992,99.247999L172.992,97.839999L167.824,97.839999L167.824,95.023999C169.45600000000002,94.752,171.216,94.351999,172.56,93.8399992L171.36,92.7199993C170.20799,93.2319994,168.192,93.7279997,166.416,94.032ZM160.89600000000002,92.7519989C161.10399999999998,93.1679993,161.312,93.6639996,161.488,94.127999L158.52800000000002,94.127999L158.52800000000002,95.37599900000001L165.64799,95.37599900000001L165.64799,94.127999L163.024,94.127999C162.832,93.5999994,162.52800000000002,92.9439993,162.256,92.4159994L160.89600000000002,92.7519989ZM163.45600000000002,95.391999C163.28,96.08,162.94400000000002,97.056,162.656,97.743999L160.416,97.743999L161.328,97.504C161.264,96.927999,161.00799999999998,96.063999,160.688,95.424L159.47199999999998,95.712C159.76,96.351999,159.96800000000002,97.184,160.03199999999998,97.743999L158.272,97.743999L158.272,99.007999L161.47199999999998,99.007999L161.47199999999998,100.48L158.352,100.48L158.352,101.77600100000001L161.47199999999998,101.77600100000001L161.47199999999998,105.568001C161.47199999999998,105.728001,161.424,105.775999,161.248,105.775999C161.072,105.792,160.576,105.792,160.048,105.775999C160.24,106.128,160.43200000000002,106.672001,160.48000000000002,107.040001C161.296,107.040001,161.888,107.007999,162.304,106.799999C162.72,106.591999,162.832,106.24,162.832,105.6L162.832,101.77600100000001L165.68,101.77600100000001L165.68,100.48L162.832,100.48L162.832,99.007999L165.904,99.007999L165.904,97.743999L164.01600000000002,97.743999C164.288,97.136,164.576,96.384,164.848,95.679999L163.45600000000002,95.391999ZM185.79201,92.5119991L185.79201,95.872L181.216,95.872L181.216,97.327999L185.31201,97.327999C184.12801,99.775999,182.09601,102.32,180.09601,103.632C180.48001,103.936001,180.92801,104.48,181.18401,104.879999C182.84801,103.615999,184.54401,101.55199999999999,185.79201,99.424L185.79201,105.392C185.79201,105.68,185.69601,105.775999,185.39201,105.775999C185.104,105.792,184.08,105.792,183.12001,105.76C183.328,106.191999,183.56801,106.879999,183.64801,107.312C185.024,107.312,185.98401,107.264,186.59201,107.007999C187.168,106.768,187.39201,106.351999,187.39201,105.392L187.39201,97.327999L188.992,97.327999L188.992,95.872L187.39201,95.872L187.39201,92.5119991L185.79201,92.5119991ZM177.04001,92.4959993L177.04001,95.872L174.464,95.872L174.464,97.311999L176.84801,97.311999C176.25601,99.407999,175.136,101.743999,173.95201,103.056C174.20801,103.45599899999999,174.59201,104.08,174.752,104.54400100000001C175.60001,103.52,176.40001,101.952,177.04001,100.271999L177.04001,107.327999L178.56001,107.327999L178.56001,99.504C179.18401,100.304001,179.87201,101.264,180.20801,101.807999L181.12001,100.511999C180.73601,100.063999,179.15201,98.303999,178.56001,97.743999L178.56001,97.311999L180.688,97.311999L180.688,95.872L178.56001,95.872L178.56001,92.4959993L177.04001,92.4959993ZM190.35201,93.7599993C190.73601,94.912,191.08801,96.415999,191.15201,97.408L192.32001,97.103999C192.20801,96.112,191.87201,94.624,191.42401,93.487999L190.35201,93.7599993ZM195.552,93.407999C195.36,94.528,194.92801,96.127999,194.576,97.12L195.552,97.408C195.95201,96.48,196.44801,94.959999,196.86401,93.7279997L195.552,93.407999ZM197.76001,94.544C198.67201,95.12,199.776,96,200.28801,96.608L201.07201,95.471999C200.54401,94.863999,199.42401,94.047999,198.51201,93.5199995L197.76001,94.544ZM196.97601,98.576C197.92001,99.12,199.08801,99.952,199.64801,100.543999L200.40001,99.327999C199.82401,98.752,198.64,98,197.69601,97.504L196.97601,98.576ZM190.28801,97.856L190.28801,99.264L192.35201,99.264C191.82401,100.91199900000001,190.89601,102.832001,190.01601,103.903999C190.25601,104.304001,190.608,104.976,190.752,105.424C191.50401,104.384001,192.24001,102.736,192.8,101.087999L192.8,107.312L194.20801,107.312L194.20801,101.136C194.75201,102,195.36,103.024,195.61601,103.6L196.59201,102.416C196.24001,101.936001,194.688,99.952,194.20801,99.455999L194.20801,99.264L196.72,99.264L196.72,97.856L194.20801,97.856L194.20801,92.5599995L192.8,92.5599995L192.8,97.856L190.28801,97.856ZM196.688,102.608L196.92801,104.016001L201.69601,103.152L201.69601,107.327999L203.136,107.327999L203.136,102.896L205.136,102.52799999999999L204.912,101.119999L203.136,101.439999L203.136,92.4959993L201.69601,92.4959993L201.69601,101.695999L196.688,102.608ZM209.664,93.3759995C209.04001,94.783999,207.95201,96.16,206.78401,97.03999999999999C207.136,97.231999,207.776,97.648,208.08,97.92C209.216,96.912,210.416,95.36,211.168,93.7759991L209.664,93.3759995ZM216.112,93.9839993C217.408,95.056,218.89601,96.575999,219.53601,97.599999L220.832,96.73599899999999C220.12801,95.712,218.59201,94.256,217.31201,93.2479992L216.112,93.9839993ZM212.72,92.5119991L212.72,97.856C210.76801,98.608,208.416,99.087999,206.06401,99.36C206.35201,99.68,206.81601,100.336,207.00801,100.672001C207.71201,100.559999,208.40001,100.431999,209.104,100.288L209.104,107.327999L210.56001,107.327999L210.56001,106.656L217.408,106.656L217.408,107.264L218.944,107.264L218.944,99.151999L213.08801,99.151999C215.08801,98.4,216.84801,97.408,218.048,96.047999L216.608,95.391999C216,96.08,215.18401,96.672,214.224,97.184L214.224,92.5119991L212.72,92.5119991ZM210.56001,102.351999L217.408,102.351999L217.408,103.392L210.56001,103.392L210.56001,102.351999ZM210.56001,101.29599999999999L210.56001,100.32L217.408,100.32L217.408,101.29599999999999L210.56001,101.29599999999999ZM210.56001,104.464001L217.408,104.464001L217.408,105.504L210.56001,105.504L210.56001,104.464001ZM231.50401,93.3119993L231.50401,107.29599999999999L232.84801,107.29599999999999L232.84801,94.672L235.08801,94.672C234.67201,95.903999,234.09601,97.599999,233.56801,98.864C234.912,100.24,235.28,101.424,235.28,102.368C235.29601,102.912001,235.18401,103.37599900000001,234.89601,103.55199999999999C234.72,103.648001,234.496,103.695999,234.272,103.712C233.98401,103.728001,233.584,103.728001,233.168,103.68C233.408,104.096001,233.53601,104.70400000000001,233.552,105.104C234.01601,105.120001,234.496,105.120001,234.86401,105.072001C235.26401,105.024,235.61601,104.912001,235.90401,104.719999C236.44801,104.336,236.67201,103.55199999999999,236.67201,102.52799999999999C236.67201,101.439999,236.384,100.175999,235.00801,98.688C235.64801,97.247999,236.36801,95.407999,236.912,93.9039993L235.87201,93.2479992L235.64801,93.3119993L231.50401,93.3119993ZM225.39201,92.7839994C225.60001,93.2479992,225.82401,93.8239994,225.98401,94.32L222.8,94.32L222.8,95.695999L228.28801,95.695999C228.048,96.575999,227.61601,97.792,227.216,98.639999L224.86401,98.639999L226.01601,98.32C225.856,97.599999,225.45601,96.544,225.00801,95.728L223.71201,96.063999C224.09601,96.879999,224.496,97.92,224.62401,98.639999L222.35201,98.639999L222.35201,100.015999L230.78401,100.015999L230.78401,98.639999L228.67201,98.639999C229.04001,97.872,229.44,96.896,229.79201,96.032L228.35201,95.695999L230.43201,95.695999L230.43201,94.32L227.584,94.32C227.39201,93.7599993,227.056,93.0079994,226.76801,92.3999996L225.39201,92.7839994ZM223.20001,101.344L223.20001,107.280001L224.62401,107.280001L224.62401,106.52799999999999L228.608,106.52799999999999L228.608,107.167999L230.112,107.167999L230.112,101.344L223.20001,101.344ZM224.62401,105.200001L224.62401,102.70400000000001L228.608,102.70400000000001L228.608,105.200001L224.62401,105.200001ZM246.88,103.68C248.35201,104.799999,250.272,106.384001,251.20001,107.344L252.67201,106.44800000000001C251.64801,105.47200000000001,249.64801,103.952,248.224,102.927999L246.88,103.68ZM242.688,102.959999C241.80801,104.112,240.06401,105.47200000000001,238.51201,106.288C238.86401,106.559999,239.408,107.024,239.72801,107.360001C241.31201,106.431999,243.104,104.959999,244.272,103.568001L242.688,102.959999ZM238.944,95.743999L238.944,97.2L241.936,97.2L241.936,100.688L238.336,100.688L238.336,102.176001L252.912,102.176001L252.912,100.688L249.26401,100.688L249.26401,97.2L252.384,97.2L252.384,95.743999L249.26401,95.743999L249.26401,92.6239996L247.69601,92.6239996L247.69601,95.743999L243.50401,95.743999L243.50401,92.6239996L241.936,92.6239996L241.936,95.743999L238.944,95.743999ZM243.50401,100.688L243.50401,97.2L247.69601,97.2L247.69601,100.688L243.50401,100.688ZM259.87201,93.7759991L259.87201,94.959999L262.73600999999996,94.959999L262.73600999999996,95.952L258.91200000000003,95.952L258.91200000000003,97.12L262.73600999999996,97.12L262.73600999999996,98.176L259.76000999999997,98.176L259.76000999999997,99.344L262.73600999999996,99.344L262.73600999999996,100.383999L259.64801,100.383999L259.64801,101.487999L262.73600999999996,101.487999L262.73600999999996,102.54400100000001L258.99199999999996,102.54400100000001L258.99199999999996,103.728001L262.73600999999996,103.728001L262.73600999999996,105.087999L264.15999999999997,105.087999L264.15999999999997,103.728001L268.576,103.728001L268.576,102.54400100000001L264.15999999999997,102.54400100000001L264.15999999999997,101.487999L268.01601,101.487999L268.01601,100.383999L264.15999999999997,100.383999L264.15999999999997,99.344L267.744,99.344L267.744,97.12L268.73600999999996,97.12L268.73600999999996,95.952L267.744,95.952L267.744,93.7759991L264.15999999999997,93.7759991L264.15999999999997,92.4959993L262.73600999999996,92.4959993L262.73600999999996,93.7759991L259.87201,93.7759991ZM264.15999999999997,97.12L266.384,97.12L266.384,98.176L264.15999999999997,98.176L264.15999999999997,97.12ZM264.15999999999997,95.952L264.15999999999997,94.959999L266.384,94.959999L266.384,95.952L264.15999999999997,95.952ZM255.104,99.936C255.104,99.743999,255.53601,99.504,255.84001,99.344L257.552,99.344C257.37601,100.608,257.10400000000004,101.712,256.752,102.672001C256.384,102.063999,256.06401,101.344,255.80801,100.48L254.688,100.879999C255.07201,102.176001,255.552,103.200001,256.14401,104.016001C255.60001,105.007999,254.912,105.792,254.112,106.351999C254.43201,106.54400100000001,254.97601,107.056,255.20001,107.344C255.936,106.78399999999999,256.576,106.048,257.12001,105.120001C258.8,106.62400099999999,261.05600000000004,106.992001,263.90400999999997,106.992001L268.496,106.992001C268.576,106.576,268.832,105.92,269.05600000000004,105.6C268.09601,105.632,264.70401000000004,105.632,263.93600000000004,105.632C261.37601,105.615999,259.248,105.29599999999999,257.72801000000004,103.888C258.36801,102.368,258.81601,100.48,259.05600000000004,98.176L258.192,97.983999L257.93600000000004,98.016L256.91200000000003,98.016C257.664,96.816,258.44801,95.344,259.12001,93.8399992L258.17601,93.2319994L257.664,93.4399996L254.56001,93.4399996L254.56001,94.768L257.15201,94.768C256.54400999999996,96.127999,255.82401,97.344,255.56801,97.728C255.23201,98.256,254.81601,98.671999,254.51201,98.752C254.70401,99.056,255.00801,99.648,255.104,99.936ZM275.60001,98.4C275.328,99.872,274.81601,101.360001,274.12801,102.336C274.44801,102.511999,275.024,102.896,275.26401,103.104C276,102.015999,276.608,100.336,276.94399999999996,98.656L275.60001,98.4ZM272,92.4959993L272,96.256L270.304,96.256L270.304,97.664L272,97.664L272,107.327999L273.45601,107.327999L273.45601,97.664L275.08801,97.664L275.08801,96.256L273.45601,96.256L273.45601,92.4959993L272,92.4959993ZM278.20801,92.6079998L278.20801,95.504L275.552,95.504L275.552,96.976L278.192,96.976C278.08000000000004,99.983999,277.42401,103.584,274.06401,106.336C274.43201,106.54400100000001,274.97601,107.040001,275.216,107.360001C278.832,104.336,279.52,100.32,279.632,96.976L281.52,96.976C281.39201,102.832001,281.23201,105.040001,280.84801,105.52C280.688,105.728001,280.528,105.775999,280.24001,105.775999C279.90400999999997,105.775999,279.12001,105.76,278.25601,105.695999C278.51201000000003,106.096001,278.67201,106.719999,278.70401000000004,107.152C279.552,107.184,280.40001,107.200001,280.91200000000003,107.136C281.44,107.056,281.80800999999997,106.912001,282.14401,106.4C282.62401,105.76,282.78400999999997,103.888,282.92801,98.848C283.34401,100.336,283.76000999999997,102.22399899999999,283.90400999999997,103.344L285.248,103.007999C285.07201,101.855999,284.576,99.92,284.12801,98.431999L282.92801,98.671999L282.99199999999996,96.224C282.99199999999996,96.032,283.00801,95.504,283.00801,95.504L279.64801,95.504L279.64801,92.6079998L278.20801,92.6079998ZM289.56800999999996,96.16L289.56800999999996,97.455999L297.64801,97.455999L297.64801,96.16L289.56800999999996,96.16ZM291.76000999999997,100.208L295.45601,100.208L295.45601,102.879999L291.76000999999997,102.879999L291.76000999999997,100.208ZM290.36801,98.944L290.36801,105.280001L291.76000999999997,105.280001L291.76000999999997,104.16L296.84801,104.16L296.84801,98.944L290.36801,98.944ZM286.91200000000003,93.2959995L286.91200000000003,107.360001L288.384,107.360001L288.384,94.719999L298.832,94.719999L298.832,105.52C298.832,105.792,298.73599,105.888,298.448,105.903999C298.17599,105.903999,297.23201,105.92,296.304,105.872C296.528,106.271999,296.76801,106.959999,296.832,107.360001C298.19202,107.360001,299.04001,107.327999,299.58401,107.072001C300.12802,106.832001,300.32001,106.384001,300.32001,105.535999L300.32001,93.2959995L286.91200000000003,93.2959995ZM314.80002,92.7679996L314.80002,105.47200000000001C314.80002,105.76,314.68802,105.85600099999999,314.36801,105.872C314.064,105.888,313.02402,105.888,311.936,105.85600099999999C312.16,106.256001,312.384,106.896,312.46402,107.29599999999999C313.96802,107.312,314.91202,107.264,315.504,107.040001C316.08002,106.799999,316.30402,106.4,316.30402,105.47200000000001L316.30402,92.7679996L314.80002,92.7679996ZM311.69601,94.335999L311.69601,103.327999L313.15201,103.327999L313.15201,94.335999L311.69601,94.335999ZM304.46402,98.335999L304.09601,98.335999C305.18402,97.327999,306.12802,96.14399900000001,306.896,94.863999C307.92001,96,309.04001,97.327999,309.74402,98.335999L304.46402,98.335999ZM306.496,92.4959993C305.64801,94.544,303.952,96.73599899999999,301.96802,98.128C302.28799,98.384,302.81601,98.912,303.056,99.216C303.31201,99.024,303.56799,98.799999,303.82401,98.591999L303.82401,105.072001C303.82401,106.688,304.336,107.104,306.03201,107.104C306.39999,107.104,308.448,107.104,308.832,107.104C310.36801,107.104,310.784,106.44800000000001,310.96002,104.208C310.56,104.128,309.952,103.888,309.63202,103.648001C309.552,105.45599899999999,309.42401,105.792,308.72,105.792C308.272,105.792,306.56,105.792,306.19202,105.792C305.42401,105.792,305.29602,105.695999,305.29602,105.056L305.29602,99.648L308.35202,99.648C308.24002,101.344,308.112,102.048,307.936,102.256001C307.80801,102.4,307.67999,102.416,307.47202,102.416C307.24802,102.416,306.72,102.416,306.16,102.351999C306.36801,102.70400000000001,306.51199,103.247999,306.52802,103.632C307.20001,103.664,307.82401,103.664,308.17599,103.615999C308.59201,103.568001,308.896,103.45599899999999,309.168,103.152C309.53601,102.736,309.69601,101.615999,309.84,98.879999L309.85602,98.496L310.064,98.816L311.168,97.792C310.41602,96.672,308.86401,94.943999,307.58401,93.5999994L307.888,92.9279995L306.496,92.4959993ZM323.31201,102.736C323.79199,103.52,324.35202,104.576,324.608,105.247999L325.64801,104.62400099999999C325.392,103.968,324.832,102.959999,324.32001,102.191999L323.31201,102.736ZM319.616,102.304001C319.29602,103.232,318.784,104.191999,318.16,104.864C318.448,105.040001,318.944,105.392,319.168,105.6C319.79199,104.864,320.43201,103.695999,320.80002,102.608L319.616,102.304001ZM326.41602,94.032L326.41602,99.6C326.41602,101.695999,326.30402,104.4,325.02402,106.271999C325.34399,106.431999,325.936,106.896,326.17599,107.184C327.616,105.120001,327.82401,101.92,327.82401,99.6L327.82401,99.247999L329.888,99.247999L329.888,107.264L331.36002,107.264L331.36002,99.247999L332.992,99.247999L332.992,97.839999L327.82401,97.839999L327.82401,95.023999C329.45599,94.752,331.216,94.351999,332.56,93.8399992L331.36002,92.7199993C330.20801,93.2319994,328.19202,93.7279997,326.41602,94.032ZM320.896,92.7519989C321.104,93.1679993,321.31201,93.6639996,321.48801,94.127999L318.52802,94.127999L318.52802,95.37599900000001L325.64801,95.37599900000001L325.64801,94.127999L323.02402,94.127999C322.832,93.5999994,322.52802,92.9439993,322.25601,92.4159994L320.896,92.7519989ZM323.45599,95.391999C323.28,96.08,322.944,97.056,322.65601,97.743999L320.41602,97.743999L321.328,97.504C321.26401,96.927999,321.008,96.063999,320.68802,95.424L319.47202,95.712C319.76001,96.351999,319.96802,97.184,320.03201,97.743999L318.272,97.743999L318.272,99.007999L321.47202,99.007999L321.47202,100.48L318.35202,100.48L318.35202,101.77600100000001L321.47202,101.77600100000001L321.47202,105.568001C321.47202,105.728001,321.42401,105.775999,321.24802,105.775999C321.07202,105.792,320.57602,105.792,320.048,105.775999C320.24002,106.128,320.43201,106.672001,320.48001,107.040001C321.29602,107.040001,321.888,107.007999,322.30402,106.799999C322.72,106.591999,322.832,106.24,322.832,105.6L322.832,101.77600100000001L325.67999,101.77600100000001L325.67999,100.48L322.832,100.48L322.832,99.007999L325.90399,99.007999L325.90399,97.743999L324.01599,97.743999C324.28799,97.136,324.57602,96.384,324.84799,95.679999L323.45599,95.391999ZM340.76801,92.4959993L340.76801,95.311999L335.08801,95.311999L335.08801,103.152L336.59201,103.152L336.59201,102.191999L340.76801,102.191999L340.76801,107.327999L342.35202,107.327999L342.35202,102.191999L346.54401,102.191999L346.54401,103.072001L348.112,103.072001L348.112,95.311999L342.35202,95.311999L342.35202,92.4959993L340.76801,92.4959993ZM336.59201,100.703999L336.59201,96.799999L340.76801,96.799999L340.76801,100.703999L336.59201,100.703999ZM346.54401,100.703999L342.35202,100.703999L342.35202,96.799999L346.54401,96.799999L346.54401,100.703999ZM354.32001,97.007999L354.32001,104.736C354.32001,106.511999,354.86401,107.040001,356.75201,107.040001C357.13602,107.040001,359.31201,107.040001,359.74402,107.040001C361.616,107.040001,362.048,106.128,362.24002,103.087999C361.82401,102.976,361.168,102.70400000000001,360.81601,102.431999C360.68802,105.087999,360.56,105.615999,359.63202,105.615999C359.13602,105.615999,357.31201,105.615999,356.896,105.615999C356.048,105.615999,355.888,105.488001,355.888,104.736L355.888,97.007999L354.32001,97.007999ZM351.616,98.096C351.392,100.112,350.896,102.576,350.25601,104.24L351.776,104.864C352.384,103.104,352.84799,100.351999,353.08801,98.384L351.616,98.096ZM361.616,98.191999C362.48001,100.08,363.34399,102.62400099999999,363.63202,104.271999L365.15201,103.648001C364.80002,102,363.936,99.55199999999999,363.02402,97.632L361.616,98.191999ZM354.97601,93.9199991C356.496,94.976,358.41602,96.528,359.29602,97.535999L360.39999,96.367999C359.45599,95.36,357.48801,93.8879995,356.01599,92.9119997L354.97601,93.9199991ZM52.816001,122.576L52.816001,125.487999L47.2160001,125.487999L47.2160001,122.576L45.6160002,122.576L45.6160002,125.487999L42.68800002,125.487999L42.68800002,126.992001L45.6160002,126.992001L45.6160002,137.344002L47.2160001,137.344002L47.2160001,136.304001L52.816001,136.304001L52.816001,137.231998L54.448001,137.231998L54.448001,126.992001L57.312,126.992001L57.312,125.487999L54.448001,125.487999L54.448001,122.576L52.816001,122.576ZM47.2160001,126.992001L52.816001,126.992001L52.816001,130.144001L47.2160001,130.144001L47.2160001,126.992001ZM47.2160001,134.816002L47.2160001,131.632L52.816001,131.632L52.816001,134.816002L47.2160001,134.816002ZM70.62400099999999,130.304001L70.62400099999999,137.183998L72.048,137.183998L72.048,130.304001L70.62400099999999,130.304001ZM60.384001,130.28799800000002L60.384001,131.632C60.384001,133.10399999999998,60.208,134.976002,58.559999000000005,136.448002C58.927999,136.655998,59.472,137.071999,59.728001,137.360001C61.552,135.68,61.743999,133.45600100000001,61.743999,131.66400099999998L61.743999,130.28799800000002L60.384001,130.28799800000002ZM63.232,130.911999C63.040001000000004,132.304001,62.720000999999996,133.776001,62.239999999999995,134.768002C62.544001,134.911999,63.120001,135.200001,63.375999,135.375999C63.872,134.304001,64.288,132.688,64.512001,131.152L63.232,130.911999ZM67.456001,131.119999C67.888,132.38399900000002,68.32,134.080002,68.464001,135.088001L69.792,134.799999C69.648001,133.792,69.18400199999999,132.144001,68.70400000000001,130.880001L67.456001,131.119999ZM70.144001,127.200001L70.144001,128.33599900000002L66.799999,128.33599900000002L66.799999,127.200001L70.144001,127.200001ZM65.264,122.495998L65.264,123.68L60.495999999999995,123.68L60.495999999999995,124.95999900000001L65.264,124.95999900000001L65.264,126.048L58.896,126.048L58.896,127.200001L65.264,127.200001L65.264,128.33599900000002L60.495999999999995,128.33599900000002L60.495999999999995,129.599998L65.264,129.599998L65.264,137.279999L66.799999,137.279999L66.799999,129.599998L71.77600100000001,129.599998L71.77600100000001,127.200001L73.200001,127.200001L73.200001,126.048L71.77600100000001,126.048L71.77600100000001,123.68L66.799999,123.68L66.799999,122.495998L65.264,122.495998ZM70.144001,126.048L66.799999,126.048L66.799999,124.95999900000001L70.144001,124.95999900000001L70.144001,126.048ZM78.063999,123.37599900000001C77.439999,124.78399999999999,76.352001,126.16,75.183998,127.04000099999999C75.535999,127.231998,76.17599899999999,127.647999,76.47999999999999,127.91999799999999C77.616001,126.91199900000001,78.816002,125.360001,79.56800100000001,123.77600100000001L78.063999,123.37599900000001ZM84.512001,123.984001C85.807999,125.056,87.29600099999999,126.576,87.936001,127.599998L89.232002,126.73599999999999C88.52799999999999,125.711998,86.992001,124.256001,85.712002,123.248001L84.512001,123.984001ZM81.119999,122.512001L81.119999,127.855999C79.16799900000001,128.608002,76.816002,129.088001,74.464001,129.360001C74.751999,129.68,75.21600000000001,130.33599900000002,75.408001,130.672001C76.112,130.560001,76.799999,130.431999,77.504002,130.28799800000002L77.504002,137.327999L78.95999900000001,137.327999L78.95999900000001,136.655998L85.807999,136.655998L85.807999,137.264L87.344002,137.264L87.344002,129.152L81.487999,129.152C83.487999,128.400002,85.248001,127.408001,86.448002,126.048L85.007999,125.391998C84.400002,126.08000200000001,83.584,126.672001,82.62400099999999,127.183998L82.62400099999999,122.512001L81.119999,122.512001ZM78.95999900000001,132.352001L85.807999,132.352001L85.807999,133.391998L78.95999900000001,133.391998L78.95999900000001,132.352001ZM78.95999900000001,131.296001L78.95999900000001,130.32L85.807999,130.32L85.807999,131.296001L78.95999900000001,131.296001ZM78.95999900000001,134.464001L85.807999,134.464001L85.807999,135.504002L78.95999900000001,135.504002L78.95999900000001,134.464001ZM96.063999,122.47999999999999C95.888,123.152,95.664001,123.84,95.391998,124.512001L90.95999900000001,124.512001L90.95999900000001,125.936001L94.768002,125.936001C93.760002,127.936001,92.352001,129.776001,90.52799999999999,131.00799899999998C90.83200099999999,131.279999,91.29600099999999,131.824001,91.52000000000001,132.16C92.43199899999999,131.52,93.231998,130.767998,93.952,129.919998L93.952,137.327999L95.439999,137.327999L95.439999,134.208L101.760002,134.208L101.760002,135.568001C101.760002,135.807999,101.664001,135.888,101.391998,135.888C101.120003,135.903999,100.144001,135.903999,99.200001,135.855999C99.391998,136.271999,99.616001,136.911999,99.664001,137.327999C101.024002,137.327999,101.920002,137.312,102.496002,137.088001C103.071999,136.848,103.232002,136.400002,103.232002,135.599998L103.232002,127.52000000000001L95.616001,127.52000000000001C95.91999799999999,127.007999,96.192001,126.47999999999999,96.43199899999999,125.936001L105.08800099999999,125.936001L105.08800099999999,124.512001L97.04000099999999,124.512001C97.248001,123.952,97.44000199999999,123.407997,97.616001,122.848L96.063999,122.47999999999999ZM95.439999,131.52L101.760002,131.52L101.760002,132.928001L95.439999,132.928001L95.439999,131.52ZM95.439999,130.239998L95.439999,128.863998L101.760002,128.863998L101.760002,130.239998L95.439999,130.239998ZM113.424004,128.33599900000002L113.424004,130.751999L110.031998,130.751999L110.031998,128.33599900000002L113.424004,128.33599900000002ZM114.912003,128.33599900000002L118.335999,128.33599900000002L118.335999,130.751999L114.912003,130.751999L114.912003,128.33599900000002ZM115.360001,125.16799900000001C114.896004,125.792,114.335999,126.447998,113.807999,126.944L109.839996,126.944C110.400002,126.383999,110.928001,125.792,111.424004,125.16799900000001L115.360001,125.16799900000001ZM111.520004,122.416C110.416,124.495998,108.480003,126.400002,106.543999,127.584C106.800003,127.91999799999999,107.216003,128.672001,107.360001,129.00799899999998C107.760002,128.736,108.176003,128.431999,108.576004,128.096001L108.576004,134.512001C108.576004,136.560001,109.424004,137.071999,112.160004,137.071999C112.783997,137.071999,117.360001,137.071999,118.048004,137.071999C120.576004,137.071999,121.136002,136.32,121.456001,133.759998C121.024002,133.68,120.384003,133.45600100000001,120,133.216C119.807999,135.279999,119.568001,135.68,118,135.68C116.975998,135.68,112.944,135.68,112.096001,135.68C110.335999,135.68,110.031998,135.487999,110.031998,134.512001L110.031998,132.192001L118.335999,132.192001L118.335999,132.815998L119.840004,132.815998L119.840004,126.944L115.632004,126.944C116.367996,126.17599899999999,117.104004,125.279999,117.648003,124.464001L116.671997,123.743999L116.367996,123.82399699999999L112.368004,123.82399699999999C112.559998,123.535999,112.736,123.231998,112.896004,122.928001L111.520004,122.416ZM125.040001,132.608002C125.632004,133.487999,126.255997,134.720001,126.480003,135.472L127.792,134.89600000000002C127.552002,134.127998,126.879997,132.959999,126.272003,132.112L125.040001,132.608002ZM133.56800099999998,132.112C133.199997,132.99200100000002,132.52800000000002,134.223999,132,134.99200100000002L133.152,135.487999C133.711998,134.768002,134.416,133.647999,135.008003,132.655998L133.56800099999998,132.112ZM129.903999,122.335999C128.36800399999998,124.720001,125.440002,126.47999999999999,122.416,127.408001C122.800003,127.792,123.216003,128.368,123.440002,128.799999C124.239998,128.512001,125.024002,128.175999,125.776001,127.792L125.776001,128.624001L129.152,128.624001L129.152,130.576L123.823997,130.576L123.823997,131.952L129.152,131.952L129.152,135.535999L123.071999,135.535999L123.071999,136.928001L136.95999899999998,136.928001L136.95999899999998,135.535999L130.767998,135.535999L130.767998,131.952L136.17600299999998,131.952L136.17600299999998,130.576L130.767998,130.576L130.767998,128.624001L134.17600299999998,128.624001L134.17600299999998,127.647999C134.975998,128.079998,135.792,128.44799799999998,136.576004,128.736C136.816002,128.33599900000002,137.279999,127.743999,137.632004,127.408001C135.216003,126.688,132.464005,125.16799900000001,130.896004,123.584L131.311996,122.975998L129.903999,122.335999ZM133.424004,127.21600000000001L126.783997,127.21600000000001C128,126.47999999999999,129.087997,125.615997,130.031998,124.62400099999999C130.992004,125.56800100000001,132.17600299999998,126.464001,133.424004,127.21600000000001ZM141.64800300000002,124.351997L150.768,124.351997L150.768,125.535999L141.64800300000002,125.535999L141.64800300000002,124.351997ZM140.16000400000001,123.16799900000001L140.16000400000001,127.87200200000001C140.16000400000001,130.431999,140.015999,134,138.463997,136.495998C138.832001,136.639999,139.503998,137.023998,139.776001,137.264C141.407997,134.639999,141.64800300000002,130.624001,141.64800300000002,127.87200200000001L141.64800300000002,126.720001L152.288,126.720001L152.288,123.16799900000001L140.16000400000001,123.16799900000001ZM144.096,130.080002L146.52800000000002,130.080002L146.52800000000002,131.05599999999998L144.096,131.05599999999998L144.096,130.080002ZM147.904,130.080002L150.4,130.080002L150.4,131.05599999999998L147.904,131.05599999999998L147.904,130.080002ZM150.784,126.975998C148.88,127.360001,145.344,127.56800100000001,142.44799999999998,127.599998C142.576,127.855999,142.704,128.28799800000002,142.736,128.559998C143.936,128.559998,145.248,128.512001,146.52800000000002,128.44799799999998L146.52800000000002,129.183998L142.736,129.183998L142.736,131.952L146.52800000000002,131.952L146.52800000000002,132.736L142.096,132.736L142.096,137.360001L143.488,137.360001L143.488,133.759998L146.52800000000002,133.759998L146.52800000000002,134.880001L143.98399999999998,134.959999L144.07999999999998,136.063999L149.536,135.759998L149.76,136.304001L149.6,136.28799800000002C149.744,136.591999,149.904,137.00799899999998,149.96800000000002,137.327999C150.912,137.327999,151.584,137.327999,152,137.152C152.43200000000002,136.976002,152.52800000000002,136.703999,152.52800000000002,136.096001L152.52800000000002,132.736L147.904,132.736L147.904,131.952L151.808,131.952L151.808,129.183998L147.904,129.183998L147.904,128.352001C149.296,128.239998,150.624,128.079998,151.664,127.855999L150.784,126.975998ZM148.704,134.192001L149.04000000000002,134.784L147.904,134.832001L147.904,133.759998L151.136,133.759998L151.136,136.096001C151.136,136.256001,151.088,136.28799800000002,150.912,136.304001L150.288,136.32L150.752,136.16C150.54399999999998,135.584,150.03199999999998,134.639999,149.584,133.952L148.704,134.192001ZM161.248,122.495998L161.248,124.848L158.736,124.848C158.94400000000002,124.256001,159.12,123.664001,159.28,123.104L157.744,122.799999C157.376,124.464001,156.576,126.608002,155.50400000000002,127.952C155.872,128.096001,156.48000000000002,128.416,156.832,128.639999C157.344,128,157.792,127.183998,158.176,126.304001L161.248,126.304001L161.248,129.264L154.928,129.264L154.928,130.720001L158.95999999999998,130.720001C158.672,133.136002,158.01600000000002,135.071999,154.704,136.127998C155.04000000000002,136.431999,155.47199999999998,137.040001,155.648,137.424C159.328,136.112,160.192,133.728001,160.52800000000002,130.720001L163.264,130.720001L163.264,135.071999C163.264,136.624001,163.664,137.10399999999998,165.248,137.10399999999998C165.56799999999998,137.10399999999998,167.00799999999998,137.10399999999998,167.328,137.10399999999998C168.72,137.10399999999998,169.136,136.448002,169.28,133.952C168.88,133.84,168.224,133.599998,167.904,133.344002C167.84,135.344002,167.744,135.66400099999998,167.2,135.66400099999998C166.864,135.66400099999998,165.712,135.66400099999998,165.45600000000002,135.66400099999998C164.89600000000002,135.66400099999998,164.784,135.584,164.784,135.071999L164.784,130.720001L169.10399999999998,130.720001L169.10399999999998,129.264L162.784,129.264L162.784,126.304001L167.904,126.304001L167.904,124.848L162.784,124.848L162.784,122.495998L161.248,122.495998ZM171.15199,123.647999C172.032,124.464001,173.104,125.615997,173.60001,126.351997L174.76801,125.391998C174.224,124.688,173.104,123.584,172.24001,122.81599800000001L171.15199,123.647999ZM181.37601,122.879997L181.37601,125.327999L179.088,125.327999L179.088,122.86399800000001L177.584,122.86399800000001L177.584,125.327999L175.44,125.327999L175.44,126.78399999999999L177.584,126.78399999999999L177.584,128.28799800000002C177.584,128.639999,177.584,129.00799899999998,177.552,129.375999L175.312,129.375999L175.312,130.832001L177.36,130.832001C177.104,131.919998,176.592,132.959999,175.552,133.792C175.87199,134,176.448,134.560001,176.65601,134.863998C177.98399,133.824001,178.608,132.33599900000002,178.88,130.832001L181.37601,130.832001L181.37601,134.703999L182.864,134.703999L182.864,130.832001L185.15201,130.832001L185.15201,129.375999L182.864,129.375999L182.864,126.78399999999999L184.84801,126.78399999999999L184.84801,125.327999L182.864,125.327999L182.864,122.879997L181.37601,122.879997ZM179.088,126.78399999999999L181.37601,126.78399999999999L181.37601,129.375999L179.056,129.375999C179.07201,129.00799899999998,179.088,128.639999,179.088,128.304001L179.088,126.78399999999999ZM174.28799,128.28799800000002L170.752,128.28799800000002L170.752,129.695999L172.81599,129.695999L172.81599,133.984001C172.12801,134.28799800000002,171.312,134.94400000000002,170.51199,135.792L171.52,137.200001C172.224,136.175999,172.976,135.183998,173.504,135.183998C173.856,135.183998,174.384,135.695999,175.088,136.112C176.224,136.784,177.56799,136.976002,179.56799,136.976002C181.15201,136.976002,183.92,136.880001,185.056,136.799999C185.088,136.368,185.328,135.632,185.504,135.231998C183.92,135.424,181.424,135.568001,179.632,135.568001C177.82401,135.568001,176.416,135.45600100000001,175.36,134.832001C174.896,134.560001,174.576,134.304001,174.28799,134.112L174.28799,128.28799800000002ZM195.056,124.416L195.056,137.071999L196.51199,137.071999L196.51199,135.919998L199.168,135.919998L199.168,136.94400000000002L200.688,136.94400000000002L200.688,124.416L195.056,124.416ZM196.51199,134.464001L196.51199,125.87200200000001L199.168,125.87200200000001L199.168,134.464001L196.51199,134.464001ZM188.944,122.720001L188.92799,125.456001L186.832,125.456001L186.832,126.928001L188.896,126.928001C188.784,130.848,188.32001,134.192001,186.39999,136.271999C186.76801,136.512001,187.29601,137.00799899999998,187.536,137.360001C189.664,134.976002,190.20801,131.264,190.368,126.928001L192.448,126.928001C192.336,132.751999,192.192,134.863998,191.856,135.312C191.71201,135.535999,191.56799,135.584,191.328,135.584C191.024,135.584,190.384,135.568001,189.67999,135.52C189.936,135.936001,190.09599,136.591999,190.12801,137.040001C190.84801,137.071999,191.584,137.088001,192.032,137.00799899999998C192.528,136.928001,192.84801,136.768002,193.18401,136.28799800000002C193.67999,135.584,193.79201,133.183998,193.92,126.192001C193.936,125.984001,193.936,125.456001,193.936,125.456001L190.39999,125.456001L190.43201,122.720001L188.944,122.720001ZM202.784,134.655998L202.784,136.175999L217.26401,136.175999L217.26401,134.655998L210.8,134.655998L210.8,125.807999L216.416,125.807999L216.416,124.239998L203.632,124.239998L203.632,125.807999L209.104,125.807999L209.104,134.655998L202.784,134.655998ZM219.15199,123.119999L219.15199,126.62400099999999L220.62399,126.62400099999999L220.62399,124.43199899999999L231.328,124.43199899999999L231.328,126.62400099999999L232.864,126.62400099999999L232.864,123.119999L219.15199,123.119999ZM221.392,131.888C221.552,131.743999,222.17599,131.647999,223.056,131.647999L225.808,131.647999L225.808,133.472L219.23199,133.472L219.23199,134.848L225.808,134.848L225.808,137.327999L227.328,137.327999L227.328,134.848L232.88,134.848L232.88,133.472L227.328,133.472L227.328,131.647999L231.56799,131.647999L231.56799,130.32L227.328,130.32L227.328,128.655998L225.808,128.655998L225.808,130.32L222.832,130.32C223.29601,129.61600099999998,223.744,128.815998,224.17599,127.96799899999999L231.088,127.96799899999999L231.088,126.655998L224.8,126.655998C225.024,126.17599899999999,225.216,125.68,225.408,125.183998L223.856,124.70399900000001C223.664,125.360001,223.424,126.031998,223.168,126.655998L220.88,126.655998L220.88,127.96799899999999L222.592,127.96799899999999C222.256,128.655998,221.968,129.183998,221.82401,129.424C221.48801,130,221.216,130.368,220.896,130.44799799999998C221.07201,130.848,221.328,131.584,221.392,131.888ZM235.744,137.424C236.192,137.152,236.88,136.99200100000002,241.744,135.647999C241.664,135.312,241.584,134.639999,241.584,134.223999L237.37601,135.312L237.37601,131.759998L241.936,131.759998C242.84801,134.911999,244.62399,137.167999,246.73601,137.167999C248.01601,137.167999,248.608,136.560001,248.832,134.063999C248.416,133.936001,247.856,133.647999,247.504,133.344002C247.424,134.99200100000002,247.248,135.66400099999998,246.8,135.66400099999998C245.616,135.68,244.336,134.080002,243.56799,131.759998L248.51199,131.759998L248.51199,130.352001L243.168,130.352001C243.024,129.66400099999998,242.912,128.928001,242.864,128.175999L247.34399,128.175999L247.34399,123.279999L235.808,123.279999L235.808,134.799999C235.808,135.487999,235.36,135.888,235.03999,136.080002C235.28,136.38399900000002,235.632,137.040001,235.744,137.424ZM241.60001,130.352001L237.37601,130.352001L237.37601,128.175999L241.312,128.175999C241.36,128.928001,241.45599,129.647999,241.60001,130.352001ZM237.37601,124.688L245.808,124.688L245.808,126.767998L237.37601,126.767998L237.37601,124.688ZM252.832,126.271999L256.384,126.271999L256.384,127.52000000000001L252.832,127.52000000000001L252.832,126.271999ZM251.552,125.21600000000001L251.552,128.576L257.744,128.576L257.744,125.21600000000001L251.552,125.21600000000001ZM250.76801,123.152L250.76801,124.447998L258.51198999999997,124.447998L258.51198999999997,123.152L250.76801,123.152ZM252.72,131.071999C253.056,131.647999,253.424,132.400002,253.536,132.89600000000002L254.39999,132.560001C254.272,132.080002,253.90401,131.327999,253.536,130.784L252.72,131.071999ZM258.92799,125.615997L258.92799,131.903999L261.216,131.903999L261.216,135.231998L258.688,135.599998L259.024,136.976002C260.448,136.736,262.304,136.400002,264.11199999999997,136.048C264.224,136.54399899999999,264.304,136.976002,264.35201,137.344002L265.48801000000003,137.023998C265.328,135.936001,264.8,134.096001,264.256,132.688L263.2,132.928001C263.408,133.504002,263.616,134.16,263.79201,134.816002L262.54400999999996,135.00799899999998L262.54400999999996,131.903999L264.81599,131.903999L264.81599,125.615997L262.54400999999996,125.615997L262.54400999999996,122.655998L261.216,122.655998L261.216,125.615997L258.92799,125.615997ZM260.03200000000004,126.91199900000001L261.328,126.91199900000001L261.328,130.591999L260.03200000000004,130.591999L260.03200000000004,126.91199900000001ZM262.43201,126.91199900000001L263.664,126.91199900000001L263.664,130.591999L262.43201,130.591999L262.43201,126.91199900000001ZM255.616,130.703999C255.408,131.344002,254.976,132.28799800000002,254.62399,132.94400000000002L252.608,132.94400000000002L252.608,133.919998L254.048,133.919998L254.048,136.848L255.15201,136.848L255.15201,133.919998L256.528,133.919998L256.528,132.94400000000002L255.60001,132.94400000000002C255.92,132.38399900000002,256.256,131.695999,256.576,131.088001L255.616,130.703999ZM251.008,129.327999L251.008,137.312L252.17599,137.312L252.17599,130.48L257.00800000000004,130.48L257.00800000000004,135.776001C257.00800000000004,135.919998,256.96001,135.967999,256.8,135.984001C256.65601000000004,135.984001,256.15999999999997,135.984001,255.64799,135.967999C255.79201,136.304001,255.952,136.784,255.98399,137.136002C256.8,137.136002,257.37601,137.10399999999998,257.744,136.928001C258.144,136.720001,258.24001,136.368,258.24001,135.792L258.24001,129.327999L251.008,129.327999ZM274.20801,122.43199899999999C272.56,124.928001,269.56799,126.992001,266.56,128.16C266.976,128.54399899999999,267.408,129.119999,267.664,129.535999C268.448,129.183998,269.23199,128.767998,269.98399,128.304001L269.98399,129.088001L278.048,129.088001L278.048,128.031998C278.84801,128.512001,279.67999,128.94400000000002,280.528,129.344002C280.752,128.880001,281.18401,128.304001,281.584,127.96799899999999C279.2,127.023998,276.99199999999996,125.792,275.024,123.84L275.552,123.119999L274.20801,122.43199899999999ZM270.89599999999996,127.695999C272.08000000000004,126.879997,273.168,125.952,274.11199999999997,124.928001C275.23199,126.048,276.35201,126.944,277.504,127.695999L270.89599999999996,127.695999ZM269.05600000000004,130.767998L269.05600000000004,137.312L270.608,137.312L270.608,136.512001L277.584,136.512001L277.584,137.248001L279.2,137.248001L279.2,130.767998L269.05600000000004,130.767998ZM270.608,135.10399999999998L270.608,132.127998L277.584,132.127998L277.584,135.10399999999998L270.608,135.10399999999998ZM288,128.400002C287.728,129.872002,287.216,131.360001,286.528,132.33599900000002C286.84801,132.512001,287.424,132.89600000000002,287.664,133.10399999999998C288.39999,132.015999,289.00800000000004,130.33599900000002,289.34398999999996,128.655998L288,128.400002ZM284.39999,122.495998L284.39999,126.256001L282.70399,126.256001L282.70399,127.664001L284.39999,127.664001L284.39999,137.327999L285.856,137.327999L285.856,127.664001L287.48801000000003,127.664001L287.48801000000003,126.256001L285.856,126.256001L285.856,122.495998L284.39999,122.495998ZM290.608,122.608002L290.608,125.503998L287.952,125.503998L287.952,126.975998L290.592,126.975998C290.48,129.984001,289.82401,133.584,286.464,136.33599900000002C286.832,136.54399899999999,287.37601,137.040001,287.616,137.360001C291.23199,134.33599900000002,291.91999999999996,130.32,292.03200000000004,126.975998L293.91999999999996,126.975998C293.79201,132.832001,293.632,135.040001,293.248,135.52C293.08799999999997,135.728001,292.92799,135.776001,292.64,135.776001C292.304,135.776001,291.52,135.759998,290.65601000000004,135.695999C290.91200000000003,136.096001,291.07201,136.720001,291.10400000000004,137.152C291.952,137.183998,292.8,137.200001,293.312,137.136002C293.84000000000003,137.05599999999998,294.20801,136.911999,294.54400999999996,136.400002C295.024,135.759998,295.18401,133.888,295.328,128.848C295.744,130.33599900000002,296.15999999999997,132.223999,296.304,133.344002L297.64799,133.00799899999998C297.472,131.855999,296.976,129.919998,296.528,128.431999L295.328,128.672001L295.392,126.22399899999999C295.392,126.031998,295.408,125.503998,295.408,125.503998L292.048,125.503998L292.048,122.608002L290.608,122.608002ZM301.96799,126.16L301.96799,127.456001L310.048,127.456001L310.048,126.16L301.96799,126.16ZM304.16,130.208L307.85599,130.208L307.85599,132.880001L304.16,132.880001L304.16,130.208ZM302.76801,128.94400000000002L302.76801,135.279999L304.16,135.279999L304.16,134.16L309.24799,134.16L309.24799,128.94400000000002L302.76801,128.94400000000002ZM299.31201,123.295998L299.31201,137.360001L300.784,137.360001L300.784,124.720001L311.23199,124.720001L311.23199,135.52C311.23199,135.792,311.13599,135.888,310.84799,135.903999C310.57599,135.903999,309.63199,135.919998,308.70401,135.872002C308.92801,136.271999,309.168,136.959999,309.23199,137.360001C310.59201,137.360001,311.44,137.327999,311.98401,137.071999C312.52802,136.832001,312.72,136.38399900000002,312.72,135.535999L312.72,123.295998L299.31201,123.295998ZM327.20001,122.767998L327.20001,135.472C327.20001,135.759998,327.08801,135.855999,326.76801,135.872002C326.46399,135.888,325.42401,135.888,324.336,135.855999C324.56,136.256001,324.784,136.89600000000002,324.86401,137.296001C326.36801,137.312,327.31201,137.264,327.90399,137.040001C328.48001,136.799999,328.70401,136.400002,328.70401,135.472L328.70401,122.767998L327.20001,122.767998ZM324.09601,124.335999L324.09601,133.327999L325.552,133.327999L325.552,124.335999L324.09601,124.335999ZM316.86401,128.33599900000002L316.496,128.33599900000002C317.58401,127.327999,318.52802,126.143997,319.29599,124.86399800000001C320.32001,126,321.44,127.327999,322.14401,128.33599900000002L316.86401,128.33599900000002ZM318.896,122.495998C318.048,124.543999,316.35199,126.73599999999999,314.36801,128.127998C314.68799,128.38399900000002,315.216,128.911999,315.45599,129.216C315.71201,129.023998,315.96799,128.799999,316.224,128.591999L316.224,135.071999C316.224,136.688,316.73599,137.10399999999998,318.43201,137.10399999999998C318.79999,137.10399999999998,320.84799,137.10399999999998,321.23199,137.10399999999998C322.76801,137.10399999999998,323.18399,136.448002,323.35999,134.208C322.95999,134.127998,322.35199,133.888,322.03201,133.647999C321.952,135.45600100000001,321.82401,135.792,321.12,135.792C320.672,135.792,318.95999,135.792,318.59201,135.792C317.82401,135.792,317.69601,135.695999,317.69601,135.05599999999998L317.69601,129.647999L320.75201,129.647999C320.64001,131.344002,320.51199,132.048,320.336,132.256001C320.20801,132.400002,320.07999,132.416,319.87201,132.416C319.64801,132.416,319.12,132.416,318.56,132.352001C318.76801,132.703999,318.91199,133.248001,318.92801,133.632C319.60001,133.66400099999998,320.224,133.66400099999998,320.57599,133.61600099999998C320.992,133.568001,321.29599,133.45600100000001,321.56799,133.152C321.936,132.736,322.09601,131.61600099999998,322.23999,128.880001L322.25601,128.495998L322.46399,128.815998L323.56799,127.792C322.81601,126.672001,321.26401,124.944,319.98401,123.599998L320.28799,122.928001L318.896,122.495998ZM335.71201,132.736C336.19199,133.52,336.75201,134.576,337.008,135.248001L338.048,134.624001C337.79199,133.967999,337.23199,132.959999,336.72,132.192001L335.71201,132.736ZM332.01599,132.304001C331.69601,133.231998,331.18399,134.192001,330.56,134.863998C330.84799,135.040001,331.34399,135.391998,331.56799,135.599998C332.19199,134.863998,332.832,133.695999,333.20001,132.608002L332.01599,132.304001ZM338.81601,124.031998L338.81601,129.599998C338.81601,131.695999,338.70401,134.400002,337.42401,136.271999C337.74399,136.431999,338.336,136.89600000000002,338.57599,137.183998C340.01599,135.119999,340.224,131.919998,340.224,129.599998L340.224,129.248001L342.28799,129.248001L342.28799,137.264L343.76001,137.264L343.76001,129.248001L345.392,129.248001L345.392,127.84L340.224,127.84L340.224,125.023998C341.85599,124.751999,343.616,124.351997,344.95999,123.84L343.76001,122.720001C342.608,123.231998,340.59201,123.728001,338.81601,124.031998ZM333.29599,122.751999C333.504,123.16799900000001,333.71201,123.664001,333.888,124.12799799999999L330.92801,124.12799799999999L330.92801,125.37599900000001L338.048,125.37599900000001L338.048,124.12799799999999L335.42401,124.12799799999999C335.23199,123.599998,334.92801,122.944,334.65601,122.416L333.29599,122.751999ZM335.85599,125.391998C335.67999,126.08000200000001,335.34399,127.056,335.056,127.743999L332.81601,127.743999L333.728,127.503998C333.664,126.928001,333.40799,126.063999,333.08801,125.424L331.87201,125.711998C332.16,126.351997,332.36801,127.183998,332.43201,127.743999L330.672,127.743999L330.672,129.00799899999998L333.87201,129.00799899999998L333.87201,130.48L330.75201,130.48L330.75201,131.776001L333.87201,131.776001L333.87201,135.568001C333.87201,135.728001,333.82401,135.776001,333.64801,135.776001C333.47198,135.792,332.97601,135.792,332.448,135.776001C332.64001,136.127998,332.832,136.672001,332.88,137.040001C333.69601,137.040001,334.28799,137.00799899999998,334.70401,136.799999C335.12,136.591999,335.23199,136.240002,335.23199,135.599998L335.23199,131.776001L338.07999,131.776001L338.07999,130.48L335.23199,130.48L335.23199,129.00799899999998L338.30402,129.00799899999998L338.30402,127.743999L336.41602,127.743999C336.68799,127.13600199999999,336.97601,126.383999,337.24799,125.68L335.85599,125.391998ZM353.168,122.495998L353.168,125.312L347.48801,125.312L347.48801,133.152L348.992,133.152L348.992,132.192001L353.168,132.192001L353.168,137.327999L354.75201,137.327999L354.75201,132.192001L358.944,132.192001L358.944,133.071999L360.51199,133.071999L360.51199,125.312L354.75201,125.312L354.75201,122.495998L353.168,122.495998ZM348.992,130.703999L348.992,126.799999L353.168,126.799999L353.168,130.703999L348.992,130.703999ZM358.944,130.703999L354.75201,130.703999L354.75201,126.799999L358.944,126.799999L358.944,130.703999ZM366.72,127.007999L366.72,134.736C366.72,136.512001,367.26401,137.040001,369.15201,137.040001C369.53601,137.040001,371.71201,137.040001,372.14401,137.040001C374.01599,137.040001,374.448,136.127998,374.64001,133.088001C374.224,132.975998,373.56799,132.703999,373.216,132.431999C373.08801,135.088001,372.95999,135.61600099999998,372.03201,135.61600099999998C371.53601,135.61600099999998,369.71201,135.61600099999998,369.29599,135.61600099999998C368.448,135.61600099999998,368.28799,135.487999,368.28799,134.736L368.28799,127.007999L366.72,127.007999ZM364.01599,128.096001C363.79199,130.112,363.29599,132.576,362.65601,134.240002L364.17599,134.863998C364.784,133.10399999999998,365.24799,130.352001,365.48801,128.38399900000002L364.01599,128.096001ZM374.01599,128.192001C374.88,130.080002,375.74399,132.624001,376.03201,134.271999L377.552,133.647999C377.20001,132,376.336,129.551998,375.42401,127.632L374.01599,128.192001ZM367.37601,123.91999799999999C368.896,124.975998,370.81601,126.52799999999999,371.69601,127.535999L372.79999,126.368C371.85599,125.360001,369.888,123.888,368.41602,122.91199900000001L367.37601,123.91999799999999Z" fill="#232323" fill-opacity="1"/></g></g></g></svg>