<svg xmlns="http://www.w3.org/2000/svg" xmlns:xlink="http://www.w3.org/1999/xlink" fill="none" version="1.1" width="680" height="117" viewBox="0 0 680 117"><defs><filter id="master_svg0_70_07216" filterUnits="objectBoundingBox" color-interpolation-filters="sRGB" x="-0.03076923076923077" y="-0.1927710843373494" width="1.0615384615384615" height="1.4819277108433735"><feFlood flood-opacity="0" result="BackgroundImageFix"/><feColorMatrix in="SourceAlpha" type="matrix" values="0 0 0 0 0 0 0 0 0 0 0 0 0 0 0 0 0 0 127 0"/><feOffset dy="4" dx="0"/><feGaussianBlur stdDeviation="5"/><feColorMatrix type="matrix" values="0 0 0 0 0 0 0 0 0 0 0 0 0 0 0 0 0 0 0.10000000149011612 0"/><feBlend mode="normal" in2="BackgroundImageFix" result="effect1_dropShadow"/><feBlend mode="normal" in="SourceGraphic" in2="effect1_dropShadow" result="shape"/></filter></defs><g><g><g filter="url(#master_svg0_70_07216)"><rect x="15" y="15" width="650" height="83" rx="10" fill="#FFFFFF" fill-opacity="1"/></g><g><path d="M37.598,75.346001C37.0240002,76.676001,36.0440001,77.992001,34.99400002,78.860001C35.26,79.014,35.694,79.35,35.8900001,79.532C36.898,78.58,37.9760001,77.110001,38.6480002,75.62599900000001L37.598,75.346001ZM43.3240004,75.765999C44.402,76.858,45.662001000000004,78.398001,46.222,79.364L47.160001,78.846001C46.572001,77.865999,45.284,76.396,44.192,75.332001L43.3240004,75.765999ZM35.0780001,69.101999L35.0780001,70.096L38.480000000000004,70.096C37.9200001,71.118,37.4020002,71.93,37.1500001,72.251999C36.73,72.868,36.4220002,73.274,36.1000001,73.358C36.24,73.652,36.4220002,74.19800000000001,36.4780002,74.436001C36.632,74.309999,37.164,74.24,38.0040002,74.24L41.098,74.24L41.098,78.664C41.098,78.860001,41.0560002,78.916,40.8320003,78.916C40.5940003,78.93,39.8520002,78.93,39.04,78.916C39.1940002,79.209999,39.3760004,79.686001,39.4460001,80.007999C40.4400001,80.007999,41.1540003,79.98,41.5880003,79.798C42.0220003,79.615999,42.1620007,79.29400100000001,42.1620007,78.677999L42.1620007,74.24L46.236000000000004,74.24L46.236000000000004,73.218L42.1620007,73.218L42.1620007,71.16L41.098,71.16L41.098,73.218L37.766,73.218C38.4380002,72.307999,39.1240001,71.23,39.7540002,70.096L46.838,70.096L46.838,69.101999L40.2860003,69.101999C40.5380001,68.612,40.775999999999996,68.108,41,67.618L39.880000100000004,67.155999C39.6280003,67.814,39.3200002,68.472,38.9980001,69.101999L35.0780001,69.101999ZM54.16,67.547999C54.524,68.205999,54.944,69.101999,55.111999999999995,69.662L48.952,69.662L48.952,70.684L52.774,70.684C52.605999,73.903999,52.256001,77.530001,48.644,79.322001C48.924,79.518,49.26,79.882,49.414,80.148001C52.074000999999996,78.761999,53.124001,76.438,53.572001,73.945999L58.584,73.945999C58.360001,77.110001,58.08,78.468,57.674,78.832001C57.492001,78.97200000000001,57.310001,79,57.001999,79C56.624001,79,55.644001,78.986,54.635999999999996,78.902C54.846001,79.181999,54.986000000000004,79.615999,55.013999999999996,79.924C55.952,79.993999,56.875999,80.007999,57.366001,79.96600000000001C57.912001000000004,79.938,58.262001,79.84,58.584,79.476C59.130001,78.93,59.41,77.403999,59.690000999999995,73.427999C59.718,73.274,59.732,72.924,59.732,72.924L53.739999999999995,72.924C53.824000999999996,72.181999,53.880001,71.425999,53.922001,70.684L61.104,70.684L61.104,69.662L55.195999,69.662L56.190000999999995,69.228C55.993999,68.667999,55.560001,67.814,55.167998999999995,67.155999L54.16,67.547999ZM68.327999,73.288L68.327999,75.304001L64.85600099999999,75.304001L64.85600099999999,73.288L68.327999,73.288ZM69.433998,73.288L73.03200100000001,73.288L73.03200100000001,75.304001L69.433998,75.304001L69.433998,73.288ZM68.327999,72.307999L64.85600099999999,72.307999L64.85600099999999,70.306L68.327999,70.306L68.327999,72.307999ZM69.433998,72.307999L69.433998,70.306L73.03200100000001,70.306L73.03200100000001,72.307999L69.433998,72.307999ZM63.763999999999996,69.27L63.763999999999996,77.194L64.85600099999999,77.194L64.85600099999999,76.326L68.327999,76.326L68.327999,77.809999C68.327999,79.44800000000001,68.79000099999999,79.882,70.358002,79.882C70.708,79.882,73.07400100000001,79.882,73.452,79.882C74.950001,79.882,75.285999,79.139999,75.468002,77.011999C75.146,76.927999,74.697998,76.732,74.41799900000001,76.535999C74.32,78.35600099999999,74.18,78.818001,73.396,78.818001C72.891998,78.818001,70.848,78.818001,70.428001,78.818001C69.58800099999999,78.818001,69.433998,78.65,69.433998,77.837999L69.433998,76.326L74.110001,76.326L74.110001,69.27L69.433998,69.27L69.433998,67.268L68.327999,67.268L68.327999,69.27L63.763999999999996,69.27ZM79.556,70.74L79.556,71.622L87.942001,71.622L87.942001,70.74L79.556,70.74ZM79.598,67.212C78.92599899999999,69.242,77.76400000000001,71.188,76.391998,72.42C76.658001,72.559999,77.119999,72.882,77.33000200000001,73.049999C78.183998,72.195999,78.995998,71.02,79.66799900000001,69.717999L88.978001,69.717999L88.978001,68.794L80.116001,68.794C80.312,68.36,80.493999,67.912,80.647999,67.464L79.598,67.212ZM78.141998,72.728001L78.141998,73.652L85.771999,73.652C85.92600300000001,77.27799999999999,86.444,80.10600099999999,88.306,80.10600099999999C89.146,80.10600099999999,89.384003,79.44800000000001,89.482002,77.782C89.243999,77.642,88.950001,77.403999,88.740002,77.166C88.712002,78.341999,88.62799799999999,79.07,88.37599900000001,79.07C87.28399999999999,79.084,86.891998,75.934,86.793999,72.728001L78.141998,72.728001ZM99.730003,73.68C99.730003,76.41,100.835999,78.636,102.515999,80.344L103.356003,79.91C101.746002,78.243999,100.751999,76.172001,100.751999,73.68C100.751999,71.188,101.746002,69.115999,103.356003,67.45L102.515999,67.016C100.835999,68.724,99.730003,70.95,99.730003,73.68ZM110.566002,67.45C110.804001,68.038,111.098,68.80799999999999,111.237999,69.368L106.001999,69.368L106.001999,73.386C106.001999,75.275999,105.862,77.74,104.545998,79.504C104.783997,79.64399900000001,105.232002,80.049999,105.400002,80.26C106.870003,78.35600099999999,107.108002,75.458,107.108002,73.386L107.108002,70.389999L117.188004,70.389999L117.188004,69.368L111.910004,69.368L112.414001,69.242C112.260002,68.71000000000001,111.938004,67.87,111.643997,67.226L110.566002,67.45ZM121.304001,67.478L121.304001,71.818001C121.304001,74.394001,121.066002,77.194,118.783997,79.29400100000001C119.022003,79.476,119.386002,79.854,119.540001,80.091999C122.059998,77.79599999999999,122.354004,74.702,122.354004,71.818001L122.354004,67.478L121.304001,67.478ZM125.307999,67.785999L125.307999,79.153999L126.344002,79.153999L126.344002,67.785999L125.307999,67.785999ZM129.480003,67.436L129.480003,79.952L130.529999,79.952L130.529999,67.436L129.480003,67.436ZM119.736,70.69800000000001C119.512001,71.916,119.050003,73.427999,118.405998,74.394001L119.316002,74.785999C119.945999,73.806,120.365997,72.195999,120.632004,70.95L119.736,70.69800000000001ZM122.690002,71.243999C123.18,72.392,123.627998,73.889999,123.753998,74.799999L124.678001,74.408001C124.538002,73.511999,124.061996,72.056,123.557999,70.922L122.690002,71.243999ZM126.652,71.188C127.295998,72.293999,127.940002,73.77799999999999,128.178001,74.688L129.059998,74.226C128.821999,73.316,128.13600200000002,71.87400099999999,127.464005,70.79599999999999L126.652,71.188ZM136.26999999999998,73.68C136.26999999999998,70.95,135.164,68.724,133.484001,67.016L132.643997,67.45C134.25400000000002,69.115999,135.248,71.188,135.248,73.68C135.248,76.172001,134.25400000000002,78.243999,132.643997,79.91L133.484001,80.344C135.164,78.636,136.26999999999998,76.41,136.26999999999998,73.68ZM148.226,71.439999L148.226,75.79400100000001L152.426,75.79400100000001L152.426,76.76L147.77800000000002,76.76L147.77800000000002,77.6L152.426,77.6L152.426,78.818001L146.728,78.818001L146.728,79.672001L159.286,79.672001L159.286,78.818001L153.476,78.818001L153.476,77.6L158.404,77.6L158.404,76.76L153.476,76.76L153.476,75.79400100000001L157.872,75.79400100000001L157.872,71.439999L153.476,71.439999L153.476,70.585999L159.216,70.585999L159.216,69.717999L153.476,69.717999L153.476,68.639999C155.114,68.514,156.654,68.346,157.858,68.136L157.298,67.323999C155.086,67.716,151.124,67.981999,147.862,68.066C147.95999999999998,68.276,148.072,68.653999,148.086,68.891999C149.458,68.863999,150.95600000000002,68.80799999999999,152.426,68.724L152.426,69.717999L146.812,69.717999L146.812,70.585999L152.426,70.585999L152.426,71.439999L148.226,71.439999ZM149.248,73.959999L152.426,73.959999L152.426,75.024L149.248,75.024L149.248,73.959999ZM153.476,73.959999L156.808,73.959999L156.808,75.024L153.476,75.024L153.476,73.959999ZM149.248,72.195999L152.426,72.195999L152.426,73.246L149.248,73.246L149.248,72.195999ZM153.476,72.195999L156.808,72.195999L156.808,73.246L153.476,73.246L153.476,72.195999ZM168.89,68.038L168.89,72.728001L169.856,72.728001L169.856,68.038L168.89,68.038ZM171.508,67.323999L171.508,73.582001C171.508,73.764,171.452,73.82,171.228,73.834C171.01801,73.848,170.31799,73.848,169.52,73.82C169.674,74.1,169.814,74.506001,169.87,74.785999C170.864,74.785999,171.55,74.771999,171.97,74.604C172.39,74.450001,172.502,74.184,172.502,73.596001L172.502,67.323999L171.508,67.323999ZM165.43201,68.738L165.43201,70.67L163.696,70.67L163.696,70.585999L163.696,68.738L165.43201,68.738ZM160.938,70.67L160.938,71.608L162.646,71.608C162.492,72.54599999999999,162.03,73.497999,160.826,74.24C161.022,74.379999,161.372,74.771999,161.512,74.968C162.94,74.086,163.472,72.826,163.62601,71.608L165.43201,71.608L165.43201,74.618L166.42599,74.618L166.42599,71.608L168.022,71.608L168.022,70.67L166.42599,70.67L166.42599,68.738L167.728,68.738L167.728,67.814L161.4,67.814L161.4,68.738L162.73,68.738L162.73,70.572L162.73,70.67L160.938,70.67ZM166.53799,74.351999L166.53799,75.906L162.114,75.906L162.114,76.872L166.53799,76.872L166.53799,78.65L160.65800000000002,78.65L160.65800000000002,79.629999L173.328,79.629999L173.328,78.65L167.616,78.65L167.616,76.872L171.87199,76.872L171.87199,75.906L167.616,75.906L167.616,74.351999L166.53799,74.351999ZM180.972,68.038L180.972,72.532C180.972,74.702,180.776,77.487999,178.886,79.44800000000001C179.12399,79.573999,179.53,79.924,179.68401,80.120001C181.7,78.048,181.994,74.869999,181.994,72.532L181.994,69.032L184.62601,69.032L184.62601,78.048C184.62601,79.252001,184.71001,79.504,184.948,79.714001C185.158,79.896,185.466,79.98,185.746,79.98C185.92799,79.98,186.25,79.98,186.46001,79.98C186.754,79.98,187.006,79.924,187.202,79.78399999999999C187.412,79.64399900000001,187.524,79.406,187.59399,79C187.64999,78.65,187.70599,77.614,187.70599,76.816C187.44,76.732,187.118,76.563999,186.908,76.368C186.894,77.306,186.88,78.048,186.838,78.370001C186.82401,78.691999,186.782,78.818001,186.698,78.902C186.642,78.97200000000001,186.53,79,186.418,79C186.278,79,186.11,79,186.01199,79C185.89999,79,185.83,78.97200000000001,185.75999,78.916C185.69,78.860001,185.662,78.594,185.662,78.132L185.662,68.038L180.972,68.038ZM177.052,67.24L177.052,70.236L174.728,70.236L174.728,71.243999L176.912,71.243999C176.408,73.190001,175.386,75.37400099999999,174.392,76.549999C174.56,76.80199999999999,174.826,77.22200000000001,174.938,77.502001C175.722,76.535999,176.478,74.95400000000001,177.052,73.316L177.052,80.10600099999999L178.07401,80.10600099999999L178.07401,73.68C178.62,74.379999,179.278,75.247999,179.558,75.72399899999999L180.216,74.855999C179.894,74.492001,178.564,72.993999,178.07401,72.504L178.07401,71.243999L180.146,71.243999L180.146,70.236L178.07401,70.236L178.07401,67.24L177.052,67.24ZM190.744,68.78L193.12399,68.78L193.12399,70.754L190.744,70.754L190.744,68.78ZM196.70801,68.78L199.228,68.78L199.228,70.754L196.70801,70.754L196.70801,68.78ZM196.59601,72.22399899999999C197.18401,72.44800000000001,197.884,72.798,198.36,73.119999L194.328,73.119999C194.64999,72.672001,194.92999,72.209999,195.15401,71.747999L194.118,71.55199999999999L194.118,67.87L189.79201,67.87L189.79201,71.664L194.034,71.664C193.81,72.153999,193.48801,72.64399900000001,193.09599,73.119999L188.728,73.119999L188.728,74.057999L192.172,74.057999C191.22,74.897999,189.974,75.653999,188.42,76.228001C188.63,76.424,188.896,76.788,189.008,77.025999L189.79201,76.690001L189.79201,80.120001L190.772,80.120001L190.772,79.714001L193.11,79.714001L193.11,80.035999L194.118,80.035999L194.118,75.79400100000001L191.444,75.79400100000001C192.27,75.261999,192.97,74.674,193.54401,74.057999L196.14799,74.057999C196.73599,74.702,197.506,75.304001,198.34601,75.79400100000001L195.77,75.79400100000001L195.77,80.120001L196.73599,80.120001L196.73599,79.714001L199.228,79.714001L199.228,80.035999L200.25,80.035999L200.25,76.70400000000001L200.936,76.927999C201.076,76.676001,201.37,76.28399999999999,201.608,76.087999C200.082,75.72399899999999,198.51401,74.968,197.45,74.057999L201.286,74.057999L201.286,73.119999L198.836,73.119999L199.214,72.714001C198.752,72.35,197.856,71.916,197.142,71.664L196.59601,72.22399899999999ZM195.742,67.87L195.742,71.664L200.25,71.664L200.25,67.87L195.742,67.87ZM190.772,78.790001L190.772,76.718L193.11,76.718L193.11,78.790001L190.772,78.790001ZM196.73599,78.790001L196.73599,76.718L199.228,76.718L199.228,78.790001L196.73599,78.790001ZM205.82201,79.78399999999999L206.774,78.97200000000001C205.90601,77.950001,204.646,76.676001,203.638,75.864L202.728,76.662001C203.722,77.47399899999999,204.92599,78.677999,205.82201,79.78399999999999ZM221.46001,68.696L221.46001,69.70400000000001L226.864,69.70400000000001C221.43201,75.962,221.166,76.969999,221.166,77.837999C221.166,78.860001,221.936,79.49,223.60201,79.49L227.13,79.49C228.54401,79.49,228.978,78.944,229.132,76.004C228.838,75.94800000000001,228.446,75.808001,228.166,75.653999C228.09601,78.03399999999999,227.92799,78.482,227.186,78.482L223.532,78.468C222.748,78.468,222.216,78.257999,222.216,77.726C222.216,77.068001,222.58,76.087999,228.698,69.2C228.754,69.13,228.81,69.073999,228.85201,69.004L228.17999,68.653999L227.92799,68.696L221.46001,68.696ZM219.92,67.268C219.12199,69.396,217.82001,71.51,216.43401,72.854C216.63,73.091999,216.938,73.652,217.036,73.903999C217.56799,73.358,218.07201,72.714001,218.562,72.014L218.562,80.091999L219.57001,80.091999L219.57001,70.403999C220.07401,69.493999,220.536,68.542,220.89999,67.575999L219.92,67.268ZM230.63,78.257999L230.826,79.266001C232.142,78.902,233.92,78.426001,235.62801,77.978001L235.53,77.082001C233.71001,77.54400100000001,231.84801,77.992001,230.63,78.257999ZM230.868,73.077999C231.064,72.98,231.37199,72.896,233.09399,72.64399900000001C232.492,73.582001,231.93201,74.323999,231.67999,74.604C231.246,75.122,230.938,75.47200000000001,230.658,75.52799999999999C230.77,75.780001,230.91,76.256001,230.966,76.452C231.23199,76.28399999999999,231.67999,76.14399900000001,235.12399,75.402C235.09599,75.191999,235.09599,74.799999,235.12399,74.53399999999999L232.35201,75.08C233.37399,73.82,234.396,72.279999,235.278,70.74L234.48,70.222C234.228,70.726,233.948,71.243999,233.65401,71.733999L231.862,71.93C232.688,70.726,233.48599,69.186,234.116,67.688L233.20599,67.24C232.632,68.94800000000001,231.62399,70.782,231.31599,71.243999C231.008,71.719999,230.784,72.042,230.54601,72.112C230.644,72.378,230.812,72.868,230.868,73.077999ZM238.62399,67.226L238.62399,69.144L235.726,69.144L235.726,70.124L238.62399,70.124L238.62399,71.65L236.034,71.65L236.034,72.629999L238.62399,72.629999L238.62399,74.226L235.48801,74.226L235.48801,75.20599899999999L238.62399,75.20599899999999L238.62399,80.091999L239.702,80.091999L239.702,75.20599899999999L242.29201,75.20599899999999C242.17999,76.927999,242.03999,77.6,241.858,77.809999C241.774,77.922001,241.662,77.936001,241.494,77.936001C241.312,77.936001,240.93401,77.936001,240.48599,77.89399900000001C240.612,78.132,240.71001,78.51,240.724,78.775999C241.2,78.804001,241.64799,78.790001,241.89999,78.775999C242.222,78.747999,242.43201,78.664,242.62801,78.440001C242.936,78.09,243.09,77.12400099999999,243.258,74.632C243.272,74.492001,243.272,74.226,243.272,74.226L239.702,74.226L239.702,72.629999L242.37601,72.629999L242.37601,71.65L239.702,71.65L239.702,70.124L242.894,70.124L242.894,69.144L239.702,69.144L239.702,67.226L238.62399,67.226ZM251.40601,71.482L253.18401,71.482L253.18401,73.372L251.40601,73.372L251.40601,71.482ZM254.108,71.482L255.802,71.482L255.802,73.372L254.108,73.372L254.108,71.482ZM251.40601,68.766L253.18401,68.766L253.18401,70.627999L251.40601,70.627999L251.40601,68.766ZM254.108,68.766L255.802,68.766L255.802,70.627999L254.108,70.627999L254.108,68.766ZM249.85201,78.832001L249.85201,79.77L257.37,79.77L257.37,78.832001L254.164,78.832001L254.164,76.774L256.866,76.774L256.866,75.836L254.164,75.836L254.164,74.841999L254.108,74.841999L254.108,74.282L256.79601,74.282L256.79601,67.856L250.45399,67.856L250.45399,74.282L253.18401,74.282L253.18401,74.841999L253.12801,74.841999L253.12801,75.836L250.45399,75.836L250.45399,76.774L253.12801,76.774L253.12801,78.832001L249.85201,78.832001ZM246.562,67.268C246.114,68.584,245.34399,69.83,244.476,70.656C244.644,70.894,244.924,71.41199900000001,245.008,71.636C245.498,71.146,245.974,70.516,246.394,69.83L249.76801,69.83L249.76801,68.835999L246.95399,68.835999C247.14999,68.415999,247.34599,67.981999,247.5,67.547999L246.562,67.268ZM244.854,74.184L244.854,75.15L246.968,75.15L246.968,77.879999C246.968,78.566,246.464,79.056,246.18401,79.252001C246.38,79.42,246.66,79.812,246.772,80.021999C246.996,79.77,247.388,79.518,250.02,77.992001C249.936,77.782,249.82401,77.37599900000001,249.76801,77.096001L247.976,78.09L247.976,75.15L249.922,75.15L249.922,74.184L247.976,74.184L247.976,72.293999L249.51601,72.293999L249.51601,71.341999L245.51199,71.341999L245.51199,72.293999L246.968,72.293999L246.968,74.184L244.854,74.184ZM263.36199999999997,73.119999L263.36199999999997,74.323999L260.38,74.323999L260.38,73.119999L263.36199999999997,73.119999ZM259.39999,72.22399899999999L259.39999,80.10600099999999L260.38,80.10600099999999L260.38,77.25L263.36199999999997,77.25L263.36199999999997,78.888C263.36199999999997,79.07,263.32001,79.12599900000001,263.13800000000003,79.12599900000001C262.92799,79.139999,262.34000000000003,79.139999,261.68201,79.112C261.82201,79.392,261.976,79.798,262.03200000000004,80.077999C262.914,80.077999,263.51601,80.063999,263.908,79.91C264.286,79.742001,264.39799,79.44800000000001,264.39799,78.902L264.39799,72.22399899999999L259.39999,72.22399899999999ZM260.38,75.15L263.36199999999997,75.15L263.36199999999997,76.424L260.38,76.424L260.38,75.15ZM270.01198999999997,68.28999999999999C269.214,68.71000000000001,267.95399,69.214,266.75,69.62L266.75,67.268L265.714,67.268L265.714,71.916C265.714,73.063999,266.06399999999996,73.386,267.408,73.386C267.688,73.386,269.50800000000004,73.386,269.81599,73.386C270.922,73.386,271.244,72.924,271.356,71.21600000000001C271.062,71.146,270.642,70.992,270.43201,70.809999C270.36199999999997,72.195999,270.26401,72.434,269.71799999999996,72.434C269.326,72.434,267.786,72.434,267.49199999999996,72.434C266.86199999999997,72.434,266.75,72.35,266.75,71.902L266.75,70.474C268.108,70.082,269.606,69.578,270.71200999999996,69.073999L270.01198999999997,68.28999999999999ZM270.17999,74.53399999999999C269.368,75.05199999999999,268.024,75.598,266.75,76.018L266.75,73.77799999999999L265.714,73.77799999999999L265.714,78.51C265.714,79.686001,266.078,79.993999,267.43600000000004,79.993999C267.73,79.993999,269.578,79.993999,269.88599999999997,79.993999C271.062,79.993999,271.356,79.49,271.48199,77.614C271.202,77.54400100000001,270.78200000000004,77.37599900000001,270.54400999999996,77.208C270.48801000000003,78.790001,270.37601,79.056,269.802,79.056C269.39599999999996,79.056,267.842,79.056,267.534,79.056C266.87601,79.056,266.75,78.97200000000001,266.75,78.524L266.75,76.886C268.164,76.493999,269.774,75.94800000000001,270.866,75.318001L270.17999,74.53399999999999ZM259.17599,71.257999C259.47,71.132,259.96001,71.062,263.79601,70.79599999999999C263.922,71.062,264.034,71.313999,264.118,71.538L265.028,71.118C264.73399,70.278,263.95,69.018,263.222,68.08L262.368,68.415999C262.71799999999996,68.891999,263.06799,69.452,263.37601,69.998L260.29601,70.165999C260.89799,69.424,261.528,68.486,262.01801,67.547999L260.92599,67.212C260.478,68.304,259.70799,69.41,259.47,69.70400000000001C259.23199,69.998,259.022,70.208,258.812,70.25C258.938,70.53,259.12,71.03399999999999,259.17599,71.257999ZM275.82201,79.78399999999999L276.774,78.97200000000001C275.90601000000004,77.950001,274.64599999999996,76.676001,273.63800000000003,75.864L272.728,76.662001C273.722,77.47399899999999,274.92599,78.677999,275.82201,79.78399999999999ZM297.95599,70.502C297.396,72.042,296.40201,74.086,295.63199,75.360001L296.5,75.808001C297.284,74.506001,298.23599,72.573999,298.90799,70.95L297.95599,70.502ZM287.14799,70.754C287.89,72.322001,288.716,74.464001,289.06599,75.695999L290.116,75.304001C289.724,74.072001,288.856,72.014,288.12801,70.46000000000001L287.14799,70.754ZM294.19,67.422L294.19,78.35600099999999L291.83801,78.35600099999999L291.83801,67.408L290.76001,67.408L290.76001,78.35600099999999L286.84000000000003,78.35600099999999L286.84000000000003,79.392L299.202,79.392L299.202,78.35600099999999L295.254,78.35600099999999L295.254,67.422L294.19,67.422ZM304.38199,80.134001L304.38199,80.120001C304.64801,79.952,305.09601,79.84,308.60999,78.958C308.582,78.761999,308.60999,78.35600099999999,308.65201,78.09L305.62799,78.761999L305.62799,75.892L307.56,75.892C308.526,78.048,310.30399,79.49,312.82401,80.134001C312.95001,79.854,313.23001,79.476,313.45401,79.266001C312.23599,79.014,311.172,78.566,310.31799,77.936001C311.04599,77.54400100000001,311.89999,77.025999,312.55801,76.521999L311.76001,75.962C311.242,76.396,310.388,76.969999,309.67401,77.37599900000001C309.22601,76.941999,308.84799,76.452,308.55399,75.892L313.29999,75.892L313.29999,74.968L310.37399,74.968L310.37399,73.497999L312.73999,73.497999L312.73999,72.601999L310.37399,72.601999L310.37399,71.299999L309.38,71.299999L309.38,72.601999L306.56601,72.601999L306.56601,71.299999L305.60001,71.299999L305.60001,72.601999L303.48599,72.601999L303.48599,73.497999L305.60001,73.497999L305.60001,74.968L303.09399,74.968L303.09399,75.892L304.634,75.892L304.634,78.16C304.634,78.790001,304.21399,79.112,303.948,79.252001C304.10199,79.44800000000001,304.31201,79.882,304.38199,80.134001ZM306.56601,73.497999L309.38,73.497999L309.38,74.968L306.56601,74.968L306.56601,73.497999ZM303.02399,68.822L311.41,68.822L311.41,70.25L303.02399,70.25L303.02399,68.822ZM301.974,67.912L301.974,72.02799999999999C301.974,74.268,301.84799,77.389999,300.43399,79.587999C300.70001,79.700001,301.16199,79.96600000000001,301.37201,80.134001C302.828,77.837999,303.02399,74.408001,303.02399,72.02799999999999L303.02399,71.174L312.45999,71.174L312.45999,67.912L301.974,67.912ZM320.328,73.288L320.328,75.304001L316.85599,75.304001L316.85599,73.288L320.328,73.288ZM321.43399,73.288L325.03201,73.288L325.03201,75.304001L321.43399,75.304001L321.43399,73.288ZM320.328,72.307999L316.85599,72.307999L316.85599,70.306L320.328,70.306L320.328,72.307999ZM321.43399,72.307999L321.43399,70.306L325.03201,70.306L325.03201,72.307999L321.43399,72.307999ZM315.76401,69.27L315.76401,77.194L316.85599,77.194L316.85599,76.326L320.328,76.326L320.328,77.809999C320.328,79.44800000000001,320.79001,79.882,322.358,79.882C322.70801,79.882,325.07401,79.882,325.452,79.882C326.95001,79.882,327.28601,79.139999,327.46799,77.011999C327.146,76.927999,326.698,76.732,326.418,76.535999C326.32001,78.35600099999999,326.17999,78.818001,325.396,78.818001C324.892,78.818001,322.84799,78.818001,322.42801,78.818001C321.58801,78.818001,321.43399,78.65,321.43399,77.837999L321.43399,76.326L326.10999,76.326L326.10999,69.27L321.43399,69.27L321.43399,67.268L320.328,67.268L320.328,69.27L315.76401,69.27ZM334.51001,71.439999L334.51001,73.469999L328.71399,73.469999L328.71399,74.52L334.51001,74.52L334.51001,78.719999C334.51001,78.97200000000001,334.41199,79.042,334.13199,79.056C333.82401,79.07,332.78799,79.084,331.65399,79.02799999999999C331.82199,79.336,332.01801,79.812,332.10199,80.120001C333.44601,80.120001,334.35599,80.091999,334.87399,79.924C335.42001,79.756001,335.60199,79.434,335.60199,78.733999L335.60199,74.52L341.34201,74.52L341.34201,73.469999L335.60199,73.469999L335.60199,71.986C337.198,71.16,339.004,69.9,340.22198,68.724L339.42401,68.122L339.186,68.191999L330.11401,68.191999L330.11401,69.228L338.02399,69.228C337.03,70.03999999999999,335.672,70.894,334.51001,71.439999ZM345.82199,79.78399999999999L346.77399,78.97200000000001C345.90601,77.950001,344.646,76.676001,343.638,75.864L342.728,76.662001C343.72198,77.47399899999999,344.92599,78.677999,345.82199,79.78399999999999ZM362.39801,76.032C363.08401,76.718,363.82599,77.684,364.12,78.327999L364.95999,77.782C364.62399,77.138,363.86801,76.214001,363.18201,75.556L362.39801,76.032ZM364.98801,67.226L364.98801,68.752L362.258,68.752L362.258,69.731999L364.98801,69.731999L364.98801,71.496L361.44601,71.496L361.44601,72.49L366.69601,72.49L366.69601,74.156L361.67001,74.156L361.67001,75.15L366.69601,75.15L366.69601,78.818001C366.69601,79.014,366.64001,79.07,366.41602,79.07C366.17801,79.098,365.422,79.098,364.582,79.07C364.72198,79.364,364.862,79.812,364.90399,80.120001C365.96799,80.120001,366.69601,80.091999,367.13,79.938C367.578,79.77,367.70401,79.462,367.70401,78.818001L367.70401,75.15L369.328,75.15L369.328,74.156L367.70401,74.156L367.70401,72.49L369.41199,72.49L369.41199,71.496L365.98199,71.496L365.98199,69.731999L368.76801,69.731999L368.76801,68.752L365.98199,68.752L365.98199,67.226L364.98801,67.226ZM357.358,68.318C357.23199,70.068,356.966,71.888,356.54599,73.063999C356.75601,73.147999,357.17599,73.372,357.358,73.511999C357.56799,72.868,357.75,72.042,357.90399,71.132L358.96799,71.132L358.96799,74.562C358.086,74.813999,357.28799,75.05199999999999,356.65799,75.219999L356.88199,76.28399999999999L358.96799,75.612L358.96799,80.120001L359.97601,80.120001L359.97601,75.290001L361.418,74.813999L361.33401,73.834L359.97601,74.254L359.97601,71.132L361.306,71.132L361.306,70.124L359.97601,70.124L359.97601,67.254L358.96799,67.254L358.96799,70.124L358.05801,70.124C358.12799,69.578,358.18399,69.032,358.23999,68.472L357.358,68.318ZM378.48401,67.155999C377.686,68.877999,376.048,70.978,373.612,72.434C373.85001,72.601999,374.15799,72.98,374.31201,73.232C376.216,72.02799999999999,377.65799,70.488,378.694,68.934C379.84201,70.55799999999999,381.466,72.139999,382.90799,73.049999C383.07599,72.78399999999999,383.41199,72.406,383.64999,72.22399899999999C382.09601,71.369999,380.29001,69.676,379.23999,68.05199999999999L379.604,67.365999L378.48401,67.155999ZM381.06,73.063999C379.95401,73.82,378.26001,74.71600000000001,376.832,75.346001L376.832,72.392L375.78201,72.392L375.78201,78.21600000000001C375.78201,79.518,376.216,79.854,377.784,79.854C378.12,79.854,380.52802,79.854,380.87799,79.854C382.26401,79.854,382.586,79.308001,382.73999,77.37599900000001C382.44601,77.306,382.01199,77.138,381.77399,76.95599899999999C381.69,78.608,381.578,78.902,380.82199,78.902C380.30399,78.902,378.26001,78.902,377.854,78.902C376.98599,78.902,376.832,78.790001,376.832,78.21600000000001L376.832,76.382C378.37201,75.765999,380.332,74.813999,381.746,73.959999L381.06,73.063999ZM373.668,67.254C372.92599,69.382,371.694,71.482,370.392,72.84C370.58801,73.091999,370.896,73.638,371.008,73.889999C371.42801,73.427999,371.84799,72.882,372.23999,72.307999L372.23999,80.091999L373.24799,80.091999L373.24799,70.642C373.79401,69.662,374.26999,68.612,374.66199,67.561999L373.668,67.254ZM386.50601,76.997999C386.12799,77.879999,385.45599,78.775999,384.728,79.378C384.98001,79.518,385.38599,79.826,385.56799,79.993999C386.28201,79.336,387.052,78.285999,387.51401,77.27799999999999L386.50601,76.997999ZM388.42401,77.403999C388.89999,77.978001,389.44601,78.761999,389.68399,79.252001L390.552,78.775999C390.29999,78.285999,389.73999,77.54400100000001,389.26401,77.011999L388.42401,77.403999ZM389.418,67.394L389.418,69.101999L386.85599,69.101999L386.85599,67.394L385.89001,67.394L385.89001,69.101999L384.742,69.101999L384.742,70.03999999999999L385.89001,70.03999999999999L385.89001,75.765999L384.53201,75.765999L384.53201,76.70400000000001L391.504,76.70400000000001L391.504,75.765999L390.39801,75.765999L390.39801,70.03999999999999L391.40601,70.03999999999999L391.40601,69.101999L390.39801,69.101999L390.39801,67.394L389.418,67.394ZM386.85599,70.03999999999999L389.418,70.03999999999999L389.418,71.327999L386.85599,71.327999L386.85599,70.03999999999999ZM386.85599,72.167999L389.418,72.167999L389.418,73.483999L386.85599,73.483999L386.85599,72.167999ZM386.85599,74.337999L389.418,74.337999L389.418,75.765999L386.85599,75.765999L386.85599,74.337999ZM391.93799,68.696L391.93799,73.540001C391.93799,75.751999,391.728,77.908001,390.09,79.658001C390.34201,79.84,390.664,80.10600099999999,390.84601,80.33C392.638,78.426001,392.918,76.115999,392.918,73.554001L392.918,72.924L394.98999,72.924L394.98999,80.134001L395.98401,80.134001L395.98401,72.924L397.45401,72.924L397.45401,71.944L392.918,71.944L392.918,69.368C394.47198,69.04599999999999,396.17999,68.57,397.35599,68.023999L396.50201,67.254C395.452,67.799999,393.56201,68.346,391.93799,68.696ZM404.328,73.288L404.328,75.304001L400.85599,75.304001L400.85599,73.288L404.328,73.288ZM405.43399,73.288L409.03201,73.288L409.03201,75.304001L405.43399,75.304001L405.43399,73.288ZM404.328,72.307999L400.85599,72.307999L400.85599,70.306L404.328,70.306L404.328,72.307999ZM405.43399,72.307999L405.43399,70.306L409.03201,70.306L409.03201,72.307999L405.43399,72.307999ZM399.76401,69.27L399.76401,77.194L400.85599,77.194L400.85599,76.326L404.328,76.326L404.328,77.809999C404.328,79.44800000000001,404.79001,79.882,406.358,79.882C406.70801,79.882,409.07401,79.882,409.452,79.882C410.95001,79.882,411.28601,79.139999,411.46799,77.011999C411.146,76.927999,410.698,76.732,410.418,76.535999C410.32001,78.35600099999999,410.17999,78.818001,409.396,78.818001C408.892,78.818001,406.84799,78.818001,406.42801,78.818001C405.58801,78.818001,405.43399,78.65,405.43399,77.837999L405.43399,76.326L410.10999,76.326L410.10999,69.27L405.43399,69.27L405.43399,67.268L404.328,67.268L404.328,69.27L399.76401,69.27ZM418.51001,71.439999L418.51001,73.469999L412.71399,73.469999L412.71399,74.52L418.51001,74.52L418.51001,78.719999C418.51001,78.97200000000001,418.41199,79.042,418.13199,79.056C417.82401,79.07,416.78799,79.084,415.65399,79.02799999999999C415.82199,79.336,416.01801,79.812,416.10199,80.120001C417.44601,80.120001,418.35599,80.091999,418.87399,79.924C419.42001,79.756001,419.60199,79.434,419.60199,78.733999L419.60199,74.52L425.34201,74.52L425.34201,73.469999L419.60199,73.469999L419.60199,71.986C421.198,71.16,423.004,69.9,424.22198,68.724L423.42401,68.122L423.186,68.191999L414.11401,68.191999L414.11401,69.228L422.02399,69.228C421.03,70.03999999999999,419.672,70.894,418.51001,71.439999ZM429.82199,79.78399999999999L430.77399,78.97200000000001C429.90601,77.950001,428.646,76.676001,427.638,75.864L426.728,76.662001C427.72198,77.47399899999999,428.92599,78.677999,429.82199,79.78399999999999ZM443.54199,79L444.84399,79L444.84399,69.83L447.952,69.83L447.952,68.738L440.43399,68.738L440.43399,69.83L443.54199,69.83L443.54199,79ZM453.28601,79.181999C454.616,79.181999,455.62399,78.65,456.436,77.712L455.72198,76.886C455.064,77.614,454.32199,78.048,453.34201,78.048C451.38199,78.048,450.14999,76.424,450.14999,73.834C450.14999,71.271999,451.452,69.69,453.384,69.69C454.26599,69.69,454.93799,70.082,455.48401,70.656L456.18399,69.816C455.59601,69.158,454.616,68.556,453.37,68.556C450.76599,68.556,448.82001,70.55799999999999,448.82001,73.87599900000001C448.82001,77.208,450.724,79.181999,453.28601,79.181999ZM458.354,79L464.13602,79L464.13602,77.89399900000001L459.642,77.89399900000001L459.642,68.738L458.354,68.738L458.354,79ZM471.96201,67.436L471.96201,70.222C471.164,70.488,470.33798,70.726,469.53998,70.936C469.694,71.146,469.862,71.51,469.93201,71.761999C470.604,71.594,471.276,71.397999,471.96201,71.202L471.96201,72.42C471.96201,73.582001,472.32599,73.889999,473.68399,73.889999C473.96399,73.889999,475.84,73.889999,476.14798,73.889999C477.28198,73.889999,477.57599,73.441999,477.702,71.818001C477.422,71.733999,477.00198,71.58,476.76398,71.41199900000001C476.70801,72.728001,476.60999,72.96600000000001,476.064,72.96600000000001C475.65799,72.96600000000001,474.07599,72.96600000000001,473.78198,72.96600000000001C473.12399,72.96600000000001,473.01199,72.882,473.01199,72.42L473.01199,70.866C474.63599,70.334,476.17599,69.70400000000001,477.32401,68.976L476.526,68.177999C475.65799,68.78,474.39798,69.354,473.01199,69.872L473.01199,67.436L471.96201,67.436ZM469.09198,67.212C468.18201,68.738,466.698,70.208,465.186,71.118C465.42398,71.313999,465.802,71.70599899999999,465.97,71.902C466.53,71.51,467.104,71.03399999999999,467.664,70.502L467.664,74.282L468.71399,74.282L468.71399,69.41C469.21799,68.822,469.694,68.191999,470.07199,67.561999L469.09198,67.212ZM465.26999,75.892L465.26999,76.914L470.98199,76.914L470.98199,80.120001L472.08798,80.120001L472.08798,76.914L477.828,76.914L477.828,75.892L472.08798,75.892L472.08798,74.254L470.98199,74.254L470.98199,75.892L465.26999,75.892ZM481.92999,70.684L489.15399,70.684L489.15399,71.944L481.92999,71.944L481.92999,70.684ZM481.92999,68.653999L489.15399,68.653999L489.15399,69.886L481.92999,69.886L481.92999,68.653999ZM480.90799,67.814L480.90799,72.78399999999999L490.23199,72.78399999999999L490.23199,67.814L480.90799,67.814ZM481.80399,72.798C481.24399,74.029999,480.26398,75.247999,479.242,76.032C479.49399,76.186001,479.92798,76.493999,480.12399,76.690001C480.61398,76.27,481.11798,75.72399899999999,481.57999,75.122L485.00998,75.122L485.00998,76.452L481.09,76.452L481.09,77.306L485.00998,77.306L485.00998,78.832001L479.452,78.832001L479.452,79.756001L491.66,79.756001L491.66,78.832001L486.10199,78.832001L486.10199,77.306L490.19,77.306L490.19,76.452L486.10199,76.452L486.10199,75.122L490.77798,75.122L490.77798,74.226L486.10199,74.226L486.10199,73.091999L485.00998,73.091999L485.00998,74.226L482.20999,74.226C482.448,73.862,482.65799,73.469999,482.84,73.091999L481.80399,72.798ZM494.474,68.276C495.18799,69.382,495.888,70.851999,496.12601,71.775999L497.14798,71.383999C496.88199,70.432,496.13998,69.004,495.42599,67.926L494.474,68.276ZM503.672,67.771999C503.28,68.877999,502.50998,70.432,501.90799,71.383999L502.80399,71.733999C503.41998,70.823999,504.17599,69.382,504.76398,68.164L503.672,67.771999ZM498.96799,67.24L498.96799,72.587999L493.31198,72.587999L493.31198,73.582001L497.04999,73.582001C496.82599,76.242001,496.29401,78.23,493.01801,79.224001C493.25598,79.434,493.564,79.854,493.67599,80.120001C497.20398,78.958,497.90399,76.662001,498.15601,73.582001L500.75998,73.582001L500.75998,78.55199999999999C500.75998,79.756001,501.09598,80.091999,502.35599,80.091999C502.608,80.091999,504.10599,80.091999,504.38599,80.091999C505.57599,80.091999,505.85599,79.49,505.98199,77.194C505.68799,77.110001,505.23999,76.927999,505.00198,76.746C504.94598,78.761999,504.862,79.098,504.302,79.098C503.966,79.098,502.73398,79.098,502.46799,79.098C501.922,79.098,501.81,79.014,501.81,78.55199999999999L501.81,73.582001L505.814,73.582001L505.814,72.587999L500.03198,72.587999L500.03198,67.24L498.96799,67.24ZM512.87,73.288L512.87,75.304001L509.39798,75.304001L509.39798,73.288L512.87,73.288ZM513.9759799999999,73.288L517.57401,73.288L517.57401,75.304001L513.9759799999999,75.304001L513.9759799999999,73.288ZM512.87,72.307999L509.39798,72.307999L509.39798,70.306L512.87,70.306L512.87,72.307999ZM513.9759799999999,72.307999L513.9759799999999,70.306L517.57401,70.306L517.57401,72.307999L513.9759799999999,72.307999ZM508.306,69.27L508.306,77.194L509.39798,77.194L509.39798,76.326L512.87,76.326L512.87,77.809999C512.87,79.44800000000001,513.332,79.882,514.89999,79.882C515.25,79.882,517.616,79.882,517.9939899999999,79.882C519.492,79.882,519.828,79.139999,520.00998,77.011999C519.68799,76.927999,519.23999,76.732,518.9599900000001,76.535999C518.8620000000001,78.35600099999999,518.72198,78.818001,517.93799,78.818001C517.43399,78.818001,515.3899799999999,78.818001,514.97,78.818001C514.13,78.818001,513.9759799999999,78.65,513.9759799999999,77.837999L513.9759799999999,76.326L518.65198,76.326L518.65198,69.27L513.9759799999999,69.27L513.9759799999999,67.268L512.87,67.268L512.87,69.27L508.306,69.27ZM524.3639800000001,79.78399999999999L525.3159800000001,78.97200000000001C524.448,77.950001,523.18799,76.676001,522.17999,75.864L521.26999,76.662001C522.26398,77.47399899999999,523.46799,78.677999,524.3639800000001,79.78399999999999ZM535.9979900000001,68.667999L535.9979900000001,73.652C535.9979900000001,75.37400099999999,535.9279799999999,77.628,535.06,79.209999C535.25598,79.322001,535.67599,79.700001,535.82999,79.896C536.82401,78.202,536.9780000000001,75.514,536.9780000000001,73.638L536.9780000000001,72.434L538.798,72.434L538.798,79.686001L539.806,79.686001L539.806,72.434L541.07999,72.434L541.07999,71.45400000000001L536.9780000000001,71.45400000000001L536.9780000000001,69.325999C538.4060099999999,69.032,539.9599900000001,68.612,541.03799,68.108L540.198,67.365999C539.246,67.884,537.52399,68.36,535.9979900000001,68.667999ZM542.9559899999999,67.212C542.62,69.368,541.98999,71.397999,540.996,72.700001C541.23398,72.812,541.69598,73.091999,541.87799,73.246C542.4100000000001,72.504,542.858,71.538,543.2080100000001,70.446L546.89001,70.446C546.70801,71.369999,546.45599,72.364,546.21802,73.021999L547.04401,73.288C547.422,72.364,547.78601,70.894,548.052,69.648L547.36597,69.424L547.18402,69.48L543.50198,69.48C543.68399,68.80799999999999,543.83798,68.108,543.96399,67.38L542.9559899999999,67.212ZM543.866,71.271999L543.866,72.237999C543.866,74.226,543.642,77.194,540.7439899999999,79.406C540.95398,79.573999,541.28998,79.938,541.42999,80.162001C543.17999,78.790001,544.048,77.152,544.46799,75.598C545.07001,77.516001,545.966,78.87400099999999,547.45001,80.091999C547.58997,79.826,547.87,79.504,548.12201,79.322001C546.27399,77.879999,545.37799,76.214001,544.81799,73.358C544.832,72.96600000000001,544.84598,72.601999,544.84598,72.251999L544.84598,71.271999L543.866,71.271999ZM553.49799,78.524L553.49799,79.532L561.98199,79.532L561.98199,78.524L558.38397,78.524L558.38397,74.086L561.40802,74.086L561.40802,73.077999L558.38397,73.077999L558.38397,69.2L561.758,69.2L561.758,68.191999L554.16998,68.191999L554.16998,69.2L557.32001,69.2L557.32001,73.077999L554.492,73.077999L554.492,74.086L557.32001,74.086L557.32001,78.524L553.49799,78.524ZM552.61597,73.246L552.61597,76.46600000000001L550.61401,76.46600000000001L550.61401,73.246L552.61597,73.246ZM552.61597,72.307999L550.61401,72.307999L550.61401,69.228L552.61597,69.228L552.61597,72.307999ZM549.62,68.262L549.62,78.51L550.61401,78.51L550.61401,77.417999L553.59601,77.417999L553.59601,68.262L549.62,68.262ZM563.66199,67.981999C564.33398,68.822,565.07599,69.969999,565.37,70.69800000000001L566.32202,70.179999C566.01398,69.452,565.24402,68.346,564.55798,67.533999L563.66199,67.981999ZM570.73199,67.282C570.70398,68.219999,570.69,69.13,570.62,69.998L567.06396,69.998L567.06396,71.02L570.508,71.02C570.18597,73.469999,569.35999,75.542,566.97998,76.76C567.21802,76.927999,567.53998,77.32,567.67999,77.572001C569.612,76.549999,570.62,74.996,571.15198,73.133999C572.53796,74.576,574.03601,76.326,574.80597,77.47399899999999L575.68799,76.80199999999999C574.80597,75.514,572.98596,73.511999,571.43201,71.986L571.57202,71.02L575.72998,71.02L575.72998,69.998L571.68402,69.998C571.75397,69.115999,571.78198,68.205999,571.81,67.282L570.73199,67.282ZM566.21002,72.462L563.20001,72.462L563.20001,73.469999L565.15997,73.469999L565.15997,77.18C564.52997,77.431999,563.78796,78.09,563.04602,78.93L563.76001,79.896C564.48798,78.888,565.18799,78.02,565.64996,78.02C565.97198,78.02,566.41998,78.524,567.008,78.902C567.98798,79.559999,569.14996,79.714001,570.92798,79.714001C572.216,79.714001,574.77802,79.629999,575.716,79.573999C575.74402,79.266001,575.91199,78.747999,576.03796,78.468C574.70801,78.622,572.63599,78.733999,570.95599,78.733999C569.34601,78.733999,568.16998,78.636,567.24597,78.03399999999999C566.77002,77.726,566.47601,77.431999,566.21002,77.264L566.21002,72.462ZM584.63397,67.17C584.22797,68.36,583.47198,69.48,582.604,70.208L582.98199,70.446L582.98199,71.41199900000001L578.59998,71.41199900000001L578.59998,72.293999L582.98199,72.293999L582.98199,73.554001L577.21399,73.554001L577.21399,74.478001L585.85199,74.478001L585.85199,75.709999L577.66199,75.709999L577.66199,76.633999L585.85199,76.633999L585.85199,78.860001C585.85199,79.056,585.78198,79.112,585.52997,79.12599900000001C585.27802,79.139999,584.45197,79.139999,583.5,79.112C583.65399,79.392,583.836,79.812,583.89197,80.10600099999999C585.03998,80.10600099999999,585.82397,80.091999,586.29999,79.952C586.776,79.78399999999999,586.91602,79.49,586.91602,78.87400099999999L586.91602,76.633999L589.54797,76.633999L589.54797,75.709999L586.91602,75.709999L586.91602,74.478001L589.92596,74.478001L589.92596,73.554001L584.06,73.554001L584.06,72.293999L588.59601,72.293999L588.59601,71.41199900000001L584.06,71.41199900000001L584.06,70.446L583.836,70.446C584.14398,70.11,584.43799,69.731999,584.70398,69.311999L585.65601,69.311999C586.07599,69.858,586.48199,70.516,586.64996,70.978L587.56,70.585999C587.40601,70.222,587.112,69.759999,586.78998,69.311999L589.77197,69.311999L589.77197,68.415999L585.20801,68.415999C585.37598,68.094,585.51599,67.757999,585.64197,67.408L584.63397,67.17ZM579.664,77.236C580.57397,77.837999,581.58197,78.733999,582.04401,79.392L582.85602,78.733999C582.38,78.076,581.34399,77.208,580.43402,76.633999L579.664,77.236ZM579.146,67.17C578.66998,68.415999,577.88599,69.634,577.00397,70.46000000000001C577.25598,70.585999,577.69,70.88,577.88599,71.048C578.34802,70.585999,578.79602,69.983999,579.216,69.311999L579.776,69.311999C580.04199,69.858,580.29401,70.488,580.37799,70.908L581.31598,70.55799999999999C581.23199,70.236,581.03601,69.759999,580.82599,69.311999L583.37396,69.311999L583.37396,68.415999L579.70599,68.415999C579.85999,68.094,580.01398,67.771999,580.14001,67.436L579.146,67.17ZM593.258,75.584C592.09601,75.584,591.13,76.535999,591.13,77.712C591.13,78.902,592.09601,79.854,593.258,79.854C594.448,79.854,595.39996,78.902,595.39996,77.712C595.39996,76.535999,594.448,75.584,593.258,75.584ZM593.258,79.139999C592.48798,79.139999,591.84399,78.51,591.84399,77.712C591.84399,76.941999,592.48798,76.298,593.258,76.298C594.05597,76.298,594.68597,76.941999,594.68597,77.712C594.68597,78.51,594.05597,79.139999,593.258,79.139999Z" fill="#2F2F2F" fill-opacity="1"/></g><g><rect x="34" y="0" width="105" height="53" rx="10" fill="#00AD65" fill-opacity="1"/></g><g><path d="M70.559999,12.0699997C70.95,13.2399998,71.34,14.6800003,71.61,15.9099998L60.9299998,15.9099998L60.9299998,25.150002C60.9299998,29.049999,60.72,34.059999000000005,57.81,37.42C58.62,37.93,60.1799998,39.34,60.78,40.09C64.23,36.25,64.7999997,29.77,64.7999997,25.209999L64.7999997,19.42L85.32,19.42L85.32,15.9099998L75.75,15.9099998C75.44999899999999,14.5900002,74.879999,12.790000899999999,74.369999,11.380001100000001L70.559999,12.0699997ZM93.95999900000001,29.200001C92.849998,31.93,90.869999,34.719999,88.74,36.459998999999996C89.610001,37,91.08000200000001,38.139999,91.77000000000001,38.77C93.93,36.730000000000004,96.18,33.43,97.55999800000001,30.190001L93.95999900000001,29.200001ZM106.91999799999999,30.639999C108.989998,32.980000000000004,111.47999999999999,36.219999,112.529999,38.290001L115.83000200000001,36.58C114.66,34.480000000000004,112.049999,31.389999,109.949997,29.17L106.91999799999999,30.639999ZM89.130001,15.3400002L89.130001,18.790001L95.30999800000001,18.790001C94.41,20.290001,93.599998,21.43,93.150002,21.97C92.189999,23.23,91.529999,23.950001,90.66,24.190001C91.139999,25.240002,91.77000000000001,27.1,91.97999999999999,27.85C92.25,27.549999,93.869999,27.369999,95.489998,27.369999L101.66999799999999,27.369999L101.66999799999999,35.290001000000004C101.66999799999999,35.709998999999996,101.52000000000001,35.83,101.009998,35.83C100.5,35.860001,98.880001,35.83,97.32,35.769999999999996C97.860001,36.790001000000004,98.45999900000001,38.41,98.639999,39.459999C100.83000200000001,39.459999,102.54000099999999,39.369999,103.739998,38.77C104.970001,38.169998,105.33000200000001,37.18,105.33000200000001,35.35L105.33000200000001,27.369999L113.549999,27.369999L113.58000200000001,23.889999L105.33000200000001,23.889999L105.33000200000001,20.050001L101.66999799999999,20.050001L101.66999799999999,23.889999L96.27000000000001,23.889999C97.439999,22.360001,98.639999,20.620001000000002,99.779999,18.790001L114.95999900000001,18.790001L114.95999900000001,15.3400002L101.759998,15.3400002C102.239998,14.4400005,102.720001,13.540000899999999,103.139999,12.6400013L99.150002,11.230001399999999C98.58000200000001,12.6400013,97.91999799999999,14.0200005,97.22999999999999,15.3400002L89.130001,15.3400002Z" fill="#FFFFFF" fill-opacity="1"/></g></g></g></svg>