<svg xmlns="http://www.w3.org/2000/svg" xmlns:xlink="http://www.w3.org/1999/xlink" fill="none" version="1.1" width="181" height="95" viewBox="0 0 181 95"><g><g><path d="M11.935,52.02L11.935,57.285L34.66,57.285L34.66,52.02L32.455002,52.02L34.255001,51.029999C33.760002,50.174999,32.815000999999995,49.004997,31.915001,47.924999L33.130001,47.924999L33.130001,42.48L26.245001,42.48L26.245001,39.419998L34.030003,39.419998L34.030003,33.75L12.34,33.75L12.34,39.419998L20.215,39.419998L20.215,42.48L13.465,42.48L13.465,47.924999L20.215,47.924999L20.215,52.02L11.935,52.02ZM26.920002,49.049999C27.640001,49.950001,28.450001,51.029999,29.080002,52.02L26.245001,52.02L26.245001,47.924999L29.080002,47.924999L26.920002,49.049999ZM4.1950002,26.144997L4.1950002,67.184998L10.8550005,67.184998L10.8550005,64.980003L35.605,64.980003L35.605,67.184998L42.625,67.184998L42.625,26.144997L4.1950002,26.144997ZM10.8550005,58.950001L10.8550005,32.129997L35.605,32.129997L35.605,58.950001L10.8550005,58.950001ZM67.059998,26.954998L67.059998,33.029999L87.040001,33.029999L87.040001,26.954998L67.059998,26.954998ZM80.604996,49.049999C82.449997,53.82,84.07,59.895,84.43,63.720001L90.279999,61.560001C89.785004,57.689999,87.940002,51.84,85.960007,47.204998L80.604996,49.049999ZM66.25,47.43C65.260002,52.02,63.459999,56.970001,61.255001,60.029999C62.650002,60.75,65.169998,62.415001,66.339996,63.360001C68.589996,59.805,70.839996,54.09,72.099998,48.779999L66.25,47.43ZM54.73,51.48L54.73,32.084999L57.565002,32.084999C56.935001,34.964996,56.080002,38.474998,55.315002,40.994999C57.745003,43.919998,58.195,46.754997,58.195,48.735001C58.195,49.994999,57.924999,50.849998,57.43,51.209999C57.115002,51.434998,56.665001,51.525002,56.215,51.525002C55.764999,51.57,55.315002,51.525002,54.73,51.48ZM48.474998,26.279999L48.474998,67.139999L54.73,67.139999L54.73,51.974998C55.495003,53.549999,55.945,55.665001,55.945,57.060001C57.16,57.060001,58.285,57.060001,59.139999,56.924999C60.264999,56.744999,61.255001,56.43,62.110001,55.845001C63.82,54.674999,64.495003,52.695,64.495003,49.5C64.495003,46.934998,64,43.785,61.299999,40.32C62.605003,36.900002,64.09,32.309998,65.305,28.439999L60.580002,26.055L59.59,26.279999L48.474998,26.279999ZM64.945,37.709999L64.945,43.785L73.315002,43.785L73.315002,59.895C73.315002,60.389999,73.135002,60.525002,72.595001,60.525002C72.010002,60.525002,70.209999,60.525002,68.724998,60.48C69.580002,62.415001,70.345001,65.294998,70.525002,67.230003C73.540001,67.230003,75.834999,67.095001,77.68,66.014999C79.57,64.934998,79.975006,63.044998,79.975006,59.985001L79.975006,43.785L89.559998,43.785L89.559998,37.709999L64.945,37.709999ZM108.595,26.055C109.225,27.224998,109.9,28.619999,110.44,29.924999L93.43,29.924999L93.43,36.314999L103.645,36.314999C101.125,39.419998,96.849998,42.525002,92.845001,44.369999C94.330002,45.449997,96.849998,47.834999,98.065002,49.139999C99.459999,48.285,100.989998,47.25,102.475,46.080002C104.185,49.904999,106.165,53.145,108.64,55.935001C104.365,58.544998,99.055,60.255001,92.934998,61.380001C94.150002,62.775002,96.129997,65.699997,96.849998,67.184998C103.15,65.654999,108.73,63.494999,113.455,60.345001C117.82,63.540001,123.31,65.745003,130.24001,67.050003C131.05,65.339996,132.80499,62.595001,134.2,61.200001C127.945,60.299999,122.77,58.59,118.63,56.07C121.375,53.369999,123.625,50.084999,125.425,46.260002C126.64,47.384998,127.675,48.465,128.39499999999998,49.41L134.02,45.135002C131.67999,42.525002,126.955,38.924999,123.265,36.314999L133.57001,36.314999L133.57001,29.924999L117.955,29.924999C117.325,28.169998,115.93,25.739998,114.85,23.894997L108.595,26.055ZM117.235,39.464996C119.62,41.220001,122.455,43.514999,124.795,45.674999L118.945,44.009998C117.685,47.204998,115.885,49.904999,113.545,52.154999C111.295,49.904999,109.54,47.25,108.28,44.235001L102.7,45.900002C105.49,43.739998,108.19,41.129997,110.215,38.610001L104.23,36.314999L121.6,36.314999L117.235,39.464996ZM161.11,47.07L161.11,65.294998L166.78,65.294998L166.78,47.07L161.11,47.07ZM153.685,47.16L153.685,51.029999C153.685,54.630001,153.10001,59.220001,148.105,62.685001C149.545,63.630001,151.705,65.654999,152.64999,66.959999C158.77,62.549999,159.535,56.114998,159.535,51.254997L159.535,47.16L153.685,47.16ZM168.355,47.16L168.355,59.985001C168.355,63.18,168.715,64.260002,169.57001,65.160004C170.38,66.059998,171.73,66.464996,172.89999,66.464996C173.62,66.464996,174.52,66.464996,175.33,66.464996C176.185,66.464996,177.31,66.239998,177.985,65.790001C178.795,65.339996,179.29001,64.620003,179.64999,63.584999C179.965,62.639999,180.19,60.299999,180.28,58.23C178.84,57.735001,176.905,56.790001,175.91501,55.845001C175.87,57.779999,175.825,59.355,175.78,60.075001C175.69,60.75,175.645,61.064999,175.51001,61.200001C175.42,61.290001,175.285,61.334999,175.14999,61.334999C175.015,61.334999,174.88,61.334999,174.745,61.334999C174.61,61.334999,174.47501,61.244999,174.42999,61.110001C174.34,60.974998,174.34,60.57,174.34,59.985001L174.34,47.16L168.355,47.16ZM137.17,42.345001C140.095,43.559998,143.92,45.629997,145.675,47.204998L149.32001,41.759998C147.34,40.23,143.425,38.384998,140.545,37.394997L137.17,42.345001ZM137.8,62.369999L143.33501,66.779999C146.08,62.279999,148.78,57.419998,151.16501,52.695L146.35001,48.329998C143.605,53.595001,140.185,59.040001,137.8,62.369999ZM138.925,29.834999C141.80499,31.094999,145.53999,33.254997,147.25,34.875L150.75999,30.014999L150.75999,35.504997L157.78,35.504997C156.565,36.989998,155.44,38.339996,154.89999,38.834999C153.86501,39.735001,152.11,40.139999,150.985,40.364998C151.435,41.714996,152.245,44.82,152.47,46.349998C154.315,45.629997,156.925,45.404999,173.035,44.279999C173.71001,45.269997,174.25,46.215,174.655,46.98L179.92,43.605C178.61501,41.355,176.005,38.16,173.71001,35.504997L178.75,35.504997L178.75,29.699997L168.67,29.699997C168.175,28.079998,167.32001,26.009998,166.60001,24.389999L160.52499,25.829998C161.02,27,161.515,28.395,161.875,29.699997L150.985,29.699997L151.075,29.564999C149.185,27.945,145.315,26.055,142.48,25.019997L138.925,29.834999ZM167.72501,37.125L169.345,39.150002L161.875,39.555L165.02499,35.504997L170.425,35.504997L167.72501,37.125Z" fill="#FFFFFF" fill-opacity="1"/></g><g><g><rect x="0" y="88" width="181" height="7" rx="3.5" fill="#FFFFFF" fill-opacity="1"/></g></g></g></svg>