<svg xmlns="http://www.w3.org/2000/svg" xmlns:xlink="http://www.w3.org/1999/xlink" fill="none" version="1.1" width="506" height="92" viewBox="0 0 506 92"><defs><filter id="master_svg0_60_14637" filterUnits="objectBoundingBox" color-interpolation-filters="sRGB" x="0" y="0" width="1" height="1.0574712643678161"><feFlood flood-opacity="0" result="BackgroundImageFix"/><feColorMatrix in="SourceAlpha" type="matrix" values="0 0 0 0 0 0 0 0 0 0 0 0 0 0 0 0 0 0 127 0"/><feOffset dy="5" dx="0"/><feGaussianBlur stdDeviation="0"/><feColorMatrix type="matrix" values="0 0 0 0 0 0 0 0 0 0 0 0 0 0 0 0 0 0 0.30000001192092896 0"/><feBlend mode="normal" in2="BackgroundImageFix" result="effect1_dropShadow"/><feBlend mode="normal" in="SourceGraphic" in2="effect1_dropShadow" result="shape"/></filter><linearGradient x1="253" y1="0" x2="253" y2="87" gradientUnits="userSpaceOnUse" id="master_svg1_70_9218"><stop offset="0%" stop-color="#FFFFFF" stop-opacity="1"/><stop offset="99.28571581840515%" stop-color="#E2D5A0" stop-opacity="1"/></linearGradient></defs><g filter="url(#master_svg0_60_14637)"><path d="M53.375599,26.37632L53.375599,42.487881L47.306671,42.487881L47.306671,26.37632L53.375599,26.37632ZM31.19511,42.487881L31.19511,52.386017L37.264038,52.386017C36.686047,60.766918,34.879818,70.303802,29.316633,76.444984C31.628605,77.745468,35.457809,80.70768,37.191792,82.513908C44.344456,74.92775,46.511932,63.006641,47.089924,52.386017L53.375599,52.386017L53.375599,81.86367L63.345982,81.86367L63.345982,52.386017L70.5709,52.386017L70.5709,42.487881L63.345982,42.487881L63.345982,26.37632L69.125916,26.37632L69.125916,16.622684L33.001339,16.622684L33.001339,26.37632L37.480785,26.37632L37.480785,42.487881L31.19511,42.487881ZM2.9456923,16.333691L2.9456923,25.798328L9.8816109,25.798328C8.1476316,34.395977,5.4744129,42.415634,1.2839619,47.90657C2.6566958,51.013283,4.3906755,57.876953,4.6796722,60.694668C5.4744129,59.755428,6.2691536,58.743942,7.0638943,57.660202L7.0638943,78.395714L15.661543,78.395714L15.661543,73.266022L29.172134,73.266022L29.172134,38.730927L16.167288,38.730927C17.540022,34.540474,18.696007,30.133278,19.635246,25.798328L29.822376,25.798328L29.822376,16.333691L2.9456923,16.333691ZM15.661543,47.90657L20.285488,47.90657L20.285488,64.090378L15.661543,64.090378L15.661543,47.90657ZM98.964813,29.483036C92.895889,33.745735,84.370491,37.285942,77.940315,39.164421L84.587234,46.75058C91.812149,44.221863,100.77104,39.453419,107.20122,34.395977L98.964813,29.483036ZM110.52468,34.829472C117.4606,38.080685,126.63625,43.282623,130.89894,46.82283L138.70184,40.537155C133.78891,36.924698,124.32426,32.156254,117.67735,29.266289L110.52468,34.829472ZM97.80883,41.693142L97.80883,47.76207L81.336021,47.76207L81.336021,57.443459L97.158585,57.443459C95.496857,63.223389,90.078171,68.931068,74.544601,72.760277C77.001076,75.07225,80.252289,78.901451,81.841766,81.574677C101.42129,76.589478,107.12897,66.908096,108.35721,57.443459L116.73811,57.443459L116.73811,67.919586C116.73811,77.745468,119.19458,80.70768,126.99748,80.70768C128.51472,80.70768,131.18794,80.70768,132.77742,80.70768C139.64108,80.70768,142.24207,77.239723,143.1813,64.957367C140.36359,64.234879,135.73964,62.42865,133.57216,60.622417C133.35541,69.364563,133.06642,70.737297,131.69368,70.737297C131.11569,70.737297,129.52621,70.737297,129.02046,70.737297C127.71998,70.737297,127.57549,70.376053,127.57549,67.775085L127.57549,47.76207L108.6462,47.76207L108.6462,41.693142L97.80883,41.693142ZM100.91554,15.033203L102.72177,20.018394L76.495331,20.018394L76.495331,35.551964L87.043709,35.551964L87.043709,29.049538L129.45395,29.049538L129.45395,34.612724L140.58032,34.612724L140.58032,20.018394L115.50987,20.018394C114.71513,17.634174,113.34239,14.671959,112.25866,12.359985L100.91554,15.033203ZM158.42587,13.949467C155.96939,23.703102,151.34546,33.601234,145.78227,39.525665C148.45549,40.97065,153.15169,44.077362,155.2469,45.883591C157.41438,43.210373,159.50961,39.814663,161.53258,36.057709L175.40442,36.057709L175.40442,47.111828L156.69189,47.111828L156.69189,57.226707L175.40442,57.226707L175.40442,69.653564L148.09424,69.653564L148.09424,79.912941L213.84097,79.912941L213.84097,69.653564L186.38629,69.653564L186.38629,57.226707L207.1218,57.226707L207.1218,47.111828L186.38629,47.111828L186.38629,36.057709L210.01176,36.057709L210.01176,25.798328L186.38629,25.798328L186.38629,13.226974L175.40442,13.226974L175.40442,25.798328L166.15652,25.798328C167.38477,22.691612,168.46851,19.5849,169.33549,16.405937L158.42587,13.949467ZM226.12334,13.299225L226.12334,26.44857L219.33191,26.44857L219.33191,36.057709L226.12334,36.057709L226.12334,47.184074L218.10368,48.918056L220.27115,58.960686L226.12334,57.443459L226.12334,70.448303C226.12334,71.387543,225.83434,71.676537,224.96735,71.676537C224.10036,71.676537,221.64389,71.676537,219.40416,71.532043C220.70465,74.494255,221.93288,79.045952,222.14963,81.86367C226.99033,81.86367,230.38603,81.430176,232.987,79.696198C235.58797,78.034462,236.31047,75.216751,236.31047,70.448303L236.31047,54.69799L243.82437,52.60276L242.5239,43.210373L236.31047,44.799854L236.31047,36.057709L243.82437,36.057709L243.82437,26.44857L236.31047,26.44857L236.31047,13.299225L226.12334,13.299225ZM246.93109,50.724285L246.93109,81.86367L257.04596,81.86367L257.04596,79.118202L273.73553,79.118202L273.73553,81.574677L284.35614,81.574677L284.35614,50.724285L246.93109,50.724285ZM257.04596,69.798058L257.04596,60.044426L273.73553,60.044426L273.73553,69.798058L257.04596,69.798058ZM245.26936,16.622684L245.26936,26.087326L254.22826,26.087326C253.36127,33.095493,250.97705,38.441929,242.16264,42.054386C244.40237,43.932865,247.22009,47.76207,248.30382,50.363037C260.15268,45.016602,263.5484,36.780197,264.77664,26.087326L275.03601,26.087326C274.67477,33.962482,274.31351,37.285942,273.44653,38.297432C272.7963,39.019924,272.14606,39.236671,271.13455,39.236671C269.83408,39.236671,267.52209,39.164421,264.92114,38.947674C266.58286,41.548641,267.73883,45.739094,267.88333,48.845806C271.35132,48.845806,274.60251,48.77356,276.62549,48.412312C278.93747,48.051064,280.74368,47.256325,282.40543,45.088852C284.35614,42.632381,284.93414,35.840961,285.43988,20.451889C285.51215,19.223656,285.51215,16.622684,285.51215,16.622684L245.26936,16.622684ZM302.92416,13.949467C300.46768,23.703102,295.84375,33.601234,290.28055,39.525665C292.95377,40.97065,297.64996,44.077362,299.74521,45.883591C301.91266,43.210373,304.0079,39.814663,306.03088,36.057709L319.90271,36.057709L319.90271,47.111828L301.19019,47.111828L301.19019,57.226707L319.90271,57.226707L319.90271,69.653564L292.59253,69.653564L292.59253,79.912941L358.33926,79.912941L358.33926,69.653564L330.88458,69.653564L330.88458,57.226707L351.62009,57.226707L351.62009,47.111828L330.88458,47.111828L330.88458,36.057709L354.51007,36.057709L354.51007,25.798328L330.88458,25.798328L330.88458,13.226974L319.90271,13.226974L319.90271,25.798328L310.65482,25.798328C311.88306,22.691612,312.9668,19.5849,313.83377,16.405937L302.92416,13.949467ZM384.20444,47.039577L384.20444,73.844017L409.5639,73.844017C410.57538,76.08374,411.44238,78.973701,411.80362,81.068932C417.29456,81.141174,421.41275,80.996681,424.44724,79.623947C427.55396,78.178963,428.49316,75.866989,428.49316,71.170792L428.49316,34.684975L416.93332,34.684975L424.95297,30.928017C424.44724,29.699783,423.58023,28.182549,422.64099,26.665318L430.87741,26.665318L430.87741,18.212166L413.17636,18.212166L414.18784,15.177704L404.36197,12.86573C402.98923,17.634174,400.60501,22.547115,397.64279,26.231823L397.64279,18.212166L382.61496,18.212166L383.91547,15.24995L374.1618,12.648983C371.77759,18.862408,367.51489,25.292583,362.8187,29.266289C365.20291,30.494522,369.39337,33.16774,371.34412,34.829472C373.51157,32.661999,375.75131,29.84428,377.77426,26.665318L379.2915,26.665318C380.95325,29.627533,382.61496,33.023243,383.2652,35.262966L392.22412,31.433762C391.71835,30.061028,390.85138,28.399296,389.91214,26.665318L397.28156,26.665318L395.47531,28.616043C397.85953,29.84428,402.04999,32.517498,404.00073,34.17923C405.80695,32.156254,407.61316,29.555283,409.20267,26.665318L411.44238,26.665318C413.17636,29.410786,414.9826,32.445251,415.84958,34.684975L387.23892,34.684975L387.23892,43.932865L418.16156,43.932865L418.16156,71.098549C418.16156,72.110031,417.80029,72.399033,416.64432,72.399033C415.99408,72.471283,413.89886,72.471283,411.80362,72.399033L411.80362,47.039577L384.20444,47.039577ZM402.55573,63.873631L402.55573,66.330101L392.94659,66.330101L392.94659,63.873631L402.55573,63.873631ZM392.94659,54.55349L402.55573,54.55349L402.55573,56.937714L392.94659,56.937714L392.94659,54.55349ZM370.98285,37.213696C372.71683,38.947674,374.66757,41.0429,376.18478,43.065872L367.00916,43.065872L367.00916,81.79142L377.26852,81.79142L377.26852,44.583107L378.35226,46.389336L386.51642,40.681652C384.99921,38.080685,381.53122,34.468227,378.64127,32.011753L370.98285,37.213696ZM454.28613,55.492729L484.77527,55.492729L484.77527,57.876953L454.28613,57.876953L454.28613,55.492729ZM454.28613,46.75058L484.77527,46.75058L484.77527,49.134804L454.28613,49.134804L454.28613,46.75058ZM444.02673,39.95916L444.02673,64.668373L463.9675,64.668373L463.9675,66.980347L436.65732,66.980347L436.65732,75.216751L463.9675,75.216751L463.9675,81.86367L475.09387,81.86367L475.09387,75.216751L503.05429,75.216751L503.05429,66.980347L475.09387,66.980347L475.09387,64.668373L495.54037,64.668373L495.54037,39.95916L444.02673,39.95916ZM478.12836,25.509331C477.83936,26.882065,477.26135,28.543797,476.75562,29.988777L462.95602,29.988777C462.45029,28.543797,461.87228,26.954315,461.22205,25.509331L478.12836,25.509331ZM462.88376,14.382961L463.89526,17.417427L441.49802,17.417427L441.49802,25.509331L455.87561,25.509331L450.52917,26.520821L451.68515,29.988777L437.01859,29.988777L437.01859,38.152931L502.40405,38.152931L502.40405,29.988777L488.02649,29.988777L489.61597,26.304073L484.19727,25.509331L498.43036,25.509331L498.43036,17.417427L475.45514,17.417427C474.87714,15.755695,474.15463,13.877216,473.50439,12.359985L462.88376,14.382961Z" fill="url(#master_svg1_70_9218)" fill-opacity="1"/></g></svg>