<svg xmlns="http://www.w3.org/2000/svg" xmlns:xlink="http://www.w3.org/1999/xlink" fill="none" version="1.1" width="680" height="89" viewBox="0 0 680 89"><defs><filter id="master_svg0_70_07147" filterUnits="objectBoundingBox" color-interpolation-filters="sRGB" x="-0.03076923076923077" y="-0.2909090909090909" width="1.0615384615384615" height="1.7272727272727273"><feFlood flood-opacity="0" result="BackgroundImageFix"/><feColorMatrix in="SourceAlpha" type="matrix" values="0 0 0 0 0 0 0 0 0 0 0 0 0 0 0 0 0 0 127 0"/><feOffset dy="4" dx="0"/><feGaussianBlur stdDeviation="5"/><feColorMatrix type="matrix" values="0 0 0 0 0 0 0 0 0 0 0 0 0 0 0 0 0 0 0.10000000149011612 0"/><feBlend mode="normal" in2="BackgroundImageFix" result="effect1_dropShadow"/><feBlend mode="normal" in="SourceGraphic" in2="effect1_dropShadow" result="shape"/></filter></defs><g><g><g filter="url(#master_svg0_70_07147)"><rect x="15" y="15" width="650" height="55" rx="10" fill="#FFFFFF" fill-opacity="1"/></g><g><path d="M159.8620005,42.544001C161.052,43.188,162.55,44.167998999999995,163.278001,44.812L164.132,44.195999C163.334001,43.552,161.822001,42.628,160.6599998,42.025999L159.8620005,42.544001ZM155.0599999,42.096001C154.2620001,42.851999,153.0020001,43.635999999999996,151.85400003,44.153999C152.092,44.322001,152.4840001,44.658001,152.666,44.854C153.7720001,44.280001,155.1160002,43.356001,156.0120001,42.473999L155.0599999,42.096001ZM153.7160001,39.534C153.954,39.436001000000005,154.3180001,39.394001,156.8940001,39.226C155.7460003,39.771999,154.766,40.191998999999996,154.3180001,40.360001C153.506,40.695999,152.8900001,40.891999999999996,152.4280001,40.934C152.526,41.200001,152.666,41.676001,152.7080001,41.858000000000004C153.072,41.732,153.618,41.676001,157.7060003,41.41L157.7060003,43.860001C157.7060003,44.028,157.6500001,44.084,157.4120002,44.084C157.2020001,44.111999999999995,156.4460001,44.111999999999995,155.5780001,44.084C155.7460003,44.364000000000004,155.914,44.756001,155.9700003,45.049999C156.9920001,45.049999,157.7060003,45.049999,158.1400003,44.882000000000005C158.6020002,44.728001,158.7280002,44.448,158.7280002,43.888000000000005L158.7280002,41.354L162.158,41.143999C162.536,41.535999000000004,162.872001,41.927999,163.096001,42.236000000000004L163.908,41.676001C163.306001,40.906,162.046,39.743999,161.052,38.931999000000005L160.3100004,39.408001C160.6740007,39.716,161.066,40.066,161.444,40.43L155.3260002,40.751999C157.3000002,40.010000000000005,159.2880001,39.072001,161.178,37.924L160.4219999,37.279999000000004C159.8060007,37.686001000000005,159.1339998,38.063998999999995,158.4480004,38.427999L155.3260002,38.610001C156.2920003,38.133999,157.25800040000001,37.559999000000005,158.1400003,36.93L157.7200003,36.608000000000004L163.068001,36.608000000000004L163.068001,38.33L164.10399999999998,38.33L164.10399999999998,35.698L158.546,35.698L158.546,34.396L163.922,34.396L163.922,33.472L158.546,33.472L158.546,32.226L157.454,32.226L157.454,33.472L152.064,33.472L152.064,34.396L157.454,34.396L157.454,35.698L151.92400002,35.698L151.92400002,38.33L152.9180001,38.33L152.9180001,36.608000000000004L157.0760002,36.608000000000004C156.0820003,37.378,154.8360002,38.049999,154.444,38.245999999999995C154.052,38.455999,153.7020001,38.582001000000005,153.4360001,38.610001C153.5340002,38.861999999999995,153.674,39.337998999999996,153.7160001,39.534ZM167.156,35.334C167.618,35.964,168.066,36.846001,168.234001,37.434L169.144001,37.056C168.976,36.468,168.514,35.613999,168.01,34.998L167.156,35.334ZM175.878,34.941998999999996C175.612,35.613999,175.094,36.566,174.716,37.153999L175.528,37.448C175.934,36.888000000000005,176.424,36.048,176.82999999999998,35.263999999999996L175.878,34.941998999999996ZM174.674,32.212C174.450001,32.716,174.030001,33.429999,173.68,33.934L169.620001,33.934L170.194,33.681999C170.012001,33.247999,169.605999,32.646,169.186001,32.212L168.276001,32.575998999999996C168.625999,32.967999,168.976,33.513999999999996,169.172001,33.934L166.512,33.934L166.512,34.83L170.082001,34.83L170.082001,37.573999L165.728,37.573999L165.728,38.455999L178.299999,38.455999L178.299999,37.573999L173.862,37.573999L173.862,34.83L177.614,34.83L177.614,33.934L174.813999,33.934C175.108002,33.528,175.43,33.023999,175.709999,32.547999000000004L174.674,32.212ZM171.076,34.83L172.85399999999998,34.83L172.85399999999998,37.573999L171.076,37.573999L171.076,34.83ZM168.667999,42.361999999999995L175.374001,42.361999999999995L175.374001,43.775999L168.667999,43.775999L168.667999,42.361999999999995ZM168.667999,41.535999000000004L168.667999,40.164L175.374001,40.164L175.374001,41.535999000000004L168.667999,41.535999000000004ZM167.64600000000002,39.323999L167.64600000000002,45.106001L168.667999,45.106001L168.667999,44.615999L175.374001,44.615999L175.374001,45.049999L176.452,45.049999L176.452,39.323999L167.64600000000002,39.323999ZM191.138,34.269999999999996C190.158001,35.768,188.813999,37.153999,187.344002,38.316L187.344002,32.492000000000004L186.223999,32.492000000000004L186.223999,39.156C185.327999,39.785999000000004,184.403999,40.332001000000005,183.50799899999998,40.780001C183.774002,40.976,184.110001,41.34,184.278,41.577999C184.922001,41.242001,185.580002,40.864000000000004,186.223999,40.444L186.223999,42.865999C186.223999,44.434,186.644001,44.867999999999995,188.04399899999999,44.867999999999995C188.352001,44.867999999999995,190.214001,44.867999999999995,190.535999,44.867999999999995C192.02,44.867999999999995,192.313999,43.944,192.468002,41.326C192.14600000000002,41.242001,191.69799799999998,41.018,191.417999,40.808001000000004C191.32,43.202,191.222,43.818000999999995,190.48,43.818000999999995C190.074001,43.818000999999995,188.49200100000002,43.818000999999995,188.155998,43.818000999999995C187.484001,43.818000999999995,187.344002,43.664,187.344002,42.893999L187.344002,39.674C189.150002,38.358000000000004,190.858002,36.747999,192.14600000000002,34.941998999999996L191.138,34.269999999999996ZM183.382,32.24C182.528,34.382,181.1,36.468,179.587999,37.812C179.812,38.049999,180.162001,38.596001,180.288,38.834C180.834,38.302,181.380001,37.672001,181.898001,36.972L181.898001,45.120001L183.004002,45.120001L183.004002,35.334C183.535999,34.452,184.026001,33.5,184.417999,32.561999L183.382,32.24ZM193.728001,42.992001L193.728001,44.042L206.313999,44.042L206.313999,42.992001L200.546001,42.992001L200.546001,34.9L205.599998,34.9L205.599998,33.822L194.45600100000001,33.822L194.45600100000001,34.9L199.38399900000002,34.9L199.38399900000002,42.992001L193.728001,42.992001ZM210.821999,44.784L211.774002,43.972C210.905998,42.950001,209.64600000000002,41.676001,208.638,40.864000000000004L207.728001,41.662001000000004C208.722,42.473999,209.925999,43.677999,210.821999,44.784ZM226.599998,35.165999C226.403999,35.88,226.18,36.566,225.928001,37.223999L221.853996,37.223999L221.853996,38.218L225.508003,38.218C224.52800000000002,40.416,223.211998,42.278,221.559998,43.58C221.825996,43.761999,222.274002,44.167998999999995,222.45600100000001,44.378C224.20600100000001,42.865999,225.634003,40.737999,226.683998,38.218L234.146004,38.218L234.146004,37.223999L227.076004,37.223999C227.300003,36.635999999999996,227.496002,36.034,227.678001,35.417999L226.599998,35.165999ZM225.382004,44.84C225.80200200000002,44.672001,226.445999,44.601999,232.22799700000002,44.056C232.49400300000002,44.462,232.732002,44.826,232.900002,45.120001L233.837997,44.532C233.236,43.552,231.961998,41.914,230.982002,40.723999L230.127998,41.200001C230.604004,41.802,231.13600200000002,42.516001,231.62599899999998,43.202L226.725998,43.622C227.720001,42.389999,228.713997,40.836,229.554001,39.254000000000005L228.461998,38.875999C227.63600200000002,40.653999,226.389999,42.473999,225.984001,42.950001C225.606003,43.440000999999995,225.311996,43.775999,225.031998,43.832001000000005C225.143997,44.111999999999995,225.311996,44.615999,225.382004,44.84ZM227.146004,32.422C227.370003,32.828,227.608002,33.36,227.776001,33.766L222.036003,33.766L222.036003,36.397999L223.071999,36.397999L223.071999,34.731999L232.91400099999998,34.731999L232.91400099999998,36.397999L233.97799700000002,36.397999L233.97799700000002,33.766L228.91000400000001,33.766L229.008003,33.738C228.854004,33.304,228.503998,32.618,228.20999899999998,32.127999L227.146004,32.422ZM239.452003,39.674L239.452003,40.542L248.454002,40.542L248.454002,39.674L239.452003,39.674ZM242.966003,40.92C243.33000199999998,41.480000000000004,243.764,42.25,243.973999,42.712L244.800003,42.361999999999995C244.576004,41.927999,244.11399799999998,41.186001000000005,243.75,40.639999L242.966003,40.92ZM241.524002,41.619999L241.524002,43.747999C241.524002,44.686001000000005,241.81800099999998,44.938,242.99400300000002,44.938C243.260002,44.938,244.814003,44.938,245.066002,44.938C246.017998,44.938,246.283997,44.573999,246.395996,43.104C246.129997,43.048,245.751999,42.908001,245.55599999999998,42.768C245.5,43.944,245.43,44.098,244.968002,44.098C244.632004,44.098,243.33000199999998,44.098,243.092003,44.098C242.545998,44.098,242.461998,44.042,242.461998,43.733999L242.461998,41.619999L241.524002,41.619999ZM240.138,41.535999000000004C239.900002,42.389999,239.438004,43.482,238.891998,44.153999L239.718002,44.615999C240.27800000000002,43.874001,240.66999800000002,42.739999999999995,240.963997,41.858000000000004L240.138,41.535999000000004ZM246.242004,41.718C246.80200200000002,42.572001,247.389999,43.733999,247.627998,44.462L248.482002,44.084C248.216003,43.370001,247.599998,42.236000000000004,247.04000100000002,41.396L246.242004,41.718ZM245.47199999999998,36.062L246.970001,36.062L246.970001,37.966L245.47199999999998,37.966L245.47199999999998,36.062ZM243.232002,36.062L244.702003,36.062L244.702003,37.966L243.232002,37.966L243.232002,36.062ZM241.048004,36.062L242.461998,36.062L242.461998,37.966L241.048004,37.966L241.048004,36.062ZM238.402,32.24C237.74400300000002,33.233999,236.498001,34.521999,235.475998,35.32C235.643997,35.53,235.91000400000001,35.936,236.02200299999998,36.16C237.141998,35.236000000000004,238.47199999999998,33.835999,239.354004,32.646L238.402,32.24ZM243.470001,32.198L243.358002,33.388L239.578003,33.388L239.578003,34.256L243.246002,34.256L243.078003,35.263999999999996L240.19400000000002,35.263999999999996L240.19400000000002,38.763999999999996L247.865997,38.763999999999996L247.865997,35.263999999999996L244.071999,35.263999999999996L244.253998,34.256L248.384003,34.256L248.384003,33.388L244.407997,33.388L244.576004,32.254L243.470001,32.198ZM238.653999,35.278C237.856003,36.874001,236.596001,38.526001,235.391998,39.604C235.587997,39.841999,235.91000400000001,40.332001000000005,236.036003,40.556C236.498001,40.094,236.987999,39.548,237.449997,38.945999L237.449997,45.120001L238.44400000000002,45.120001L238.44400000000002,37.573999C238.877998,36.93,239.269997,36.271999,239.606003,35.613999L238.653999,35.278ZM255.398,41.032C256.084,41.718,256.826,42.684,257.12,43.327999L257.96,42.782C257.624,42.138000000000005,256.868,41.214000999999996,256.182,40.556L255.398,41.032ZM257.988,32.226L257.988,33.752L255.25799999999998,33.752L255.25799999999998,34.731999L257.988,34.731999L257.988,36.495999999999995L254.446,36.495999999999995L254.446,37.489999999999995L259.696,37.489999999999995L259.696,39.156L254.67000000000002,39.156L254.67000000000002,40.15L259.696,40.15L259.696,43.818000999999995C259.696,44.013999999999996,259.64,44.07,259.416,44.07C259.178,44.098,258.422,44.098,257.582,44.07C257.722,44.364000000000004,257.86199999999997,44.812,257.904,45.120001C258.968,45.120001,259.696,45.091999,260.13,44.938C260.578,44.769999999999996,260.704,44.462,260.704,43.818000999999995L260.704,40.15L262.328,40.15L262.328,39.156L260.704,39.156L260.704,37.489999999999995L262.41200000000003,37.489999999999995L262.41200000000003,36.495999999999995L258.98199999999997,36.495999999999995L258.98199999999997,34.731999L261.76800000000003,34.731999L261.76800000000003,33.752L258.98199999999997,33.752L258.98199999999997,32.226L257.988,32.226ZM250.358002,33.318C250.232002,35.068,249.966003,36.888000000000005,249.545998,38.063998999999995C249.75599699999998,38.147999,250.17600299999998,38.372,250.358002,38.511999C250.56800099999998,37.867999999999995,250.75,37.042,250.903999,36.132000000000005L251.96800000000002,36.132000000000005L251.96800000000002,39.562C251.086,39.813998999999995,250.288002,40.052,249.657997,40.219999L249.882004,41.284L251.96800000000002,40.611999999999995L251.96800000000002,45.120001L252.976,45.120001L252.976,40.290001000000004L254.418,39.813998999999995L254.334,38.834L252.976,39.254000000000005L252.976,36.132000000000005L254.30599999999998,36.132000000000005L254.30599999999998,35.124L252.976,35.124L252.976,32.254L251.96800000000002,32.254L251.96800000000002,35.124L251.058,35.124C251.128,34.578,251.184,34.032,251.24,33.472L250.358002,33.318ZM272.142,36.216L272.142,39.548L270.168,39.548L270.168,36.216L272.142,36.216ZM273.192,36.216L275.124,36.216L275.124,39.548L273.192,39.548L273.192,36.216ZM272.142,32.268L272.142,35.193999L269.174,35.193999L269.174,41.424L270.168,41.424L270.168,40.57L272.142,40.57L272.142,45.091999L273.192,45.091999L273.192,40.57L275.124,40.57L275.124,41.34L276.146,41.34L276.146,35.193999L273.192,35.193999L273.192,32.268L272.142,32.268ZM268.13800000000003,32.436C267.074,32.897999999999996,265.226,33.318,263.644,33.57C263.77,33.794,263.90999999999997,34.144,263.952,34.382C264.568,34.297999000000004,265.24,34.2,265.898,34.059999L265.898,36.188L263.644,36.188L263.644,37.167998999999995L265.744,37.167998999999995C265.18399999999997,38.778,264.204,40.598,263.322,41.591999C263.49,41.844,263.742,42.263999999999996,263.84000000000003,42.558001000000004C264.568,41.690000999999995,265.324,40.290001000000004,265.898,38.861999999999995L265.898,45.091999L266.92,45.091999L266.92,38.624001C267.382,39.309999000000005,267.956,40.191998999999996,268.18,40.625999L268.81,39.813998999999995C268.544,39.436001000000005,267.312,37.91,266.92,37.476L266.92,37.167998999999995L268.712,37.167998999999995L268.712,36.188L266.92,36.188L266.92,33.849999C267.606,33.681999,268.236,33.486000000000004,268.76800000000003,33.275999999999996L268.13800000000003,32.436ZM278.974,35.208C279.35201,35.964,279.73,36.972,279.856,37.629999L280.808,37.35C280.68201,36.705999,280.304,35.726,279.884,34.969999L278.974,35.208ZM285.778,32.981999L285.778,45.091999L286.716,45.091999L286.716,33.948L288.97,33.948C288.592,35.054,288.04601,36.538,287.51401,37.728001C288.774,38.987999,289.12399,40.024,289.12399,40.891999999999996C289.13800000000003,41.382000000000005,289.03999,41.83,288.75999,41.997999C288.606,42.096001,288.39599999999996,42.138000000000005,288.18600000000004,42.152C287.90601000000004,42.152,287.51401,42.152,287.108,42.110001C287.276,42.403999,287.37399,42.837998999999996,287.38800000000003,43.104C287.79400999999996,43.132000000000005,288.24199999999996,43.132000000000005,288.592,43.09C288.92799,43.048,289.23599,42.964000999999996,289.46001,42.809999000000005C289.922,42.487999,290.10400000000004,41.816,290.10400000000004,40.989999999999995C290.10400000000004,40.024,289.79601,38.917998999999995,288.536,37.601999C289.13800000000003,36.299999,289.78200000000004,34.704,290.272,33.401999L289.558,32.94L289.39,32.981999L285.778,32.981999ZM280.45801,32.436C280.668,32.884,280.892,33.429999,281.04601,33.891999L278.12,33.891999L278.12,34.844L284.728,34.844L284.728,33.891999L282.12399,33.891999C281.97,33.415999,281.67599,32.716,281.39599999999996,32.184L280.45801,32.436ZM283.062,34.927999C282.83799999999997,35.726,282.418,36.888000000000005,282.03999,37.672001L277.714,37.672001L277.714,38.638000000000005L285.05,38.638000000000005L285.05,37.672001L283.062,37.672001C283.41200000000003,36.944,283.78999,35.992000000000004,284.11199999999997,35.165999L283.062,34.927999ZM278.526,39.925999000000004L278.526,45.021999L279.52,45.021999L279.52,44.364000000000004L283.356,44.364000000000004L283.356,44.924L284.40601000000004,44.924L284.40601000000004,39.925999000000004L278.526,39.925999000000004ZM279.52,43.412001000000004L279.52,40.878L283.356,40.878L283.356,43.412001000000004L279.52,43.412001000000004ZM295.438,39.226L295.438,40.247999L299.45599000000004,40.247999L299.45599000000004,45.120001L300.506,45.120001L300.506,40.247999L304.342,40.247999L304.342,39.226L300.506,39.226L300.506,36.132000000000005L303.726,36.132000000000005L303.726,35.11L300.506,35.11L300.506,32.408L299.45599000000004,32.408L299.45599000000004,35.11L297.58000000000004,35.11C297.76198999999997,34.480000000000004,297.916,33.808,298.05600000000004,33.15L297.048,32.94C296.726,34.774,296.13800000000003,36.58,295.326,37.742001C295.578,37.867999999999995,296.026,38.119999,296.222,38.274C296.60001,37.686001000000005,296.95,36.944,297.244,36.132000000000005L299.45599000000004,36.132000000000005L299.45599000000004,39.226L295.438,39.226ZM294.752,32.296C293.996,34.41,292.76401,36.510000000000005,291.448,37.882000000000005C291.63,38.119999,291.938,38.666,292.05,38.917998999999995C292.498,38.441998999999996,292.918,37.882000000000005,293.33799999999997,37.279999000000004L293.33799999999997,45.091999L294.34599000000003,45.091999L294.34599000000003,35.641999999999996C294.87801,34.662,295.35400000000004,33.625999,295.746,32.589999L294.752,32.296ZM308.82201,44.784L309.774,43.972C308.90601000000004,42.950001,307.64599999999996,41.676001,306.63800000000003,40.864000000000004L305.728,41.662001000000004C306.722,42.473999,307.92599,43.677999,308.82201,44.784ZM321.98199,39.464000999999996C321.548,40.416,320.834,41.633999,320.00800000000004,42.375999L320.87601,42.922001C321.674,42.124001,322.37399,40.85,322.836,39.883999L321.98199,39.464000999999996ZM329.91999999999996,39.757999C330.50800000000004,40.737999,331.15201,42.068000999999995,331.40400999999997,42.893999L332.328,42.502001C332.048,41.690000999999995,331.40400999999997,40.402,330.802,39.436001000000005L329.91999999999996,39.757999ZM320.84801,37.35L320.84801,38.358000000000004L324.726,38.358000000000004C324.37601,40.989999999999995,323.424,43.16,320.06399999999996,44.294001C320.274,44.504000000000005,320.56799,44.896,320.67999,45.134001C324.32001,43.818000999999995,325.384,41.354,325.776,38.358000000000004L328.744,38.358000000000004C328.60400000000004,42.096001,328.408,43.594,328.10001,43.93C327.974,44.084,327.834,44.111999999999995,327.582,44.098C327.302,44.098,326.60201,44.098,325.84599000000003,44.042C326,44.294001,326.12601,44.714000999999996,326.15400999999997,44.980000000000004C326.868,45.021999,327.59601,45.035999000000004,328.002,45.007999C328.464,44.966,328.772,44.854,329.052,44.518C329.48599,43.986000000000004,329.68201,42.431999000000005,329.86400000000003,37.867999999999995C329.87801,37.714000999999996,329.87801,37.35,329.87801,37.35L325.88800000000003,37.35L325.98599,35.894L324.922,35.894L324.83799999999997,37.35L320.84801,37.35ZM327.918,32.24L327.918,33.584L324.06799,33.584L324.06799,32.24L323.01801,32.24L323.01801,33.584L319.868,33.584L319.868,34.564L323.01801,34.564L323.01801,36.104L324.06799,36.104L324.06799,34.564L327.918,34.564L327.918,36.104L328.96799999999996,36.104L328.96799999999996,34.564L332.174,34.564L332.174,33.584L328.96799999999996,33.584L328.96799999999996,32.24L327.918,32.24ZM334.89,39.925999000000004L334.89,43.790001000000004L333.728,43.790001000000004L333.728,44.714000999999996L346.216,44.714000999999996L346.216,43.790001000000004L345.17999,43.790001000000004L345.17999,39.925999000000004L334.89,39.925999000000004ZM335.884,43.790001000000004L335.884,40.878L337.98399,40.878L337.98399,43.790001000000004L335.884,43.790001000000004ZM338.93600000000004,43.790001000000004L338.93600000000004,40.878L341.06399999999996,40.878L341.06399999999996,43.790001000000004L338.93600000000004,43.790001000000004ZM342.002,43.790001000000004L342.002,40.878L344.144,40.878L344.144,43.790001000000004L342.002,43.790001000000004ZM341.39999,32.254L341.39999,39.394001L342.478,39.394001L342.478,35.292C343.61199999999997,35.992000000000004,344.98399,36.944,345.68401,37.573999L346.342,36.691998999999996C345.558,36.062,344.01801,35.054,342.89799,34.396L342.478,34.885999999999996L342.478,32.254L341.39999,32.254ZM336.752,32.24L336.752,34.34L334.092,34.34L334.092,35.278L336.752,35.278L336.752,37.798C335.60400000000004,37.952,334.56799,38.091999,333.74199999999996,38.175999000000004L333.882,39.17C335.618,38.917998999999995,338.12399,38.568000999999995,340.504,38.218L340.476,37.279999000000004L337.802,37.658001L337.802,35.278L340.196,35.278L340.196,34.34L337.802,34.34L337.802,32.24L336.752,32.24ZM348.246,35.389999L348.246,45.120001L349.28200000000004,45.120001L349.28200000000004,35.389999L348.246,35.389999ZM348.48399,32.926C349.04400999999996,33.513999999999996,349.786,34.34,350.13599999999997,34.858000000000004L350.96200999999996,34.242000000000004C350.59801,33.752,349.828,32.967999,349.26801,32.394L348.48399,32.926ZM355.28799000000004,35.544C355.75,35.992000000000004,356.33799999999997,36.608000000000004,356.64599999999996,36.972L357.304,36.439999C357.00999,36.09,356.394,35.488,355.93201,35.082L355.28799000000004,35.544ZM351.97,32.912L351.97,33.906L358.73199,33.906L358.73199,43.818000999999995C358.73199,44.013999999999996,358.67599,44.056,358.48,44.07C358.312,44.084,357.752,44.084,357.14999,44.07C357.28999,44.322001,357.42999,44.784,357.472,45.063998999999995C358.34000000000003,45.063998999999995,358.92799,45.035999000000004,359.29201,44.867999999999995C359.642,44.686001000000005,359.76801,44.391999999999996,359.76801,43.832001000000005L359.76801,32.912L351.97,32.912ZM356.95399,38.722C356.60400000000004,39.422001,356.12801,40.08,355.56799,40.667998999999995C355.37199,40.010000000000005,355.20399,39.226,355.078,38.372L357.976,37.993999L357.91999999999996,37.084L354.952,37.448C354.882,36.733999,354.812,35.992000000000004,354.784,35.25L353.86,35.25C353.90201,36.034,353.95801,36.818000999999995,354.04201,37.559999000000005L352.43201,37.728001L352.54400999999996,38.694L354.15400999999997,38.497999C354.308,39.59,354.51801,40.584,354.812,41.396C354.084,42.011999,353.25800000000004,42.544001,352.40400999999997,42.950001C352.60001,43.132000000000005,352.922,43.524,353.048,43.719999C353.78999,43.313998999999995,354.51801,42.823999,355.19,42.263999999999996C355.65201,43.117999999999995,356.26801,43.635999999999996,357.08000000000004,43.635999999999996C357.76601,43.635999999999996,358.04601,43.257999,358.18600000000004,42.263999999999996C357.99001,42.124001,357.73801000000003,41.9,357.584,41.704C357.528,42.389999,357.40201,42.726,357.12199,42.726C356.64599999999996,42.726,356.24001,42.306,355.918,41.605999C356.688,40.836,357.36,39.968,357.85001,39.001999L356.95399,38.722ZM351.78799000000004,35.082C351.312,36.622,350.5,38.133999,349.548,39.128C349.73,39.337998999999996,350.00999,39.799999,350.12199,39.982C350.416,39.66,350.696,39.296,350.96200999999996,38.889999L350.96200999999996,44.042L351.88599999999997,44.042L351.88599999999997,37.251999C352.17999,36.622,352.446,35.978,352.66999999999996,35.32L351.78799000000004,35.082ZM362.778,32.730000000000004C363.49199999999996,33.542,364.36,34.676,364.752,35.362L365.606,34.745999C365.2,34.073999,364.304,32.995999,363.59000000000003,32.226L362.778,32.730000000000004ZM362.302,35.068L362.302,45.120001L363.35201,45.120001L363.35201,35.068L362.302,35.068ZM366.026,32.757999L366.026,33.766L372.70399,33.766L372.70399,43.719999C372.70399,44,372.62,44.084,372.326,44.098C372.04601,44.111999999999995,371.052,44.111999999999995,370.03,44.084C370.18401,44.364000000000004,370.35201,44.812,370.394,45.091999C371.73801000000003,45.106001,372.606,45.091999,373.11,44.924C373.586,44.742001,373.76801,44.42,373.76801,43.719999L373.76801,32.757999L366.026,32.757999ZM381.972,33.038L381.972,37.532C381.972,39.702,381.776,42.487999,379.88599999999997,44.448C380.12399,44.573999,380.53,44.924,380.68401,45.120001C382.7,43.048,382.994,39.869999,382.994,37.532L382.994,34.032L385.62601,34.032L385.62601,43.048C385.62601,44.252001,385.71001,44.504000000000005,385.948,44.714000999999996C386.158,44.896,386.466,44.980000000000004,386.746,44.980000000000004C386.92799,44.980000000000004,387.25,44.980000000000004,387.46001,44.980000000000004C387.754,44.980000000000004,388.006,44.924,388.202,44.784C388.41200000000003,44.643999,388.524,44.406,388.59398999999996,44C388.64999,43.65,388.70599000000004,42.614000000000004,388.70599000000004,41.816C388.44,41.732,388.118,41.563998999999995,387.908,41.367999999999995C387.894,42.306,387.88,43.048,387.83799999999997,43.370001C387.82401,43.691998999999996,387.78200000000004,43.818000999999995,387.698,43.902C387.642,43.972,387.53,44,387.418,44C387.278,44,387.11,44,387.01198999999997,44C386.89999,44,386.83000000000004,43.972,386.75999,43.916C386.69,43.860001,386.66200000000003,43.594,386.66200000000003,43.132000000000005L386.66200000000003,33.038L381.972,33.038ZM378.052,32.24L378.052,35.236000000000004L375.728,35.236000000000004L375.728,36.243999L377.91200000000003,36.243999C377.408,38.190000999999995,376.38599999999997,40.374001,375.392,41.549999C375.56,41.802,375.826,42.222,375.938,42.502001C376.722,41.535999000000004,377.478,39.954,378.052,38.316L378.052,45.106001L379.07401,45.106001L379.07401,38.68C379.62,39.379999,380.278,40.247999,380.558,40.723999L381.216,39.855999C380.894,39.492001,379.56399999999996,37.993999,379.07401,37.504000000000005L379.07401,36.243999L381.14599999999996,36.243999L381.14599999999996,35.236000000000004L379.07401,35.236000000000004L379.07401,32.24L378.052,32.24ZM399.93401,32.954C400.424,33.415999,400.97,34.087998999999996,401.19399999999996,34.535999000000004L401.922,34.073999C401.66999999999996,33.639999,401.12399,33.009999,400.62,32.547999000000004L399.93401,32.954ZM401.334,36.958C401.03999,38.344,400.62,39.604,400.07401,40.709998999999996C399.836,39.365999,399.64,37.700001,399.528,35.837998999999996L402.286,35.837998999999996L402.286,34.885999999999996L399.48599,34.885999999999996C399.45801,34.032,399.44399999999996,33.15,399.44399999999996,32.24L398.45,32.24C398.464,33.135999999999996,398.49199999999996,34.018,398.52,34.885999999999996L394.20801,34.885999999999996L394.20801,35.837998999999996L398.576,35.837998999999996C398.716,38.204,398.96799999999996,40.332001000000005,399.34601,41.955999C398.688,42.936001000000005,397.89,43.761999,396.924,44.406C397.134,44.546,397.51198999999997,44.854,397.65201,45.007999C398.408,44.448,399.06599,43.790001000000004,399.64,43.034C400.06,44.308001000000004,400.592,45.063998999999995,401.23599,45.063998999999995C402.034,45.063998999999995,402.342,44.434,402.48199,42.530001C402.25800000000004,42.431999000000005,401.93600000000004,42.222,401.74001,41.997999C401.68401,43.440000999999995,401.558,44.098,401.34801,44.098C401.01198999999997,44.098,400.66200000000003,43.327999,400.34000000000003,42.011999C401.17999,40.639999,401.79601,39.001999,402.216,37.098L401.334,36.958ZM394.964,36.552L394.964,38.959998999999996L394.12399,38.959998999999996L394.12399,39.883999L394.95,39.883999C394.88,41.34,394.60001,42.851999,393.50800000000004,44.07C393.71799999999996,44.195999,394.03999,44.434,394.19399999999996,44.615999C395.41200000000003,43.243999,395.72,41.549999,395.78999,39.883999L396.826,39.883999L396.826,43.608000000000004L397.67999,43.608000000000004L397.67999,39.883999L398.464,39.883999L398.464,38.959998999999996L397.67999,38.959998999999996L397.67999,36.552L396.826,36.552L396.826,38.959998999999996L395.804,38.959998999999996L395.804,36.552L394.964,36.552ZM391.49199999999996,32.24L391.49199999999996,35.208L389.868,35.208L389.868,36.188L391.49199999999996,36.188L391.49199999999996,36.216C391.10001,38.133999,390.28799000000004,40.374001,389.46200999999996,41.549999C389.644,41.802,389.89599999999996,42.25,390.00800000000004,42.530001C390.554,41.704,391.07201,40.402,391.49199999999996,39.015999L391.49199999999996,45.106001L392.472,45.106001L392.472,37.91C392.78,38.483999,393.13,39.141999999999996,393.284,39.506001L393.87199,38.722C393.67599,38.372,392.78,37.042,392.472,36.622L392.472,36.188L393.71799999999996,36.188L393.71799999999996,35.208L392.472,35.208L392.472,32.24L391.49199999999996,32.24ZM406.82201,44.784L407.77399,43.972C406.90601000000004,42.950001,405.64599999999996,41.676001,404.63800000000003,40.864000000000004L403.728,41.662001000000004C404.722,42.473999,405.92599,43.677999,406.82201,44.784ZM422.25,40.094C423.37,40.332001000000005,424.798,40.822001,425.582,41.214000999999996L426.01599,40.5C425.23199,40.135999999999996,423.81799,39.674,422.698,39.450001L422.25,40.094ZM420.85001,41.872C422.78201,42.110001,425.20401,42.67,426.548,43.146L427.01001,42.361999999999995C425.65201,41.914,423.23001,41.367999999999995,421.34,41.158001L420.85001,41.872ZM418.17599,32.856L418.17599,45.120001L419.18399,45.120001L419.18399,44.532L428.78799,44.532L428.78799,45.120001L429.83801,45.120001L429.83801,32.856L418.17599,32.856ZM419.18399,43.594L419.18399,33.808L428.78799,33.808L428.78799,43.594L419.18399,43.594ZM422.79599,34.087998999999996C422.09601,35.236000000000004,420.892,36.327999,419.68799,37.042C419.91199,37.181999000000005,420.276,37.504000000000005,420.42999,37.672001C420.85001,37.391999999999996,421.284,37.056,421.71799,36.677999C422.138,37.125999,422.65601,37.546,423.216,37.924C422.026,38.483999,420.68201,38.903999,419.436,39.156C419.61801,39.351999,419.84201,39.757999,419.94,40.010000000000005C421.31201,39.688,422.78201,39.17,424.112,38.455999C425.27399,39.086,426.604,39.562,427.93399,39.855999C428.06,39.604,428.32599,39.239999999999995,428.522,39.057998999999995C427.29001,38.834,426.05801,38.455999,424.966,37.952C426.01599,37.265999,426.89801,36.468,427.48599,35.516L426.884,35.165999L426.73001,35.208L423.104,35.208C423.314,34.941998999999996,423.51001,34.676,423.67801,34.396L422.79599,34.087998999999996ZM422.29199,36.117999999999995L422.39001,36.019999999999996L426.01599,36.019999999999996C425.51199,36.566,424.84,37.056,424.08401,37.489999999999995C423.37,37.084,422.754,36.622,422.29199,36.117999999999995ZM435.43799,37.559999000000005C435.78799,38.077999,436.15201,38.778,436.27802,39.254000000000005L437.16,38.945999C437.00601,38.483999,436.642,37.784,436.26401,37.293999L435.43799,37.559999000000005ZM437.41199,32.24L437.41199,33.639999L431.84,33.639999L431.84,34.634L437.41199,34.634L437.41199,36.117999999999995L432.59601,36.117999999999995L432.59601,45.106001L433.66,45.106001L433.66,37.084L442.36801,37.084L442.36801,43.888000000000005C442.36801,44.111999999999995,442.298,44.181999000000005,442.04599,44.195999C441.80801,44.209998999999996,440.94,44.224001,440.05801,44.181999000000005C440.21201,44.448,440.366,44.84,440.422,45.120001C441.57001,45.120001,442.36801,45.120001,442.82999,44.952C443.29199,44.798,443.43201,44.518,443.43201,43.888000000000005L443.43201,36.117999999999995L438.57401,36.117999999999995L438.57401,34.634L444.17401,34.634L444.17401,33.639999L438.57401,33.639999L438.57401,32.24L437.41199,32.24ZM439.70801,37.265999C439.49799,37.84,439.064,38.694,438.742,39.268L434.724,39.268L434.724,40.122L437.45401,40.122L437.45401,41.535999000000004L434.42999,41.535999000000004L434.42999,42.417998999999995L437.45401,42.417998999999995L437.45401,44.854L438.46201,44.854L438.46201,42.417998999999995L441.612,42.417998999999995L441.612,41.535999000000004L438.46201,41.535999000000004L438.46201,40.122L441.35999,40.122L441.35999,39.268L439.65201,39.268C439.974,38.763999999999996,440.31,38.147999,440.61801,37.546L439.70801,37.265999ZM452.23801,32.198C450.81,34.368,448.22,36.243999,445.56,37.293999C445.854,37.532,446.14801,37.938,446.31601,38.218C447.04401,37.896,447.772,37.518,448.47198,37.084L448.47198,37.784L455.54199,37.784L455.54199,36.846001C456.26999,37.307998999999995,457.026,37.714000999999996,457.82401,38.091999C457.978,37.756001,458.29999,37.378,458.56601,37.139999C456.34,36.202,454.35199,35.04,452.71399,33.304L453.16199,32.674L452.23801,32.198ZM448.87799,36.818000999999995C450.06799,36.034,451.17401,35.096000000000004,452.08401,34.059999C453.14801,35.179999,454.26801,36.062,455.48599,36.818000999999995L448.87799,36.818000999999995ZM447.74399,39.464000999999996L447.74399,45.091999L448.80801,45.091999L448.80801,44.308001000000004L455.332,44.308001000000004L455.332,45.035999000000004L456.43799,45.035999000000004L456.43799,39.464000999999996L447.74399,39.464000999999996ZM448.80801,43.327999L448.80801,40.416L455.332,40.416L455.332,43.327999L448.80801,43.327999ZM461.772,40.948C462.30399,41.745999999999995,462.85001,42.851999,463.07401,43.524L463.98401,43.132000000000005C463.76001,42.445999,463.186,41.382000000000005,462.64001,40.611999999999995L461.772,40.948ZM469.26199,40.598C468.91199,41.382000000000005,468.28201,42.502001,467.79199,43.202L468.59,43.538C469.09399,42.893999,469.73801,41.872,470.25601,40.989999999999995L469.26199,40.598ZM465.98599,32.113999C464.65601,34.2,462.06601,35.837998999999996,459.42001,36.691998999999996C459.70001,36.944,459.98001,37.35,460.14801,37.658001C460.90399,37.378,461.66,37.042,462.37399,36.635999999999996L462.37399,37.42L465.41199,37.42L465.41199,39.323999L460.582,39.323999L460.582,40.290001000000004L465.41199,40.290001000000004L465.41199,43.747999L459.952,43.747999L459.952,44.714000999999996L472.07599,44.714000999999996L472.07599,43.747999L466.51801,43.747999L466.51801,40.290001000000004L471.43201,40.290001000000004L471.43201,39.323999L466.51801,39.323999L466.51801,37.42L469.612,37.42L469.612,36.538C470.36801,36.972,471.138,37.336,471.866,37.601999C472.034,37.322001,472.35599,36.916,472.608,36.691998999999996C470.48001,36.019999999999996,467.98801,34.564,466.616,33.052L466.966,32.547999000000004L465.98599,32.113999ZM469.444,36.439999L462.724,36.439999C463.95599,35.712,465.09,34.816,466.01401,33.794C466.952,34.759999,468.17001,35.698,469.444,36.439999ZM476.82199,44.784L477.77399,43.972C476.90601,42.950001,475.646,41.676001,474.638,40.864000000000004L473.728,41.662001000000004C474.72198,42.473999,475.92599,43.677999,476.82199,44.784ZM493.00601,40.891999999999996C492.61401,41.941998999999996,491.97,43.034,491.26999,43.775999C491.522,43.888000000000005,491.92801,44.153999,492.138,44.308001000000004C492.81,43.510000000000005,493.52399,42.292,493.97198,41.143999L493.00601,40.891999999999996ZM497.58401,41.269999999999996C498.32599,42.166,499.12399,43.398001,499.45999,44.224001L500.34201,43.733999C499.978,42.922001,499.17999,41.732,498.396,40.85L497.58401,41.269999999999996ZM490.41599,32.24C489.79999,33.233999,488.55399,34.438,487.46201,35.179999C487.63,35.362,487.91,35.74,488.03601,35.95C489.23999,35.096000000000004,490.54199,33.794,491.36801,32.618L490.41599,32.24ZM495.72198,32.198C494.76999,33.976,492.992,35.684,491.228,36.635999999999996C491.48001,36.846001,491.76001,37.167998999999995,491.914,37.42C493.34201,36.552,494.728,35.292,495.76401,33.835999C496.67401,34.998,497.58401,35.837998999999996,498.508,36.538L493.216,36.538L493.216,37.462L495.34399,37.462L495.34399,39.226L491.71799,39.226L491.71799,40.177999L495.34399,40.177999L495.34399,43.902C495.34399,44.084,495.28799,44.153999,495.078,44.153999C494.88199,44.167998999999995,494.23801,44.167998999999995,493.48199,44.139999C493.62201,44.42,493.79001,44.84,493.832,45.120001C494.82599,45.120001,495.47,45.106001,495.862,44.938C496.254,44.769999999999996,496.38,44.489999999999995,496.38,43.902L496.38,40.177999L500.06201,40.177999L500.06201,39.226L496.38,39.226L496.38,37.462L498.67599,37.462L498.67599,36.664C499.04001,36.93,499.39001,37.167998999999995,499.754,37.406C499.89401,37.111999999999995,500.202,36.761999,500.45401,36.566C499.01199,35.782,497.58401,34.745999,496.28201,33.08L496.59,32.533999L495.72198,32.198ZM490.75201,35.025999999999996C489.92599,36.510000000000005,488.582,37.966,487.29401,38.931999000000005C487.47601,39.156,487.784,39.646,487.896,39.855999C488.414,39.436001000000005,488.95999,38.917998999999995,489.478,38.358000000000004L489.478,45.162001000000004L490.47198,45.162001000000004L490.47198,37.195999C490.93399,36.608000000000004,491.34,35.992000000000004,491.69,35.375999L490.75201,35.025999999999996ZM504.30399,32.478L504.30399,36.818000999999995C504.30399,39.394001,504.06601,42.194,501.784,44.294001C502.022,44.476,502.38599,44.854,502.54001,45.091999C505.06,42.796,505.354,39.702,505.354,36.818000999999995L505.354,32.478L504.30399,32.478ZM508.30801,32.785999000000004L508.30801,44.153999L509.34399,44.153999L509.34399,32.785999000000004L508.30801,32.785999000000004ZM512.48001,32.436L512.48001,44.952L513.53,44.952L513.53,32.436L512.48001,32.436ZM502.73599,35.698C502.51199,36.916,502.04999,38.427999,501.40601,39.394001L502.31601,39.785999000000004C502.94601,38.806,503.366,37.195999,503.63199,35.95L502.73599,35.698ZM505.69,36.243999C506.17999,37.391999999999996,506.62799,38.889999,506.754,39.799999L507.67801,39.408001C507.53799,38.511999,507.06201,37.056,506.55801,35.922L505.69,36.243999ZM509.65201,36.188C510.29599,37.293999,510.94,38.778,511.17801,39.688L512.06,39.226C511.82199,38.316,511.13599,36.874001,510.46399,35.796L509.65201,36.188ZM521.0060100000001,40.891999999999996C520.61401,41.941998999999996,519.97,43.034,519.26999,43.775999C519.5219999999999,43.888000000000005,519.92801,44.153999,520.1379999999999,44.308001000000004C520.81,43.510000000000005,521.52399,42.292,521.97198,41.143999L521.0060100000001,40.891999999999996ZM525.58401,41.269999999999996C526.32599,42.166,527.12399,43.398001,527.4599900000001,44.224001L528.3420100000001,43.733999C527.9780000000001,42.922001,527.17999,41.732,526.396,40.85L525.58401,41.269999999999996ZM518.41599,32.24C517.79999,33.233999,516.55399,34.438,515.46201,35.179999C515.63,35.362,515.9100000000001,35.74,516.03601,35.95C517.23999,35.096000000000004,518.5419899999999,33.794,519.36801,32.618L518.41599,32.24ZM523.72198,32.198C522.76999,33.976,520.992,35.684,519.2280000000001,36.635999999999996C519.48001,36.846001,519.76001,37.167998999999995,519.914,37.42C521.3420100000001,36.552,522.7280000000001,35.292,523.76401,33.835999C524.67401,34.998,525.58401,35.837998999999996,526.508,36.538L521.216,36.538L521.216,37.462L523.3439900000001,37.462L523.3439900000001,39.226L519.71799,39.226L519.71799,40.177999L523.3439900000001,40.177999L523.3439900000001,43.902C523.3439900000001,44.084,523.28799,44.153999,523.078,44.153999C522.88199,44.167998999999995,522.23801,44.167998999999995,521.48199,44.139999C521.62201,44.42,521.7900099999999,44.84,521.832,45.120001C522.82599,45.120001,523.47,45.106001,523.8620000000001,44.938C524.254,44.769999999999996,524.38,44.489999999999995,524.38,43.902L524.38,40.177999L528.06201,40.177999L528.06201,39.226L524.38,39.226L524.38,37.462L526.67599,37.462L526.67599,36.664C527.0400099999999,36.93,527.3900100000001,37.167998999999995,527.754,37.406C527.89401,37.111999999999995,528.202,36.761999,528.4540099999999,36.566C527.01199,35.782,525.58401,34.745999,524.28201,33.08L524.5899999999999,32.533999L523.72198,32.198ZM518.7520099999999,35.025999999999996C517.92599,36.510000000000005,516.582,37.966,515.2940100000001,38.931999000000005C515.47601,39.156,515.784,39.646,515.896,39.855999C516.414,39.436001000000005,516.9599900000001,38.917998999999995,517.4780000000001,38.358000000000004L517.4780000000001,45.162001000000004L518.47198,45.162001000000004L518.47198,37.195999C518.93399,36.608000000000004,519.3399999999999,35.992000000000004,519.69,35.375999L518.7520099999999,35.025999999999996ZM529.7280000000001,42.992001L529.7280000000001,44.042L542.3140000000001,44.042L542.3140000000001,42.992001L536.5459900000001,42.992001L536.5459900000001,34.9L541.60001,34.9L541.60001,33.822L530.4559899999999,33.822L530.4559899999999,34.9L535.384,34.9L535.384,42.992001L529.7280000000001,42.992001ZM551.0920100000001,32.17C550.6859999999999,33.36,549.92999,34.480000000000004,549.06201,35.208L549.44,35.446L549.44,36.411999L545.05801,36.411999L545.05801,37.293999L549.44,37.293999L549.44,38.554001L543.672,38.554001L543.672,39.478001L552.31,39.478001L552.31,40.709998999999996L544.12,40.709998999999996L544.12,41.633999L552.31,41.633999L552.31,43.860001C552.31,44.056,552.23999,44.111999999999995,551.98801,44.125999C551.73599,44.139999,550.9100000000001,44.139999,549.9580100000001,44.111999999999995C550.1120000000001,44.391999999999996,550.2940100000001,44.812,550.35001,45.106001C551.4979900000001,45.106001,552.28201,45.091999,552.758,44.952C553.23401,44.784,553.37399,44.489999999999995,553.37399,43.874001L553.37399,41.633999L556.0060100000001,41.633999L556.0060100000001,40.709998999999996L553.37399,40.709998999999996L553.37399,39.478001L556.384,39.478001L556.384,38.554001L550.51801,38.554001L550.51801,37.293999L555.05399,37.293999L555.05399,36.411999L550.51801,36.411999L550.51801,35.446L550.2940100000001,35.446C550.60199,35.11,550.896,34.731999,551.1619900000001,34.311999L552.11401,34.311999C552.534,34.858000000000004,552.94,35.516,553.108,35.978L554.01801,35.585999C553.86401,35.222,553.57001,34.759999,553.2479900000001,34.311999L556.23001,34.311999L556.23001,33.415999L551.66602,33.415999C551.83401,33.094,551.9739999999999,32.757999,552.10001,32.408L551.0920100000001,32.17ZM546.12201,42.236000000000004C547.03201,42.837998999999996,548.0400099999999,43.733999,548.5020099999999,44.391999999999996L549.3140000000001,43.733999C548.8380099999999,43.076,547.802,42.208,546.892,41.633999L546.12201,42.236000000000004ZM545.604,32.17C545.12799,33.415999,544.3439900000001,34.634,543.46201,35.46C543.71399,35.585999,544.14801,35.88,544.3439900000001,36.048C544.806,35.585999,545.254,34.983999,545.67401,34.311999L546.23401,34.311999C546.5,34.858000000000004,546.7520099999999,35.488,546.836,35.908L547.77399,35.558C547.69,35.236000000000004,547.4939899999999,34.759999,547.284,34.311999L549.832,34.311999L549.832,33.415999L546.164,33.415999C546.31799,33.094,546.47198,32.771999,546.59799,32.436L545.604,32.17ZM560.5,37.195999C561.06,37.195999,561.5640000000001,36.790001000000004,561.5640000000001,36.16C561.5640000000001,35.516,561.06,35.096000000000004,560.5,35.096000000000004C559.94,35.096000000000004,559.4359999999999,35.516,559.4359999999999,36.16C559.4359999999999,36.790001000000004,559.94,37.195999,560.5,37.195999ZM559.366,46.254000000000005C560.86401,45.68,561.78799,44.504000000000005,561.78799,42.879999C561.78799,41.83,561.354,41.172001,560.58401,41.172001C560.02399,41.172001,559.51999,41.521999,559.51999,42.18C559.51999,42.851999,559.996,43.188,560.57001,43.188L560.82199,43.16C560.78,44.266001,560.17801,45.007999,559.0440100000001,45.526001L559.366,46.254000000000005Z" fill="#2F2F2F" fill-opacity="1"/></g><g><rect x="34" y="0" width="105" height="53" rx="10" fill="#00AD65" fill-opacity="1"/></g><g><path d="M59.8199999,14.5C61.5299997,15.5200005,64.02,17.08,65.1599998,18.040001L67.349999,15.1900005C66.0900002,14.2900009,63.5699997,12.850000399999999,61.9200001,11.9500008L59.8199999,14.5ZM58.05,22.810001C59.8499999,23.709999,62.4299998,25.150002,63.6599998,26.049999L65.6700001,23.049999C64.3499999,22.209999,61.6799998,20.92,60,20.140000999999998L58.05,22.810001ZM59.0999999,36.91L62.130000100000004,39.34C63.9299998,36.4,65.8499994,32.980000000000004,67.44,29.83L64.7999997,27.43C63,30.91,60.6899998,34.66,59.0999999,36.91ZM66.3299999,34.269999999999996L66.3299999,37.9L86.07,37.9L86.07,34.269999999999996L78.029999,34.269999999999996L78.029999,17.620001000000002L84.689999,17.620001000000002L84.689999,14.0200005L67.98,14.0200005L67.98,17.620001000000002L74.129999,17.620001000000002L74.129999,34.269999999999996L66.3299999,34.269999999999996ZM92.82,27.190001C91.799999,29.23,90.150002,31.630001,88.530001,33.219999L91.560001,35.049999C93.09,33.280001,94.619999,30.67,95.72999999999999,28.630001L92.82,27.190001ZM90.810001,22.360001L90.810001,25.780001L98.849998,25.780001C98.07,30.700001,95.970001,34.6,89.099998,36.91C89.880001,37.6,90.810001,38.889999,91.200001,39.759998C99.119999,36.91,101.549999,31.93,102.450001,25.780001L107.189999,25.780001C106.91999799999999,32.380001,106.529999,35.290001000000004,105.869999,35.980000000000004C105.57,36.309999000000005,105.239998,36.4,104.66999799999999,36.4C103.949997,36.4,102.41999799999999,36.370001,100.70999900000001,36.25C101.279999,37.120001,101.72999999999999,38.5,101.759998,39.400002C103.5,39.459999,105.239998,39.490002,106.32,39.34C107.489998,39.220001,108.389999,38.919998,109.16999799999999,37.93C109.949997,37,110.400002,34.75,110.72999999999999,29.559999C111.54000099999999,31.57,112.349998,33.790001000000004,112.70999900000001,35.290001000000004L115.860001,34.030001C115.349998,32.200001,114.09,29.200001,113.04000099999999,26.98L110.82,27.76L111,23.92C111.029999,23.470001,111.05999800000001,22.360001,111.05999800000001,22.360001L102.80999800000001,22.360001L102.989998,19.509999999999998L99.33000200000001,19.509999999999998L99.18,22.360001L90.810001,22.360001ZM105.57,11.5L105.57,13.960001L98.52000000000001,13.960001L98.52000000000001,11.5L94.889999,11.5L94.889999,13.960001L88.68,13.960001L88.68,17.290001L94.889999,17.290001L94.889999,20.110001L98.52000000000001,20.110001L98.52000000000001,17.290001L105.57,17.290001L105.57,20.110001L109.199997,20.110001L109.199997,17.290001L115.379997,17.290001L115.379997,13.960001L109.199997,13.960001L109.199997,11.5L105.57,11.5Z" fill="#FFFFFF" fill-opacity="1"/></g></g></g></svg>