<svg xmlns="http://www.w3.org/2000/svg" xmlns:xlink="http://www.w3.org/1999/xlink" fill="none" version="1.1" width="238" height="45" viewBox="0 0 238 45"><g><path d="M2.0400002,10.717999C3.8760002,12.621998,6.0860004,15.273998,7.0380006,16.973999L10.404,14.661999C9.3160009,12.995998,6.9700003,10.479998,5.2020001,8.6779976L2.0400002,10.717999ZM28.900002,8.1679993C25.364002,9.289999,19.142,9.9019985,13.6,10.105999L13.6,17.585999C13.6,21.801998,13.362,27.683998,10.608001,31.798C11.56,32.239998,13.396001,33.532001,14.144001,34.245998C16.490002,30.778,17.374001,25.779999,17.646002,21.427999L22.848001,21.427999L22.848001,33.939999L26.894001,33.939999L26.894001,21.427999L32.572002,21.427999L32.572002,17.653999L17.748001,17.653999L17.748001,13.437998C22.814001,13.165998,28.220001,12.519999,32.266003,11.227999L28.900002,8.1679993ZM9.4180002,20.271999L1.598,20.271999L1.598,24.284L5.4400005,24.284L5.4400005,32.478001C4.0120001,33.124001,2.3460002,34.382,0.81600004,36.048L3.5360003,39.924C4.7600002,37.952,6.2220001,35.674,7.2420006,35.674C8.0240002,35.674,9.1800003,36.762001,10.744,37.612C13.260001,38.972,16.150002,39.346001,20.434002,39.346001C23.936001,39.346001,29.580002,39.141998,31.994001,39.006001C32.062,37.849998,32.708,35.844002,33.184002,34.756001C29.750002,35.231998,24.208002,35.537998,20.604002,35.537998C16.796001,35.537998,13.668001,35.334,11.356001,34.042C10.574,33.599998,9.9280005,33.192001,9.4180002,32.852001L9.4180002,20.271999ZM39.678001,21.087999L39.678001,25.065998L45.492001,25.065998C44.948002,28.397999,44.370003,31.594,43.757999,34.382L35.835999,34.382L35.835999,38.428001L66.334,38.428001L66.334,34.382L59.737999,34.382C60.214001,29.962,60.656002,25.133999,60.860001,21.155998L57.630001,20.917999L56.882004,21.087999L50.592003,21.087999L51.476002,15.239998L64.090004,15.239998L64.090004,11.227999L37.807999,11.227999L37.807999,15.239998L46.954002,15.239998L46.138,21.087999L39.678001,21.087999ZM48.279999,34.382C48.824001,31.628,49.402,28.431999,49.945999,25.065998L56.236,25.065998C56.032001,27.888,55.726002,31.288,55.386002,34.382L48.279999,34.382ZM69.360001,28.84L69.360001,32.75L84.762001,32.75L84.762001,40.060001L88.977997,40.060001L88.977997,32.75L100.64,32.75L100.64,28.84L88.977997,28.84L88.977997,23.705999L97.987999,23.705999L97.987999,19.897999L88.977997,19.897999L88.977997,15.783998L98.804001,15.783998L98.804001,11.839998L79.492004,11.839998C79.900002,10.921999,80.274002,10.003998,80.613998,9.0519981L76.431999,7.9639988C74.970001,12.417999,72.318001,16.769999,69.258003,19.387999C70.278,20,72.012001,21.326,72.793999,22.039999C74.426003,20.407999,76.024002,18.231998,77.452003,15.783998L84.762001,15.783998L84.762001,19.897999L74.765999,19.897999L74.765999,28.84L69.360001,28.84ZM78.846001,28.84L78.846001,23.705999L84.762001,23.705999L84.762001,28.84L78.846001,28.84ZM118.354,12.451998C120.224,13.947998,122.468,16.157999,123.42,17.619999L126.276,15.07C125.222,13.573999,122.876,11.533998,121.006,10.173998L118.354,12.451998ZM117.096,21.427999C119.068,22.924,121.482,25.133999,122.536,26.664L125.32401,24.011999C124.168,22.549999,121.686,20.476,119.714,19.081999L117.096,21.427999ZM114.342,8.4059982C111.52,9.5959988,107.236,10.615999,103.36,11.193998C103.802,12.077999,104.312,13.471998,104.448,14.355999C105.672,14.219999,106.998,14.015999,108.29,13.811998L108.29,17.688L103.122,17.688L103.122,21.461998L107.746,21.461998C106.522,24.759998,104.584,28.431999,102.68,30.642C103.326,31.661999,104.21,33.362,104.584,34.518002C105.91,32.818001,107.202,30.403999,108.29,27.785999L108.29,40.026001L112.234,40.026001L112.234,26.188C113.05,27.514,113.866,28.976,114.308,29.927999L116.654,26.731998C116.008,25.916,113.186,22.652,112.234,21.768L112.234,21.461998L116.722,21.461998L116.722,17.688L112.234,17.688L112.234,13.029999C113.798,12.655998,115.294,12.213999,116.62,11.737999L114.342,8.4059982ZM116.144,30.029999L116.79,33.905998L127.092,32.104L127.092,39.992001L131.138,39.992001L131.138,31.424L135.14999,30.709999L134.504,26.868L131.138,27.445999L131.138,8.0999985L127.092,8.0999985L127.092,28.16L116.144,30.029999ZM161.534,13.607998L161.534,22.006001L157.692,22.006001L157.692,13.607998L161.534,13.607998ZM150.62,22.006001L150.62,25.848L153.81601,25.848C153.612,29.996,152.76199,34.790001,149.838,37.952C150.756,38.462002,152.218,39.584,152.89799,40.298C156.43401,36.557999,157.42,30.914,157.62399,25.848L161.534,25.848L161.534,40.060001L165.41,40.060001L165.41,25.848L168.98001,25.848L168.98001,22.006001L165.41,22.006001L165.41,13.607998L168.3,13.607998L168.3,9.7999992L151.504,9.7999992L151.504,13.607998L153.884,13.607998L153.884,22.006001L150.62,22.006001ZM137.46201,9.7319984L137.46201,13.403999L141.10001,13.403999C140.216,17.858,138.856,22.006001,136.748,24.827999C137.29201,26.018,138.03999,28.601999,138.17599,29.656C138.65199,29.077999,139.09399,28.466,139.536,27.82L139.536,38.428001L142.90201,38.428001L142.90201,35.911999L149.464,35.911999L149.464,20.203999L143.07201,20.203999C143.82001,18.028,144.43201,15.716,144.908,13.403999L149.87199,13.403999L149.87199,9.7319984L137.46201,9.7319984ZM142.90201,23.807999L145.996,23.807999L145.996,32.341999L142.90201,32.341999L142.90201,23.807999ZM187.476,8.1679993C187.476,9.8339977,187.54401,11.533998,187.612,13.199999L173.672,13.199999L173.672,23.195999C173.672,27.615999,173.468,33.599998,170.85001,37.68C171.76801,38.155998,173.604,39.652,174.31799,40.467999C177.14,36.285999,177.854,29.622,177.95599,24.624001L182.41,24.624001C182.342,28.908001,182.20599,30.573999,181.832,31.049999C181.59399,31.355999,181.254,31.458,180.812,31.458C180.23399,31.458,179.112,31.424,177.888,31.321999C178.466,32.341999,178.908,33.939999,178.976,35.130001C180.57401,35.164001,182.036,35.130001,182.95399,34.993999C183.94,34.824001,184.65401,34.518002,185.334,33.667999C186.116,32.647999,186.286,29.587999,186.422,22.414C186.422,21.938,186.422,20.917999,186.422,20.917999L177.95599,20.917999L177.95599,17.211998L187.85001,17.211998C188.29201,22.345999,189.04001,27.139999,190.23,31.015999C188.258,33.259998,185.912,35.130001,183.25999,36.557999C184.144,37.34,185.64,39.040001,186.218,39.924C188.326,38.632,190.23,37.102001,191.964,35.299999C193.46001,38.088001,195.39799,39.788002,197.778,39.788002C200.94,39.788002,202.3,38.292,202.946,31.934C201.858,31.525999,200.396,30.573999,199.478,29.656C199.308,33.939999,198.89999,35.639999,198.118,35.639999C196.996,35.639999,195.908,34.211998,194.95599,31.764C197.438,28.397999,199.41,24.453999,200.838,20L196.724,19.014C195.908,21.768,194.82001,24.317999,193.46001,26.596001C192.84801,23.841999,192.37201,20.646,192.06601,17.211998L202.64,17.211998L202.64,13.199999L199.104,13.199999L200.77,11.465998C199.51199,10.309999,197.03,8.7799988,195.16,7.7939987L192.67801,10.241999C194.07201,11.057999,195.806,12.213999,197.03,13.199999L191.828,13.199999C191.76001,11.533998,191.726,9.8679981,191.76001,8.1679993L187.476,8.1679993ZM209.168,9.697998L209.168,23.978001L218.92599,23.978001L218.92599,26.018L205.836,26.018L205.836,29.723999L215.93401,29.723999C213.04401,32.307999,208.828,34.551998,204.782,35.742001C205.7,36.591999,206.924,38.155998,207.57001,39.141998C211.64999,37.646,215.798,34.993999,218.92599,31.865999L218.92599,40.060001L223.244,40.060001L223.244,31.695999C226.40601,34.756001,230.554,37.408001,234.498,38.938C235.11,37.883999,236.334,36.32,237.252,35.470001C233.37601,34.313999,229.228,32.172001,226.23601,29.723999L236.26601,29.723999L236.26601,26.018L223.244,26.018L223.244,23.978001L233.104,23.978001L233.104,9.697998L209.168,9.697998ZM213.418,18.401999L218.92599,18.401999L218.92599,20.577999L213.418,20.577999L213.418,18.401999ZM223.244,18.401999L228.64999,18.401999L228.64999,20.577999L223.244,20.577999L223.244,18.401999ZM213.418,13.098L218.92599,13.098L218.92599,15.239998L213.418,15.239998L213.418,13.098ZM223.244,13.098L228.64999,13.098L228.64999,15.239998L223.244,15.239998L223.244,13.098Z" fill="#2E2E2E" fill-opacity="1"/></g></svg>