<svg xmlns="http://www.w3.org/2000/svg" viewBox="0 0 1000 220" width="1200px" height="220px">
    <style>
        .blue-text { fill: #0056b3; font-family: 'Microsoft YaHei', sans-serif; font-size: 26px; font-weight: bold; }
        .blue-number { fill: #0056b3; font-family: 'Times New Roman', serif; font-size: 130px; font-weight: bold; }
        .blue-unit { fill: #0056b3; font-family: 'Microsoft YaHei', sans-serif; font-size: 22px; font-weight: normal; }
        .blue-shape { stroke: #0056b3; stroke-width: 3; fill: none; }
        .blue-line { stroke: #0056b3; stroke-width: 2; fill: none; }
    </style>

    <g transform="translate(50, 40)">
        <text class="blue-text" x="20" y="80">研究生联合培养基地</text>

        <g transform="translate(380, 0)">
            <text class="blue-number" x="0" y="100">9</text>
            <text class="blue-unit" x="85" y="90">个</text>
        </g>
    </g>

    <g transform="translate(50, 150)">
        <g>
            <polygon class="blue-shape" points="0,0 20,-20 40,0 20,20"/> <polygon class="blue-shape" points="5,0 20,-15 35,0 20,15"/> </g>
        <line class="blue-line" x1="40" y1="0" x2="480" y2="0"/>
    </g>

    <g transform="translate(550, 40)">
        <text class="blue-text" x="30" y="80">双万计划</text>

        <g transform="translate(400, 0)">
            <text class="blue-number" x="0" y="100">2</text>
            <text class="blue-unit" x="90" y="90">个</text>
        </g>
    </g>

    <g transform="translate(550, 150)">
        <g>
            <polygon class="blue-shape" points="0,0 20,-20 40,0 20,20"/> <polygon class="blue-shape" points="5,0 20,-15 35,0 20,15"/> </g>
        <line class="blue-line" x1="40" y1="0" x2="510" y2="0"/>
    </g>
</svg>