<svg xmlns="http://www.w3.org/2000/svg" xmlns:xlink="http://www.w3.org/1999/xlink" fill="none" version="1.1" width="680" height="89" viewBox="0 0 680 89"><defs><filter id="master_svg0_70_07167" filterUnits="objectBoundingBox" color-interpolation-filters="sRGB" x="-0.03076923076923077" y="-0.2909090909090909" width="1.0615384615384615" height="1.7272727272727273"><feFlood flood-opacity="0" result="BackgroundImageFix"/><feColorMatrix in="SourceAlpha" type="matrix" values="0 0 0 0 0 0 0 0 0 0 0 0 0 0 0 0 0 0 127 0"/><feOffset dy="4" dx="0"/><feGaussianBlur stdDeviation="5"/><feColorMatrix type="matrix" values="0 0 0 0 0 0 0 0 0 0 0 0 0 0 0 0 0 0 0.10000000149011612 0"/><feBlend mode="normal" in2="BackgroundImageFix" result="effect1_dropShadow"/><feBlend mode="normal" in="SourceGraphic" in2="effect1_dropShadow" result="shape"/></filter></defs><g><g><g filter="url(#master_svg0_70_07167)"><rect x="15" y="15" width="650" height="55" rx="10" fill="#FFFFFF" fill-opacity="1"/></g><g><path d="M156.6000004,35.165999C156.4040003,35.88,156.1800003,36.566,155.928,37.223999L151.85400003,37.223999L151.85400003,38.218L155.50800040000001,38.218C154.52800009999999,40.416,153.2120001,42.278,151.56,43.58C151.82600003,43.761999,152.274,44.167998999999995,152.4560001,44.378C154.2060001,42.865999,155.6340003,40.737999,156.684,38.218L164.146001,38.218L164.146001,37.223999L157.0760002,37.223999C157.3000002,36.635999999999996,157.4960003,36.034,157.678,35.417999L156.6000004,35.165999ZM155.382,44.84C155.802,44.672001,156.4460001,44.601999,162.228001,44.056C162.494,44.462,162.732,44.826,162.900001,45.120001L163.838,44.532C163.236,43.552,161.962,41.914,160.9820004,40.723999L160.1280003,41.200001C160.6040001,41.802,161.136001,42.516001,161.626,43.202L156.7260003,43.622C157.7200003,42.389999,158.7140002,40.836,159.5539999,39.254000000000005L158.4620004,38.875999C157.6360002,40.653999,156.3900003,42.473999,155.9840002,42.950001C155.6059999,43.440000999999995,155.3120003,43.775999,155.0320001,43.832001000000005C155.1440001,44.111999999999995,155.3120003,44.615999,155.382,44.84ZM157.1460004,32.422C157.3700004,32.828,157.6080003,33.36,157.776,33.766L152.036,33.766L152.036,36.397999L153.072,36.397999L153.072,34.731999L162.914001,34.731999L162.914001,36.397999L163.978001,36.397999L163.978001,33.766L158.9100003,33.766L159.00800040000001,33.738C158.8540001,33.304,158.5040002,32.618,158.21,32.127999L157.1460004,32.422ZM171.440001,32.226L171.440001,34.283999L166.26,34.283999L166.26,35.334L171.440001,35.334L171.440001,37.406L166.96,37.406L166.96,38.427999L171.440001,38.427999L171.440001,40.695999L165.742,40.695999L165.742,41.745999999999995L171.440001,41.745999999999995L171.440001,45.091999L172.546,45.091999L172.546,41.745999999999995L178.271999,41.745999999999995L178.271999,40.695999L172.546,40.695999L172.546,38.427999L177.082001,38.427999L177.082001,37.406L172.546,37.406L172.546,35.334L177.71200199999998,35.334L177.71200199999998,34.283999L172.546,34.283999L172.546,32.226L171.440001,32.226ZM185.327999,38.288L185.327999,40.304001L181.856001,40.304001L181.856001,38.288L185.327999,38.288ZM186.433998,38.288L190.032001,38.288L190.032001,40.304001L186.433998,40.304001L186.433998,38.288ZM185.327999,37.307998999999995L181.856001,37.307998999999995L181.856001,35.306L185.327999,35.306L185.327999,37.307998999999995ZM186.433998,37.307998999999995L186.433998,35.306L190.032001,35.306L190.032001,37.307998999999995L186.433998,37.307998999999995ZM180.764,34.269999999999996L180.764,42.194L181.856001,42.194L181.856001,41.326L185.327999,41.326L185.327999,42.809999000000005C185.327999,44.448,185.790001,44.882000000000005,187.358002,44.882000000000005C187.708,44.882000000000005,190.074001,44.882000000000005,190.452,44.882000000000005C191.950001,44.882000000000005,192.285999,44.139999,192.468002,42.011999C192.14600000000002,41.927999,191.69799799999998,41.732,191.417999,41.535999000000004C191.32,43.356001,191.18,43.818000999999995,190.39600000000002,43.818000999999995C189.891998,43.818000999999995,187.848,43.818000999999995,187.428001,43.818000999999995C186.588001,43.818000999999995,186.433998,43.65,186.433998,42.837998999999996L186.433998,41.326L191.110001,41.326L191.110001,34.269999999999996L186.433998,34.269999999999996L186.433998,32.268L185.327999,32.268L185.327999,34.269999999999996L180.764,34.269999999999996ZM193.728001,42.992001L193.728001,44.042L206.313999,44.042L206.313999,42.992001L200.546001,42.992001L200.546001,34.9L205.599998,34.9L205.599998,33.822L194.45600100000001,33.822L194.45600100000001,34.9L199.38399900000002,34.9L199.38399900000002,42.992001L193.728001,42.992001ZM214.237999,32.198C212.810001,34.368,210.220001,36.243999,207.560001,37.293999C207.85399999999998,37.532,208.147999,37.938,208.316002,38.218C209.04399899999999,37.896,209.771999,37.518,210.472,37.084L210.472,37.784L217.542,37.784L217.542,36.846001C218.270004,37.307998999999995,219.026001,37.714000999999996,219.82399700000002,38.091999C219.97799700000002,37.756001,220.300003,37.378,220.566002,37.139999C218.33999599999999,36.202,216.35199699999998,35.04,214.714001,33.304L215.162003,32.674L214.237999,32.198ZM210.877998,36.818000999999995C212.068001,36.034,213.174,35.096000000000004,214.084,34.059999C215.14800300000002,35.179999,216.267998,36.062,217.486,36.818000999999995L210.877998,36.818000999999995ZM209.743999,39.464000999999996L209.743999,45.091999L210.807999,45.091999L210.807999,44.308001000000004L217.332001,44.308001000000004L217.332001,45.035999000000004L218.438004,45.035999000000004L218.438004,39.464000999999996L209.743999,39.464000999999996ZM210.807999,43.327999L210.807999,40.416L217.332001,40.416L217.332001,43.327999L210.807999,43.327999ZM223.77200299999998,40.948C224.304001,41.745999999999995,224.849998,42.851999,225.07399700000002,43.524L225.984001,43.132000000000005C225.760002,42.445999,225.185997,41.382000000000005,224.639999,40.611999999999995L223.77200299999998,40.948ZM231.262001,40.598C230.912003,41.382000000000005,230.281998,42.502001,229.792,43.202L230.58999599999999,43.538C231.094002,42.893999,231.737999,41.872,232.25599699999998,40.989999999999995L231.262001,40.598ZM227.986,32.113999C226.655998,34.2,224.066002,35.837998999999996,221.41999800000002,36.691998999999996C221.699997,36.944,221.980003,37.35,222.14800300000002,37.658001C222.903999,37.378,223.66000400000001,37.042,224.37400100000002,36.635999999999996L224.37400100000002,37.42L227.412003,37.42L227.412003,39.323999L222.582001,39.323999L222.582001,40.290001000000004L227.412003,40.290001000000004L227.412003,43.747999L221.952003,43.747999L221.952003,44.714000999999996L234.076004,44.714000999999996L234.076004,43.747999L228.517998,43.747999L228.517998,40.290001000000004L233.43199900000002,40.290001000000004L233.43199900000002,39.323999L228.517998,39.323999L228.517998,37.42L231.612,37.42L231.612,36.538C232.367996,36.972,233.138,37.336,233.865997,37.601999C234.033997,37.322001,234.356003,36.916,234.608002,36.691998999999996C232.480003,36.019999999999996,229.987999,34.564,228.615997,33.052L228.966003,32.547999000000004L227.986,32.113999ZM231.44400000000002,36.439999L224.723999,36.439999C225.95600100000001,35.712,227.08999599999999,34.816,228.014,33.794C228.952003,34.759999,230.16999800000002,35.698,231.44400000000002,36.439999ZM238.821999,44.784L239.774002,43.972C238.905998,42.950001,237.646004,41.676001,236.638,40.864000000000004L235.72799700000002,41.662001000000004C236.72199999999998,42.473999,237.92600299999998,43.677999,238.821999,44.784ZM255.23000000000002,35.95L260.01800000000003,35.95L260.01800000000003,37.322001L255.23000000000002,37.322001L255.23000000000002,35.95ZM255.23000000000002,33.752L260.01800000000003,33.752L260.01800000000003,35.11L255.23000000000002,35.11L255.23000000000002,33.752ZM254.25,32.856L254.25,38.218L261.04,38.218L261.04,32.856L254.25,32.856ZM250.372002,33.164C251.25400000000002,33.556,252.374,34.2,252.92000000000002,34.676L253.50799999999998,33.822C252.94799999999998,33.36,251.814,32.757999,250.93199900000002,32.408L250.372002,33.164ZM249.531998,36.972C250.442001,37.378,251.562,38.035999000000004,252.122,38.497999L252.696,37.643999C252.122,37.181999000000005,250.987999,36.566,250.092003,36.216L249.531998,36.972ZM249.896004,44.224001L250.792,44.882000000000005C251.576,43.58,252.5,41.816,253.2,40.346001L252.416,39.716C251.66,41.298,250.610001,43.146,249.896004,44.224001ZM252.584,43.775999L252.584,44.714000999999996L262.468,44.714000999999996L262.468,43.775999L261.516,43.775999L261.516,39.408001L253.774,39.408001L253.774,43.775999L252.584,43.775999ZM254.74,43.775999L254.74,40.332001000000005L256.098,40.332001000000005L256.098,43.775999L254.74,43.775999ZM256.924,43.775999L256.924,40.332001000000005L258.296,40.332001000000005L258.296,43.775999L256.924,43.775999ZM259.13599999999997,43.775999L259.13599999999997,40.332001000000005L260.522,40.332001000000005L260.522,43.775999L259.13599999999997,43.775999ZM266.304,32.478L266.304,36.818000999999995C266.304,39.394001,266.06600000000003,42.194,263.784,44.294001C264.022,44.476,264.38599999999997,44.854,264.54,45.091999C267.06,42.796,267.354,39.702,267.354,36.818000999999995L267.354,32.478L266.304,32.478ZM270.308,32.785999000000004L270.308,44.153999L271.344,44.153999L271.344,32.785999000000004L270.308,32.785999000000004ZM274.48,32.436L274.48,44.952L275.53,44.952L275.53,32.436L274.48,32.436ZM264.736,35.698C264.512,36.916,264.05,38.427999,263.406,39.394001L264.31600000000003,39.785999000000004C264.946,38.806,265.366,37.195999,265.632,35.95L264.736,35.698ZM267.69,36.243999C268.18,37.391999999999996,268.628,38.889999,268.754,39.799999L269.678,39.408001C269.538,38.511999,269.062,37.056,268.558,35.922L267.69,36.243999ZM271.652,36.188C272.296,37.293999,272.94,38.778,273.178,39.688L274.06,39.226C273.822,38.316,273.13599999999997,36.874001,272.464,35.796L271.652,36.188ZM281.67599,35.823999L287.5,35.823999L287.5,37.322001L281.67599,37.322001L281.67599,35.823999ZM278.288,32.87L278.288,33.766L281.858,33.766C280.752,34.9,279.15601000000004,35.851999,277.602,36.468C277.812,36.664,278.176,37.056,278.31600000000003,37.265999C279.086,36.916,279.884,36.468,280.64,35.964L280.64,38.175999000000004L288.578,38.175999000000004L288.578,34.969999L281.942,34.969999C282.37601,34.592,282.78200000000004,34.186,283.14599999999996,33.766L289.71200999999996,33.766L289.71200999999996,32.87L278.288,32.87ZM282.06799,39.66L281.84398999999996,39.674L278.246,39.674L278.246,40.625999L281.522,40.625999C280.76601,42.166,279.35201,43.243999,277.742,43.804001C277.938,44,278.23199999999997,44.448,278.344,44.700001C280.34599000000003,43.916,282.12399,42.375999,282.908,39.925999000000004L282.26401,39.632000000000005L282.06799,39.66ZM283.58000000000004,38.4L283.58000000000004,43.93C283.58000000000004,44.098,283.524,44.153999,283.328,44.153999C283.14599999999996,44.167998999999995,282.474,44.167998999999995,281.802,44.139999C281.92799,44.42,282.082,44.812,282.12399,45.091999C283.062,45.091999,283.692,45.077999,284.09801,44.938C284.504,44.784,284.63,44.504000000000005,284.63,43.944L284.63,40.976C285.918,42.628,287.73801000000003,43.93,289.71200999999996,44.587998999999996C289.88,44.294001,290.188,43.860001,290.44,43.635999999999996C289.054,43.243999,287.73801000000003,42.558001000000004,286.65999999999997,41.676001C287.54201,41.158001,288.55,40.486000000000004,289.34801,39.855999L288.452,39.198C287.836,39.771999,286.856,40.513999999999996,285.974,41.073999C285.442,40.556,284.994,39.982,284.63,39.394001L284.63,38.4L283.58000000000004,38.4ZM292.246,35.389999L292.246,45.120001L293.28200000000004,45.120001L293.28200000000004,35.389999L292.246,35.389999ZM292.48399,32.926C293.04400999999996,33.513999999999996,293.786,34.34,294.13599999999997,34.858000000000004L294.96200999999996,34.242000000000004C294.59801,33.752,293.828,32.967999,293.26801,32.394L292.48399,32.926ZM299.28799000000004,35.544C299.75,35.992000000000004,300.33799999999997,36.608000000000004,300.64599999999996,36.972L301.304,36.439999C301.00999,36.09,300.394,35.488,299.93201,35.082L299.28799000000004,35.544ZM295.97,32.912L295.97,33.906L302.73199,33.906L302.73199,43.818000999999995C302.73199,44.013999999999996,302.67599,44.056,302.48,44.07C302.312,44.084,301.752,44.084,301.14999,44.07C301.28999,44.322001,301.42999,44.784,301.472,45.063998999999995C302.34000000000003,45.063998999999995,302.92799,45.035999000000004,303.29201,44.867999999999995C303.642,44.686001000000005,303.76801,44.391999999999996,303.76801,43.832001000000005L303.76801,32.912L295.97,32.912ZM300.95399,38.722C300.60400000000004,39.422001,300.12801,40.08,299.56799,40.667998999999995C299.37199,40.010000000000005,299.20399,39.226,299.078,38.372L301.976,37.993999L301.91999999999996,37.084L298.952,37.448C298.882,36.733999,298.812,35.992000000000004,298.784,35.25L297.86,35.25C297.90201,36.034,297.95801,36.818000999999995,298.04201,37.559999000000005L296.43201,37.728001L296.54400999999996,38.694L298.15400999999997,38.497999C298.308,39.59,298.51801,40.584,298.812,41.396C298.084,42.011999,297.25800000000004,42.544001,296.40400999999997,42.950001C296.60001,43.132000000000005,296.922,43.524,297.048,43.719999C297.78999,43.313998999999995,298.51801,42.823999,299.19,42.263999999999996C299.65201,43.117999999999995,300.26801,43.635999999999996,301.08000000000004,43.635999999999996C301.76601,43.635999999999996,302.04601,43.257999,302.18600000000004,42.263999999999996C301.99001,42.124001,301.73801000000003,41.9,301.584,41.704C301.528,42.389999,301.40201,42.726,301.12199,42.726C300.64599999999996,42.726,300.24001,42.306,299.918,41.605999C300.688,40.836,301.36,39.968,301.85001,39.001999L300.95399,38.722ZM295.78799000000004,35.082C295.312,36.622,294.5,38.133999,293.548,39.128C293.73,39.337998999999996,294.00999,39.799999,294.12199,39.982C294.416,39.66,294.696,39.296,294.96200999999996,38.889999L294.96200999999996,44.042L295.88599999999997,44.042L295.88599999999997,37.251999C296.17999,36.622,296.446,35.978,296.66999999999996,35.32L295.78799000000004,35.082ZM305.728,42.992001L305.728,44.042L318.31399999999996,44.042L318.31399999999996,42.992001L312.54601,42.992001L312.54601,34.9L317.60001,34.9L317.60001,33.822L306.45599000000004,33.822L306.45599000000004,34.9L311.384,34.9L311.384,42.992001L305.728,42.992001ZM326.448,33.738L330.67599,33.738L330.67599,36.313998999999995L326.448,36.313998999999995L326.448,33.738ZM325.46799999999996,32.828L325.46799999999996,37.223999L331.698,37.223999L331.698,32.828L325.46799999999996,32.828ZM325.272,41.073999L325.272,41.983999L328.01601,41.983999L328.01601,43.818000999999995L324.334,43.818000999999995L324.334,44.742001L332.48199,44.742001L332.48199,43.818000999999995L329.052,43.818000999999995L329.052,41.983999L331.866,41.983999L331.866,41.073999L329.052,41.073999L329.052,39.379999L332.174,39.379999L332.174,38.455999L324.95,38.455999L324.95,39.379999L328.01601,39.379999L328.01601,41.073999L325.272,41.073999ZM324.054,32.436C323.01801,32.912,321.16999999999996,33.318,319.60201,33.584C319.728,33.808,319.868,34.158,319.90999999999997,34.382C320.56799,34.297999000000004,321.26801,34.172,321.96799999999996,34.032L321.96799999999996,36.188L319.68600000000004,36.188L319.68600000000004,37.167998999999995L321.828,37.167998999999995C321.26801,38.778,320.302,40.598,319.392,41.591999C319.57401,41.844,319.826,42.263999999999996,319.938,42.558001000000004C320.65199,41.690000999999995,321.394,40.304001,321.96799999999996,38.889999L321.96799999999996,45.091999L323.004,45.091999L323.004,39.057998999999995C323.48,39.646,324.03999,40.402,324.278,40.794001L324.908,39.968C324.62801,39.646,323.40999999999997,38.385999999999996,323.004,38.035999000000004L323.004,37.167998999999995L324.754,37.167998999999995L324.754,36.188L323.004,36.188L323.004,33.794C323.66200000000003,33.639999,324.278,33.457999,324.78200000000004,33.247999L324.054,32.436ZM343.85001,34.004L343.85001,38.035999000000004L341.56799,38.035999000000004L341.56799,34.004L343.85001,34.004ZM339.006,38.035999000000004L339.006,39.043999L340.56,39.043999C340.504,40.934,340.18201,43.076,338.754,44.573999C339.006,44.714000999999996,339.384,44.993999,339.56599,45.176001C341.14799,43.538,341.498,41.200001,341.554,39.043999L343.85001,39.043999L343.85001,45.120001L344.858,45.120001L344.858,39.043999L346.44,39.043999L346.44,38.035999000000004L344.858,38.035999000000004L344.858,34.004L346.15999999999997,34.004L346.15999999999997,33.009999L339.39799,33.009999L339.39799,34.004L340.57401,34.004L340.57401,38.035999000000004L339.006,38.035999000000004ZM333.714,33.009999L333.714,33.976L335.464,33.976C335.07201,36.104,334.42799,38.091999,333.448,39.408001C333.616,39.688,333.85400000000004,40.275999,333.924,40.542C334.19,40.191998999999996,334.442,39.799999,334.666,39.394001L334.666,44.476L335.562,44.476L335.562,43.356001L338.40400999999997,43.356001L338.40400999999997,37.293999L335.576,37.293999C335.94,36.257999,336.23399,35.124,336.45801,33.976L338.642,33.976L338.642,33.009999L333.714,33.009999ZM335.562,38.245999999999995L337.466,38.245999999999995L337.466,42.417998999999995L335.562,42.417998999999995L335.562,38.245999999999995ZM352.37601,35.193999C351.256,36.062,349.688,36.860001,348.414,37.322001L349.11400000000003,38.077999C350.45801,37.546,352.026,36.635999999999996,353.23,35.67L352.37601,35.193999ZM354.938,35.768C356.33799999999997,36.397999,358.10201,37.406,358.97,38.091999L359.71200999999996,37.434C358.774,36.747999,357.00999,35.796,355.63800000000003,35.193999L354.938,35.768ZM352.418,37.686001000000005L352.418,38.987999L348.63800000000003,38.987999L348.63800000000003,39.968L352.39,39.968C352.26401,41.41,351.466,43.117999999999995,347.784,44.252001C348.036,44.476,348.34398999999996,44.854,348.498,45.106001C352.54400999999996,43.846001,353.356,41.788,353.46799999999996,39.968L356.26801,39.968L356.26801,43.426001C356.26801,44.573999,356.576,44.882000000000005,357.62601,44.882000000000005C357.85001,44.882000000000005,358.87199,44.882000000000005,359.11,44.882000000000005C360.10400000000004,44.882000000000005,360.37,44.336,360.46799999999996,42.222C360.188,42.138000000000005,359.726,41.969999,359.502,41.788C359.46001,43.608000000000004,359.40400999999997,43.874001,359.01198999999997,43.874001C358.78799000000004,43.874001,357.948,43.874001,357.79400999999996,43.874001C357.38800000000003,43.874001,357.332,43.804001,357.332,43.412001000000004L357.332,38.987999L353.48199,38.987999L353.48199,37.686001000000005L352.418,37.686001000000005ZM352.88,32.408C353.118,32.814,353.356,33.318,353.53799000000004,33.752L348.078,33.752L348.078,36.117999999999995L349.12801,36.117999999999995L349.12801,34.69L358.84398999999996,34.69L358.84398999999996,36.048L359.93600000000004,36.048L359.93600000000004,33.752L354.812,33.752C354.616,33.29,354.28,32.632,353.972,32.141999L352.88,32.408ZM367.50999,36.482L367.50999,37.406L373.15201,37.406L373.15201,36.482L367.50999,36.482ZM366.43201,39.001999L366.43201,39.954L368.392,39.954C368.196,42.124001,367.63599999999997,43.510000000000005,365.214,44.266001C365.438,44.462,365.71799999999996,44.854,365.83000000000004,45.106001C368.49001,44.181999000000005,369.17599,42.516001,369.39999,39.954L370.884,39.954L370.884,43.635999999999996C370.884,44.658001,371.108,44.952,372.08799999999997,44.952C372.284,44.952,373.13800000000003,44.952,373.34801,44.952C374.202,44.952,374.45399,44.476,374.53799000000004,42.656C374.25800000000004,42.586,373.85201,42.431999000000005,373.642,42.25C373.61400000000003,43.804001,373.54400999999996,44.028,373.23599,44.028C373.054,44.028,372.382,44.028,372.24199999999996,44.028C371.93401,44.028,371.87801,43.972,371.87801,43.622L371.87801,39.954L374.37,39.954L374.37,39.001999L366.43201,39.001999ZM369.20399,32.436C369.48399,32.897999999999996,369.778,33.5,369.96001,33.976L366.37601,33.976L366.37601,36.454L367.37,36.454L367.37,34.9L373.278,34.9L373.278,36.454L374.286,36.454L374.286,33.976L370.8,33.976L371.06599,33.877999C370.89799,33.401999,370.506,32.674,370.15601000000004,32.127999L369.20399,32.436ZM362.106,32.814L362.106,45.091999L363.058,45.091999L363.058,33.766L364.90601000000004,33.766C364.61199999999997,34.704,364.192,35.936,363.786,36.93C364.79400999999996,38.049999,365.06,39.015999,365.06,39.785999000000004C365.06,40.219999,364.976,40.611999999999995,364.752,40.765999C364.64,40.836,364.48599,40.878,364.31799,40.891999999999996C364.09398999999996,40.906,363.828,40.891999999999996,363.506,40.878C363.65999999999997,41.143999,363.75800000000004,41.549999,363.772,41.802C364.08000000000004,41.816,364.42999,41.816,364.71001,41.774C365.004,41.745999999999995,365.24199999999996,41.662001000000004,365.438,41.521999C365.83000000000004,41.228001,365.998,40.639999,365.998,39.883999C365.998,39.001999,365.75999,37.993999,364.73801000000003,36.818000999999995C365.214,35.698,365.73199,34.325998999999996,366.13800000000003,33.177999L365.452,32.771999L365.298,32.814L362.106,32.814ZM378.82201,44.784L379.774,43.972C378.90601000000004,42.950001,377.64599999999996,41.676001,376.63800000000003,40.864000000000004L375.728,41.662001000000004C376.722,42.473999,377.92599,43.677999,378.82201,44.784ZM393.438,37.559999000000005C393.78799000000004,38.077999,394.15199,38.778,394.278,39.254000000000005L395.15999999999997,38.945999C395.006,38.483999,394.642,37.784,394.26401,37.293999L393.438,37.559999000000005ZM395.41200000000003,32.24L395.41200000000003,33.639999L389.84000000000003,33.639999L389.84000000000003,34.634L395.41200000000003,34.634L395.41200000000003,36.117999999999995L390.59599000000003,36.117999999999995L390.59599000000003,45.106001L391.65999999999997,45.106001L391.65999999999997,37.084L400.368,37.084L400.368,43.888000000000005C400.368,44.111999999999995,400.298,44.181999000000005,400.04601,44.195999C399.808,44.209998999999996,398.94,44.224001,398.058,44.181999000000005C398.21200999999996,44.448,398.366,44.84,398.422,45.120001C399.57001,45.120001,400.368,45.120001,400.83000000000004,44.952C401.29201,44.798,401.43201,44.518,401.43201,43.888000000000005L401.43201,36.117999999999995L396.57401,36.117999999999995L396.57401,34.634L402.174,34.634L402.174,33.639999L396.57401,33.639999L396.57401,32.24L395.41200000000003,32.24ZM397.70801,37.265999C397.498,37.84,397.06399999999996,38.694,396.74199999999996,39.268L392.724,39.268L392.724,40.122L395.45399,40.122L395.45399,41.535999000000004L392.42999,41.535999000000004L392.42999,42.417998999999995L395.45399,42.417998999999995L395.45399,44.854L396.46200999999996,44.854L396.46200999999996,42.417998999999995L399.61199999999997,42.417998999999995L399.61199999999997,41.535999000000004L396.46200999999996,41.535999000000004L396.46200999999996,40.122L399.36,40.122L399.36,39.268L397.65201,39.268C397.974,38.763999999999996,398.31,38.147999,398.618,37.546L397.70801,37.265999ZM409.16,32.547999000000004C409.52399,33.205999,409.944,34.101999,410.112,34.662L403.952,34.662L403.952,35.684L407.77399,35.684C407.60599,38.903999,407.25601,42.530001,403.644,44.322001C403.924,44.518,404.25999,44.882000000000005,404.414,45.148001C407.07401,43.761999,408.12399,41.438,408.57199,38.945999L413.58401,38.945999C413.35999,42.110001,413.07999,43.468,412.67401,43.832001000000005C412.492,43.972,412.31,44,412.00201,44C411.62399,44,410.64401,43.986000000000004,409.63599,43.902C409.84601,44.181999000000005,409.98599,44.615999,410.01401,44.924C410.952,44.993999,411.87601,45.007999,412.366,44.966C412.91199,44.938,413.26199,44.84,413.58401,44.476C414.13,43.93,414.41,42.403999,414.69,38.427999C414.71799,38.274,414.73199,37.924,414.73199,37.924L408.73999,37.924C408.82401,37.181999000000005,408.88,36.425999000000004,408.922,35.684L416.104,35.684L416.104,34.662L410.19601,34.662L411.19,34.228C410.99399,33.667999,410.56,32.814,410.168,32.155999L409.16,32.547999000000004ZM421.67599,35.823999L427.5,35.823999L427.5,37.322001L421.67599,37.322001L421.67599,35.823999ZM418.28799,32.87L418.28799,33.766L421.858,33.766C420.75201,34.9,419.15601,35.851999,417.60199,36.468C417.81201,36.664,418.17599,37.056,418.31601,37.265999C419.086,36.916,419.884,36.468,420.64001,35.964L420.64001,38.175999000000004L428.578,38.175999000000004L428.578,34.969999L421.94199,34.969999C422.37601,34.592,422.78201,34.186,423.146,33.766L429.71201,33.766L429.71201,32.87L418.28799,32.87ZM422.06799,39.66L421.84399,39.674L418.246,39.674L418.246,40.625999L421.522,40.625999C420.76599,42.166,419.35199,43.243999,417.742,43.804001C417.93799,44,418.23199,44.448,418.34399,44.700001C420.34601,43.916,422.12399,42.375999,422.90799,39.925999000000004L422.26401,39.632000000000005L422.06799,39.66ZM423.57999,38.4L423.57999,43.93C423.57999,44.098,423.52399,44.153999,423.328,44.153999C423.146,44.167998999999995,422.474,44.167998999999995,421.802,44.139999C421.92801,44.42,422.082,44.812,422.12399,45.091999C423.06201,45.091999,423.69199,45.077999,424.09799,44.938C424.504,44.784,424.63,44.504000000000005,424.63,43.944L424.63,40.976C425.918,42.628,427.73801,43.93,429.71201,44.587998999999996C429.88,44.294001,430.18799,43.860001,430.44,43.635999999999996C429.05399,43.243999,427.73801,42.558001000000004,426.66,41.676001C427.54199,41.158001,428.54999,40.486000000000004,429.34799,39.855999L428.452,39.198C427.836,39.771999,426.85599,40.513999999999996,425.974,41.073999C425.44199,40.556,424.99399,39.982,424.63,39.394001L424.63,38.4L423.57999,38.4ZM442.95599,35.502C442.396,37.042,441.40201,39.086,440.63199,40.360001L441.5,40.808001000000004C442.284,39.506001,443.23599,37.573999,443.90799,35.95L442.95599,35.502ZM432.14801,35.754C432.89001,37.322001,433.716,39.464000999999996,434.06601,40.695999L435.116,40.304001C434.724,39.072001,433.85599,37.013999999999996,433.12799,35.46L432.14801,35.754ZM439.19,32.422L439.19,43.356001L436.83801,43.356001L436.83801,32.408L435.76001,32.408L435.76001,43.356001L431.84,43.356001L431.84,44.391999999999996L444.202,44.391999999999996L444.202,43.356001L440.254,43.356001L440.254,32.422L439.19,32.422ZM453.09201,32.17C452.686,33.36,451.92999,34.480000000000004,451.06201,35.208L451.44,35.446L451.44,36.411999L447.05801,36.411999L447.05801,37.293999L451.44,37.293999L451.44,38.554001L445.672,38.554001L445.672,39.478001L454.31,39.478001L454.31,40.709998999999996L446.12,40.709998999999996L446.12,41.633999L454.31,41.633999L454.31,43.860001C454.31,44.056,454.23999,44.111999999999995,453.98801,44.125999C453.73599,44.139999,452.91,44.139999,451.95801,44.111999999999995C452.112,44.391999999999996,452.29401,44.812,452.35001,45.106001C453.49799,45.106001,454.28201,45.091999,454.758,44.952C455.23401,44.784,455.37399,44.489999999999995,455.37399,43.874001L455.37399,41.633999L458.00601,41.633999L458.00601,40.709998999999996L455.37399,40.709998999999996L455.37399,39.478001L458.384,39.478001L458.384,38.554001L452.51801,38.554001L452.51801,37.293999L457.05399,37.293999L457.05399,36.411999L452.51801,36.411999L452.51801,35.446L452.29401,35.446C452.60199,35.11,452.896,34.731999,453.16199,34.311999L454.11401,34.311999C454.534,34.858000000000004,454.94,35.516,455.108,35.978L456.01801,35.585999C455.86401,35.222,455.57001,34.759999,455.24799,34.311999L458.23001,34.311999L458.23001,33.415999L453.66602,33.415999C453.83401,33.094,453.974,32.757999,454.10001,32.408L453.09201,32.17ZM448.12201,42.236000000000004C449.03201,42.837998999999996,450.04001,43.733999,450.50201,44.391999999999996L451.314,43.733999C450.83801,43.076,449.802,42.208,448.892,41.633999L448.12201,42.236000000000004ZM447.604,32.17C447.12799,33.415999,446.34399,34.634,445.46201,35.46C445.71399,35.585999,446.14801,35.88,446.34399,36.048C446.806,35.585999,447.254,34.983999,447.67401,34.311999L448.23401,34.311999C448.5,34.858000000000004,448.75201,35.488,448.836,35.908L449.77399,35.558C449.69,35.236000000000004,449.49399,34.759999,449.284,34.311999L451.832,34.311999L451.832,33.415999L448.164,33.415999C448.31799,33.094,448.47198,32.771999,448.59799,32.436L447.604,32.17ZM462.5,37.195999C463.06,37.195999,463.564,36.790001000000004,463.564,36.16C463.564,35.516,463.06,35.096000000000004,462.5,35.096000000000004C461.94,35.096000000000004,461.436,35.516,461.436,36.16C461.436,36.790001000000004,461.94,37.195999,462.5,37.195999ZM461.366,46.254000000000005C462.86401,45.68,463.78799,44.504000000000005,463.78799,42.879999C463.78799,41.83,463.354,41.172001,462.58401,41.172001C462.02399,41.172001,461.51999,41.521999,461.51999,42.18C461.51999,42.851999,461.996,43.188,462.57001,43.188L462.82199,43.16C462.78,44.266001,462.17801,45.007999,461.04401,45.526001L461.366,46.254000000000005Z" fill="#2F2F2F" fill-opacity="1"/></g><g><rect x="34" y="0" width="105" height="53" rx="10" fill="#0056AD" fill-opacity="1"/></g><g><path d="M58.9799999,14.3800011C60.6299999,15.3100014,62.8799996,16.690001000000002,63.9299998,17.620001000000002L66.1199999,14.710001C64.98,13.8100014,62.6999998,12.5500011,61.1100001,11.7700005L58.9799999,14.3800011ZM57.83999997,22.42C59.46,23.290001,61.7399998,24.610001,62.8199997,25.48L64.9499998,22.57C63.7799997,21.759999999999998,61.4400001,20.530001,59.8499999,19.780001L57.83999997,22.42ZM58.35,37.540001000000004L61.5899997,39.369999C62.8499999,36.43,64.1399999,32.950001,65.1599998,29.709999L62.25,27.85C61.0799999,31.360001,59.49,35.17,58.35,37.540001000000004ZM68.219999,11.6200008L68.219999,16.990000000000002L65.1300001,16.990000000000002L65.1300001,20.380001L68.219999,20.380001L68.219999,25.75C66.7799997,26.17,65.46000000000001,26.530001,64.3799996,26.799999L65.6700001,30.370001L68.219999,29.530001L68.219999,35.17C68.219999,35.59,68.07,35.68,67.679999,35.68C67.28999999999999,35.709998999999996,66.0900002,35.709998999999996,64.8599997,35.65C65.3099995,36.67,65.76000020000001,38.290001,65.8499994,39.25C67.889999,39.25,69.3,39.099998,70.28999999999999,38.5C71.219999,37.9,71.52,36.91,71.52,35.17L71.52,28.389999L74.609999,27.280001L74.07,24.040001L71.52,24.790001L71.52,20.380001L74.279999,20.380001L74.279999,16.990000000000002L71.52,16.990000000000002L71.52,11.6200008L68.219999,11.6200008ZM75.27,14.3199997L75.27,24.490002C75.27,28.51,75.059999,33.730000000000004,72.389999,37.299999C73.139999,37.66,74.52,38.799999,75.059999,39.400002C78.09,35.469999,78.57,29.02,78.57,24.490002L78.57,24.400002L80.58,24.400002L80.58,39.669998L83.91,39.669998L83.91,24.400002L86.099998,24.400002L86.099998,21.1L78.57,21.1L78.57,16.57C80.969999,16,83.49,15.2200012,85.559999,14.3199997L82.94999899999999,11.5300007C81.029999,12.5799999,78,13.630001100000001,75.27,14.3199997ZM89.82,14.5C91.529999,15.5200005,94.02000000000001,17.08,95.16,18.040001L97.349998,15.1900005C96.09,14.2900009,93.57,12.850000399999999,91.91999799999999,11.9500008L89.82,14.5ZM88.049999,22.810001C89.849998,23.709999,92.43,25.150002,93.66,26.049999L95.66999799999999,23.049999C94.349998,22.209999,91.68,20.92,90,20.140000999999998L88.049999,22.810001ZM89.099998,36.91L92.130001,39.34C93.93,36.4,95.849998,32.980000000000004,97.439999,29.83L94.799999,27.43C93,30.91,90.689999,34.66,89.099998,36.91ZM96.33000200000001,34.269999999999996L96.33000200000001,37.9L116.07,37.9L116.07,34.269999999999996L108.029999,34.269999999999996L108.029999,17.620001000000002L114.689999,17.620001000000002L114.689999,14.0200005L97.97999999999999,14.0200005L97.97999999999999,17.620001000000002L104.129997,17.620001000000002L104.129997,34.269999999999996L96.33000200000001,34.269999999999996Z" fill="#FFFFFF" fill-opacity="1"/></g></g></g></svg>