<svg xmlns="http://www.w3.org/2000/svg" xmlns:xlink="http://www.w3.org/1999/xlink" fill="none" version="1.1" width="680" height="89" viewBox="0 0 680 89"><defs><filter id="master_svg0_70_06983" filterUnits="objectBoundingBox" color-interpolation-filters="sRGB" x="-0.03076923076923077" y="-0.2909090909090909" width="1.0615384615384615" height="1.7272727272727273"><feFlood flood-opacity="0" result="BackgroundImageFix"/><feColorMatrix in="SourceAlpha" type="matrix" values="0 0 0 0 0 0 0 0 0 0 0 0 0 0 0 0 0 0 127 0"/><feOffset dy="4" dx="0"/><feGaussianBlur stdDeviation="5"/><feColorMatrix type="matrix" values="0 0 0 0 0 0 0 0 0 0 0 0 0 0 0 0 0 0 0.10000000149011612 0"/><feBlend mode="normal" in2="BackgroundImageFix" result="effect1_dropShadow"/><feBlend mode="normal" in="SourceGraphic" in2="effect1_dropShadow" result="shape"/></filter></defs><g><g><g filter="url(#master_svg0_70_06983)"><rect x="15" y="15" width="650" height="55" rx="10" fill="#FFFFFF" fill-opacity="1"/></g><g><path d="M152.0220001,37.686001000000005L152.0220001,39.925999000000004L152.96,39.925999000000004L152.96,38.441998999999996L163.054,38.441998999999996L163.054,39.841999L164.02,39.841999L164.02,37.686001000000005L152.0220001,37.686001000000005ZM154.8080001,35.362L161.262,35.362L161.262,36.341999L154.8080001,36.341999L154.8080001,35.362ZM153.7720001,34.704L153.7720001,37L162.368,37L162.368,34.704L153.7720001,34.704ZM162.326,40.08C161.444,40.528,160.1000004,41.073999,158.9660001,41.452C158.7000003,40.962,158.2940001,40.486000000000004,157.7480001,40.066L158.1400003,39.855999L162.228001,39.855999L162.228001,39.141999999999996L153.786,39.141999999999996L153.786,39.855999L156.7680001,39.855999C155.5500002,40.332001000000005,153.954,40.709998999999996,152.5960001,40.92C152.7360001,41.059999000000005,152.9460001,41.438,153.03,41.591999C154.276,41.326,155.7460003,40.934,156.9640002,40.43C157.132,40.542,157.2720003,40.681999000000005,157.4120002,40.808001000000004C156.2920003,41.605999,154.1780002,42.263999999999996,152.386,42.544001C152.554,42.698,152.7640001,42.964000999999996,152.8620001,43.146C154.5420001,42.823999,156.586,42.110001,157.8180003,41.242001C157.9440002,41.424,158.0700002,41.591999,158.1680002,41.774C156.8380003,42.936001000000005,154.3180001,43.846001,152.036,44.224001C152.204,44.391999999999996,152.4280001,44.714000999999996,152.554,44.924C154.654,44.489999999999995,156.9640002,43.594,158.434,42.417998999999995C158.6580005,43.174,158.5040002,43.832001000000005,158.1400003,44.07C157.9440002,44.224001,157.7060003,44.238001,157.4120002,44.238001C157.132,44.238001,156.7400002,44.224001,156.3060002,44.181999000000005C156.474,44.42,156.5580001,44.812,156.586,45.049999C156.9500003,45.063998999999995,157.3000002,45.077999,157.5800004,45.077999C158.0840001,45.077999,158.4200001,44.993999,158.8120003,44.700001C159.4280005,44.266001,159.6520004,43.257999,159.2880001,42.166L160.2119999,41.858000000000004C160.8699999,43.271999,162.032001,44.35,163.586,44.867999999999995C163.698,44.615999,163.964001,44.280001,164.174001,44.084C162.718,43.691998999999996,161.598001,42.782,160.9960003,41.563998999999995C161.696,41.298,162.382,41.004000000000005,162.97,40.709998999999996L162.326,40.08ZM157.23,32.394C157.3840003,32.632,157.5380001,32.94,157.678,33.219999L151.82600003,33.219999L151.82600003,34.059999L164.216001,34.059999L164.216001,33.219999L158.868,33.219999C158.7140002,32.884,158.4900002,32.464,158.2660003,32.141999L157.23,32.394ZM165.77,33.528C166.61,34.2,167.674,35.165999,168.177999,35.768L169.004,35.082C168.472,34.480000000000004,167.394001,33.556,166.54,32.926L165.77,33.528ZM168.667999,37.293999L165.686,37.293999L165.686,38.274L167.64600000000002,38.274L167.64600000000002,42.628C167.030001,42.851999,166.33,43.370001,165.644,44.028L166.372,45.035999000000004C167.044001,44.224001,167.716,43.495999999999995,168.205999,43.495999999999995C168.514,43.495999999999995,168.948,43.888000000000005,169.521999,44.209998999999996C170.473999,44.728001,171.677999,44.854,173.302,44.854C174.688,44.854,177.068001,44.784,178.16,44.714000999999996C178.188,44.391999999999996,178.355999,43.874001,178.482,43.566C177.082001,43.733999,174.912001,43.832001000000005,173.32999999999998,43.832001000000005C171.832001,43.832001000000005,170.614,43.747999,169.746,43.257999C169.256001,43.006001,168.948,42.768,168.667999,42.628L168.667999,37.293999ZM169.466,33.177999L169.466,34.144L171.916,34.144C171.804001,37.307998999999995,171.51,40.360001,169.256001,41.983999C169.507999,42.152,169.816,42.487999,169.970001,42.726C171.664,41.480000000000004,172.392,39.534,172.714001,37.322001L176.521999,37.322001C176.368,40.219999,176.200001,41.34,175.934,41.648001C175.808001,41.774,175.667999,41.802,175.444,41.802C175.178001,41.802,174.534,41.788,173.834,41.718C174.001999,41.997999,174.114,42.403999,174.128,42.698C174.841999,42.739999999999995,175.528,42.739999999999995,175.892,42.712C176.298,42.67,176.577999,42.572001,176.816,42.278C177.236,41.816,177.403999,40.472,177.586,36.818000999999995C177.6,36.677999,177.6,36.355999,177.6,36.355999L172.84,36.355999C172.91,35.641999999999996,172.952,34.9,172.98,34.144L178.243999,34.144L178.243999,33.177999L169.466,33.177999ZM185.439999,39.911999L185.439999,40.85L179.756001,40.85L179.756001,41.732L184.501999,41.732C183.158001,42.739999999999995,181.142,43.635999999999996,179.406,44.084C179.643999,44.308001000000004,179.938,44.700001,180.106001,44.966C181.898001,44.406,183.998001,43.341999,185.439999,42.110001L185.439999,45.106001L186.490002,45.106001L186.490002,42.068000999999995C187.917999,43.271999,190.046001,44.322001,191.880001,44.854C192.034,44.587998999999996,192.327999,44.209998999999996,192.55200200000002,43.986000000000004C190.80200200000002,43.566,188.813999,42.712,187.470001,41.732L192.25799899999998,41.732L192.25799899999998,40.85L186.490002,40.85L186.490002,39.911999L185.439999,39.911999ZM185.860001,36.271999L185.860001,37.195999L182.458,37.195999L182.458,36.271999L185.860001,36.271999ZM185.538002,32.464C185.762001,32.842,186,33.318,186.167999,33.724000000000004L183.004002,33.724000000000004C183.298,33.29,183.563999,32.842,183.80200200000002,32.422L182.709999,32.212C182.094,33.443999,180.959999,35.012,179.42000000000002,36.188C179.658001,36.327999,180.007999,36.635999999999996,180.190001,36.860001C180.624001,36.495999999999995,181.030001,36.117999999999995,181.408001,35.726L181.408001,40.205999L182.458,40.205999L182.458,39.757999L191.86600099999998,39.757999L191.86600099999998,38.917998999999995L186.868,38.917998999999995L186.868,37.952L190.886002,37.952L190.886002,37.195999L186.868,37.195999L186.868,36.271999L190.844002,36.271999L190.844002,35.516L186.868,35.516L186.868,34.592L191.417999,34.592L191.417999,33.724000000000004L187.274002,33.724000000000004C187.091999,33.275999999999996,186.784,32.66,186.476002,32.198L185.538002,32.464ZM185.860001,35.516L182.458,35.516L182.458,34.592L185.860001,34.592L185.860001,35.516ZM185.860001,37.952L185.860001,38.917998999999995L182.458,38.917998999999995L182.458,37.952L185.860001,37.952ZM194.175999,32.856L194.175999,45.120001L195.254002,45.120001L195.254002,44.532L204.704002,44.532L204.704002,45.120001L205.824001,45.120001L205.824001,32.856L194.175999,32.856ZM195.254002,43.58L195.254002,33.822L204.704002,33.822L204.704002,43.58L195.254002,43.58ZM200.700001,34.41L200.700001,36.202L196.178001,36.202L196.178001,37.139999L200.363998,37.139999C199.23,38.68,197.521999,40.066,195.967999,40.92C196.20600100000001,41.115999,196.5,41.438,196.639999,41.633999C198.040001,40.85,199.524002,39.674,200.700001,38.344L200.700001,41.605999C200.700001,41.774,200.658001,41.816,200.46200199999998,41.816C200.279999,41.83,199.692001,41.83,199.048,41.816C199.188,42.082001000000005,199.341999,42.487999,199.397999,42.768C200.307999,42.768,200.868,42.754000000000005,201.232002,42.586C201.610001,42.431999000000005,201.722,42.152,201.722,41.605999L201.722,37.139999L203.891998,37.139999L203.891998,36.202L201.722,36.202L201.722,34.41L200.700001,34.41ZM210.821999,44.784L211.774002,43.972C210.905998,42.950001,209.64600000000002,41.676001,208.638,40.864000000000004L207.728001,41.662001000000004C208.722,42.473999,209.925999,43.677999,210.821999,44.784ZM225.438004,37.559999000000005C225.788002,38.077999,226.152,38.778,226.27800000000002,39.254000000000005L227.16000400000001,38.945999C227.00599699999998,38.483999,226.641998,37.784,226.264,37.293999L225.438004,37.559999000000005ZM227.412003,32.24L227.412003,33.639999L221.83999599999999,33.639999L221.83999599999999,34.634L227.412003,34.634L227.412003,36.117999999999995L222.596001,36.117999999999995L222.596001,45.106001L223.66000400000001,45.106001L223.66000400000001,37.084L232.367996,37.084L232.367996,43.888000000000005C232.367996,44.111999999999995,232.298004,44.181999000000005,232.045998,44.195999C231.807999,44.209998999999996,230.940002,44.224001,230.057999,44.181999000000005C230.211998,44.448,230.365997,44.84,230.421997,45.120001C231.57,45.120001,232.367996,45.120001,232.83000199999998,44.952C233.292,44.798,233.43199900000002,44.518,233.43199900000002,43.888000000000005L233.43199900000002,36.117999999999995L228.57399700000002,36.117999999999995L228.57399700000002,34.634L234.174004,34.634L234.174004,33.639999L228.57399700000002,33.639999L228.57399700000002,32.24L227.412003,32.24ZM229.708,37.265999C229.498001,37.84,229.064003,38.694,228.741997,39.268L224.723999,39.268L224.723999,40.122L227.454002,40.122L227.454002,41.535999000000004L224.43,41.535999000000004L224.43,42.417998999999995L227.454002,42.417998999999995L227.454002,44.854L228.461998,44.854L228.461998,42.417998999999995L231.612,42.417998999999995L231.612,41.535999000000004L228.461998,41.535999000000004L228.461998,40.122L231.360001,40.122L231.360001,39.268L229.652,39.268C229.973999,38.763999999999996,230.309998,38.147999,230.617996,37.546L229.708,37.265999ZM236.512001,35.151999L236.512001,44.028L246.424004,44.028L246.424004,45.063998999999995L247.501999,45.063998999999995L247.501999,35.138L246.424004,35.138L246.424004,42.964000999999996L242.531998,42.964000999999996L242.531998,32.394L241.440002,32.394L241.440002,42.964000999999996L237.58999599999999,42.964000999999996L237.58999599999999,35.151999L236.512001,35.151999ZM255.44,39.911999L255.44,40.85L249.75599699999998,40.85L249.75599699999998,41.732L254.502,41.732C253.15800000000002,42.739999999999995,251.142,43.635999999999996,249.405998,44.084C249.643997,44.308001000000004,249.938004,44.700001,250.106003,44.966C251.898,44.406,253.998,43.341999,255.44,42.110001L255.44,45.106001L256.49,45.106001L256.49,42.068000999999995C257.918,43.271999,260.046,44.322001,261.88,44.854C262.034,44.587998999999996,262.328,44.209998999999996,262.552,43.986000000000004C260.802,43.566,258.81399999999996,42.712,257.47,41.732L262.258,41.732L262.258,40.85L256.49,40.85L256.49,39.911999L255.44,39.911999ZM255.86,36.271999L255.86,37.195999L252.458,37.195999L252.458,36.271999L255.86,36.271999ZM255.538,32.464C255.762,32.842,256,33.318,256.168,33.724000000000004L253.00400000000002,33.724000000000004C253.298,33.29,253.564,32.842,253.80200000000002,32.422L252.70999999999998,32.212C252.094,33.443999,250.95999899999998,35.012,249.41999800000002,36.188C249.657997,36.327999,250.008003,36.635999999999996,250.190002,36.860001C250.62400100000002,36.495999999999995,251.03,36.117999999999995,251.40800000000002,35.726L251.40800000000002,40.205999L252.458,40.205999L252.458,39.757999L261.866,39.757999L261.866,38.917998999999995L256.868,38.917998999999995L256.868,37.952L260.88599999999997,37.952L260.88599999999997,37.195999L256.868,37.195999L256.868,36.271999L260.844,36.271999L260.844,35.516L256.868,35.516L256.868,34.592L261.418,34.592L261.418,33.724000000000004L257.274,33.724000000000004C257.092,33.275999999999996,256.784,32.66,256.476,32.198L255.538,32.464ZM255.86,35.516L252.458,35.516L252.458,34.592L255.86,34.592L255.86,35.516ZM255.86,37.952L255.86,38.917998999999995L252.458,38.917998999999995L252.458,37.952L255.86,37.952ZM264.176,32.856L264.176,45.120001L265.254,45.120001L265.254,44.532L274.704,44.532L274.704,45.120001L275.824,45.120001L275.824,32.856L264.176,32.856ZM265.254,43.58L265.254,33.822L274.704,33.822L274.704,43.58L265.254,43.58ZM270.7,34.41L270.7,36.202L266.178,36.202L266.178,37.139999L270.36400000000003,37.139999C269.23,38.68,267.522,40.066,265.968,40.92C266.206,41.115999,266.5,41.438,266.64,41.633999C268.04,40.85,269.524,39.674,270.7,38.344L270.7,41.605999C270.7,41.774,270.658,41.816,270.462,41.816C270.28,41.83,269.692,41.83,269.048,41.816C269.188,42.082001000000005,269.342,42.487999,269.398,42.768C270.308,42.768,270.868,42.754000000000005,271.23199999999997,42.586C271.61,42.431999000000005,271.722,42.152,271.722,41.605999L271.722,37.139999L273.892,37.139999L273.892,36.202L271.722,36.202L271.722,34.41L270.7,34.41ZM280.82201,44.784L281.774,43.972C280.90601000000004,42.950001,279.64599999999996,41.676001,278.63800000000003,40.864000000000004L277.728,41.662001000000004C278.722,42.473999,279.92599,43.677999,280.82201,44.784ZM301.26198999999997,33.009999C301.668,33.639999,302.116,34.507999,302.312,35.054L303.15201,34.69C302.942,34.144,302.494,33.318,302.07401,32.702L301.26198999999997,33.009999ZM294.06599,43.062L294.28999,44.028C295.438,43.733999,296.908,43.341999,298.32201,42.964000999999996L298.252,42.082001000000005C296.68401,42.473999,295.116,42.837998999999996,294.06599,43.062ZM291.868,32.995999C292.48399,33.598,293.226,34.452,293.562,34.983999L294.34599000000003,34.354C293.996,33.822,293.226,33.023999,292.61,32.45L291.868,32.995999ZM291.476,36.818000999999995C292.14799,37.378,292.946,38.161999,293.31,38.694L294.08000000000004,38.035999000000004C293.688,37.518,292.87601,36.761999,292.21799999999996,36.243999L291.476,36.818000999999995ZM291.7,44.294001L292.61,44.812C293.16999999999996,43.524,293.8,41.802,294.276,40.332001000000005L293.464,39.827999C292.946,41.396,292.21799999999996,43.202,291.7,44.294001ZM299.76401,38.792L301.64,38.792L301.64,40.653999L299.76401,40.653999L299.76401,38.792ZM299.76401,37.867999999999995L299.76401,36.019999999999996L301.64,36.019999999999996L301.64,37.867999999999995L299.76401,37.867999999999995ZM299.76401,41.563998999999995L301.64,41.563998999999995L301.64,43.468L299.76401,43.468L299.76401,41.563998999999995ZM299.86199999999997,32.337998999999996C299.442,33.976,298.57401,36.048,297.552,37.378C297.70599000000004,37.601999,297.92999,38.007999,298.028,38.245999999999995C298.32201,37.882000000000005,298.58799999999997,37.462,298.85400000000004,37.028L298.85400000000004,45.120001L299.76401,45.120001L299.76401,44.391999999999996L304.45399,44.391999999999996L304.45399,43.468L302.522,43.468L302.522,41.563998999999995L304.10400000000004,41.563998999999995L304.10400000000004,40.653999L302.522,40.653999L302.522,38.792L304.076,38.792L304.076,37.867999999999995L302.522,37.867999999999995L302.522,36.019999999999996L304.37,36.019999999999996L304.37,35.096000000000004L299.84801,35.096000000000004C300.226,34.256,300.548,33.401999,300.8,32.589999L299.86199999999997,32.337998999999996ZM294.55600000000004,37.518C294.73801000000003,37.42,295.04601,37.35,296.418,37.167998999999995C295.89999,38.190000999999995,295.382,39.029999000000004,295.172,39.337998999999996C294.836,39.855999,294.57001,40.205999,294.304,40.261999C294.416,40.5,294.57001,40.948,294.61199999999997,41.143999C294.86400000000003,40.989999999999995,295.284,40.891999999999996,298.07001,40.388000000000005C298.04201,40.177999,298.028,39.785999000000004,298.04201,39.534L295.78799000000004,39.883999C296.68401,38.610001,297.552,37,298.252,35.417999L297.356,35.082C297.202,35.488,297.034,35.894,296.85201,36.299999L295.48,36.425999000000004C296.11,35.334,296.726,33.92,297.15999999999997,32.575998999999996L296.222,32.323999C295.87199,33.822,295.116,35.46,294.87801,35.866C294.668,36.299999,294.472,36.594,294.26198999999997,36.65C294.37399,36.874001,294.51401,37.322001,294.55600000000004,37.518ZM305.882,39.716L305.882,40.709998999999996L310.60001,40.709998999999996C309.312,42.011999,307.26801,43.257999,305.46200999999996,43.860001C305.68600000000004,44.07,306.00800000000004,44.476,306.17599,44.728001C307.98199,44.028,310.01198999999997,42.698,311.384,41.214000999999996L311.384,45.106001L312.476,45.106001L312.476,41.073999C313.82001,42.6,315.87801,43.944,317.81,44.615999C317.964,44.336,318.286,43.944,318.524,43.733999C316.64799,43.188,314.632,42.025999,313.38599999999997,40.709998999999996L318.09000000000003,40.709998999999996L318.09000000000003,39.716L312.476,39.716L312.476,38.260000000000005L311.384,38.260000000000005L311.384,39.716L305.882,39.716ZM306.526,33.429999L306.526,37.518L305.56,37.643999L305.672,38.652C307.33799999999997,38.4,309.75999,38.049999,312.04201,37.700001L312.01401,36.747999L309.84398999999996,37.07L309.84398999999996,35.012L311.88800000000003,35.012L311.88800000000003,34.087998999999996L309.84398999999996,34.087998999999996L309.84398999999996,32.24L308.808,32.24L308.808,37.209998999999996L307.52,37.391999999999996L307.52,33.429999L306.526,33.429999ZM317.09601,33.247999C316.284,33.696,314.98199,34.172,313.70801,34.549999L313.70801,32.24L312.658,32.24L312.658,36.775999C312.658,37.938,313.00800000000004,38.245999999999995,314.366,38.245999999999995C314.65999999999997,38.245999999999995,316.50800000000004,38.245999999999995,316.802,38.245999999999995C317.93600000000004,38.245999999999995,318.244,37.798,318.37,36.117999999999995C318.076,36.048,317.642,35.894,317.418,35.726C317.36199999999997,37.056,317.26401,37.293999,316.73199,37.293999C316.326,37.293999,314.772,37.293999,314.478,37.293999C313.82001,37.293999,313.70801,37.209998999999996,313.70801,36.775999L313.70801,35.446C315.14999,35.082,316.746,34.606,317.894,34.046L317.09601,33.247999ZM320.246,33.388L320.246,34.325998999999996L325.664,34.325998999999996L325.664,33.388L320.246,33.388ZM328.142,32.478C328.142,33.472,328.142,34.480000000000004,328.10001,35.474000000000004L326.09801,35.474000000000004L326.09801,36.482L328.058,36.482C327.89,39.674,327.33000000000004,42.6,325.41200000000003,44.35C325.692,44.504000000000005,326.05600000000004,44.854,326.23801000000003,45.106001C328.29601,43.146,328.89799,39.954,329.09398999999996,36.482L331.17999,36.482C331.026,41.452,330.84398999999996,43.313998999999995,330.466,43.733999C330.326,43.902,330.172,43.944,329.91999999999996,43.944C329.62601,43.944,328.884,43.944,328.10001,43.860001C328.28200000000004,44.167998999999995,328.394,44.601999,328.422,44.896C329.164,44.952,329.93401,44.952,330.368,44.91C330.81599,44.867999999999995,331.09601,44.742001,331.37601,44.378C331.866,43.761999,332.034,41.774,332.23,36.006001C332.23,35.851999,332.23,35.474000000000004,332.23,35.474000000000004L329.13599999999997,35.474000000000004C329.164,34.480000000000004,329.17799,33.472,329.17799,32.478L328.142,32.478ZM320.246,43.384001L320.25999,43.370001L320.25999,43.398001C320.582,43.202,321.086,43.048,324.978,42.166L325.244,43.104L326.168,42.796C325.90201,41.816,325.272,40.15,324.74001,38.889999L323.87199,39.128C324.15199,39.785999000000004,324.43201,40.556,324.68401,41.284L321.35201,41.983999C321.89799,40.723999,322.42999,39.156,322.78,37.686001000000005L325.916,37.686001000000005L325.916,36.719999L319.756,36.719999L319.756,37.686001000000005L321.702,37.686001000000005C321.33799999999997,39.323999,320.75,40.976,320.554,41.438C320.31599,41.969999,320.134,42.348,319.90999999999997,42.417998999999995C320.036,42.67,320.19,43.174,320.246,43.384001ZM338.74001,32.268L338.74001,34.69L338.74001,35.292L334.16200000000003,35.292L334.16200000000003,36.369999L338.68401,36.369999C338.474,39.001999,337.55,42.082001000000005,333.74199999999996,44.35C334.00800000000004,44.532,334.38599999999997,44.924,334.554,45.176001C338.62801,42.698,339.58000000000004,39.282,339.776,36.369999L344.578,36.369999C344.298,41.312,343.99001,43.299999,343.48599,43.775999C343.31799,43.958,343.13599999999997,44,342.842,44C342.49199999999996,44,341.59601,43.986000000000004,340.63,43.902C340.84000000000003,44.209998999999996,340.966,44.672001,340.994,44.980000000000004C341.86199999999997,45.021999,342.75800000000004,45.049999,343.23399,45.007999C343.78,44.952,344.10201,44.854,344.438,44.434C345.06799,43.747999,345.34801,41.648001,345.66999999999996,35.851999C345.68401,35.698,345.698,35.292,345.698,35.292L339.832,35.292L339.832,34.69L339.832,32.268L338.74001,32.268ZM348.498,32.757999L348.498,37.784C348.498,39.855999,348.42799,42.656,347.49001,44.643999C347.728,44.728001,348.14799,44.966,348.34398999999996,45.120001C348.96001,43.790001000000004,349.24001,42.040001000000004,349.366,40.374001L351.466,40.374001L351.466,43.775999C351.466,43.958,351.39599999999996,44.013999999999996,351.228,44.028C351.06,44.028,350.51401,44.042,349.89799,44.013999999999996C350.03799000000004,44.294001,350.14999,44.742001,350.192,45.007999C351.08799999999997,45.007999,351.62,44.980000000000004,351.95599000000004,44.812C352.30600000000004,44.643999,352.418,44.322001,352.418,43.790001000000004L352.418,32.757999L348.498,32.757999ZM349.45,33.71L351.466,33.71L351.466,36.034L349.45,36.034L349.45,33.71ZM349.45,37L351.466,37L351.466,39.394001L349.422,39.394001C349.43600000000004,38.82,349.45,38.274,349.45,37.784L349.45,37ZM354.252,32.771999L354.252,34.311999C354.252,35.306,354.028,36.468,352.53,37.336C352.71200999999996,37.489999999999995,353.076,37.896,353.202,38.105999C354.85400000000004,37.111999999999995,355.21799999999996,35.599999,355.21799999999996,34.34L355.21799999999996,33.752L357.61199999999997,33.752L357.61199999999997,36.006001C357.61199999999997,37.07,357.79400999999996,37.462,358.70399,37.462C358.87199,37.462,359.446,37.462,359.62801,37.462C359.88,37.462,360.14599999999996,37.448,360.3,37.391999999999996C360.272,37.153999,360.244,36.747999,360.216,36.482C360.048,36.524,359.79601,36.552,359.62801,36.552C359.474,36.552,358.92799,36.552,358.774,36.552C358.592,36.552,358.578,36.425999000000004,358.578,36.019999999999996L358.578,32.771999L354.252,32.771999ZM358.382,39.408001C357.91999999999996,40.486000000000004,357.23399,41.396,356.408,42.124001C355.56799,41.367999999999995,354.90999999999997,40.444,354.448,39.408001L358.382,39.408001ZM352.95,38.427999L352.95,39.408001L353.76198999999997,39.408001L353.524,39.492001C354.04201,40.751999,354.74199999999996,41.844,355.63800000000003,42.739999999999995C354.672,43.412001000000004,353.56599,43.902,352.43201,44.181999000000005C352.61400000000003,44.42,352.83799999999997,44.826,352.93600000000004,45.106001C354.168,44.728001,355.34398999999996,44.181999000000005,356.38,43.412001000000004C357.37399,44.195999,358.55,44.784,359.88,45.148001C360.02,44.867999999999995,360.3,44.448,360.50999,44.224001C359.25,43.93,358.116,43.426001,357.17799,42.754000000000005C358.284,41.718,359.166,40.374001,359.66999999999996,38.652L359.054,38.385999999999996L358.87199,38.427999L352.95,38.427999ZM371.55600000000004,32.519999999999996L370.60400000000004,32.702C371.23399,35.432,372.158,37.125999,373.88,38.596001C374.034,38.274,374.342,37.924,374.608,37.714000999999996C373.026,36.454,372.144,34.998,371.55600000000004,32.519999999999996ZM364.62601,32.296C363.92599,34.41,362.73599,36.510000000000005,361.46200999999996,37.882000000000005C361.658,38.119999,361.966,38.666,362.078,38.917998999999995C362.48399,38.455999,362.87601,37.938,363.254,37.364000000000004L363.254,45.120001L364.304,45.120001L364.304,35.599999C364.808,34.634,365.256,33.612,365.62,32.589999L364.62601,32.296ZM368.04201,32.604C367.48199,34.774,366.418,36.635999999999996,364.948,37.798C365.158,38.007999,365.494,38.483999,365.62,38.722C365.942,38.455999,366.25,38.147999,366.53,37.812L366.53,38.708L368.32201,38.708C368.028,41.438,367.188,43.299999,365.228,44.364000000000004C365.452,44.546,365.81599,44.938,365.95599000000004,45.134001C368.04201,43.860001,369.00800000000004,41.816,369.358,38.708L371.86400000000003,38.708C371.696,42.236000000000004,371.48599,43.58,371.192,43.902C371.052,44.07,370.94,44.098,370.702,44.098C370.464,44.098,369.86199999999997,44.084,369.23199,44.028C369.38599999999997,44.294001,369.51198999999997,44.700001,369.526,45.007999C370.16999999999996,45.035999000000004,370.8,45.035999000000004,371.164,45.007999C371.55600000000004,44.966,371.836,44.867999999999995,372.08799999999997,44.546C372.522,44.042,372.71799999999996,42.516001,372.914,38.204C372.92799,38.063998999999995,372.92799,37.728001,372.92799,37.728001L366.60001,37.728001C367.70599000000004,36.425999000000004,368.54601,34.731999,369.078,32.828L368.04201,32.604ZM378.82201,44.784L379.774,43.972C378.90601000000004,42.950001,377.64599999999996,41.676001,376.63800000000003,40.864000000000004L375.728,41.662001000000004C376.722,42.473999,377.92599,43.677999,378.82201,44.784ZM394.474,32.24C394.30600000000004,32.842,394.11,33.457999,393.858,34.059999L389.882,34.059999L389.882,35.04L393.424,35.04C392.528,36.888000000000005,391.24001,38.596001,389.56,39.743999C389.756,39.940000999999995,390.092,40.318000999999995,390.23199,40.556C391.11400000000003,39.925999000000004,391.89799,39.17,392.57001,38.316L392.57001,45.106001L393.606,45.106001L393.606,42.334L399.472,42.334L399.472,43.790001000000004C399.472,44,399.40201,44.084,399.164,44.084C398.89799,44.098,398.04400999999996,44.111999999999995,397.12,44.07C397.25999,44.364000000000004,397.414,44.798,397.47,45.077999C398.674,45.077999,399.44399999999996,45.077999,399.90601000000004,44.924C400.368,44.742001,400.50800000000004,44.42,400.50800000000004,43.804001L400.50800000000004,36.664L393.70399,36.664C394.026,36.132000000000005,394.30600000000004,35.599999,394.558,35.04L402.14599999999996,35.04L402.14599999999996,34.059999L394.978,34.059999C395.188,33.542,395.37,33.009999,395.53799000000004,32.492000000000004L394.474,32.24ZM393.606,39.954L399.472,39.954L399.472,41.424L393.606,41.424L393.606,39.954ZM393.606,39.057998999999995L393.606,37.615999L399.472,37.615999L399.472,39.057998999999995L393.606,39.057998999999995ZM413.85001,34.004L413.85001,38.035999000000004L411.56799,38.035999000000004L411.56799,34.004L413.85001,34.004ZM409.00601,38.035999000000004L409.00601,39.043999L410.56,39.043999C410.504,40.934,410.18201,43.076,408.754,44.573999C409.00601,44.714000999999996,409.384,44.993999,409.56601,45.176001C411.14801,43.538,411.49799,41.200001,411.55399,39.043999L413.85001,39.043999L413.85001,45.120001L414.858,45.120001L414.858,39.043999L416.44,39.043999L416.44,38.035999000000004L414.858,38.035999000000004L414.858,34.004L416.16,34.004L416.16,33.009999L409.39801,33.009999L409.39801,34.004L410.57401,34.004L410.57401,38.035999000000004L409.00601,38.035999000000004ZM403.714,33.009999L403.714,33.976L405.464,33.976C405.07201,36.104,404.42799,38.091999,403.448,39.408001C403.616,39.688,403.85400000000004,40.275999,403.924,40.542C404.19,40.191998999999996,404.442,39.799999,404.666,39.394001L404.666,44.476L405.562,44.476L405.562,43.356001L408.40399,43.356001L408.40399,37.293999L405.576,37.293999C405.94,36.257999,406.23399,35.124,406.45801,33.976L408.642,33.976L408.642,33.009999L403.714,33.009999ZM405.562,38.245999999999995L407.466,38.245999999999995L407.466,42.417998999999995L405.562,42.417998999999995L405.562,38.245999999999995ZM424.25201,39.309999000000005L424.18201,39.309999000000005C424.56,38.792,424.896,38.232,425.20401,37.643999L430.46799,37.643999L430.46799,36.733999L425.62399,36.733999C425.79199,36.341999,425.94601,35.922,426.086,35.502L425.27399,35.32C425.73599,35.124,426.198,34.914,426.646,34.676C427.79401,35.179999,428.84399,35.712,429.57199,36.174L430.18799,35.403999C429.53,35.012,428.634,34.564,427.64001,34.115999C428.38199,33.681999,429.06799,33.191998999999996,429.61401,32.66L428.71799,32.24C428.172,32.757999,427.444,33.247999,426.646,33.696C425.60999,33.262,424.51801,32.87,423.53799,32.575998999999996L422.89401,33.29C423.74799,33.542,424.672,33.863999,425.56799,34.228C424.54599,34.69,423.46799,35.068,422.418,35.348C422.62799,35.544,422.95001,35.95,423.104,36.16C423.74799,35.95,424.42001,35.698,425.078,35.403999C424.93799,35.866,424.75601,36.313998999999995,424.57401,36.733999L422.39001,36.733999L422.39001,37.643999L424.09799,37.643999C423.45401,38.792,422.62799,39.771999,421.67599,40.486000000000004C421.89999,40.653999,422.26401,41.018,422.418,41.228001C422.71201,40.976,423.00601,40.709998999999996,423.28601,40.402L423.28601,43.902L424.25201,43.902L424.25201,40.233999L426.00201,40.233999L426.00201,45.120001L426.95401,45.120001L426.95401,40.233999L428.858,40.233999L428.858,42.823999C428.858,42.964000999999996,428.81601,43.006001,428.67599,43.006001C428.53601,43.006001,428.116,43.006001,427.612,42.992001C427.73801,43.257999,427.86401,43.608000000000004,427.90601,43.888000000000005C428.62,43.888000000000005,429.10999,43.874001,429.418,43.719999C429.754,43.58,429.82401,43.313998999999995,429.82401,42.837998999999996L429.82401,39.309999000000005L426.95401,39.309999000000005L426.95401,38.049999L426.00201,38.049999L426.00201,39.309999000000005L424.25201,39.309999000000005ZM421.36801,32.365999C420.5,32.814,419.00201,33.205999,417.728,33.472C417.84,33.71,417.98001,34.046,418.022,34.269999999999996C418.48401,34.2,418.98801,34.101999,419.492,33.99L419.492,36.257999L417.63,36.257999L417.63,37.237999L419.26801,37.237999C418.84799,38.763999999999996,418.078,40.528,417.37799,41.493999C417.53201,41.732,417.76999,42.138000000000005,417.88199,42.403999C418.47,41.563998999999995,419.04401,40.205999,419.492,38.834L419.492,45.120001L420.41599,45.120001L420.41599,38.694C420.76599,39.226,421.15799,39.883999,421.32599,40.233999L421.87201,39.422001C421.69,39.141999999999996,420.724,37.980000000000004,420.41599,37.643999L420.41599,37.237999L421.94199,37.237999L421.94199,36.257999L420.41599,36.257999L420.41599,33.752C420.98999,33.598,421.53601,33.415999,421.98401,33.205999L421.36801,32.365999ZM437.41199,32.282L437.41199,36.747999L432.62399,36.747999L432.62399,37.769999999999996L437.41199,37.769999999999996L437.41199,43.468L431.728,43.468L431.728,44.489999999999995L444.28601,44.489999999999995L444.28601,43.468L438.53201,43.468L438.53201,37.769999999999996L443.39001,37.769999999999996L443.39001,36.747999L438.53201,36.747999L438.53201,32.282L437.41199,32.282ZM454.73001,38.68C454.73001,41.41,455.836,43.635999999999996,457.51599,45.344L458.35599,44.91C456.746,43.243999,455.75201,41.172001,455.75201,38.68C455.75201,36.188,456.746,34.115999,458.35599,32.45L457.51599,32.016C455.836,33.724000000000004,454.73001,35.95,454.73001,38.68ZM460.23199,35.837998999999996L460.23199,38.33L461.23999,38.33L461.23999,36.761999L470.78799,36.761999L470.78799,38.33L471.83801,38.33L471.83801,35.837998999999996L460.23199,35.837998999999996ZM467.73599,32.24L467.73599,33.304L464.20801,33.304L464.20801,32.24L463.172,32.24L463.172,33.304L459.84,33.304L459.84,34.242000000000004L463.172,34.242000000000004L463.172,35.46L464.20801,35.46L464.20801,34.242000000000004L467.73599,34.242000000000004L467.73599,35.46L468.78601,35.46L468.78601,34.242000000000004L472.17401,34.242000000000004L472.17401,33.304L468.78601,33.304L468.78601,32.24L467.73599,32.24ZM465.45401,37.125999L465.45401,38.889999L459.966,38.889999L459.966,39.855999L464.82401,39.855999C463.578,41.493999,461.478,42.978001,459.47601,43.691998999999996C459.71399,43.902,460.022,44.294001,460.17599,44.546C462.12201,43.761999,464.12399,42.263999999999996,465.45401,40.513999999999996L465.45401,45.120001L466.48999,45.120001L466.48999,40.444C467.83401,42.208,469.85001,43.761999,471.79599,44.573999C471.96399,44.280001,472.28601,43.888000000000005,472.52399,43.664C470.522,42.950001,468.40799,41.493999,467.16199,39.855999L472.048,39.855999L472.048,38.889999L466.48999,38.889999L466.48999,37.125999L465.45401,37.125999ZM480.616,32.254C480.616,33.052,480.64401,33.849999,480.686,34.62L474.79199,34.62L474.79199,38.554001C474.79199,40.374001,474.66599,42.796,473.504,44.518C473.75601,44.643999,474.20401,45.007999,474.38599,45.218C475.67401,43.370001,475.884,40.542,475.884,38.568000999999995L475.884,38.469999L478.44601,38.469999C478.39001,40.878,478.32001,41.774,478.138,41.983999C478.026,42.110001,477.89999,42.138000000000005,477.69,42.138000000000005C477.452,42.138000000000005,476.85001,42.138000000000005,476.20599,42.068000999999995C476.37399,42.334,476.48599,42.754000000000005,476.5,43.048C477.186,43.09,477.82999,43.09,478.194,43.062C478.57199,43.019999999999996,478.81,42.922001,479.034,42.656C479.328,42.278,479.39801,41.087998999999996,479.46799,37.938C479.46799,37.798,479.48199,37.489999999999995,479.48199,37.489999999999995L475.884,37.489999999999995L475.884,35.641999999999996L480.75601,35.641999999999996C480.92401,37.91,481.26001,39.982,481.79199,41.591999C480.86801,42.656,479.79001,43.524,478.54401,44.181999000000005C478.76801,44.391999999999996,479.146,44.826,479.314,45.049999C480.392,44.406,481.358,43.635999999999996,482.21201,42.712C482.85599,44.153999,483.69601,45.021999,484.77399,45.021999C485.85199,45.021999,486.24399,44.322001,486.42599,41.927999C486.146,41.83,485.754,41.591999,485.51599,41.354C485.43201,43.216,485.26401,43.944,484.858,43.944C484.14401,43.944,483.51401,43.146,482.996,41.774C484.03201,40.43,484.858,38.834,485.45999,37L484.41,36.733999C483.96201,38.147999,483.35999,39.422001,482.604,40.542C482.23999,39.184,481.974,37.518,481.82001,35.641999999999996L486.314,35.641999999999996L486.314,34.62L481.76401,34.62C481.72198,33.849999,481.70801,33.066,481.70801,32.254L480.616,32.254ZM482.39401,32.94C483.29001,33.401999,484.36801,34.115999,484.89999,34.62L485.55801,33.891999C485.01199,33.415999,483.90601,32.730000000000004,483.02399,32.296L482.39401,32.94ZM491.26999,38.68C491.26999,35.95,490.164,33.724000000000004,488.48401,32.016L487.64401,32.45C489.254,34.115999,490.24799,36.188,490.24799,38.68C490.24799,41.172001,489.254,43.243999,487.64401,44.91L488.48401,45.344C490.164,43.635999999999996,491.26999,41.41,491.26999,38.68ZM504.82199,44.784L505.77399,43.972C504.90601,42.950001,503.646,41.676001,502.638,40.864000000000004L501.728,41.662001000000004C502.72198,42.473999,503.92599,43.677999,504.82199,44.784ZM516.51199,35.151999L516.51199,44.028L526.42401,44.028L526.42401,45.063998999999995L527.5020099999999,45.063998999999995L527.5020099999999,35.138L526.42401,35.138L526.42401,42.964000999999996L522.53201,42.964000999999996L522.53201,32.394L521.44,32.394L521.44,42.964000999999996L517.5899999999999,42.964000999999996L517.5899999999999,35.151999L516.51199,35.151999ZM537.9739999999999,32.702C538.366,33.332,538.7719999999999,34.186,538.96799,34.745999L536.168,34.745999C536.48999,34.046,536.784,33.304,537.0219999999999,32.575998999999996L536.02802,32.323999C535.39801,34.396,534.33401,36.425999000000004,533.10199,37.728001C533.298,37.882000000000005,533.60599,38.190000999999995,533.78799,38.385999999999996L532.3879999999999,38.82L532.3879999999999,36.006001L533.9559899999999,36.006001L533.9559899999999,35.025999999999996L532.3879999999999,35.025999999999996L532.3879999999999,32.254L531.366,32.254L531.366,35.025999999999996L529.56,35.025999999999996L529.56,36.006001L531.366,36.006001L531.366,39.128L529.448,39.702L529.71399,40.723999L531.366,40.191998999999996L531.366,43.832001000000005C531.366,44.028,531.28201,44.084,531.11401,44.084C530.94601,44.098,530.39999,44.098,529.798,44.07C529.93799,44.378,530.078,44.826,530.10599,45.091999C531.0020099999999,45.091999,531.548,45.063998999999995,531.89801,44.882000000000005C532.2479900000001,44.714000999999996,532.3879999999999,44.42,532.3879999999999,43.832001000000005L532.3879999999999,39.855999L533.98401,39.337998999999996L533.8439900000001,38.441998999999996L533.88599,38.483999C534.27802,38.021999,534.67001,37.489999999999995,535.034,36.902L535.034,45.120001L536.0419899999999,45.120001L536.0419899999999,44.153999L542.35599,44.153999L542.35599,43.174L539.40201,43.174L539.40201,41.269999999999996L541.85199,41.269999999999996L541.85199,40.332001000000005L539.40201,40.332001000000005L539.40201,38.483999L541.866,38.483999L541.866,37.546L539.40201,37.546L539.40201,35.712L542.07599,35.712L542.07599,34.745999L539.108,34.745999L539.92001,34.396C539.73801,33.835999,539.30399,32.995999,538.884,32.351999L537.9739999999999,32.702ZM536.0419899999999,38.483999L538.4079899999999,38.483999L538.4079899999999,40.332001000000005L536.0419899999999,40.332001000000005L536.0419899999999,38.483999ZM536.0419899999999,37.546L536.0419899999999,35.712L538.4079899999999,35.712L538.4079899999999,37.546L536.0419899999999,37.546ZM536.0419899999999,41.269999999999996L538.4079899999999,41.269999999999996L538.4079899999999,43.174L536.0419899999999,43.174L536.0419899999999,41.269999999999996ZM543.7280000000001,42.992001L543.7280000000001,44.042L556.3140000000001,44.042L556.3140000000001,42.992001L550.5459900000001,42.992001L550.5459900000001,34.9L555.60001,34.9L555.60001,33.822L544.4559899999999,33.822L544.4559899999999,34.9L549.384,34.9L549.384,42.992001L543.7280000000001,42.992001ZM564.448,33.738L568.67599,33.738L568.67599,36.313998999999995L564.448,36.313998999999995L564.448,33.738ZM563.46799,32.828L563.46799,37.223999L569.698,37.223999L569.698,32.828L563.46799,32.828ZM563.2719999999999,41.073999L563.2719999999999,41.983999L566.01599,41.983999L566.01599,43.818000999999995L562.33401,43.818000999999995L562.33401,44.742001L570.48199,44.742001L570.48199,43.818000999999995L567.052,43.818000999999995L567.052,41.983999L569.866,41.983999L569.866,41.073999L567.052,41.073999L567.052,39.379999L570.17401,39.379999L570.17401,38.455999L562.95001,38.455999L562.95001,39.379999L566.01599,39.379999L566.01599,41.073999L563.2719999999999,41.073999ZM562.05399,32.436C561.01801,32.912,559.17001,33.318,557.60199,33.584C557.7280000000001,33.808,557.86801,34.158,557.9100000000001,34.382C558.56799,34.297999000000004,559.26801,34.172,559.96799,34.032L559.96799,36.188L557.6859999999999,36.188L557.6859999999999,37.167998999999995L559.828,37.167998999999995C559.26801,38.778,558.302,40.598,557.392,41.591999C557.57401,41.844,557.82599,42.263999999999996,557.93799,42.558001000000004C558.65201,41.690000999999995,559.39401,40.304001,559.96799,38.889999L559.96799,45.091999L561.004,45.091999L561.004,39.057998999999995C561.48001,39.646,562.0400099999999,40.402,562.27802,40.794001L562.9079899999999,39.968C562.62799,39.646,561.4100000000001,38.385999999999996,561.004,38.035999000000004L561.004,37.167998999999995L562.754,37.167998999999995L562.754,36.188L561.004,36.188L561.004,33.794C561.6619900000001,33.639999,562.27802,33.457999,562.78201,33.247999L562.05399,32.436ZM577.97198,33.038L577.97198,37.532C577.97198,39.702,577.7760000000001,42.487999,575.88599,44.448C576.12399,44.573999,576.53,44.924,576.68399,45.120001C578.70001,43.048,578.9939899999999,39.869999,578.9939899999999,37.532L578.9939899999999,34.032L581.62601,34.032L581.62601,43.048C581.62601,44.252001,581.7099900000001,44.504000000000005,581.948,44.714000999999996C582.1579899999999,44.896,582.466,44.980000000000004,582.746,44.980000000000004C582.92801,44.980000000000004,583.25,44.980000000000004,583.4599900000001,44.980000000000004C583.754,44.980000000000004,584.0060100000001,44.924,584.202,44.784C584.4119900000001,44.643999,584.52399,44.406,584.5939900000001,44C584.64999,43.65,584.7059899999999,42.614000000000004,584.7059899999999,41.816C584.44,41.732,584.11801,41.563998999999995,583.9079899999999,41.367999999999995C583.89401,42.306,583.88,43.048,583.8380099999999,43.370001C583.82401,43.691998999999996,583.78201,43.818000999999995,583.698,43.902C583.642,43.972,583.53,44,583.418,44C583.27802,44,583.1099899999999,44,583.01199,44C582.89999,44,582.82999,43.972,582.76001,43.916C582.69,43.860001,582.6619900000001,43.594,582.6619900000001,43.132000000000005L582.6619900000001,33.038L577.97198,33.038ZM574.052,32.24L574.052,35.236000000000004L571.7280000000001,35.236000000000004L571.7280000000001,36.243999L573.9119900000001,36.243999C573.4079899999999,38.190000999999995,572.38599,40.374001,571.392,41.549999C571.56,41.802,571.82599,42.222,571.93799,42.502001C572.72198,41.535999000000004,573.4780000000001,39.954,574.052,38.316L574.052,45.106001L575.07401,45.106001L575.07401,38.68C575.62,39.379999,576.27802,40.247999,576.55801,40.723999L577.216,39.855999C576.89401,39.492001,575.5640000000001,37.993999,575.07401,37.504000000000005L575.07401,36.243999L577.146,36.243999L577.146,35.236000000000004L575.07401,35.236000000000004L575.07401,32.24L574.052,32.24ZM595.93399,32.954C596.42401,33.415999,596.97,34.087998999999996,597.194,34.535999000000004L597.922,34.073999C597.67001,33.639999,597.12399,33.009999,596.62,32.547999000000004L595.93399,32.954ZM597.33401,36.958C597.0400099999999,38.344,596.62,39.604,596.07401,40.709998999999996C595.836,39.365999,595.6400100000001,37.700001,595.52802,35.837998999999996L598.28601,35.837998999999996L598.28601,34.885999999999996L595.48599,34.885999999999996C595.4580100000001,34.032,595.444,33.15,595.444,32.24L594.45001,32.24C594.46399,33.135999999999996,594.492,34.018,594.51999,34.885999999999996L590.2080100000001,34.885999999999996L590.2080100000001,35.837998999999996L594.57599,35.837998999999996C594.716,38.204,594.96799,40.332001000000005,595.34601,41.955999C594.68799,42.936001000000005,593.8900100000001,43.761999,592.92401,44.406C593.134,44.546,593.51199,44.854,593.65201,45.007999C594.4079899999999,44.448,595.06601,43.790001000000004,595.6400100000001,43.034C596.06,44.308001000000004,596.5920100000001,45.063998999999995,597.23599,45.063998999999995C598.034,45.063998999999995,598.3420100000001,44.434,598.48199,42.530001C598.258,42.431999000000005,597.9359999999999,42.222,597.73999,41.997999C597.68399,43.440000999999995,597.55801,44.098,597.34799,44.098C597.01199,44.098,596.6619900000001,43.327999,596.3399999999999,42.011999C597.17999,40.639999,597.7959900000001,39.001999,598.216,37.098L597.33401,36.958ZM590.96399,36.552L590.96399,38.959998999999996L590.12399,38.959998999999996L590.12399,39.883999L590.95001,39.883999C590.88,41.34,590.60001,42.851999,589.508,44.07C589.71799,44.195999,590.0400099999999,44.434,590.194,44.615999C591.4119900000001,43.243999,591.72,41.549999,591.7900099999999,39.883999L592.82599,39.883999L592.82599,43.608000000000004L593.67999,43.608000000000004L593.67999,39.883999L594.46399,39.883999L594.46399,38.959998999999996L593.67999,38.959998999999996L593.67999,36.552L592.82599,36.552L592.82599,38.959998999999996L591.80399,38.959998999999996L591.80399,36.552L590.96399,36.552ZM587.492,32.24L587.492,35.208L585.86801,35.208L585.86801,36.188L587.492,36.188L587.492,36.216C587.10001,38.133999,586.28799,40.374001,585.46201,41.549999C585.64401,41.802,585.896,42.25,586.008,42.530001C586.55399,41.704,587.07199,40.402,587.492,39.015999L587.492,45.106001L588.47198,45.106001L588.47198,37.91C588.78,38.483999,589.13,39.141999999999996,589.284,39.506001L589.87201,38.722C589.67599,38.372,588.78,37.042,588.47198,36.622L588.47198,36.188L589.71799,36.188L589.71799,35.208L588.47198,35.208L588.47198,32.24L587.492,32.24ZM607.0920100000001,32.17C606.6859999999999,33.36,605.92999,34.480000000000004,605.06201,35.208L605.44,35.446L605.44,36.411999L601.05801,36.411999L601.05801,37.293999L605.44,37.293999L605.44,38.554001L599.672,38.554001L599.672,39.478001L608.31,39.478001L608.31,40.709998999999996L600.12,40.709998999999996L600.12,41.633999L608.31,41.633999L608.31,43.860001C608.31,44.056,608.23999,44.111999999999995,607.98801,44.125999C607.73599,44.139999,606.9100000000001,44.139999,605.9580100000001,44.111999999999995C606.1120000000001,44.391999999999996,606.2940100000001,44.812,606.35001,45.106001C607.4979900000001,45.106001,608.28201,45.091999,608.758,44.952C609.23401,44.784,609.37399,44.489999999999995,609.37399,43.874001L609.37399,41.633999L612.0060100000001,41.633999L612.0060100000001,40.709998999999996L609.37399,40.709998999999996L609.37399,39.478001L612.384,39.478001L612.384,38.554001L606.51801,38.554001L606.51801,37.293999L611.05399,37.293999L611.05399,36.411999L606.51801,36.411999L606.51801,35.446L606.2940100000001,35.446C606.60199,35.11,606.896,34.731999,607.1619900000001,34.311999L608.11401,34.311999C608.534,34.858000000000004,608.94,35.516,609.108,35.978L610.01801,35.585999C609.86401,35.222,609.57001,34.759999,609.2479900000001,34.311999L612.23001,34.311999L612.23001,33.415999L607.66602,33.415999C607.83401,33.094,607.9739999999999,32.757999,608.10001,32.408L607.0920100000001,32.17ZM602.12201,42.236000000000004C603.03201,42.837998999999996,604.0400099999999,43.733999,604.5020099999999,44.391999999999996L605.3140000000001,43.733999C604.8380099999999,43.076,603.802,42.208,602.892,41.633999L602.12201,42.236000000000004ZM601.604,32.17C601.12799,33.415999,600.3439900000001,34.634,599.46201,35.46C599.71399,35.585999,600.14801,35.88,600.3439900000001,36.048C600.806,35.585999,601.254,34.983999,601.67401,34.311999L602.23401,34.311999C602.5,34.858000000000004,602.7520099999999,35.488,602.836,35.908L603.77399,35.558C603.69,35.236000000000004,603.4939899999999,34.759999,603.284,34.311999L605.832,34.311999L605.832,33.415999L602.164,33.415999C602.31799,33.094,602.47198,32.771999,602.59799,32.436L601.604,32.17ZM616.5,37.195999C617.06,37.195999,617.5640000000001,36.790001000000004,617.5640000000001,36.16C617.5640000000001,35.516,617.06,35.096000000000004,616.5,35.096000000000004C615.94,35.096000000000004,615.4359999999999,35.516,615.4359999999999,36.16C615.4359999999999,36.790001000000004,615.94,37.195999,616.5,37.195999ZM615.366,46.254000000000005C616.86401,45.68,617.78799,44.504000000000005,617.78799,42.879999C617.78799,41.83,617.354,41.172001,616.58401,41.172001C616.02399,41.172001,615.51999,41.521999,615.51999,42.18C615.51999,42.851999,615.996,43.188,616.57001,43.188L616.82199,43.16C616.78,44.266001,616.17801,45.007999,615.0440100000001,45.526001L615.366,46.254000000000005Z" fill="#2F2F2F" fill-opacity="1"/></g><g><rect x="34" y="0" width="105" height="53" rx="10" fill="#0056AD" fill-opacity="1"/></g><g><path d="M59.79,18.009999999999998L59.79,37.510000000000005L80.58,37.510000000000005L80.58,39.639999L84.33,39.639999L84.33,17.890000999999998L80.58,17.890000999999998L80.58,33.790001000000004L73.859999,33.790001000000004L73.859999,11.7399998L70.08,11.7399998L70.08,33.790001000000004L63.5099998,33.790001000000004L63.5099998,18.009999999999998L59.79,18.009999999999998ZM93.95999900000001,29.200001C92.849998,31.93,90.869999,34.719999,88.74,36.459998999999996C89.610001,37,91.08000200000001,38.139999,91.77000000000001,38.77C93.93,36.730000000000004,96.18,33.43,97.55999800000001,30.190001L93.95999900000001,29.200001ZM106.91999799999999,30.639999C108.989998,32.980000000000004,111.47999999999999,36.219999,112.529999,38.290001L115.83000200000001,36.58C114.66,34.480000000000004,112.049999,31.389999,109.949997,29.17L106.91999799999999,30.639999ZM89.130001,15.3400002L89.130001,18.790001L95.30999800000001,18.790001C94.41,20.290001,93.599998,21.43,93.150002,21.97C92.189999,23.23,91.529999,23.950001,90.66,24.190001C91.139999,25.240002,91.77000000000001,27.1,91.97999999999999,27.85C92.25,27.549999,93.869999,27.369999,95.489998,27.369999L101.66999799999999,27.369999L101.66999799999999,35.290001000000004C101.66999799999999,35.709998999999996,101.52000000000001,35.83,101.009998,35.83C100.5,35.860001,98.880001,35.83,97.32,35.769999999999996C97.860001,36.790001000000004,98.45999900000001,38.41,98.639999,39.459999C100.83000200000001,39.459999,102.54000099999999,39.369999,103.739998,38.77C104.970001,38.169998,105.33000200000001,37.18,105.33000200000001,35.35L105.33000200000001,27.369999L113.549999,27.369999L113.58000200000001,23.889999L105.33000200000001,23.889999L105.33000200000001,20.050001L101.66999799999999,20.050001L101.66999799999999,23.889999L96.27000000000001,23.889999C97.439999,22.360001,98.639999,20.620001000000002,99.779999,18.790001L114.95999900000001,18.790001L114.95999900000001,15.3400002L101.759998,15.3400002C102.239998,14.4400005,102.720001,13.540000899999999,103.139999,12.6400013L99.150002,11.230001399999999C98.58000200000001,12.6400013,97.91999799999999,14.0200005,97.22999999999999,15.3400002L89.130001,15.3400002Z" fill="#FFFFFF" fill-opacity="1"/></g></g></g></svg>