<svg xmlns="http://www.w3.org/2000/svg" width="850" height="250" viewBox="0 0 750 150">
    <defs>
        <style type="text/css">
            @font-face {
            font-family: 'STHeiti-Light';
            src: local('STHeiti Light'), local('STHeiti-Light'), local('Heiti SC Light');
            }
            text {
            font-family: 'STHeiti-Light', sans-serif;
            }
        </style>
    </defs>

    <rect x="50" y="25" width="700" height="100" rx="50" ry="50" fill="#1D4FD7" />

    <circle cx="95" cy="75" r="50" fill="#FFFFFF" stroke="#1D4FD7" stroke-width="2"/>

    <g transform="translate(71, 51) scale(2.0)">
        <path d="M22 16.92v3a2 2 0 0 1-2.18 2 19.79 19.79 0 0 1-8.63-3.07 19.5 19.5 0 0 1-6-6 19.79 19.79 0 0 1-3.07-8.67A2 2 0 0 1 4.11 2h3a2 2 0 0 1 2 1.72 12.84 12.84 0 0 0 .7 2.81 2 2 0 0 1-.45 2.11L8.09 9.91a16 16 0 0 0 6 6l1.27-1.27a2 2 0 0 1 2.11-.45 12.84 12.84 0 0 0 2.81.7A2 2 0 0 1 22 16.92z"
              fill="#1D4FD7" stroke="none"/>
    </g>

    <text x="160" y="88" font-size="28" fill="#FFFFFF" text-rendering="geometricPrecision" font-weight="700">
        <tspan dy="0">招生电话：0931-2976017</tspan>
        <tspan dx="15" dy="0">联系人：刘鹏程</tspan>
    </text>

</svg>