<svg xmlns="http://www.w3.org/2000/svg" xmlns:xlink="http://www.w3.org/1999/xlink" fill="none" version="1.1" width="306" height="45" viewBox="0 0 306 45"><g><path d="M2.618,11.499998C4.6920004,12.689999,7.7860003,14.423998,9.2140007,15.511999L11.628,12.145998C10.064,11.159998,6.9360003,9.5619984,4.9300003,8.5759983L2.618,11.499998ZM0.95200002,20.543999C3.0260003,21.666,6.0860004,23.298,7.5480003,24.317999L9.9280005,20.917999C8.3640003,19.966,5.2360001,18.435999,3.2300003,17.483999L0.95200002,20.543999ZM1.6660001,37L5.1340003,39.481998C7.0380006,36.150002,9.0780001,32.206001,10.778001,28.568001L7.7520003,26.085999C5.8480005,30.063999,3.3660002,34.382,1.6660001,37ZM11.866,18.299999L11.866,40.026001L15.708001,40.026001L15.708001,33.464001L19.652,33.464001L19.652,39.855999L23.528002,39.855999L23.528002,33.464001L27.642002,33.464001L27.642002,35.945999C27.642002,36.285999,27.506002,36.422001,27.132002,36.422001C26.792002,36.422001,25.670002,36.422001,24.650002,36.388C25.160002,37.374001,25.670002,39.006001,25.772001,40.026001C27.744001,40.026001,29.172001,39.958,30.260002,39.346001C31.348001,38.734001,31.620001,37.714001,31.620001,35.98L31.620001,18.299999L26.826002,18.299999L27.370001,17.449999C26.758001,17.075998,26.010002,16.667999,25.160002,16.259998C27.438002,14.73,29.580002,12.791998,31.144001,10.887999L28.526001,9.0179977L27.744001,9.2219982L12.410001,9.2219982L12.410001,12.621998L24.174002,12.621998C23.290001,13.369999,22.304001,14.084,21.284,14.695999C19.822001,14.185999,18.360001,13.743999,17.034,13.403999L15.266001,16.089998C17.17,16.633999,19.380001,17.449999,21.318001,18.299999L11.866,18.299999ZM15.708001,27.548L19.652,27.548L19.652,29.962L15.708001,29.962L15.708001,27.548ZM15.708001,24.079998L15.708001,21.835999L19.652,21.835999L19.652,24.079998L15.708001,24.079998ZM27.642002,21.835999L27.642002,24.079998L23.528002,24.079998L23.528002,21.835999L27.642002,21.835999ZM27.642002,27.548L27.642002,29.962L23.528002,29.962L23.528002,27.548L27.642002,27.548ZM48.518002,9.6299992L48.518002,27.751999L52.360001,27.751999L52.360001,13.165998L61.064003,13.165998L61.064003,27.751999L65.076004,27.751999L65.076004,9.6299992L48.518002,9.6299992ZM34.782001,32.784L35.563999,36.66C39.099998,35.708,43.655998,34.484001,47.872002,33.293999L47.362,29.622L43.52,30.642L43.52,23.604L46.716,23.604L46.716,19.863998L43.52,19.863998L43.52,13.845999L47.396,13.845999L47.396,10.071999L35.428001,10.071999L35.428001,13.845999L39.576,13.845999L39.576,19.863998L35.938,19.863998L35.938,23.604L39.576,23.604L39.576,31.661999C37.774002,32.104,36.141998,32.512001,34.782001,32.784ZM54.807999,15.273998L54.807999,20.646C54.807999,25.916,53.856003,32.681999,45.152,37.237999C45.900002,37.816002,47.226002,39.346001,47.702,40.127998C51.952003,37.883999,54.57,34.891998,56.202003,31.695999L56.202003,35.639999C56.202003,38.563999,57.290001,39.380001,60.146004,39.380001L62.628002,39.380001C66.096001,39.380001,66.674004,37.816002,67.048004,32.478001C66.096001,32.239998,64.804001,31.695999,63.886002,30.982C63.75,35.436001,63.546001,36.422001,62.628002,36.422001L60.894001,36.422001C60.214001,36.422001,59.942001,36.150002,59.942001,35.231998L59.942001,27.65L57.732002,27.65C58.378002,25.236,58.582001,22.855999,58.582001,20.747999L58.582001,15.273998L54.807999,15.273998ZM70.889999,25.202L70.889999,38.189999L94.384003,38.189999L94.384003,40.026001L98.940002,40.026001L98.940002,25.202L94.384003,25.202L94.384003,34.110001L87.141998,34.110001L87.141998,23.4L97.580002,23.4L97.580002,10.989998L93.024002,10.989998L93.024002,19.455999L87.141998,19.455999L87.141998,8.1339989L82.620003,8.1339989L82.620003,19.455999L76.975998,19.455999L76.975998,11.023998L72.657997,11.023998L72.657997,23.4L82.620003,23.4L82.620003,34.110001L75.480003,34.110001L75.480003,25.202L70.889999,25.202ZM103.292,21.529999L103.292,25.983999L134.776,25.983999L134.776,21.529999L103.292,21.529999ZM141.508,8.0999985L141.508,14.593998L137.326,14.593998L137.326,18.367998L141.508,18.367998L141.508,24.351999L136.884,25.372L137.938,29.282L141.508,28.363998L141.508,35.470001C141.508,35.945999,141.304,36.116001,140.828,36.116001C140.42,36.116001,138.992,36.116001,137.632,36.082001C138.142,37.102001,138.65199,38.734001,138.754,39.788002C141.168,39.788002,142.8,39.686001,143.95599,39.040001C145.112,38.462002,145.48599,37.442001,145.48599,35.504002L145.48599,27.309999L149.226,26.289999L148.75,22.584L145.48599,23.4L145.48599,18.367998L148.85201,18.367998L148.85201,14.593998L145.48599,14.593998L145.48599,8.0999985L141.508,8.0999985ZM150.28,39.821999C150.92599,39.175999,152.082,38.462002,157.828,35.911999C157.556,34.993999,157.284,33.327999,157.216,32.172001L153.884,33.498001L153.884,22.584L157.556,22.584L157.556,18.809999L153.884,18.809999L153.884,8.7799988L149.804,8.7799988L149.804,33.396C149.804,34.858002,149.12399,35.810001,148.444,36.285999C149.09,37.034,149.974,38.802002,150.28,39.821999ZM165.716,15.137999C164.89999,16.395998,163.778,17.789999,162.62201,19.115999L162.62201,8.8139992L158.474,8.8139992L158.474,33.702C158.474,38.088001,159.392,39.448002,162.418,39.448002C162.96201,39.448002,164.526,39.448002,165.07001,39.448002C167.92599,39.448002,168.776,37.271999,169.116,31.798C167.994,31.559999,166.328,30.743999,165.37601,29.996C165.308,34.313999,165.20599,35.537998,164.662,35.537998C164.39,35.537998,163.438,35.537998,163.23401,35.537998C162.724,35.537998,162.62201,35.299999,162.62201,33.702L162.62201,24.216C164.59399,22.414,166.838,20.067999,168.70801,17.959999L165.716,15.137999ZM181.084,32.681999C181.696,34.824001,182.342,37.714001,182.58,39.414001L186.45599,38.563999C186.18401,36.897999,185.436,34.110001,184.722,32.001999L181.084,32.681999ZM187.85001,32.613998C188.836,34.790001,189.89,37.646,190.26401,39.380001L194.20801,38.326C193.76601,36.557999,192.61,33.804001,191.556,31.764L187.85001,32.613998ZM194.718,32.341999C196.384,34.722,198.28799,37.952,199.002,39.992001L202.84399,38.326C201.994,36.251999,199.98801,33.158001,198.28799,30.879999L194.718,32.341999ZM175.338,31.084C174.42,33.838001,172.78799,36.796001,171.12199,38.394001L174.998,40.060001C176.8,38.054001,178.39799,34.959999,179.282,32.07L175.338,31.084ZM172.38,12.995998L172.38,16.905998L181.89999,16.905998C179.31599,20.646,175.23599,24.181999,171.15601,26.085999C172.07401,26.936001,173.43401,28.534,174.114,29.553999C178.194,27.174,182.138,23.161999,184.858,18.674L184.858,29.826L189.142,29.826L189.142,18.741999C191.896,23.161999,195.772,27.071999,199.98801,29.282C200.634,28.16,201.96001,26.562,202.912,25.711998C198.662,23.978001,194.548,20.577999,191.964,16.905998L201.62,16.905998L201.62,12.995998L189.142,12.995998L189.142,8.0999985L184.858,8.0999985L184.858,12.995998L172.38,12.995998ZM206.89,25.202L206.89,38.189999L230.384,38.189999L230.384,40.026001L234.94,40.026001L234.94,25.202L230.384,25.202L230.384,34.110001L223.142,34.110001L223.142,23.4L233.58,23.4L233.58,10.989998L229.024,10.989998L229.024,19.455999L223.142,19.455999L223.142,8.1339989L218.62,8.1339989L218.62,19.455999L212.976,19.455999L212.976,11.023998L208.658,11.023998L208.658,23.4L218.62,23.4L218.62,34.110001L211.48,34.110001L211.48,25.202L206.89,25.202ZM263.228,22.821999C262.582,24.997999,261.698,26.936001,260.508,28.703999C259.216,26.969999,258.19601,24.997999,257.448,22.855999L255.476,23.365999C256.87,21.801998,258.26401,20.033998,259.35199,18.299999L255.748,16.633999C254.422,18.877998,252.17799,21.632,250.07001,23.298C250.92,23.91,252.21201,25.065998,252.892,25.848L254.218,24.624001C255.23801,27.309999,256.46201,29.723999,257.95801,31.798C255.782,33.973999,253.062,35.674,249.832,36.897999C250.614,37.577999,251.838,39.175999,252.382,40.060001C255.612,38.768002,258.332,37.034,260.57599,34.891998C262.78601,37.034,265.47202,38.734001,268.702,39.855999C269.28,38.700001,270.504,37,271.422,36.150002C268.22601,35.231998,265.50601,33.736,263.29599,31.764C264.85999,29.587999,266.11801,27.071999,267.00201,24.216C267.34201,24.725998,267.64801,25.202,267.85199,25.610001L270.84399,22.992001C269.75601,21.121998,267.37601,18.537998,265.23401,16.599998L270.60602,16.599998L270.60602,12.859999L261.29001,12.859999L263.466,11.941999C262.98999,10.751999,261.936,9.0179977,260.88199,7.7259979L257.24399,9.0859985C258.06,10.173998,258.944,11.703999,259.42001,12.859999L251.73601,12.859999L251.73601,16.599998L264.452,16.599998L262.10599,18.571999C263.67001,20.067999,265.40399,22.006001,266.66199,23.705999L263.228,22.821999ZM243.746,8.0999985L243.746,14.831999L239.7,14.831999L239.7,18.605999L243.06599,18.605999C242.216,22.753998,240.55,27.582001,238.612,30.268C239.258,31.321999,240.142,33.192001,240.51601,34.313999C241.74001,32.341999,242.862,29.417999,243.746,26.256001L243.746,40.026001L247.48599,40.026001L247.48599,24.964001C248.23399,26.596001,248.98199,28.296,249.39,29.452L251.702,26.425999C251.09,25.405998,248.336,20.883999,247.48599,19.693998L247.48599,18.605999L250.886,18.605999L250.886,14.831999L247.48599,14.831999L247.48599,8.0999985L243.746,8.0999985ZM282.642,8.0999985C282.57401,9.1539993,282.57401,10.955999,282.37,13.165998L274.142,13.165998L274.142,17.143999L281.92801,17.143999C281.01001,23.365999,278.73199,31.084,272.81601,35.911999C274.17599,36.694,275.46799,37.748001,276.31799,38.802002C280.02399,35.436001,282.40399,31.015999,283.93399,26.493999C285.19199,28.941999,286.68799,31.084,288.48999,32.919998C286.10999,34.551998,283.32199,35.776001,280.32999,36.557999C281.17999,37.374001,282.16602,38.972,282.642,39.992001C286.008,38.938,289.06799,37.509998,291.72,35.605999C294.57599,37.577999,298.01001,39.040001,302.12399,39.924C302.668,38.802002,303.858,37.068001,304.742,36.183998C300.89999,35.504002,297.67001,34.382,294.91602,32.784C297.67001,29.927999,299.74399,26.289999,300.96802,21.666L298.17999,20.476L297.43201,20.646L285.49799,20.646C285.76999,19.455999,285.974,18.265999,286.10999,17.143999L303.82401,17.143999L303.82401,13.165998L286.586,13.165998C286.75601,11.057999,286.82401,9.289999,286.892,8.0999985L282.642,8.0999985ZM291.54999,30.369999C289.71399,28.737999,288.21799,26.799999,287.06201,24.59L295.52802,24.59C294.54199,26.799999,293.18201,28.703999,291.54999,30.369999Z" fill="#2E2E2E" fill-opacity="1"/></g></svg>