<svg xmlns="http://www.w3.org/2000/svg" xmlns:xlink="http://www.w3.org/1999/xlink" fill="none" version="1.1" width="390" height="45" viewBox="0 0 390 45"><g><path d="M11.49,12.42L11.49,23.25C11.49,27.450001,11.25,32.91,8.46,36.599998C9.21,36.959999,10.65,38.130001,11.219999,38.759998C13.17,36.240002,14.099999,32.73,14.52,29.280001L18.24,29.280001L18.24,37.889999L21.539999,37.889999L21.539999,29.280001L24.93,29.280001L24.93,34.830002C24.93,35.220001,24.809999,35.34,24.449999,35.34C24.09,35.369999,22.949999,35.369999,21.9,35.310001C22.32,36.18,22.769999,37.68,22.859999,38.610001C24.779999,38.610001,26.16,38.52,27.119999,37.98C28.109999,37.41,28.379999,36.48,28.379999,34.860001L28.379999,12.42L11.49,12.42ZM14.849999,15.630001L18.24,15.630001L18.24,19.26L14.849999,19.26L14.849999,15.630001ZM24.93,15.630001L24.93,19.26L21.539999,19.26L21.539999,15.630001L24.93,15.630001ZM14.849999,22.440001L18.24,22.440001L18.24,26.1L14.79,26.1C14.82,25.110001,14.849999,24.150002,14.849999,23.25L14.849999,22.440001ZM24.93,22.440001L24.93,26.1L21.539999,26.1L21.539999,22.440001L24.93,22.440001ZM4.3499999,10.530001L4.3499999,16.200001L1.11,16.200001L1.11,19.5L4.3499999,19.5L4.3499999,24.84L0.63,25.74L1.41,29.190001L4.3499999,28.35L4.3499999,34.470001C4.3499999,34.860001,4.23,34.98,3.8699999,34.98C3.51,35.009998,2.4299998,35.009998,1.38,34.98C1.8,35.939999,2.22,37.470001,2.3099999,38.369999C4.2599998,38.400002,5.5799999,38.25,6.54,37.68C7.4699998,37.110001,7.77,36.18,7.77,34.5L7.77,27.360001L10.8,26.459999L10.349999,23.220001L7.77,23.940001L7.77,19.5L10.71,19.5L10.71,16.200001L7.77,16.200001L7.77,10.530001L4.3499999,10.530001ZM40.950001,10.5C40.650002,11.700001,40.260002,12.9,39.779999,14.130001L31.65,14.130001L31.65,17.52L38.25,17.52C36.450001,21,33.959999,24.18,30.75,26.310001C31.440001,26.970001,32.580002,28.290001,33.119999,29.07C34.59,28.049999,35.880001,26.880001,37.080002,25.560001L37.080002,38.669998L40.619999,38.669998L40.619999,32.91L51.510002,32.91L51.510002,34.740002C51.510002,35.130001,51.360001,35.279999,50.849998,35.310001C50.34,35.310001,48.57,35.310001,47.040001,35.220001C47.52,36.18,48,37.709999,48.119999,38.700001C50.580002,38.700001,52.290001,38.669998,53.489998,38.099998C54.720001,37.560001,55.049999,36.57,55.049999,34.799999L55.049999,19.890001L41.07,19.890001C41.52,19.110001,41.91,18.33,42.299999,17.52L58.41,17.52L58.41,14.130001L43.709999,14.130001C44.07,13.200001,44.369999,12.27,44.669998,11.34L40.950001,10.5ZM40.619999,27.959999L51.510002,27.959999L51.510002,29.91L40.619999,29.91L40.619999,27.959999ZM40.619999,24.959999L40.619999,23.040001L51.510002,23.040001L51.510002,24.959999L40.619999,24.959999ZM70.919998,10.200001C68.849998,13.83,65.160004,17.16,61.32,19.17C62.099998,19.77,63.419998,21.119999,63.990002,21.84C65.400002,20.970001,66.839996,19.890001,68.220001,18.66C69.330002,19.800001,70.529999,20.85,71.82,21.810001C68.370003,23.400002,64.470001,24.57,60.720001,25.26C61.349998,26.040001,62.130001,27.540001,62.490002,28.470001C63.630001,28.23,64.769997,27.93,65.910004,27.630001L65.910004,38.73L69.57,38.73L69.57,37.619999L80.489998,37.619999L80.489998,38.610001L84.330002,38.610001L84.330002,27.630001C85.260002,27.900002,86.190002,28.110001,87.150002,28.290001C87.660004,27.299999,88.68,25.74,89.489998,24.93C85.650002,24.33,82.020004,23.280001,78.809998,21.869999C81.660004,19.950001,84.089996,17.640001,85.769997,14.880001L83.190002,13.200001L82.589996,13.380001L73.019997,13.380001C73.5,12.720001,73.949997,12.060001,74.339996,11.370001L70.919998,10.200001ZM69.57,34.439999L69.57,30.690001L80.489998,30.690001L80.489998,34.439999L69.57,34.439999ZM75.209999,20.040001C73.440002,18.99,71.879997,17.790001,70.620003,16.5L79.830002,16.5C78.540001,17.790001,76.979996,18.99,75.209999,20.040001ZM75.239998,24C77.760002,25.440001,80.550003,26.58,83.519997,27.42L66.599998,27.42C69.599998,26.549999,72.510002,25.41,75.239998,24ZM94.860001,12.360001C95.849998,13.470001,96.900002,14.940001,97.529999,16.08L91.919998,16.08L91.919998,19.380001L100.38,19.380001C98.010002,21.240002,94.589996,22.740002,91.139999,23.52C91.889999,24.240002,92.940002,25.619999,93.449997,26.52C97.110001,25.470001,100.56,23.52,103.14,21.030001L103.14,24.75L106.77,24.75L106.77,21.690001C110.31,23.310001,114.33,25.26,116.52,26.49L118.29,23.58C116.13,22.440001,112.38,20.790001,109.08,19.380001L118.17,19.380001L118.17,16.08L112.17,16.08C113.16,15.030001,114.42,13.530001,115.59,11.970001L111.72,10.890001C111.06,12.24,109.92,14.07,108.93,15.300001L111.21,16.08L106.77,16.08L106.77,10.530001L103.14,10.530001L103.14,16.08L99.089996,16.08L101.1,15.18C100.53,13.950001,99.18,12.210001,97.980003,11.01L94.860001,12.360001ZM103.08,25.35C102.99,26.25,102.87,27.09,102.72,27.869999L91.650002,27.869999L91.650002,31.200001L101.31,31.200001C99.779999,33.150002,96.839996,34.5,90.93,35.310001C91.620003,36.150002,92.489998,37.709999,92.790001,38.700001C99.839996,37.5,103.26,35.400002,105,32.400002C107.52,35.939999,111.24,37.860001,117.03,38.639999C117.48,37.59,118.44,36.029999,119.25,35.25C114.12,34.830002,110.49,33.540001,108.24,31.200001L118.44,31.200001L118.44,27.869999L106.53,27.869999C106.68,27.060001,106.77,26.220001,106.86,25.35L103.08,25.35ZM129.24001,19.890001L140.91,19.890001L140.91,21.540001L129.24001,21.540001L129.24001,19.890001ZM125.64,17.49L125.64,23.940001L144.69,23.940001L144.69,17.49L125.64,17.49ZM132.50999,11.190001L133.23,13.32L121.65,13.32L121.65,16.35L148.25999,16.35L148.25999,13.32L137.42999,13.32L136.23,10.290001L132.50999,11.190001ZM128.25,29.190001L128.25,37.139999L131.58,37.139999L131.58,35.91L140.19,35.91C140.61,36.630001,141.06,37.68,141.20999,38.459999C143.34,38.459999,144.92999,38.459999,146.03999,38.07C147.17999,37.619999,147.57001,36.959999,147.57001,35.400002L147.57001,25.139999L122.46,25.139999L122.46,38.669998L125.97,38.669998L125.97,28.08L143.94,28.08L143.94,35.369999C143.94,35.759998,143.75999,35.880001,143.34,35.880001L141.36,35.880001L141.36,29.190001L128.25,29.190001ZM131.58,31.68L138.20999,31.68L138.20999,33.419998L131.58,33.419998L131.58,31.68ZM151.71001,17.880001L151.71001,21.51L158.03999,21.51C156.72,26.76,154.14,30.9,150.66,33.27C151.53,33.810001,152.97,35.220001,153.57001,36.029999C157.8,32.880001,161.03999,26.790001,162.39,18.630001L159.99001,17.73L159.33,17.880001L151.71001,17.880001ZM174,15.780001C172.64999,17.67,170.58,19.950001,168.69,21.720001C168.06,20.490002,167.49001,19.200001,167.03999,17.880001L167.03999,10.530001L163.2,10.530001L163.2,34.080002C163.2,34.59,163.02,34.77,162.50999,34.77C161.94,34.77,160.32001,34.77,158.67,34.709999C159.24001,35.790001,159.87,37.619999,160.02,38.73C162.45,38.73,164.25,38.549999,165.45,37.919998C166.64999,37.259998,167.03999,36.18,167.03999,34.110001L167.03999,25.470001C169.41,29.970001,172.59,33.630001,176.82001,35.880001C177.42,34.830002,178.64999,33.299999,179.49001,32.549999C175.74001,30.9,172.64999,28.049999,170.34,24.57C172.47,22.860001,175.14,20.369999,177.33,18.120001L174,15.780001ZM184.77,17.880001C185.75999,19.890001,186.69,22.530001,186.99001,24.150002L190.5,23.040001C190.14,21.360001,189.09,18.84,188.07001,16.890001L184.77,17.880001ZM201.87,16.800001C201.3,18.780001,200.22,21.42,199.25999,23.16L202.41,24.09C203.42999,22.530001,204.66,20.1,205.74001,17.790001L201.87,16.800001ZM181.38,25.08L181.38,28.709999L193.11,28.709999L193.11,38.669998L196.86,38.669998L196.86,28.709999L208.70999,28.709999L208.70999,25.08L196.86,25.08L196.86,15.93L206.97,15.93L206.97,12.360001L182.97,12.360001L182.97,15.93L193.11,15.93L193.11,25.08L181.38,25.08ZM228.48,10.5C227.94,14.190001,226.98,17.790001,225.57001,20.639999L225.57001,18.300001L223.89,18.300001C225.06,16.41,226.11,14.370001,226.98,12.18L223.64999,11.25C223.11,12.690001,222.48,14.040001,221.75999,15.33L221.75999,13.230001L218.82001,13.230001L218.82001,10.5L215.49001,10.5L215.49001,13.230001L212.07001,13.230001L212.07001,16.26L215.49001,16.26L215.49001,18.300001L210.89999,18.300001L210.89999,21.389999L217.17,21.389999C216.63,21.900002,216.09,22.41,215.52,22.889999L213.53999,22.889999L213.53999,24.389999C212.58,25.049999,211.56,25.650002,210.50999,26.16C211.23,26.82,212.46001,28.200001,212.94,28.92C214.56,27.99,216.09,26.91,217.53,25.68L219.42,25.68C218.64,26.459999,217.74001,27.209999,216.92999,27.779999L216.92999,29.52L210.81,29.970001L211.2,33.150002L216.92999,32.669998L216.92999,35.189999C216.92999,35.490002,216.81,35.580002,216.42,35.610001C216.03,35.610001,214.74001,35.610001,213.57001,35.580002C213.99001,36.450001,214.44,37.709999,214.59,38.610001C216.48,38.610001,217.89,38.610001,218.97,38.099998C220.02,37.650002,220.28999,36.810001,220.28999,35.25L220.28999,32.369999L225.69,31.889999L225.69,28.799999L220.28999,29.25L220.28999,28.41C221.78999,27.24,223.25999,25.83,224.46001,24.51C225.21001,25.139999,226.05,25.92,226.44,26.369999C226.92,25.74,227.39999,25.02,227.82001,24.240002C228.39,26.49,229.05,28.530001,229.89,30.389999C228.33,32.610001,226.23,34.32,223.38,35.549999C224.07001,36.299999,225.12,37.98,225.48,38.82C228.09,37.5,230.19,35.880001,231.84,33.900002C233.19,35.849998,234.84,37.470001,236.91,38.700001C237.45,37.740002,238.59,36.299999,239.39999,35.580002C237.17999,34.439999,235.44,32.700001,234.06,30.57C235.67999,27.48,236.7,23.790001,237.33,19.32L239.10001,19.32L239.10001,15.99L231.06,15.99C231.48,14.4,231.84,12.75,232.14,11.07L228.48,10.5ZM220.41,22.889999L221.67,21.389999L225.17999,21.389999C224.75999,22.17,224.28,22.92,223.77,23.549999L222.72,22.709999L222.06,22.889999L220.41,22.889999ZM218.82001,16.26L221.22,16.26C220.8,16.950001,220.32001,17.640001,219.84,18.300001L218.82001,18.300001L218.82001,16.26ZM233.61,19.32C233.25,21.959999,232.74001,24.299999,231.99001,26.34C231.17999,24.18,230.61,21.810001,230.16,19.32L233.61,19.32ZM253.08,25.619999L253.08,27.51L241.62,27.51L241.62,30.809999L253.08,30.809999L253.08,34.59C253.08,34.98,252.92999,35.130001,252.33,35.130001C251.7,35.16,249.48,35.16,247.56,35.07C248.10001,36.029999,248.78999,37.529999,249.03,38.549999C251.58,38.549999,253.47,38.490002,254.88,37.98C256.32001,37.470001,256.76999,36.540001,256.76999,34.68L256.76999,30.809999L268.47,30.809999L268.47,27.51L256.76999,27.51L256.76999,26.940001C259.35001,25.709999,261.78,24.060001,263.60999,22.380001L261.32999,20.58L260.57999,20.76L246.99001,20.76L246.99001,23.880001L256.5,23.880001C255.42,24.540001,254.22,25.17,253.08,25.619999ZM252.27,11.43C253.02,12.6,253.8,14.1,254.22,15.27L249.14999,15.27L250.28999,14.73C249.81,13.59,248.61,11.970001,247.56,10.800001L244.5,12.15C245.25,13.08,246.06,14.25,246.60001,15.27L242.00999,15.27L242.00999,21.900002L245.37,21.900002L245.37,18.450001L264.60001,18.450001L264.60001,21.900002L268.14001,21.900002L268.14001,15.27L263.76001,15.27C264.60001,14.220001,265.47,13.02,266.28,11.85L262.56,10.710001C261.95999,12.09,260.94,13.860001,259.98001,15.27L256.04999,15.27L257.82001,14.58C257.42999,13.35,256.44,11.550001,255.45,10.230001L252.27,11.43ZM284.42999,14.34C286.07999,15.66,288.06,17.610001,288.89999,18.9L291.42001,16.65C290.48999,15.33,288.42001,13.530001,286.76999,12.33L284.42999,14.34ZM283.32001,22.26C285.06,23.58,287.19,25.530001,288.12,26.880001L290.57999,24.540001C289.56,23.25,287.37,21.42,285.63,20.190001L283.32001,22.26ZM280.89001,10.77C278.39999,11.82,274.62,12.720001,271.20001,13.230001C271.59,14.01,272.04001,15.24,272.16,16.02C273.23999,15.9,274.41,15.720001,275.54999,15.540001L275.54999,18.960001L270.98999,18.960001L270.98999,22.290001L275.07001,22.290001C273.98999,25.200001,272.28,28.440001,270.60001,30.389999C271.17001,31.290001,271.95001,32.790001,272.28,33.810001C273.45001,32.310001,274.59,30.18,275.54999,27.869999L275.54999,38.669998L279.03,38.669998L279.03,26.459999C279.75,27.630001,280.47,28.92,280.85999,29.76L282.92999,26.940001C282.35999,26.220001,279.87,23.34,279.03,22.560001L279.03,22.290001L282.98999,22.290001L282.98999,18.960001L279.03,18.960001L279.03,14.85C280.41,14.52,281.73001,14.130001,282.89999,13.710001L280.89001,10.77ZM282.48001,29.85L283.04999,33.27L292.14001,31.68L292.14001,38.639999L295.70999,38.639999L295.70999,31.08L299.25,30.450001L298.67999,27.060001L295.70999,27.57L295.70999,10.5L292.14001,10.5L292.14001,28.200001L282.48001,29.85ZM313.07999,25.619999L313.07999,27.51L301.62,27.51L301.62,30.809999L313.07999,30.809999L313.07999,34.59C313.07999,34.98,312.92999,35.130001,312.32999,35.130001C311.70001,35.16,309.48001,35.16,307.56,35.07C308.10001,36.029999,308.79001,37.529999,309.03,38.549999C311.57999,38.549999,313.47,38.490002,314.88,37.98C316.32001,37.470001,316.76999,36.540001,316.76999,34.68L316.76999,30.809999L328.47,30.809999L328.47,27.51L316.76999,27.51L316.76999,26.940001C319.35001,25.709999,321.78,24.060001,323.60999,22.380001L321.32999,20.58L320.57999,20.76L306.98999,20.76L306.98999,23.880001L316.5,23.880001C315.42001,24.540001,314.22,25.17,313.07999,25.619999ZM312.26999,11.43C313.01999,12.6,313.79999,14.1,314.22,15.27L309.14999,15.27L310.29001,14.73C309.81,13.59,308.60999,11.970001,307.56,10.800001L304.5,12.15C305.25,13.08,306.06,14.25,306.60001,15.27L302.01001,15.27L302.01001,21.900002L305.37,21.900002L305.37,18.450001L324.60001,18.450001L324.60001,21.900002L328.14001,21.900002L328.14001,15.27L323.76001,15.27C324.60001,14.220001,325.47,13.02,326.28,11.85L322.56,10.710001C321.95999,12.09,320.94,13.860001,319.98001,15.27L316.04999,15.27L317.82001,14.58C317.42999,13.35,316.44,11.550001,315.45001,10.230001L312.26999,11.43ZM334.76999,17.880001C335.76001,19.890001,336.69,22.530001,336.98999,24.150002L340.5,23.040001C340.14001,21.360001,339.09,18.84,338.07001,16.890001L334.76999,17.880001ZM351.87,16.800001C351.29999,18.780001,350.22,21.42,349.26001,23.16L352.41,24.09C353.42999,22.530001,354.66,20.1,355.73999,17.790001L351.87,16.800001ZM331.38,25.08L331.38,28.709999L343.10999,28.709999L343.10999,38.669998L346.85999,38.669998L346.85999,28.709999L358.70999,28.709999L358.70999,25.08L346.85999,25.08L346.85999,15.93L356.97,15.93L356.97,12.360001L332.97,12.360001L332.97,15.93L343.10999,15.93L343.10999,25.08L331.38,25.08ZM364.82999,25.41L364.82999,38.669998L368.51999,38.669998L368.51999,37.139999L381.29999,37.139999L381.29999,38.639999L385.17001,38.639999L385.17001,25.41L364.82999,25.41ZM368.51999,33.66L368.51999,28.860001L381.29999,28.860001L381.29999,33.66L368.51999,33.66ZM363.84,23.400002C365.42999,22.889999,367.59,22.799999,383.60999,22.02C384.23999,22.860001,384.78,23.639999,385.17001,24.33L388.20001,22.110001C386.60999,19.59,383.01001,15.870001,380.28,13.26L377.45999,15.15C378.60001,16.26,379.79999,17.550001,380.97,18.84L368.60999,19.26C370.92001,17.040001,373.26001,14.370001,375.20999,11.58L371.57999,10.02C369.51001,13.620001,366.23999,17.280001,365.19,18.24C364.20001,19.17,363.48001,19.77,362.67001,19.950001C363.09,20.91,363.69,22.709999,363.84,23.400002Z" fill="#242424" fill-opacity="1"/></g></svg>