<svg xmlns="http://www.w3.org/2000/svg" xmlns:xlink="http://www.w3.org/1999/xlink" fill="none" version="1.1" width="181" height="95" viewBox="0 0 181 95"><g><g><path d="M20.035,47.43L20.035,50.040001L3.2950001,50.040001L3.2950001,56.025002L20.035,56.025002L20.035,60.029999C20.035,60.615002,19.765001,60.794998,18.865,60.794998C17.965,60.84,14.410001,60.84,11.89,60.705002C12.88,62.369999,14.095,65.160004,14.500001,67.004997C18.190001,67.004997,21.205,66.915001,23.59,65.970001C25.975,65.07,26.740002,63.404999,26.740002,60.209999L26.740002,56.025002L43.84,56.025002L43.84,50.040001L26.740002,50.040001L26.740002,49.77C30.43,47.834999,33.850002,45.404999,36.505001,42.974998L32.365002000000004,39.689999L31.015001,40.004997L11.620001,40.004997L11.620001,45.629997L23.59,45.629997C22.465,46.305,21.205,46.934998,20.035,47.43ZM19.045,26.234997C20.035,27.809998,21.070002,29.834999,21.700001,31.499998L15.355,31.499998L17.110001,30.689999C16.39,28.98,14.635,26.639999,13.105,24.93L7.5250001,27.404999C8.470000299999999,28.619999,9.5050001,30.149998,10.2700005,31.499998L3.6550002,31.499998L3.6550002,41.939999L9.7750006,41.939999L9.7750006,37.214996L37.045002,37.214996L37.045002,41.939999L43.480003,41.939999L43.480003,31.499998L37.405003,31.499998C38.530003,30.059998,39.700001,28.439999,40.825001,26.82L33.985001,24.84C33.175003,26.864998,31.825001,29.43,30.475,31.499998L25.390001,31.499998L28.315001,30.375C27.730001,28.574997,26.245001,25.965,24.85,24.074997L19.045,26.234997ZM48.790001,26.234997L48.790001,67.095001L54.459999,67.095001L54.459999,52.424999C55.044998,53.91,55.360001,55.755001,55.360001,57.014999C56.440002,57.014999,57.474998,57.014999,58.240002,56.880001C59.275002,56.700001,60.174999,56.384998,60.940002,55.799999C62.470001,54.630001,63.099998,52.650002,63.099998,49.455002C63.099998,46.889999,62.650002,43.739998,60.220001,40.275002C61.255001,37.214996,62.470001,33.254997,63.459999,29.654999L63.459999,39.059998L66.970001,39.059998L66.970001,43.650002L85.824997,43.650002L85.824997,39.059998L89.335007,39.059998L89.335007,29.609997L80.514999,29.609997C79.975006,27.899998,79.074997,25.695,78.130005,23.984997L71.875,25.695C72.415001,26.864998,73,28.259998,73.449997,29.609997L63.459999,29.609997L63.82,28.395L59.544998,26.009998L58.645,26.234997L48.790001,26.234997ZM69.445,38.07L69.445,35.189999L83.080002,35.189999L83.080002,38.07L69.445,38.07ZM63.550003,46.035L63.550003,51.84L68.455002,51.84C67.959999,56.744999,66.43,59.985001,59.59,62.009998C60.940002,63.27,62.605003,65.699997,63.235001,67.32C71.964996,64.260002,74.035004,59.084999,74.709999,51.84L76.735001,51.84L76.735001,59.625C76.735001,64.800003,77.68,66.599998,82.18,66.599998C82.990005,66.599998,83.934998,66.599998,84.790001,66.599998C88.255005,66.599998,89.740005,64.800003,90.235001,58.364998C88.660004,57.959999,86.095001,57.014999,84.925003,56.025002C84.835007,60.435001,84.654999,61.154999,84.115005,61.154999C83.934998,61.154999,83.529999,61.154999,83.395004,61.154999C82.945,61.154999,82.900002,60.974998,82.900002,59.580002L82.900002,51.84L89.514999,51.84L89.514999,46.035L63.550003,46.035ZM54.459999,51.48L54.459999,32.040001L56.845001,32.040001C56.260002,34.919998,55.450001,38.43,54.775002,40.949997C56.98,43.875,57.385002,46.709999,57.385002,48.689999C57.385002,49.950001,57.16,50.805,56.709999,51.165001C56.395,51.389999,55.990002,51.48,55.584999,51.48L54.459999,51.48ZM94.105003,35.684998L94.105003,44.955002L100.270004,44.955002L100.270004,41.264999L126.37,41.264999L126.37,44.955002L132.895,44.955002L132.895,35.684998L94.105003,35.684998ZM117.64,24.524998L117.64,26.774998L109.27,26.774998L109.27,24.524998L102.79,24.524998L102.79,26.774998L93.474998,26.774998L93.474998,32.489998L102.79,32.489998L102.79,34.875L109.27,34.875L109.27,32.489998L117.64,32.489998L117.64,34.875L124.165,34.875L124.165,32.489998L133.61501,32.489998L133.61501,26.774998L124.165,26.774998L124.165,24.524998L117.64,24.524998ZM110.17,42.074997L110.17,46.215L93.654999,46.215L93.654999,52.02L106.66,52.02C103.105,55.619999,97.614998,58.724998,91.945,60.435001C93.385002,61.740002,95.364998,64.260002,96.309998,65.879997C101.53,63.855,106.39,60.48,110.17,56.384998L110.17,67.184998L116.605,67.184998L116.605,55.98C120.385,60.299999,125.245,63.810001,130.51001,65.925003C131.5,64.169998,133.52499,61.560001,135.01001,60.209999C129.42999,58.544998,124.075,55.529999,120.52,52.02L133.39,52.02L133.39,46.215L116.605,46.215L116.605,42.074997L110.17,42.074997ZM144.41499,51.93L144.41499,55.485001L172.81,55.485001L172.81,51.93L144.41499,51.93ZM144.41499,47.294998L144.41499,50.849998L172.81,50.849998L172.81,47.294998L144.41499,47.294998ZM143.155,56.474998L143.155,67.275002L149.27499,67.275002L149.27499,66.059998L167.27499,66.059998L167.27499,67.275002L173.71001,67.275002L173.71001,56.474998L143.155,56.474998ZM149.27499,61.919998L149.27499,60.615002L167.27499,60.615002L167.27499,61.919998L149.27499,61.919998ZM168.94,24.794998C168.04001,26.594997,166.42,28.98,165.07001,30.555L167.05,31.409998L159.22,31.409998L162.05499,30.285C161.47,28.619999,159.985,26.324997,158.59,24.704998L153.05499,26.864998C154.045,28.215,155.08,29.969997,155.71001,31.409998L149.095,31.409998L151.03,30.509998C150.355,28.934998,148.735,26.774998,147.25,25.244999L141.85001,27.674999C142.795,28.799999,143.74001,30.149998,144.41499,31.409998L138.02499,31.409998L138.02499,36.720001L146.215,36.720001C143.74001,39.105,140.36501,41.174999,136.855,42.389999C138.205,43.559998,140.05,45.855,140.95,47.34C141.75999,47.025002,142.52499,46.619999,143.33501,46.215L173.71001,46.215L173.71001,45.900002C174.47501,46.305,175.285,46.619999,176.095,46.934998C176.995,45.360001,178.88501,42.974998,180.235,41.759998C176.59,40.68,173.17,38.879997,170.605,36.720001L178.97501,36.720001L178.97501,31.409998L171.73,31.409998C172.89999,30.239998,174.205,28.754997,175.55499,27.224998L168.94,24.794998ZM154.09,39.105L155.30499,42.119999L149.095,42.119999C150.85001,40.5,152.425,38.654999,153.685,36.720001L163.17999,36.720001C164.485,38.699997,166.105,40.544998,167.995,42.119999L161.875,42.119999C161.425,40.769997,160.61501,39.014999,159.895,37.665001L154.09,39.105Z" fill="#FFFFFF" fill-opacity="1"/></g><g><g><rect x="0" y="88" width="181" height="7" rx="3.5" fill="#FFFFFF" fill-opacity="1"/></g></g></g></svg>