<svg xmlns="http://www.w3.org/2000/svg" xmlns:xlink="http://www.w3.org/1999/xlink" fill="none" version="1.1" width="680" height="89" viewBox="0 0 680 89"><defs><filter id="master_svg0_70_06878" filterUnits="objectBoundingBox" color-interpolation-filters="sRGB" x="-0.03076923076923077" y="-0.2909090909090909" width="1.0615384615384615" height="1.7272727272727273"><feFlood flood-opacity="0" result="BackgroundImageFix"/><feColorMatrix in="SourceAlpha" type="matrix" values="0 0 0 0 0 0 0 0 0 0 0 0 0 0 0 0 0 0 127 0"/><feOffset dy="4" dx="0"/><feGaussianBlur stdDeviation="5"/><feColorMatrix type="matrix" values="0 0 0 0 0 0 0 0 0 0 0 0 0 0 0 0 0 0 0.10000000149011612 0"/><feBlend mode="normal" in2="BackgroundImageFix" result="effect1_dropShadow"/><feBlend mode="normal" in="SourceGraphic" in2="effect1_dropShadow" result="shape"/></filter></defs><g><g><g filter="url(#master_svg0_70_06878)"><rect x="15" y="15" width="650" height="55" rx="10" fill="#FFFFFF" fill-opacity="1"/></g><g><path d="M153.7720001,40.948C154.3040001,41.745999999999995,154.8500001,42.851999,155.0740004,43.524L155.9840002,43.132000000000005C155.7600002,42.445999,155.1860003,41.382000000000005,154.6400001,40.611999999999995L153.7720001,40.948ZM161.262,40.598C160.9120007,41.382000000000005,160.2820005,42.502001,159.79199979999999,43.202L160.5900002,43.538C161.094,42.893999,161.738,41.872,162.256001,40.989999999999995L161.262,40.598ZM157.9860001,32.113999C156.6560001,34.2,154.066,35.837998999999996,151.42000002,36.691998999999996C151.70000005,36.944,151.98000002,37.35,152.148,37.658001C152.904,37.378,153.6600001,37.042,154.3740001,36.635999999999996L154.3740001,37.42L157.4120002,37.42L157.4120002,39.323999L152.582,39.323999L152.582,40.290001000000004L157.4120002,40.290001000000004L157.4120002,43.747999L151.95200002,43.747999L151.95200002,44.714000999999996L164.076,44.714000999999996L164.076,43.747999L158.5180001,43.747999L158.5180001,40.290001000000004L163.432,40.290001000000004L163.432,39.323999L158.5180001,39.323999L158.5180001,37.42L161.612,37.42L161.612,36.538C162.368,36.972,163.138,37.336,163.86599999999999,37.601999C164.034,37.322001,164.356,36.916,164.608001,36.691998999999996C162.48,36.019999999999996,159.9879999,34.564,158.6160002,33.052L158.9660001,32.547999000000004L157.9860001,32.113999ZM161.444,36.439999L154.7240002,36.439999C155.9560003,35.712,157.0900002,34.816,158.0140004,33.794C158.9520001,34.759999,160.1700001,35.698,161.444,36.439999ZM167.226,33.009999L167.226,37.769999999999996C167.226,40.177999,167.044001,42.6,165.392,44.504000000000005C165.644,44.658001,166.078,44.993999,166.26,45.232C168.094,43.146,168.304001,40.458,168.304001,37.769999999999996L168.304001,33.009999L167.226,33.009999ZM171.677999,33.584L171.677999,43.888000000000005L172.742001,43.888000000000005L172.742001,33.584L171.677999,33.584ZM176.382,32.967999L176.382,45.106001L177.473999,45.106001L177.473999,32.967999L176.382,32.967999ZM185.439999,39.911999L185.439999,40.85L179.756001,40.85L179.756001,41.732L184.501999,41.732C183.158001,42.739999999999995,181.142,43.635999999999996,179.406,44.084C179.643999,44.308001000000004,179.938,44.700001,180.106001,44.966C181.898001,44.406,183.998001,43.341999,185.439999,42.110001L185.439999,45.106001L186.490002,45.106001L186.490002,42.068000999999995C187.917999,43.271999,190.046001,44.322001,191.880001,44.854C192.034,44.587998999999996,192.327999,44.209998999999996,192.55200200000002,43.986000000000004C190.80200200000002,43.566,188.813999,42.712,187.470001,41.732L192.25799899999998,41.732L192.25799899999998,40.85L186.490002,40.85L186.490002,39.911999L185.439999,39.911999ZM185.860001,36.271999L185.860001,37.195999L182.458,37.195999L182.458,36.271999L185.860001,36.271999ZM185.538002,32.464C185.762001,32.842,186,33.318,186.167999,33.724000000000004L183.004002,33.724000000000004C183.298,33.29,183.563999,32.842,183.80200200000002,32.422L182.709999,32.212C182.094,33.443999,180.959999,35.012,179.42000000000002,36.188C179.658001,36.327999,180.007999,36.635999999999996,180.190001,36.860001C180.624001,36.495999999999995,181.030001,36.117999999999995,181.408001,35.726L181.408001,40.205999L182.458,40.205999L182.458,39.757999L191.86600099999998,39.757999L191.86600099999998,38.917998999999995L186.868,38.917998999999995L186.868,37.952L190.886002,37.952L190.886002,37.195999L186.868,37.195999L186.868,36.271999L190.844002,36.271999L190.844002,35.516L186.868,35.516L186.868,34.592L191.417999,34.592L191.417999,33.724000000000004L187.274002,33.724000000000004C187.091999,33.275999999999996,186.784,32.66,186.476002,32.198L185.538002,32.464ZM185.860001,35.516L182.458,35.516L182.458,34.592L185.860001,34.592L185.860001,35.516ZM185.860001,37.952L185.860001,38.917998999999995L182.458,38.917998999999995L182.458,37.952L185.860001,37.952ZM194.175999,32.856L194.175999,45.120001L195.254002,45.120001L195.254002,44.532L204.704002,44.532L204.704002,45.120001L205.824001,45.120001L205.824001,32.856L194.175999,32.856ZM195.254002,43.58L195.254002,33.822L204.704002,33.822L204.704002,43.58L195.254002,43.58ZM200.700001,34.41L200.700001,36.202L196.178001,36.202L196.178001,37.139999L200.363998,37.139999C199.23,38.68,197.521999,40.066,195.967999,40.92C196.20600100000001,41.115999,196.5,41.438,196.639999,41.633999C198.040001,40.85,199.524002,39.674,200.700001,38.344L200.700001,41.605999C200.700001,41.774,200.658001,41.816,200.46200199999998,41.816C200.279999,41.83,199.692001,41.83,199.048,41.816C199.188,42.082001000000005,199.341999,42.487999,199.397999,42.768C200.307999,42.768,200.868,42.754000000000005,201.232002,42.586C201.610001,42.431999000000005,201.722,42.152,201.722,41.605999L201.722,37.139999L203.891998,37.139999L203.891998,36.202L201.722,36.202L201.722,34.41L200.700001,34.41ZM210.821999,44.784L211.774002,43.972C210.905998,42.950001,209.64600000000002,41.676001,208.638,40.864000000000004L207.728001,41.662001000000004C208.722,42.473999,209.925999,43.677999,210.821999,44.784ZM221.99400300000002,33.233999C222.736,33.681999,223.74400300000002,34.311999,224.248001,34.717999L224.877998,33.863999C224.346001,33.486000000000004,223.32399700000002,32.897999999999996,222.582001,32.478L221.99400300000002,33.233999ZM221.475998,37C222.260002,37.42,223.32399700000002,38.035999000000004,223.856003,38.4L224.44400000000002,37.532C223.89800300000002,37.167998999999995,222.834,36.608000000000004,222.064003,36.230000000000004L221.475998,37ZM221.741997,44.294001L222.68,44.91C223.393997,43.608000000000004,224.248001,41.83,224.877998,40.332001000000005L224.05200200000002,39.730000000000004C223.35199699999998,41.34,222.400002,43.188,221.741997,44.294001ZM225.578003,35.866L225.578003,45.106001L226.54399899999999,45.106001L226.54399899999999,44.434L232.844002,44.434L232.844002,45.063998999999995L233.85199699999998,45.063998999999995L233.85199699999998,35.866L231.20600100000001,35.866L231.20600100000001,33.976L234.370003,33.976L234.370003,33.009999L225.07399700000002,33.009999L225.07399700000002,33.976L227.97199999999998,33.976L227.97199999999998,35.866L225.578003,35.866ZM228.91000400000001,33.976L230.253998,33.976L230.253998,35.866L228.91000400000001,35.866L228.91000400000001,33.976ZM226.54399899999999,41.9L232.844002,41.9L232.844002,43.510000000000005L226.54399899999999,43.510000000000005L226.54399899999999,41.9ZM226.54399899999999,40.989999999999995L226.54399899999999,39.785999000000004C226.711998,39.925999000000004,226.935997,40.15,227.033997,40.275999C228.559998,39.478001,228.938004,38.288,228.938004,37.293999L228.938004,36.804001L230.225998,36.804001L230.225998,38.526001C230.225998,39.422001,230.449997,39.646,231.346001,39.646C231.514,39.646,232.52200299999998,39.646,232.704002,39.646L232.844002,39.646L232.844002,40.989999999999995L226.54399899999999,40.989999999999995ZM226.54399899999999,39.617999999999995L226.54399899999999,36.804001L228.098,36.804001L228.098,37.279999000000004C228.098,38.035999000000004,227.804001,38.917998999999995,226.54399899999999,39.617999999999995ZM231.066002,36.804001L232.844002,36.804001L232.844002,38.75C232.816002,38.778,232.760002,38.792,232.578003,38.792C232.367996,38.792,231.584,38.792,231.44400000000002,38.792C231.108002,38.792,231.066002,38.75,231.066002,38.511999L231.066002,36.804001ZM238.31800099999998,36.439999L245.667999,36.439999L245.667999,37.784L238.31800099999998,37.784L238.31800099999998,36.439999ZM238.31800099999998,34.311999L245.667999,34.311999L245.667999,35.641999999999996L238.31800099999998,35.641999999999996L238.31800099999998,34.311999ZM236.008003,39.632000000000005L236.008003,40.556L239.283997,40.556C238.514,42.096001,237.029999,43.271999,235.475998,43.846001C235.685997,44.056,235.966003,44.462,236.092003,44.714000999999996C238.066002,43.874001,239.844002,42.25,240.627998,39.855999L239.970001,39.576L239.788002,39.632000000000005L236.008003,39.632000000000005ZM241.39800300000002,32.17C241.286003,32.547999000000004,241.048004,33.038,240.809998,33.472L237.281998,33.472L237.281998,38.638000000000005L241.454002,38.638000000000005L241.454002,43.902C241.454002,44.098,241.39800300000002,44.153999,241.16000400000001,44.167998999999995C240.921997,44.181999000000005,240.138,44.181999000000005,239.283997,44.139999C239.438004,44.448,239.578003,44.84,239.634003,45.120001C240.711998,45.120001,241.468002,45.120001,241.916,44.966C242.36399799999998,44.812,242.503998,44.532,242.503998,43.916L242.503998,40.625999C243.75,42.544001,245.57,43.972,247.85199699999998,44.658001C248.00599699999998,44.378,248.300003,43.958,248.538002,43.733999C246.942001,43.341999,245.55599999999998,42.558001000000004,244.464005,41.535999000000004C245.458,40.962,246.64800300000002,40.164,247.571999,39.422001L246.67600299999998,38.763999999999996C245.961998,39.436001000000005,244.828003,40.304001,243.862,40.92C243.30200200000002,40.275999,242.854004,39.562,242.503998,38.806L242.503998,38.638000000000005L246.746002,38.638000000000005L246.746002,33.472L241.97199999999998,33.472L242.629997,32.38L241.39800300000002,32.17ZM251.422,32.282C251.002,33.584,250.274002,34.844,249.44799799999998,35.67C249.615997,35.894,249.896004,36.425999000000004,249.99400300000002,36.65C250.470001,36.16,250.93199900000002,35.53,251.324,34.844L254.54399999999998,34.844L254.54399999999998,33.835999L251.856,33.835999C252.05200000000002,33.415999,252.22,32.981999,252.374,32.547999000000004L251.422,32.282ZM251.702,45.021999C251.912,44.798,252.29000000000002,44.587998999999996,254.628,43.370001C254.558,43.16,254.474,42.754000000000005,254.446,42.473999L252.79399999999998,43.271999L252.79399999999998,40.15L254.684,40.15L254.684,39.184L252.79399999999998,39.184L252.79399999999998,37.293999L254.362,37.293999L254.362,36.341999L250.554001,36.341999L250.554001,37.293999L251.8,37.293999L251.8,39.184L249.83999599999999,39.184L249.83999599999999,40.15L251.8,40.15L251.8,43.216C251.8,43.761999,251.49200000000002,44,251.25400000000002,44.111999999999995C251.422,44.336,251.632,44.769999999999996,251.702,45.021999ZM255.01999999999998,32.981999L255.01999999999998,45.106001L256,45.106001L256,33.92L261.012,33.92L261.012,43.719999C261.012,43.93,260.928,44,260.73199999999997,44C260.536,44,259.878,44.013999999999996,259.15,43.986000000000004C259.29,44.238001,259.444,44.672001,259.486,44.924C260.494,44.924,261.096,44.91,261.474,44.742001C261.852,44.573999,261.992,44.294001,261.992,43.733999L261.992,32.981999L255.01999999999998,32.981999ZM259.514,34.438C259.234,35.572,258.91200000000003,36.705999,258.534,37.798C258.058,36.93,257.554,36.076,257.078,35.292L256.336,35.684C256.924,36.664,257.554,37.798,258.11400000000003,38.917998999999995C257.526,40.444,256.826,41.83,256.07,42.893999C256.294,43.019999999999996,256.7,43.271999,256.854,43.412001000000004C257.498,42.445999,258.1,41.269999999999996,258.632,39.968C259.108,40.948,259.514,41.885999999999996,259.78,42.641999999999996L260.578,42.208C260.256,41.269999999999996,259.71,40.08,259.08,38.848C259.584,37.489999999999995,260.01800000000003,36.048,260.396,34.606L259.514,34.438ZM265.576,32.268C265.128,33.584,264.33,34.83,263.448,35.656C263.63,35.88,263.90999999999997,36.425999000000004,263.994,36.635999999999996C264.512,36.146,265.002,35.516,265.422,34.816L269.02,34.816L269.02,33.808L265.98199999999997,33.808C266.192,33.401999,266.374,32.967999,266.528,32.547999000000004L265.576,32.268ZM263.826,39.184L263.826,40.15L265.954,40.15L265.954,43.048C265.954,43.635999999999996,265.562,43.972,265.296,44.111999999999995C265.478,44.336,265.73,44.784,265.81399999999996,45.049999C266.052,44.812,266.444,44.587998999999996,269.048,43.188C268.978,42.978001,268.88,42.572001,268.83799999999997,42.292L266.962,43.243999L266.962,40.15L269.006,40.15L269.006,39.184L266.962,39.184L266.962,37.293999L268.656,37.293999L268.656,36.341999L264.526,36.341999L264.526,37.293999L265.954,37.293999L265.954,39.184L263.826,39.184ZM272.26800000000003,32.309999L272.26800000000003,34.759999L270.854,34.759999C270.98,34.172,271.106,33.57,271.19,32.954L270.196,32.799999C269.986,34.466,269.58,36.104,268.922,37.195999C269.15999999999997,37.307998999999995,269.594,37.559999000000005,269.79,37.714000999999996C270.098,37.167998999999995,270.378,36.482,270.602,35.726L272.26800000000003,35.726L272.26800000000003,36.608000000000004C272.26800000000003,37.195999,272.26800000000003,37.84,272.198,38.497999L269.258,38.497999L269.258,39.506001L272.058,39.506001C271.736,41.242001,270.882,43.034,268.698,44.336C268.95,44.532,269.3,44.896,269.454,45.106001C271.31600000000003,43.888000000000005,272.296,42.334,272.786,40.751999C273.402,42.67,274.354,44.209998999999996,275.796,45.063998999999995C275.95,44.784,276.272,44.406,276.51,44.195999C274.928,43.370001,273.906,41.619999,273.38800000000003,39.506001L276.342,39.506001L276.342,38.497999L273.234,38.497999C273.29,37.84,273.304,37.209998999999996,273.304,36.608000000000004L273.304,35.726L276.006,35.726L276.006,34.759999L273.304,34.759999L273.304,32.309999L272.26800000000003,32.309999ZM280.82201,44.784L281.774,43.972C280.90601000000004,42.950001,279.64599999999996,41.676001,278.63800000000003,40.864000000000004L277.728,41.662001000000004C278.722,42.473999,279.92599,43.677999,280.82201,44.784ZM297.244,32.184C297.076,32.856,296.754,33.766,296.46001,34.480000000000004L293.01601,34.480000000000004L293.01601,45.120001L294.06599,45.120001L294.06599,44.098L301.91999999999996,44.098L301.91999999999996,45.049999L303.01198999999997,45.049999L303.01198999999997,34.480000000000004L297.62199,34.480000000000004C297.92999,33.849999,298.26601,33.108000000000004,298.54601,32.422L297.244,32.184ZM294.06599,43.048L294.06599,39.771999L301.91999999999996,39.771999L301.91999999999996,43.048L294.06599,43.048ZM294.06599,38.736000000000004L294.06599,35.544L301.91999999999996,35.544L301.91999999999996,38.736000000000004L294.06599,38.736000000000004ZM316.606,36.355999L316.606,38.063998999999995L312.504,38.063998999999995L312.504,36.355999L316.606,36.355999ZM316.606,35.474000000000004L312.504,35.474000000000004L312.504,33.78L316.606,33.78L316.606,35.474000000000004ZM311.44,45.120001C311.70599000000004,44.938,312.14,44.784,315.03799000000004,44C314.996,43.775999,314.98199,43.341999,314.98199,43.048L312.504,43.65L312.504,38.987999L313.778,38.987999C314.45,41.788,315.724,43.958,317.88,45.021999C318.034,44.728001,318.328,44.322001,318.56599,44.111999999999995C317.474,43.65,316.592,42.865999,315.91999999999996,41.872C316.69,41.424,317.61400000000003,40.794001,318.31399999999996,40.205999L317.642,39.464000999999996C317.09601,39.995999999999995,316.214,40.653999,315.48599,41.143999C315.13599999999997,40.486000000000004,314.856,39.757999,314.64599999999996,38.987999L317.57201,38.987999L317.57201,32.856L311.48199,32.856L311.48199,43.257999C311.48199,43.846001,311.188,44.125999,310.964,44.252001C311.118,44.462,311.356,44.882000000000005,311.44,45.120001ZM307.49199999999996,32.282C307.07201,33.584,306.31599,34.844,305.476,35.67C305.644,35.894,305.924,36.425999000000004,306.022,36.65C306.51198999999997,36.16,306.974,35.53,307.38,34.844L310.66999999999996,34.844L310.66999999999996,33.835999L307.91200000000003,33.835999C308.12199,33.415999,308.28999,32.981999,308.44399999999996,32.547999000000004L307.49199999999996,32.282ZM307.674,45.021999C307.92599,44.784,308.31799,44.559999000000005,310.95,43.188C310.88,42.978001,310.79601,42.572001,310.76801,42.292L308.78,43.257999L308.78,40.15L310.79601,40.15L310.79601,39.184L308.78,39.184L308.78,37.293999L310.48801000000003,37.293999L310.48801000000003,36.341999L306.53999,36.341999L306.53999,37.293999L307.772,37.293999L307.772,39.184L305.812,39.184L305.812,40.15L307.772,40.15L307.772,43.216C307.772,43.761999,307.464,44,307.24001,44.111999999999995C307.408,44.336,307.618,44.769999999999996,307.674,45.021999ZM324.474,32.24C324.30600000000004,32.842,324.11,33.457999,323.858,34.059999L319.882,34.059999L319.882,35.04L323.424,35.04C322.528,36.888000000000005,321.24001,38.596001,319.56,39.743999C319.756,39.940000999999995,320.092,40.318000999999995,320.23199,40.556C321.11400000000003,39.925999000000004,321.89799,39.17,322.57001,38.316L322.57001,45.106001L323.606,45.106001L323.606,42.334L329.472,42.334L329.472,43.790001000000004C329.472,44,329.40201,44.084,329.164,44.084C328.89799,44.098,328.04400999999996,44.111999999999995,327.12,44.07C327.25999,44.364000000000004,327.414,44.798,327.47,45.077999C328.674,45.077999,329.44399999999996,45.077999,329.90601000000004,44.924C330.368,44.742001,330.50800000000004,44.42,330.50800000000004,43.804001L330.50800000000004,36.664L323.70399,36.664C324.026,36.132000000000005,324.30600000000004,35.599999,324.558,35.04L332.14599999999996,35.04L332.14599999999996,34.059999L324.978,34.059999C325.188,33.542,325.37,33.009999,325.53799000000004,32.492000000000004L324.474,32.24ZM323.606,39.954L329.472,39.954L329.472,41.424L323.606,41.424L323.606,39.954ZM323.606,39.057998999999995L323.606,37.615999L329.472,37.615999L329.472,39.057998999999995L323.606,39.057998999999995ZM339.63599999999997,37.111999999999995L339.63599999999997,39.534L336.40199,39.534L336.40199,37.111999999999995L339.63599999999997,37.111999999999995ZM340.658,37.111999999999995L344.004,37.111999999999995L344.004,39.534L340.658,39.534L340.658,37.111999999999995ZM341.37199,34.41C340.966,34.998,340.43401,35.641999999999996,339.916,36.117999999999995L336.20599000000004,36.117999999999995C336.752,35.585999,337.256,35.012,337.71799999999996,34.41L341.37199,34.41ZM337.95599000000004,32.198C336.976,34.087998999999996,335.26801,35.782,333.54601,36.846001C333.74199999999996,37.07,334.036,37.601999,334.134,37.826C334.554,37.546,334.974,37.223999,335.38,36.874001L335.38,42.865999C335.38,44.504000000000005,336.06599,44.882000000000005,338.29201,44.882000000000005C338.79601,44.882000000000005,343.14999,44.882000000000005,343.71001,44.882000000000005C345.79601,44.882000000000005,346.23,44.252001,346.48199,42.068000999999995C346.174,42.011999,345.74001,41.844,345.46001,41.676001C345.30600000000004,43.524,345.082,43.916,343.696,43.916C342.744,43.916,338.964,43.916,338.222,43.916C336.68201,43.916,336.40199,43.719999,336.40199,42.879999L336.40199,40.542L344.004,40.542L344.004,41.172001L345.054,41.172001L345.054,36.117999999999995L341.19,36.117999999999995C341.84801,35.446,342.49199999999996,34.634,342.96799999999996,33.891999L342.28200000000004,33.401999L342.07201,33.472L338.36199999999997,33.472C338.558,33.164,338.74001,32.856,338.908,32.547999000000004L337.95599000000004,32.198ZM353.44,39.911999L353.44,40.85L347.756,40.85L347.756,41.732L352.502,41.732C351.158,42.739999999999995,349.142,43.635999999999996,347.40601000000004,44.084C347.644,44.308001000000004,347.938,44.700001,348.106,44.966C349.89799,44.406,351.998,43.341999,353.44,42.110001L353.44,45.106001L354.49001,45.106001L354.49001,42.068000999999995C355.918,43.271999,358.04601,44.322001,359.88,44.854C360.034,44.587998999999996,360.328,44.209998999999996,360.552,43.986000000000004C358.802,43.566,356.81399999999996,42.712,355.47,41.732L360.25800000000004,41.732L360.25800000000004,40.85L354.49001,40.85L354.49001,39.911999L353.44,39.911999ZM353.86,36.271999L353.86,37.195999L350.45801,37.195999L350.45801,36.271999L353.86,36.271999ZM353.53799000000004,32.464C353.76198999999997,32.842,354,33.318,354.168,33.724000000000004L351.004,33.724000000000004C351.298,33.29,351.56399999999996,32.842,351.802,32.422L350.71001,32.212C350.09398999999996,33.443999,348.96001,35.012,347.41999999999996,36.188C347.658,36.327999,348.00800000000004,36.635999999999996,348.19,36.860001C348.62399,36.495999999999995,349.03,36.117999999999995,349.408,35.726L349.408,40.205999L350.45801,40.205999L350.45801,39.757999L359.866,39.757999L359.866,38.917998999999995L354.868,38.917998999999995L354.868,37.952L358.88599999999997,37.952L358.88599999999997,37.195999L354.868,37.195999L354.868,36.271999L358.84398999999996,36.271999L358.84398999999996,35.516L354.868,35.516L354.868,34.592L359.418,34.592L359.418,33.724000000000004L355.274,33.724000000000004C355.092,33.275999999999996,354.784,32.66,354.476,32.198L353.53799000000004,32.464ZM353.86,35.516L350.45801,35.516L350.45801,34.592L353.86,34.592L353.86,35.516ZM353.86,37.952L353.86,38.917998999999995L350.45801,38.917998999999995L350.45801,37.952L353.86,37.952ZM362.17599,32.856L362.17599,45.120001L363.254,45.120001L363.254,44.532L372.70399,44.532L372.70399,45.120001L373.82401,45.120001L373.82401,32.856L362.17599,32.856ZM363.254,43.58L363.254,33.822L372.70399,33.822L372.70399,43.58L363.254,43.58ZM368.7,34.41L368.7,36.202L364.17799,36.202L364.17799,37.139999L368.36400000000003,37.139999C367.23,38.68,365.522,40.066,363.96799999999996,40.92C364.20599000000004,41.115999,364.5,41.438,364.64,41.633999C366.03999,40.85,367.524,39.674,368.7,38.344L368.7,41.605999C368.7,41.774,368.658,41.816,368.46200999999996,41.816C368.28,41.83,367.692,41.83,367.048,41.816C367.188,42.082001000000005,367.342,42.487999,367.39799,42.768C368.308,42.768,368.868,42.754000000000005,369.23199,42.586C369.61,42.431999000000005,369.722,42.152,369.722,41.605999L369.722,37.139999L371.892,37.139999L371.892,36.202L369.722,36.202L369.722,34.41L368.7,34.41ZM378.82201,44.784L379.774,43.972C378.90601000000004,42.950001,377.64599999999996,41.676001,376.63800000000003,40.864000000000004L375.728,41.662001000000004C376.722,42.473999,377.92599,43.677999,378.82201,44.784ZM389.826,33.15L389.826,34.172L393.98399,34.172L393.98399,36.202L390.582,36.202L390.582,45.063998999999995L391.60400000000004,45.063998999999995L391.60400000000004,44.195999L400.466,44.195999L400.466,45.021999L401.51601,45.021999L401.51601,36.202L397.974,36.202L397.974,34.172L402.14599999999996,34.172L402.14599999999996,33.15L389.826,33.15ZM391.60400000000004,43.216L391.60400000000004,40.584C391.786,40.737999,392.108,41.129999,392.22,41.34C394.32001,40.290001000000004,394.85201,38.666,394.922,37.167998999999995L396.952,37.167998999999995L396.952,39.379999C396.952,40.513999999999996,397.23199,40.808001000000004,398.38,40.808001000000004C398.618,40.808001000000004,400.03200000000004,40.808001000000004,400.284,40.808001000000004L400.466,40.808001000000004L400.466,43.216L391.60400000000004,43.216ZM391.60400000000004,40.556L391.60400000000004,37.167998999999995L393.97,37.167998999999995C393.89999,38.4,393.466,39.66,391.60400000000004,40.556ZM394.93600000000004,36.202L394.93600000000004,34.172L396.952,34.172L396.952,36.202L394.93600000000004,36.202ZM397.974,37.167998999999995L400.466,37.167998999999995L400.466,39.785999000000004C400.438,39.813998999999995,400.35400000000004,39.813998999999995,400.18600000000004,39.813998999999995C399.892,39.813998999999995,398.716,39.813998999999995,398.506,39.813998999999995C398.01601,39.813998999999995,397.974,39.757999,397.974,39.379999L397.974,37.167998999999995ZM403.476,42.292L403.952,43.327999C404.974,42.908001,406.248,42.375999,407.508,41.83L407.508,44.993999L408.57199,44.993999L408.57199,32.492000000000004L407.508,32.492000000000004L407.508,35.796L403.89599999999996,35.796L403.89599999999996,36.846001L407.508,36.846001L407.508,40.780001C405.996,41.354,404.498,41.941998999999996,403.476,42.292ZM415.474,34.647999999999996C414.62,35.446,413.30399,36.383999,412.00201,37.167998999999995L412.00201,32.506L410.91,32.506L410.91,42.879999C410.91,44.378,411.302,44.798,412.61801,44.798C412.89801,44.798,414.578,44.798,414.87201,44.798C416.24399,44.798,416.52399,43.888000000000005,416.63599,41.34C416.34201,41.269999999999996,415.90799,41.059999000000005,415.642,40.836C415.54401,43.16,415.44601,43.775999,414.78799,43.775999C414.42401,43.775999,413.02399,43.775999,412.73001,43.775999C412.11401,43.775999,412.00201,43.635999999999996,412.00201,42.893999L412.00201,38.260000000000005C413.48599,37.434,415.082,36.482,416.258,35.572L415.474,34.647999999999996ZM424.43399,33.78L428.38199,33.78L428.38199,36.635999999999996L424.43399,36.635999999999996L424.43399,33.78ZM423.44,32.828L423.44,37.587998999999996L429.43201,37.587998999999996L429.43201,32.828L423.44,32.828ZM423.01999,39.296L423.01999,45.091999L424.02802,45.091999L424.02802,44.364000000000004L428.84399,44.364000000000004L428.84399,45.007999L429.89401,45.007999L429.89401,39.296L423.01999,39.296ZM424.02802,43.398001L424.02802,40.261999L428.84399,40.261999L428.84399,43.398001L424.02802,43.398001ZM419.56201,32.268C419.11401,33.584,418.34399,34.83,417.47601,35.656C417.64401,35.894,417.92401,36.411999,418.008,36.635999999999996C418.49799,36.146,418.974,35.516,419.39401,34.83L422.51599,34.83L422.51599,33.835999L419.95401,33.835999C420.14999,33.415999,420.34601,32.981999,420.5,32.547999000000004L419.56201,32.268ZM417.854,39.184L417.854,40.15L419.79999,40.15L419.79999,42.922001C419.79999,43.608000000000004,419.33801,44.084,419.086,44.280001C419.254,44.448,419.534,44.812,419.63199,45.021999C419.85599,44.769999999999996,420.22,44.504000000000005,422.57199,42.992001C422.474,42.796,422.34799,42.389999,422.29199,42.110001L420.76599,43.034L420.76599,40.15L422.44601,40.15L422.44601,39.184L420.76599,39.184L420.76599,37.293999L422.20801,37.293999L422.20801,36.341999L418.51199,36.341999L418.51199,37.293999L419.79999,37.293999L419.79999,39.184L417.854,39.184ZM442.95599,35.502C442.396,37.042,441.40201,39.086,440.63199,40.360001L441.5,40.808001000000004C442.284,39.506001,443.23599,37.573999,443.90799,35.95L442.95599,35.502ZM432.14801,35.754C432.89001,37.322001,433.716,39.464000999999996,434.06601,40.695999L435.116,40.304001C434.724,39.072001,433.85599,37.013999999999996,433.12799,35.46L432.14801,35.754ZM439.19,32.422L439.19,43.356001L436.83801,43.356001L436.83801,32.408L435.76001,32.408L435.76001,43.356001L431.84,43.356001L431.84,44.391999999999996L444.202,44.391999999999996L444.202,43.356001L440.254,43.356001L440.254,32.422L439.19,32.422ZM448.82199,44.784L449.77399,43.972C448.90601,42.950001,447.646,41.676001,446.638,40.864000000000004L445.728,41.662001000000004C446.72198,42.473999,447.92599,43.677999,448.82199,44.784ZM461.96799,32.716C462.59799,33.486000000000004,463.298,34.549999,463.59201,35.222L464.53,34.717999C464.22198,34.046,463.48001,33.038,462.836,32.282L461.96799,32.716ZM461.086,39.254000000000005L461.086,40.304001L470.70401,40.304001L470.70401,39.254000000000005L461.086,39.254000000000005ZM459.76999,43.370001L459.76999,44.406L472.17401,44.406L472.17401,43.370001L459.76999,43.370001ZM460.32999,35.403999L460.32999,36.439999L471.68399,36.439999L471.68399,35.403999L468.29599,35.403999C468.884,34.592,469.57001,33.513999999999996,470.10199,32.589999L469.02399,32.24C468.59,33.205999,467.806,34.535999000000004,467.16199,35.403999L460.32999,35.403999ZM476.30399,32.478L476.30399,36.818000999999995C476.30399,39.394001,476.06601,42.194,473.784,44.294001C474.022,44.476,474.38599,44.854,474.54001,45.091999C477.06,42.796,477.354,39.702,477.354,36.818000999999995L477.354,32.478L476.30399,32.478ZM480.30801,32.785999000000004L480.30801,44.153999L481.34399,44.153999L481.34399,32.785999000000004L480.30801,32.785999000000004ZM484.48001,32.436L484.48001,44.952L485.53,44.952L485.53,32.436L484.48001,32.436ZM474.73599,35.698C474.51199,36.916,474.04999,38.427999,473.40601,39.394001L474.31601,39.785999000000004C474.94601,38.806,475.366,37.195999,475.63199,35.95L474.73599,35.698ZM477.69,36.243999C478.17999,37.391999999999996,478.62799,38.889999,478.754,39.799999L479.67801,39.408001C479.53799,38.511999,479.06201,37.056,478.55801,35.922L477.69,36.243999ZM481.65201,36.188C482.29599,37.293999,482.94,38.778,483.17801,39.688L484.06,39.226C483.82199,38.316,483.13599,36.874001,482.46399,35.796L481.65201,36.188ZM489.96799,32.716C490.59799,33.486000000000004,491.298,34.549999,491.59201,35.222L492.53,34.717999C492.22198,34.046,491.48001,33.038,490.836,32.282L489.96799,32.716ZM489.086,39.254000000000005L489.086,40.304001L498.70401,40.304001L498.70401,39.254000000000005L489.086,39.254000000000005ZM487.76999,43.370001L487.76999,44.406L500.17401,44.406L500.17401,43.370001L487.76999,43.370001ZM488.32999,35.403999L488.32999,36.439999L499.68399,36.439999L499.68399,35.403999L496.29599,35.403999C496.884,34.592,497.57001,33.513999999999996,498.10199,32.589999L497.02399,32.24C496.59,33.205999,495.806,34.535999000000004,495.16199,35.403999L488.32999,35.403999ZM501.92401,33.304L501.92401,34.325998999999996L505.94199,34.325998999999996C505.10199,36.832001000000005,503.548,39.478001,501.35001,41.115999C501.57401,41.312,501.91,41.690000999999995,502.078,41.914C502.95999,41.256001,503.73001,40.444,504.41599,39.534L504.41599,45.120001L505.48001,45.120001L505.48001,44.139999L512.14401,44.139999L512.14401,45.091999L513.26401,45.091999L513.26401,38.007999L505.43799,38.007999C506.138,36.832001000000005,506.71201,35.572,507.146,34.325998999999996L514.104,34.325998999999996L514.104,33.304L501.92401,33.304ZM505.48001,43.132000000000005L505.48001,39.015999L512.14401,39.015999L512.14401,43.132000000000005L505.48001,43.132000000000005ZM521.44,39.911999L521.44,40.85L515.7560100000001,40.85L515.7560100000001,41.732L520.5020099999999,41.732C519.1579899999999,42.739999999999995,517.142,43.635999999999996,515.4060099999999,44.084C515.64401,44.308001000000004,515.93799,44.700001,516.10599,44.966C517.89801,44.406,519.9979900000001,43.341999,521.44,42.110001L521.44,45.106001L522.48999,45.106001L522.48999,42.068000999999995C523.918,43.271999,526.0459900000001,44.322001,527.88,44.854C528.034,44.587998999999996,528.328,44.209998999999996,528.552,43.986000000000004C526.802,43.566,524.8140000000001,42.712,523.47,41.732L528.258,41.732L528.258,40.85L522.48999,40.85L522.48999,39.911999L521.44,39.911999ZM521.8599899999999,36.271999L521.8599899999999,37.195999L518.4580100000001,37.195999L518.4580100000001,36.271999L521.8599899999999,36.271999ZM521.53799,32.464C521.76199,32.842,522,33.318,522.168,33.724000000000004L519.004,33.724000000000004C519.298,33.29,519.5640000000001,32.842,519.802,32.422L518.7099900000001,32.212C518.0939900000001,33.443999,516.9599900000001,35.012,515.42001,36.188C515.6579899999999,36.327999,516.008,36.635999999999996,516.19,36.860001C516.62399,36.495999999999995,517.03,36.117999999999995,517.4079899999999,35.726L517.4079899999999,40.205999L518.4580100000001,40.205999L518.4580100000001,39.757999L527.866,39.757999L527.866,38.917998999999995L522.86801,38.917998999999995L522.86801,37.952L526.88599,37.952L526.88599,37.195999L522.86801,37.195999L522.86801,36.271999L526.8439900000001,36.271999L526.8439900000001,35.516L522.86801,35.516L522.86801,34.592L527.418,34.592L527.418,33.724000000000004L523.27399,33.724000000000004C523.0920100000001,33.275999999999996,522.784,32.66,522.47601,32.198L521.53799,32.464ZM521.8599899999999,35.516L518.4580100000001,35.516L518.4580100000001,34.592L521.8599899999999,34.592L521.8599899999999,35.516ZM521.8599899999999,37.952L521.8599899999999,38.917998999999995L518.4580100000001,38.917998999999995L518.4580100000001,37.952L521.8599899999999,37.952ZM530.17599,32.856L530.17599,45.120001L531.254,45.120001L531.254,44.532L540.7040099999999,44.532L540.7040099999999,45.120001L541.82401,45.120001L541.82401,32.856L530.17599,32.856ZM531.254,43.58L531.254,33.822L540.7040099999999,33.822L540.7040099999999,43.58L531.254,43.58ZM536.70001,34.41L536.70001,36.202L532.17801,36.202L532.17801,37.139999L536.36401,37.139999C535.23001,38.68,533.5219999999999,40.066,531.96799,40.92C532.2059899999999,41.115999,532.5,41.438,532.6400100000001,41.633999C534.0400099999999,40.85,535.52399,39.674,536.70001,38.344L536.70001,41.605999C536.70001,41.774,536.6579899999999,41.816,536.46201,41.816C536.28,41.83,535.69199,41.83,535.048,41.816C535.18799,42.082001000000005,535.3420100000001,42.487999,535.39801,42.768C536.30801,42.768,536.86801,42.754000000000005,537.23199,42.586C537.6099899999999,42.431999000000005,537.72198,42.152,537.72198,41.605999L537.72198,37.139999L539.892,37.139999L539.892,36.202L537.72198,36.202L537.72198,34.41L536.70001,34.41ZM546.82199,44.784L547.77399,43.972C546.9060099999999,42.950001,545.646,41.676001,544.6379999999999,40.864000000000004L543.7280000000001,41.662001000000004C544.72198,42.473999,545.92599,43.677999,546.82199,44.784ZM563.4119900000001,32.24L563.4119900000001,34.745999L558.3439900000001,34.745999L558.3439900000001,41.396L559.39401,41.396L559.39401,40.528L563.4119900000001,40.528L563.4119900000001,45.106001L564.51801,45.106001L564.51801,40.528L568.54999,40.528L568.54999,41.326L569.62799,41.326L569.62799,34.745999L564.51801,34.745999L564.51801,32.24L563.4119900000001,32.24ZM559.39401,39.492001L559.39401,35.768L563.4119900000001,35.768L563.4119900000001,39.492001L559.39401,39.492001ZM568.54999,39.492001L564.51801,39.492001L564.51801,35.768L568.54999,35.768L568.54999,39.492001ZM583.01199,38.82C581.80801,41.186001000000005,579.12,43.216,575.87201,44.266001C576.06799,44.476,576.3620000000001,44.882000000000005,576.48801,45.134001C578.23801,44.518,579.82001,43.664,581.13599,42.614000000000004C582.07401,43.384001,583.1379999999999,44.35,583.68399,44.980000000000004L584.48199,44.266001C583.922,43.635999999999996,582.82999,42.712,581.87799,41.969999C582.77399,41.143999,583.53,40.219999,584.104,39.212L583.01199,38.82ZM579.582,32.492000000000004C579.87601,33.009999,580.142,33.653999,580.28201,34.158L576.61401,34.158L576.61401,35.124L579.28799,35.124C578.81201,35.936,578.02802,37.209998999999996,577.7479900000001,37.504000000000005C577.52399,37.742001,577.13199,37.84,576.8380099999999,37.896C576.9359999999999,38.133999,577.104,38.652,577.146,38.903999C577.4119900000001,38.806,577.81799,38.722,580.3380099999999,38.554001C579.28799,39.617999999999995,577.98599,40.556,576.57199,41.200001C576.76801,41.396,577.048,41.774,577.17401,41.997999C579.6379999999999,40.808001000000004,581.78,38.806,582.98401,36.65L581.98999,36.313998999999995C581.76599,36.761999,581.47198,37.195999,581.13599,37.629999L578.76999,37.756001C579.27399,36.986000000000004,579.94601,35.908,580.422,35.124L584.39801,35.124L584.39801,34.158L581.19199,34.158L581.3879999999999,34.087998999999996C581.2760000000001,33.57,580.9119900000001,32.771999,580.56201,32.184L579.582,32.492000000000004ZM573.68799,32.24L573.68799,34.941998999999996L571.81201,34.941998999999996L571.81201,35.922L573.63199,35.922C573.198,37.84,572.32999,40.066,571.46201,41.242001C571.64401,41.493999,571.9100000000001,41.955999,572.0219999999999,42.263999999999996C572.62399,41.367999999999995,573.22601,39.940000999999995,573.68799,38.441998999999996L573.68799,45.106001L574.69601,45.106001L574.69601,37.769999999999996C575.07401,38.469999,575.508,39.296,575.7040099999999,39.730000000000004L576.34799,38.987999C576.09601,38.582001000000005,575.07401,36.986000000000004,574.69601,36.495999999999995L574.69601,35.922L576.27802,35.922L576.27802,34.941998999999996L574.69601,34.941998999999996L574.69601,32.24L573.68799,32.24ZM589.76001,44L590.96399,44L590.96399,41.172001L592.336,41.172001L592.336,40.15L590.96399,40.15L590.96399,33.738L589.54999,33.738L585.28,40.332001000000005L585.28,41.172001L589.76001,41.172001L589.76001,44ZM589.76001,40.15L586.6099899999999,40.15L588.948,36.65C589.242,36.146,589.5219999999999,35.627999,589.77399,35.138L589.82999,35.138C589.802,35.656,589.76001,36.495999999999995,589.76001,37L589.76001,40.15ZM596.6619900000001,44.181999000000005C598.608,44.181999000000005,599.854,42.417998999999995,599.854,38.834C599.854,35.278,598.608,33.556,596.6619900000001,33.556C594.702,33.556,593.47,35.278,593.47,38.834C593.47,42.417998999999995,594.702,44.181999000000005,596.6619900000001,44.181999000000005ZM596.6619900000001,43.146C595.5,43.146,594.702,41.844,594.702,38.834C594.702,35.837998999999996,595.5,34.564,596.6619900000001,34.564C597.8239699999999,34.564,598.62198,35.837998999999996,598.62198,38.834C598.62198,41.844,597.8239699999999,43.146,596.6619900000001,43.146ZM605.29999,44L606.50397,44L606.50397,41.172001L607.87598,41.172001L607.87598,40.15L606.50397,40.15L606.50397,33.738L605.08997,33.738L600.81998,40.332001000000005L600.81998,41.172001L605.29999,41.172001L605.29999,44ZM605.29999,40.15L602.14996,40.15L604.48798,36.65C604.78198,36.146,605.06198,35.627999,605.31396,35.138L605.36996,35.138C605.3419799999999,35.656,605.29999,36.495999999999995,605.29999,37L605.29999,40.15ZM616.40198,32.17C615.9959699999999,33.36,615.23996,34.480000000000004,614.37198,35.208L614.7499700000001,35.446L614.7499700000001,36.411999L610.36798,36.411999L610.36798,37.293999L614.7499700000001,37.293999L614.7499700000001,38.554001L608.9819600000001,38.554001L608.9819600000001,39.478001L617.61996,39.478001L617.61996,40.709998999999996L609.4299599999999,40.709998999999996L609.4299599999999,41.633999L617.61996,41.633999L617.61996,43.860001C617.61996,44.056,617.54996,44.111999999999995,617.2979700000001,44.125999C617.0459599999999,44.139999,616.21997,44.139999,615.26797,44.111999999999995C615.42197,44.391999999999996,615.60397,44.812,615.6599699999999,45.106001C616.80795,45.106001,617.5919799999999,45.091999,618.0679600000001,44.952C618.5439799999999,44.784,618.6839600000001,44.489999999999995,618.6839600000001,43.874001L618.6839600000001,41.633999L621.3159800000001,41.633999L621.3159800000001,40.709998999999996L618.6839600000001,40.709998999999996L618.6839600000001,39.478001L621.69397,39.478001L621.69397,38.554001L615.82797,38.554001L615.82797,37.293999L620.3639499999999,37.293999L620.3639499999999,36.411999L615.82797,36.411999L615.82797,35.446L615.60397,35.446C615.91196,35.11,616.20596,34.731999,616.47195,34.311999L617.42398,34.311999C617.8439599999999,34.858000000000004,618.2499700000001,35.516,618.41797,35.978L619.32797,35.585999C619.17398,35.222,618.87997,34.759999,618.55795,34.311999L621.53998,34.311999L621.53998,33.415999L616.97595,33.415999C617.14398,33.094,617.28397,32.757999,617.4099699999999,32.408L616.40198,32.17ZM611.4319800000001,42.236000000000004C612.3419799999999,42.837998999999996,613.34998,43.733999,613.81198,44.391999999999996L614.62396,43.733999C614.14798,43.076,613.1119699999999,42.208,612.2019700000001,41.633999L611.4319800000001,42.236000000000004ZM610.9139700000001,32.17C610.43796,33.415999,609.65396,34.634,608.77197,35.46C609.02396,35.585999,609.45798,35.88,609.65396,36.048C610.1159700000001,35.585999,610.56396,34.983999,610.98398,34.311999L611.5439799999999,34.311999C611.80997,34.858000000000004,612.06198,35.488,612.14597,35.908L613.08395,35.558C612.9999700000001,35.236000000000004,612.80396,34.759999,612.5939599999999,34.311999L615.14197,34.311999L615.14197,33.415999L611.47397,33.415999C611.62796,33.094,611.78198,32.771999,611.90796,32.436L610.9139700000001,32.17ZM625.80997,37.195999C626.36996,37.195999,626.87396,36.790001000000004,626.87396,36.16C626.87396,35.516,626.36996,35.096000000000004,625.80997,35.096000000000004C625.2499700000001,35.096000000000004,624.7459699999999,35.516,624.7459699999999,36.16C624.7459699999999,36.790001000000004,625.2499700000001,37.195999,625.80997,37.195999ZM624.67596,46.254000000000005C626.17398,45.68,627.0979600000001,44.504000000000005,627.0979600000001,42.879999C627.0979600000001,41.83,626.6639700000001,41.172001,625.89398,41.172001C625.33395,41.172001,624.82996,41.521999,624.82996,42.18C624.82996,42.851999,625.30597,43.188,625.87997,43.188L626.1319599999999,43.16C626.08997,44.266001,625.48798,45.007999,624.35397,45.526001L624.67596,46.254000000000005Z" fill="#2F2F2F" fill-opacity="1"/></g><g><rect x="34" y="0" width="105" height="53" rx="10" fill="#0056AD" fill-opacity="1"/></g><g><path d="M76.77,11.7399998L76.77,16.990000000000002L67.32,16.990000000000002L67.32,11.7399998L63.4499998,11.7399998L63.4499998,16.990000000000002L58.11,16.990000000000002L58.11,20.59L63.4499998,20.59L63.4499998,39.700001L67.32,39.700001L67.32,37.870001L76.77,37.870001L76.77,39.459999L80.73,39.459999L80.73,20.59L85.859999,20.59L85.859999,16.990000000000002L80.73,16.990000000000002L80.73,11.7399998L76.77,11.7399998ZM67.32,20.59L76.77,20.59L76.77,25.690001L67.32,25.690001L67.32,20.59ZM67.32,34.299999L67.32,29.200001L76.77,29.200001L76.77,34.299999L67.32,34.299999ZM110.30999800000001,26.23L110.30999800000001,39.400002L113.699997,39.400002L113.699997,26.23L110.30999800000001,26.23ZM91.29000099999999,26.23L91.29000099999999,28.84C91.29000099999999,31.540001,90.93,34.9,87.9,37.540001000000004C88.77,38.02,90.060001,39.040001,90.66,39.700001C94.110001,36.58,94.5,32.35,94.5,28.959999L94.5,26.23L91.29000099999999,26.23ZM96.450001,27.369999C96.18,29.92,95.72999999999999,32.68,94.950001,34.480000000000004C95.700001,34.809999000000005,97.02000000000001,35.440000999999995,97.650002,35.860001C98.489998,33.880001,99.119999,30.790001,99.450001,27.880001L96.450001,27.369999ZM104.610001,27.790001C105.299999,30.220001,105.95999900000001,33.43,106.16999799999999,35.32L109.29000099999999,34.690000999999995C109.049999,32.799999,108.299999,29.68,107.549999,27.280001L104.610001,27.790001ZM109.260002,20.740000000000002L109.260002,22.209999L103.889999,22.209999L103.889999,20.740000000000002L109.260002,20.740000000000002ZM100.259998,11.5L100.259998,13.75L91.5,13.75L91.5,16.690001000000002L100.259998,16.690001000000002L100.259998,18.1L88.620001,18.1L88.620001,20.740000000000002L100.259998,20.740000000000002L100.259998,22.209999L91.5,22.209999L91.5,25.150002L100.259998,25.150002L100.259998,39.490002L103.889999,39.490002L103.889999,25.150002L113.189999,25.150002L113.189999,20.740000000000002L115.68,20.740000000000002L115.68,18.1L113.189999,18.1L113.189999,13.75L103.889999,13.75L103.889999,11.5L100.259998,11.5ZM109.260002,18.1L103.889999,18.1L103.889999,16.690001000000002L109.260002,16.690001000000002L109.260002,18.1Z" fill="#FFFFFF" fill-opacity="1"/></g></g></g></svg>