<svg xmlns="http://www.w3.org/2000/svg" xmlns:xlink="http://www.w3.org/1999/xlink" fill="none" version="1.1" width="181" height="95" viewBox="0 0 181 95"><g><g><path d="M11.305,24.704998L11.305,42.48C11.305,50.129997,10.585,57.555,4.330000200000001,62.82C5.8150001,63.720001,8.1550002,65.834999,9.2350006,67.139999C16.435000000000002,60.84,17.290001,51.614998,17.290001,42.525002L17.290001,24.704998L11.305,24.704998ZM3.7,29.789997L3.7,51.884998L9.5050001,51.884998L9.5050001,29.789997L3.7,29.789997ZM19.135,35.549999L19.135,60.66L25.030001,60.66L25.030001,41.355L28.000002,41.355L28.000002,67.139999L34.120003,67.139999L34.120003,41.355L37.405003,41.355L37.405003,54.584999C37.405003,55.035,37.27,55.169998,36.865002,55.169998C36.505001,55.169998,35.380001,55.169998,34.435001,55.125C35.155003,56.610001,35.920002,59.040001,36.100002,60.705002C38.350002,60.705002,40.105003,60.615002,41.59,59.669998C43.075001,58.724998,43.435001,57.195,43.435001,54.720001L43.435001,35.549999L34.120003,35.549999L34.120003,32.355L44.155003,32.355L44.155003,26.459999L18.190001,26.459999L18.190001,32.355L28.000002,32.355L28.000002,35.549999L19.135,35.549999ZM48.880001,29.744999C51.895,31.049999,55.900002,33.254997,57.790001,34.784996L61.209999,29.924999C59.139999,28.439999,55,26.504997,52.119999,25.379997L48.880001,29.744999ZM65.260002,53.055C63.91,57.599998,61.435001,60.389999,47.080002,61.875C48.16,63.224998,49.510002,65.834999,49.959999,67.364998C66.160004,65.07,70.029999,60.345001,71.650002,53.055L65.260002,53.055ZM68.544998,61.470001C73.764999,62.91,81.235001,65.474998,84.790001,67.139999L88.93,62.009998C84.925003,60.345001,77.275002,58.049999,72.370003,56.924999L68.544998,61.470001ZM47.799999,39.285L49.735001,45.224998C53.514999,43.875,58.105,42.209999,62.290001,40.589996L61.165001,35.055C56.305,36.674999,51.220001,38.339996,47.799999,39.285ZM52.885002,46.080002L52.885002,58.41L59.32,58.41L59.32,51.974998L77.995003,51.974998L77.995003,57.825001L84.790001,57.825001L84.790001,46.080002L65.709999,46.080002C70.705002,44.235001,73.720001,41.805,75.610001,38.970001C78.040001,42.254997,81.279999,44.639999,85.645004,45.989998C86.455002,44.369999,88.120003,42.029999,89.425003,40.860001C84.07,39.779999,80.110001,37.169998,77.995003,33.614998L78.175003,32.939999L81.235001,32.939999C80.919998,34.019997,80.604996,35.009998,80.335007,35.775002L86.095001,37.169998C87.040001,35.055,88.210007,31.904999,89.020004,29.07L84.160004,27.989998L83.125,28.215L71.605003,28.215L72.459999,25.875L66.339996,24.974998C65.395004,28.215,63.415001,31.679998,59.950001,34.244999C60.310001,34.424999,60.715,34.739998,61.165001,35.055C62.380001,36,63.730003,37.349998,64.450001,38.384998C66.43,36.720001,68.005005,34.919998,69.220001,32.939999L71.695,32.939999C70.615005,36.540001,68.275002,39.735001,61.075001,41.805C62.200001,42.794998,63.550003,44.684998,64.224998,46.080002L52.885002,46.080002ZM94.239998,26.234997L94.239998,67.095001L100.404999,67.095001L100.404999,32.040001L104.14,32.040001C103.33,34.964996,102.295,38.519997,101.395,40.994999C104.23,43.830002,104.995,46.619999,104.995,48.509998C104.995,49.77,104.725,50.489998,104.14,50.849998C103.735,51.075001,103.24,51.165001,102.745,51.165001C102.205,51.165001,101.575,51.165001,100.764999,51.119999C101.755,52.785,102.295,55.439999,102.34,57.150002C103.555,57.195,104.77,57.150002,105.715,57.014999C106.84,56.834999,107.875,56.474998,108.73,55.889999C110.485,54.674999,111.25,52.650002,111.25,49.32C111.25,46.799999,110.71,43.650002,107.605,40.23C109.045,36.945,110.665,32.534996,112.015,28.709999L107.335,26.009998L106.345,26.234997L94.239998,26.234997ZM135.41501,62.369999C125.33501,55.035,124.255,41.805,123.895,36.989998C124.12,32.939999,124.165,28.844997,124.21001,24.794998L117.46,24.794998C117.325,39.195,118,53.73,105.715,62.145C107.56,63.404999,109.585,65.519997,110.62,67.230003C115.84,63.404999,119.035,58.455002,121.015,52.875C122.815,58.185001,125.74001,63.584999,130.645,67.410004C131.67999,65.654999,133.52499,63.674999,135.41501,62.369999ZM150.715,59.669998L150.715,65.745003L179.92,65.745003L179.92,59.669998L175.375,59.669998C175.91501,53.775002,176.41,47.43,176.63501,41.939999L171.73,41.625L170.64999,41.849998L165.205,41.849998L166.24001,33.75L178.345,33.75L178.345,27.674999L152.605,27.674999L152.605,33.75L159.535,33.75L158.59,41.849998L152.83,41.849998L152.83,47.924999L157.78,47.924999C157.14999,52.154999,156.52,56.16,155.845,59.669998L150.715,59.669998ZM164.35001,47.924999L169.705,47.924999C169.48,51.525002,169.16501,55.709999,168.80499,59.669998L162.55,59.669998C163.13499,56.205002,163.765,52.154999,164.35001,47.924999ZM146.71001,24.614998C144.505,30.869999,140.67999,37.169998,136.72,41.129997C137.755,42.794998,139.465,46.439999,139.96001,48.059998C140.86,47.114998,141.75999,46.080002,142.61501,44.955002L142.61501,67.275002L148.96001,67.275002L148.96001,34.964996C150.39999,32.174999,151.705,29.294998,152.74001,26.549999L146.71001,24.614998Z" fill="#FFFFFF" fill-opacity="1"/></g><g><g><rect x="0" y="88" width="181" height="7" rx="3.5" fill="#FFFFFF" fill-opacity="1"/></g></g></g></svg>