<svg xmlns="http://www.w3.org/2000/svg" xmlns:xlink="http://www.w3.org/1999/xlink" fill="none" version="1.1" width="680" height="117" viewBox="0 0 680 117"><defs><filter id="master_svg0_70_06898" filterUnits="objectBoundingBox" color-interpolation-filters="sRGB" x="-0.03076923076923077" y="-0.1927710843373494" width="1.0615384615384615" height="1.4819277108433735"><feFlood flood-opacity="0" result="BackgroundImageFix"/><feColorMatrix in="SourceAlpha" type="matrix" values="0 0 0 0 0 0 0 0 0 0 0 0 0 0 0 0 0 0 127 0"/><feOffset dy="4" dx="0"/><feGaussianBlur stdDeviation="5"/><feColorMatrix type="matrix" values="0 0 0 0 0 0 0 0 0 0 0 0 0 0 0 0 0 0 0.10000000149011612 0"/><feBlend mode="normal" in2="BackgroundImageFix" result="effect1_dropShadow"/><feBlend mode="normal" in="SourceGraphic" in2="effect1_dropShadow" result="shape"/></filter></defs><g><g><g filter="url(#master_svg0_70_06898)"><rect x="15" y="15" width="650" height="83" rx="10" fill="#FFFFFF" fill-opacity="1"/></g><g><path d="M244.4120002,32.24L244.4120002,34.745999L239.3440001,34.745999L239.3440001,41.396L240.3940001,41.396L240.3940001,40.528L244.4120002,40.528L244.4120002,45.106001L245.5180001,45.106001L245.5180001,40.528L249.55,40.528L249.55,41.326L250.628,41.326L250.628,34.745999L245.5180001,34.745999L245.5180001,32.24L244.4120002,32.24ZM240.3940001,39.492001L240.3940001,35.768L244.4120002,35.768L244.4120002,39.492001L240.3940001,39.492001ZM249.55,39.492001L245.5180001,39.492001L245.5180001,35.768L249.55,35.768L249.55,39.492001ZM258.636,37.111999999999995L258.636,39.534L255.402,39.534L255.402,37.111999999999995L258.636,37.111999999999995ZM259.658001,37.111999999999995L263.004002,37.111999999999995L263.004002,39.534L259.658001,39.534L259.658001,37.111999999999995ZM260.372002,34.41C259.966,34.998,259.434,35.641999999999996,258.916,36.117999999999995L255.205999,36.117999999999995C255.752001,35.585999,256.256001,35.012,256.718,34.41L260.372002,34.41ZM256.956001,32.198C255.976,34.087998999999996,254.268,35.782,252.546,36.846001C252.742,37.07,253.036,37.601999,253.13400000000001,37.826C253.554,37.546,253.974,37.223999,254.380001,36.874001L254.380001,42.865999C254.380001,44.504000000000005,255.066,44.882000000000005,257.29200000000003,44.882000000000005C257.796,44.882000000000005,262.150002,44.882000000000005,262.709999,44.882000000000005C264.796001,44.882000000000005,265.23,44.252001,265.48199999999997,42.068000999999995C265.174,42.011999,264.740002,41.844,264.459999,41.676001C264.306,43.524,264.082001,43.916,262.69599900000003,43.916C261.743999,43.916,257.964001,43.916,257.222,43.916C255.681999,43.916,255.402,43.719999,255.402,42.879999L255.402,40.542L263.004002,40.542L263.004002,41.172001L264.05400099999997,41.172001L264.05400099999997,36.117999999999995L260.190001,36.117999999999995C260.848,35.446,261.492001,34.634,261.968,33.891999L261.282001,33.401999L261.072001,33.472L257.362,33.472C257.558001,33.164,257.74,32.856,257.908001,32.547999000000004L256.956001,32.198ZM269.598,40.346001C269.024,41.676001,268.044001,42.992001,266.993999,43.860001C267.26,44.013999999999996,267.694,44.35,267.889999,44.532C268.898001,43.58,269.976,42.110001,270.647999,40.625999L269.598,40.346001ZM275.324001,40.765999C276.402,41.858000000000004,277.662003,43.398001,278.222,44.364000000000004L279.15999999999997,43.846001C278.571999,42.865999,277.284,41.396,276.192001,40.332001000000005L275.324001,40.765999ZM267.077999,34.101999L267.077999,35.096000000000004L270.48,35.096000000000004C269.92,36.117999999999995,269.402,36.93,269.15,37.251999C268.73,37.867999999999995,268.422001,38.274,268.1,38.358000000000004C268.24,38.652,268.422001,39.198,268.478001,39.436001000000005C268.632,39.309999000000005,269.164,39.239999999999995,270.004002,39.239999999999995L273.098,39.239999999999995L273.098,43.664C273.098,43.860001,273.056,43.916,272.832001,43.916C272.594002,43.93,271.852001,43.93,271.040001,43.916C271.194,44.209998999999996,271.375999,44.686001000000005,271.44599900000003,45.007999C272.439999,45.007999,273.153999,44.980000000000004,273.588001,44.798C274.021999,44.615999,274.162003,44.294001,274.162003,43.677999L274.162003,39.239999999999995L278.236,39.239999999999995L278.236,38.218L274.162003,38.218L274.162003,36.16L273.098,36.16L273.098,38.218L269.766001,38.218C270.438,37.307998999999995,271.124001,36.230000000000004,271.754002,35.096000000000004L278.838001,35.096000000000004L278.838001,34.101999L272.285999,34.101999C272.538002,33.612,272.776001,33.108000000000004,273,32.618L271.880001,32.155999C271.627998,32.814,271.32,33.472,270.998001,34.101999L267.077999,34.101999ZM286.15999999999997,32.547999000000004C286.524002,33.205999,286.944,34.101999,287.112,34.662L280.952,34.662L280.952,35.684L284.774002,35.684C284.605999,38.903999,284.25600099999997,42.530001,280.644001,44.322001C280.924,44.518,281.259998,44.882000000000005,281.414001,45.148001C284.074001,43.761999,285.124001,41.438,285.571999,38.945999L290.584,38.945999C290.360001,42.110001,290.080002,43.468,289.674,43.832001000000005C289.492001,43.972,289.310001,44,289.001999,44C288.624001,44,287.644001,43.986000000000004,286.636002,43.902C286.846001,44.181999000000005,286.986,44.615999,287.014,44.924C287.952,44.993999,288.875999,45.007999,289.366001,44.966C289.912003,44.938,290.262001,44.84,290.584,44.476C291.130001,43.93,291.40999999999997,42.403999,291.690002,38.427999C291.718002,38.274,291.732002,37.924,291.732002,37.924L285.740002,37.924C285.824001,37.181999000000005,285.880001,36.425999000000004,285.922001,35.684L293.104,35.684L293.104,34.662L287.19599900000003,34.662L288.190002,34.228C287.99399900000003,33.667999,287.560001,32.814,287.167999,32.155999L286.15999999999997,32.547999000000004ZM300.439999,39.911999L300.439999,40.85L294.75600099999997,40.85L294.75600099999997,41.732L299.501999,41.732C298.158001,42.739999999999995,296.141998,43.635999999999996,294.405998,44.084C294.644001,44.308001000000004,294.938,44.700001,295.105999,44.966C296.897999,44.406,298.998001,43.341999,300.439999,42.110001L300.439999,45.106001L301.490002,45.106001L301.490002,42.068000999999995C302.917999,43.271999,305.045998,44.322001,306.879997,44.854C307.033997,44.587998999999996,307.32800299999997,44.209998999999996,307.552002,43.986000000000004C305.802002,43.566,303.814003,42.712,302.470001,41.732L307.25800300000003,41.732L307.25800300000003,40.85L301.490002,40.85L301.490002,39.911999L300.439999,39.911999ZM300.860001,36.271999L300.860001,37.195999L297.45799999999997,37.195999L297.45799999999997,36.271999L300.860001,36.271999ZM300.538002,32.464C300.762001,32.842,301,33.318,301.167999,33.724000000000004L298.004002,33.724000000000004C298.298,33.29,298.563999,32.842,298.802002,32.422L297.709999,32.212C297.094002,33.443999,295.959999,35.012,294.419998,36.188C294.658001,36.327999,295.007999,36.635999999999996,295.189999,36.860001C295.624001,36.495999999999995,296.029999,36.117999999999995,296.408001,35.726L296.408001,40.205999L297.45799999999997,40.205999L297.45799999999997,39.757999L306.865997,39.757999L306.865997,38.917998999999995L301.868,38.917998999999995L301.868,37.952L305.886002,37.952L305.886002,37.195999L301.868,37.195999L301.868,36.271999L305.844002,36.271999L305.844002,35.516L301.868,35.516L301.868,34.592L306.417999,34.592L306.417999,33.724000000000004L302.274002,33.724000000000004C302.092003,33.275999999999996,301.784,32.66,301.476002,32.198L300.538002,32.464ZM300.860001,35.516L297.45799999999997,35.516L297.45799999999997,34.592L300.860001,34.592L300.860001,35.516ZM300.860001,37.952L300.860001,38.917998999999995L297.45799999999997,38.917998999999995L297.45799999999997,37.952L300.860001,37.952ZM309.176003,32.856L309.176003,45.120001L310.253998,45.120001L310.253998,44.532L319.704002,44.532L319.704002,45.120001L320.823997,45.120001L320.823997,32.856L309.176003,32.856ZM310.253998,43.58L310.253998,33.822L319.704002,33.822L319.704002,43.58L310.253998,43.58ZM315.699997,34.41L315.699997,36.202L311.178001,36.202L311.178001,37.139999L315.363998,37.139999C314.230003,38.68,312.522003,40.066,310.968002,40.92C311.206001,41.115999,311.5,41.438,311.639999,41.633999C313.040001,40.85,314.524002,39.674,315.699997,38.344L315.699997,41.605999C315.699997,41.774,315.657997,41.816,315.461998,41.816C315.279999,41.83,314.692001,41.83,314.048004,41.816C314.188004,42.082001000000005,314.342003,42.487999,314.398003,42.768C315.307999,42.768,315.867996,42.754000000000005,316.23200199999997,42.586C316.610001,42.431999000000005,316.722,42.152,316.722,41.605999L316.722,37.139999L318.891998,37.139999L318.891998,36.202L316.722,36.202L316.722,34.41L315.699997,34.41ZM325.821999,44.784L326.774002,43.972C325.905998,42.950001,324.646004,41.676001,323.63800000000003,40.864000000000004L322.727997,41.662001000000004C323.722,42.473999,324.926003,43.677999,325.821999,44.784ZM336.797997,35.95L336.797997,37.028L349.244,37.028L349.244,35.95L336.797997,35.95ZM340.312,38.652C339.38800000000003,40.695999,337.959999,42.893999,336.615997,44.308001000000004C336.910004,44.476,337.428001,44.84,337.666,45.035999000000004C338.968,43.524,340.438,41.200001,341.474,39.015999L340.312,38.652ZM344.456,39.001999C345.772,40.906,347.466,43.468,348.222,44.952L349.31399999999996,44.35C348.474,42.865999,346.752,40.374001,345.45,38.540001000000004L344.456,39.001999ZM341.698,32.66C342.174,33.612,342.734,34.885999999999996,343,35.641999999999996L344.134,35.193999C343.84000000000003,34.466,343.252,33.219999,342.776,32.309999L341.698,32.66ZM355.46,38.035999000000004C356.244,38.441998999999996,357.224,39.072001,357.7,39.519999999999996L358.23199999999997,38.848C357.756,38.4,356.762,37.812,355.992,37.434L355.46,38.035999000000004ZM356.496,32.099999C356.398,32.436,356.216,32.897999999999996,356.034,33.29L352.968,33.29L352.968,35.754L352.954,36.299999L350.714,36.299999L350.714,37.223999L352.81399999999996,37.223999C352.604,38.077999,352.11400000000003,38.945999,351.036,39.632000000000005C351.26,39.771999,351.652,40.164,351.806,40.374001C353.094,39.534,353.654,38.372,353.878,37.223999L360.374,37.223999L360.374,38.861999999999995C360.374,39.015999,360.318,39.072001,360.122,39.072001C359.94,39.086,359.296,39.086,358.624,39.072001C358.778,39.323999,358.918,39.702,358.96,39.968C359.91200000000003,39.968,360.528,39.968,360.906,39.813998999999995C361.298,39.66,361.424,39.379999,361.424,38.875999L361.424,37.223999L363.384,37.223999L363.384,36.299999L361.424,36.299999L361.424,33.29L357.168,33.29L357.63,32.323999L356.496,32.099999ZM355.558,34.941998999999996C356.3,35.306,357.196,35.88,357.63,36.299999L354.004,36.299999L354.01800000000003,35.768L354.01800000000003,34.158L360.374,34.158L360.374,36.299999L357.658,36.299999L358.19,35.656C357.728,35.222,356.818,34.676,356.076,34.34L355.558,34.941998999999996ZM352.212,40.346001L352.212,43.790001000000004L350.63,43.790001000000004L350.63,44.728001L363.37,44.728001L363.37,43.790001000000004L361.802,43.790001000000004L361.802,40.346001L352.212,40.346001ZM353.192,43.790001000000004L353.192,41.200001L355.068,41.200001L355.068,43.790001000000004L353.192,43.790001000000004ZM356.034,43.790001000000004L356.034,41.200001L357.90999999999997,41.200001L357.90999999999997,43.790001000000004L356.034,43.790001000000004ZM358.89,43.790001000000004L358.89,41.200001L360.78,41.200001L360.78,43.790001000000004L358.89,43.790001000000004ZM364.994,35.823999L364.994,36.888000000000005L368.438,36.888000000000005C367.76601,39.66,366.32401,41.774,364.546,42.936001000000005C364.798,43.09,365.218,43.495999999999995,365.4,43.747999C367.37399,42.348,369.01198999999997,39.716,369.698,36.048L369.01198999999997,35.782L368.81599,35.823999L364.994,35.823999ZM375.438,34.872C374.752,35.823999,373.64599999999996,37.07,372.722,37.938C372.28799000000004,37.209998999999996,371.89599999999996,36.439999,371.58799999999997,35.656L371.58799999999997,32.268L370.46799999999996,32.268L370.46799999999996,43.691998999999996C370.46799999999996,43.93,370.384,43.986000000000004,370.15999999999997,44C369.93600000000004,44.013999999999996,369.20801,44.013999999999996,368.39599999999996,43.986000000000004C368.56399999999996,44.308001000000004,368.746,44.826,368.802,45.134001C369.88,45.134001,370.56599,45.106001,371,44.91C371.41999999999996,44.728001,371.58799999999997,44.391999999999996,371.58799999999997,43.677999L371.58799999999997,37.769999999999996C372.86199999999997,40.304001,374.68201,42.516001,376.866,43.664C377.048,43.356001,377.39799,42.922001,377.64999,42.698C375.95599000000004,41.914,374.42999,40.458,373.24001,38.722C374.22,37.896,375.466,36.622,376.39,35.544L375.438,34.872ZM385.53200000000004,42.502001C387.394,43.202,389.256,44.167998999999995,390.39,45.035999000000004L391.034,44.209998999999996C389.87199,43.384001,387.91200000000003,42.417998999999995,386.036,41.732L385.53200000000004,42.502001ZM381.36,36.202C382.116,36.65,383.01198999999997,37.35,383.418,37.84L384.09000000000003,37.084C383.65601000000004,36.58,382.746,35.95,381.99001,35.53L381.36,36.202ZM379.96001,38.385999999999996C380.75800000000004,38.82,381.696,39.519999999999996,382.144,40.024L382.78799000000004,39.226C382.326,38.736000000000004,381.37399,38.091999,380.59000000000003,37.686001000000005L379.96001,38.385999999999996ZM379.25999,33.835999L379.25999,36.677999L380.31,36.677999L380.31,34.816L389.67599,34.816L389.67599,36.677999L390.76801,36.677999L390.76801,33.835999L385.966,33.835999C385.756,33.346000000000004,385.392,32.66,385.04201,32.141999L384.006,32.464C384.25800000000004,32.884,384.524,33.388,384.72,33.835999L379.25999,33.835999ZM378.994,40.416L378.994,41.326L384.048,41.326C383.26401,42.684,381.82201,43.594,379.134,44.153999C379.358,44.391999999999996,379.62399,44.798,379.73599,45.077999C382.88599999999997,44.35,384.45399,43.132000000000005,385.252,41.326L391.09000000000003,41.326L391.09000000000003,40.416L385.57401,40.416C385.98,39.057998999999995,386.078,37.434,386.134,35.516L385.04201,35.516C384.98599,37.504000000000005,384.90201,39.114000000000004,384.45399,40.416L378.994,40.416ZM392.43401,41.927999L392.658,42.809999000000005C393.70799,42.516001,394.996,42.166,396.256,41.802L396.158,40.989999999999995C394.772,41.354,393.414,41.718,392.43401,41.927999ZM399.46200999999996,36.58L399.46200999999996,37.489999999999995L403.634,37.489999999999995L403.634,36.58L399.46200999999996,36.58ZM398.53799000000004,38.931999000000005C398.94399999999996,39.995999999999995,399.32201,41.396,399.43401,42.306L400.302,42.068000999999995C400.17599,41.158001,399.77,39.785999000000004,399.36400000000003,38.736000000000004L398.53799000000004,38.931999000000005ZM401.01601,38.582001000000005C401.254,39.632000000000005,401.506,41.032,401.576,41.941998999999996L402.44399999999996,41.802C402.36,40.891999999999996,402.108,39.519999999999996,401.828,38.455999L401.01601,38.582001000000005ZM393.498,34.816C393.39999,36.327999,393.23199,38.414,393.05,39.646L396.81599,39.646C396.634,42.530001,396.40999999999997,43.664,396.116,43.972C396.004,44.111999999999995,395.85001,44.139999,395.62601,44.139999C395.36,44.139999,394.716,44.125999,394.03,44.056C394.18401,44.308001000000004,394.29601,44.672001,394.31,44.938C394.98199,44.980000000000004,395.64,44.993999,395.99001,44.966C396.40999999999997,44.924,396.66200000000003,44.84,396.89999,44.546C397.34801,44.098,397.54400999999996,42.782,397.76801,39.212C397.78200000000004,39.086,397.79601,38.778,397.79601,38.778L396.858,38.792L396.69,38.792C396.858,37.279999000000004,397.06799,34.759999,397.20801,32.87L392.89599999999996,32.87L392.89599999999996,33.78L396.24199999999996,33.78C396.13,35.46,395.948,37.448,395.78,38.792L394.058,38.792C394.18401,37.615999,394.31,36.09,394.394,34.872L393.498,34.816ZM401.33799999999997,32.141999C400.47,34.101999,398.92999,35.823999,397.25,36.888000000000005C397.446,37.098,397.754,37.518,397.88,37.728001C399.196,36.804001,400.47,35.488,401.43600000000004,33.948C402.416,35.306,403.83000000000004,36.761999,405.10400000000004,37.686001000000005C405.216,37.406,405.45399,36.958,405.63599999999997,36.719999C404.334,35.88,402.82201,34.396,401.94,33.066L402.248,32.436L401.33799999999997,32.141999ZM398.09000000000003,43.510000000000005L398.09000000000003,44.434L405.23,44.434L405.23,43.510000000000005L403.08799999999997,43.510000000000005C403.774,42.222,404.558,40.374001,405.132,38.889999L404.17999,38.652C403.71799999999996,40.122,402.86400000000003,42.208,402.17799,43.510000000000005L398.09000000000003,43.510000000000005ZM408.086,40.976L408.086,41.9L412.45399,41.9L412.45399,43.775999L406.826,43.775999L406.826,44.728001L419.23,44.728001L419.23,43.775999L413.53200000000004,43.775999L413.53200000000004,41.9L417.98399,41.9L417.98399,40.976L413.53200000000004,40.976L413.53200000000004,39.506001L412.45399,39.506001L412.45399,40.976L408.086,40.976ZM408.65999999999997,39.757999C409.09398999999996,39.59,409.752,39.534,416.44399999999996,39.015999C416.76601,39.337998999999996,417.04601,39.66,417.24199999999996,39.911999L418.054,39.337998999999996C417.48,38.610001,416.276,37.532,415.29601,36.775999L414.526,37.293999C414.89,37.587998999999996,415.28200000000004,37.91,415.65999999999997,38.260000000000005L410.24199999999996,38.638000000000005C411.03999,38.049999,411.83799999999997,37.35,412.58000000000004,36.608000000000004L417.69,36.608000000000004L417.69,35.698L408.422,35.698L408.422,36.608000000000004L411.222,36.608000000000004C410.438,37.406,409.61199999999997,38.077999,409.304,38.288C408.94,38.568000999999995,408.618,38.75,408.35201,38.792C408.464,39.057998999999995,408.60400000000004,39.548,408.65999999999997,39.757999ZM412.09000000000003,32.394C412.286,32.716,412.48199,33.122,412.63599999999997,33.486000000000004L406.98,33.486000000000004L406.98,35.964L408.002,35.964L408.002,34.438L417.97,34.438L417.97,35.964L419.034,35.964L419.034,33.486000000000004L413.812,33.486000000000004C413.658,33.066,413.36400000000003,32.519999999999996,413.09801,32.099999L412.09000000000003,32.394ZM423.82201,44.784L424.774,43.972C423.90601000000004,42.950001,422.64599999999996,41.676001,421.63800000000003,40.864000000000004L420.728,41.662001000000004C421.722,42.473999,422.92599,43.677999,423.82201,44.784ZM442.21799999999996,41.9C443.548,42.879999,445.256,44.280001,446.09601,45.120001L447.09000000000003,44.476C446.17999,43.622,444.42999,42.292,443.142,41.354L442.21799999999996,41.9ZM438.606,41.382000000000005C437.82201,42.431999000000005,436.24001,43.65,434.868,44.391999999999996C435.106,44.573999,435.48399,44.91,435.69399999999996,45.134001C437.108,44.322001,438.69,43.019999999999996,439.698,41.802L438.606,41.382000000000005ZM435.246,35.208L435.246,36.216L437.91999999999996,36.216L437.91999999999996,39.548L434.672,39.548L434.672,40.57L447.384,40.57L447.384,39.548L444.08000000000004,39.548L444.08000000000004,36.216L446.88,36.216L446.88,35.208L444.08000000000004,35.208L444.08000000000004,32.365999L443.002,32.365999L443.002,35.208L438.998,35.208L438.998,32.365999L437.91999999999996,32.365999L437.91999999999996,35.208L435.246,35.208ZM438.998,39.548L438.998,36.216L443.002,36.216L443.002,39.548L438.998,39.548ZM451.71001,36.062L458.31799,36.062L458.31799,37.322001L451.71001,37.322001L451.71001,36.062ZM450.65999999999997,35.278L450.65999999999997,38.105999L459.424,38.105999L459.424,35.278L450.65999999999997,35.278ZM458.96200999999996,38.945999L458.68201,38.959998999999996L450.07201,38.959998999999996L450.07201,39.813998999999995L457.28200000000004,39.813998999999995C456.39999,40.15,455.36400000000003,40.458,454.44,40.667998999999995L454.42599,41.493999L448.756,41.493999L448.756,42.417998999999995L454.42599,42.417998999999995L454.42599,44.013999999999996C454.42599,44.209998999999996,454.356,44.266001,454.10400000000004,44.280001C453.85201,44.294001,452.89999,44.308001000000004,451.93401,44.266001C452.08799999999997,44.532,452.24199999999996,44.867999999999995,452.312,45.148001C453.57201,45.148001,454.37,45.148001,454.86,45.021999C455.36400000000003,44.882000000000005,455.53200000000004,44.629999,455.53200000000004,44.042L455.53200000000004,42.417998999999995L461.272,42.417998999999995L461.272,41.493999L455.53200000000004,41.493999L455.53200000000004,41.143999C457.086,40.751999,458.71001,40.177999,459.89999,39.506001L459.2,38.903999L458.96200999999996,38.945999ZM454.048,32.337998999999996C454.216,32.674,454.39799,33.08,454.53799000000004,33.457999L448.89599999999996,33.457999L448.89599999999996,34.368L461.09000000000003,34.368L461.09000000000003,33.457999L455.714,33.457999C455.56,33.038,455.336,32.533999,455.09801,32.141999L454.048,32.337998999999996ZM468.44,39.911999L468.44,40.85L462.756,40.85L462.756,41.732L467.502,41.732C466.158,42.739999999999995,464.142,43.635999999999996,462.40601000000004,44.084C462.644,44.308001000000004,462.938,44.700001,463.106,44.966C464.89799,44.406,466.998,43.341999,468.44,42.110001L468.44,45.106001L469.49001,45.106001L469.49001,42.068000999999995C470.918,43.271999,473.04601,44.322001,474.88,44.854C475.034,44.587998999999996,475.328,44.209998999999996,475.552,43.986000000000004C473.802,43.566,471.81399999999996,42.712,470.47,41.732L475.25800000000004,41.732L475.25800000000004,40.85L469.49001,40.85L469.49001,39.911999L468.44,39.911999ZM468.86,36.271999L468.86,37.195999L465.45801,37.195999L465.45801,36.271999L468.86,36.271999ZM468.53799000000004,32.464C468.76198999999997,32.842,469,33.318,469.168,33.724000000000004L466.004,33.724000000000004C466.298,33.29,466.56399999999996,32.842,466.802,32.422L465.71001,32.212C465.09398999999996,33.443999,463.96001,35.012,462.41999999999996,36.188C462.658,36.327999,463.00800000000004,36.635999999999996,463.19,36.860001C463.62399,36.495999999999995,464.03,36.117999999999995,464.408,35.726L464.408,40.205999L465.45801,40.205999L465.45801,39.757999L474.866,39.757999L474.866,38.917998999999995L469.868,38.917998999999995L469.868,37.952L473.88599999999997,37.952L473.88599999999997,37.195999L469.868,37.195999L469.868,36.271999L473.84398999999996,36.271999L473.84398999999996,35.516L469.868,35.516L469.868,34.592L474.418,34.592L474.418,33.724000000000004L470.274,33.724000000000004C470.092,33.275999999999996,469.784,32.66,469.476,32.198L468.53799000000004,32.464ZM468.86,35.516L465.45801,35.516L465.45801,34.592L468.86,34.592L468.86,35.516ZM468.86,37.952L468.86,38.917998999999995L465.45801,38.917998999999995L465.45801,37.952L468.86,37.952ZM477.17599,32.856L477.17599,45.120001L478.254,45.120001L478.254,44.532L487.70399,44.532L487.70399,45.120001L488.82401,45.120001L488.82401,32.856L477.17599,32.856ZM478.254,43.58L478.254,33.822L487.70399,33.822L487.70399,43.58L478.254,43.58ZM483.7,34.41L483.7,36.202L479.17799,36.202L479.17799,37.139999L483.36400000000003,37.139999C482.23,38.68,480.522,40.066,478.96799999999996,40.92C479.20599000000004,41.115999,479.5,41.438,479.64,41.633999C481.03999,40.85,482.524,39.674,483.7,38.344L483.7,41.605999C483.7,41.774,483.658,41.816,483.46200999999996,41.816C483.28,41.83,482.692,41.83,482.048,41.816C482.188,42.082001000000005,482.342,42.487999,482.39799,42.768C483.308,42.768,483.868,42.754000000000005,484.23199,42.586C484.61,42.431999000000005,484.722,42.152,484.722,41.605999L484.722,37.139999L486.892,37.139999L486.892,36.202L484.722,36.202L484.722,34.41L483.7,34.41ZM493.82201,44.784L494.77399,43.972C493.90601000000004,42.950001,492.64599999999996,41.676001,491.63800000000003,40.864000000000004L490.728,41.662001000000004C491.722,42.473999,492.92599,43.677999,493.82201,44.784ZM515.60599,36.355999L515.60599,38.063998999999995L511.504,38.063998999999995L511.504,36.355999L515.60599,36.355999ZM515.60599,35.474000000000004L511.504,35.474000000000004L511.504,33.78L515.60599,33.78L515.60599,35.474000000000004ZM510.44,45.120001C510.70599,44.938,511.14001,44.784,514.03799,44C513.996,43.775999,513.98199,43.341999,513.98199,43.048L511.504,43.65L511.504,38.987999L512.77802,38.987999C513.45001,41.788,514.7239999999999,43.958,516.88,45.021999C517.034,44.728001,517.328,44.322001,517.56601,44.111999999999995C516.4739999999999,43.65,515.5920100000001,42.865999,514.92001,41.872C515.69,41.424,516.61401,40.794001,517.3140000000001,40.205999L516.642,39.464000999999996C516.09601,39.995999999999995,515.21399,40.653999,514.48599,41.143999C514.13599,40.486000000000004,513.85599,39.757999,513.646,38.987999L516.57199,38.987999L516.57199,32.856L510.48199,32.856L510.48199,43.257999C510.48199,43.846001,510.18799,44.125999,509.96399,44.252001C510.11801,44.462,510.35599,44.882000000000005,510.44,45.120001ZM506.492,32.282C506.07199,33.584,505.31601,34.844,504.47601,35.67C504.64401,35.894,504.92401,36.425999000000004,505.022,36.65C505.51199,36.16,505.974,35.53,506.38,34.844L509.67001,34.844L509.67001,33.835999L506.91199,33.835999C507.12201,33.415999,507.29001,32.981999,507.444,32.547999000000004L506.492,32.282ZM506.67401,45.021999C506.92599,44.784,507.31799,44.559999000000005,509.95001,43.188C509.88,42.978001,509.79599,42.572001,509.76801,42.292L507.78,43.257999L507.78,40.15L509.79599,40.15L509.79599,39.184L507.78,39.184L507.78,37.293999L509.48801,37.293999L509.48801,36.341999L505.54001,36.341999L505.54001,37.293999L506.772,37.293999L506.772,39.184L504.81201,39.184L504.81201,40.15L506.772,40.15L506.772,43.216C506.772,43.761999,506.46399,44,506.23999,44.111999999999995C506.40799,44.336,506.61801,44.769999999999996,506.67401,45.021999ZM520.22601,33.009999L520.22601,37.769999999999996C520.22601,40.177999,520.0440100000001,42.6,518.392,44.504000000000005C518.64401,44.658001,519.078,44.993999,519.26001,45.232C521.0939900000001,43.146,521.30399,40.458,521.30399,37.769999999999996L521.30399,33.009999L520.22601,33.009999ZM524.67801,33.584L524.67801,43.888000000000005L525.742,43.888000000000005L525.742,33.584L524.67801,33.584ZM529.38199,32.967999L529.38199,45.106001L530.4739999999999,45.106001L530.4739999999999,32.967999L529.38199,32.967999ZM542.31799,32.828C543.01801,33.219999,543.87201,33.822,544.2919899999999,34.228L544.9079899999999,33.556C544.4739999999999,33.15,543.60599,32.575998999999996,542.9060099999999,32.226L542.31799,32.828ZM533.62399,34.283999L533.62399,38.288C533.62399,40.15,533.51199,42.67,532.43399,44.489999999999995C532.6579899999999,44.601999,533.0640000000001,44.924,533.23199,45.120001C534.422,43.188,534.604,40.304001,534.604,38.288L534.604,35.236000000000004L540.75,35.236000000000004C540.8620000000001,37.896,541.12799,40.275999,541.61801,42.040001000000004C540.90399,43.006001,540.03601,43.790001000000004,538.97198,44.406C539.18201,44.587998999999996,539.56,44.966,539.71399,45.162001000000004C540.582,44.601999,541.3380099999999,43.93,541.98199,43.146C542.48599,44.406,543.14401,45.148001,544.0260000000001,45.148001C545.01999,45.148001,545.35599,44.462,545.53799,42.18C545.2719999999999,42.054001,544.9079899999999,41.844,544.68399,41.619999C544.62799,43.398001,544.4739999999999,44.139999,544.1379999999999,44.139999C543.578,44.139999,543.0880099999999,43.412001000000004,542.7099900000001,42.166C543.67599,40.681999000000005,544.3620000000001,38.861999999999995,544.81,36.705999L543.82999,36.552C543.508,38.175999000000004,543.03201,39.617999999999995,542.37399,40.836C542.06601,39.337998999999996,541.85599,37.42,541.7719999999999,35.236000000000004L545.28601,35.236000000000004L545.28601,34.283999L541.73001,34.283999C541.716,33.625999,541.716,32.954,541.716,32.254L540.67999,32.254L540.72198,34.283999L533.62399,34.283999ZM535.31799,41.256001C535.98999,41.507999,536.71799,41.844,537.418,42.194C536.6619900000001,42.851999,535.76599,43.327999,534.79999,43.608000000000004C534.98199,43.804001,535.2059899999999,44.139999,535.31799,44.378C536.4100000000001,44,537.418,43.440000999999995,538.2439899999999,42.641999999999996C538.81799,42.964000999999996,539.32199,43.271999,539.71399,43.552L540.302,42.851999C539.92401,42.586,539.4060099999999,42.292,538.84601,41.983999C539.504,41.172001,540.008,40.164,540.302,38.931999000000005L539.7280000000001,38.736000000000004L539.56,38.763999999999996L537.586,38.763999999999996C537.81,38.245999999999995,538.01999,37.714000999999996,538.18799,37.223999L540.28799,37.223999L540.28799,36.369999L535.26199,36.369999L535.26199,37.223999L537.23599,37.223999C537.06799,37.714000999999996,536.858,38.245999999999995,536.62,38.763999999999996L535.0939900000001,38.763999999999996L535.0939900000001,39.604L536.2280000000001,39.604C535.92001,40.219999,535.6120000000001,40.794001,535.31799,41.256001ZM539.18201,39.604C538.90201,40.360001,538.52399,41.018,538.048,41.563998999999995C537.55801,41.326,537.0400099999999,41.087998999999996,536.54999,40.878C536.76001,40.5,536.98401,40.066,537.2080100000001,39.604L539.18201,39.604ZM551.73999,32.268L551.73999,34.69L551.73999,35.292L547.1619900000001,35.292L547.1619900000001,36.369999L551.68399,36.369999C551.4739999999999,39.001999,550.54999,42.082001000000005,546.742,44.35C547.008,44.532,547.38599,44.924,547.55399,45.176001C551.62799,42.698,552.57999,39.282,552.7760000000001,36.369999L557.578,36.369999C557.298,41.312,556.98999,43.299999,556.48599,43.775999C556.31799,43.958,556.13599,44,555.8420100000001,44C555.492,44,554.59601,43.986000000000004,553.63,43.902C553.8399999999999,44.209998999999996,553.966,44.672001,553.9939899999999,44.980000000000004C554.8620000000001,45.021999,555.758,45.049999,556.23401,45.007999C556.78,44.952,557.10199,44.854,557.43799,44.434C558.06799,43.747999,558.34799,41.648001,558.67001,35.851999C558.68399,35.698,558.698,35.292,558.698,35.292L552.832,35.292L552.832,34.69L552.832,32.268L551.73999,32.268ZM563.7239999999999,32.296C562.94,34.424,561.62399,36.524,560.2520099999999,37.882000000000005C560.43399,38.119999,560.7280000000001,38.666,560.8399999999999,38.917998999999995C561.31601,38.427999,561.7919899999999,37.84,562.23999,37.209998999999996L562.23999,45.091999L563.2479900000001,45.091999L563.2479900000001,35.641999999999996C563.80801,34.676,564.31201,33.625999,564.71799,32.589999L563.7239999999999,32.296ZM566.552,42.25C567.88199,43.062,569.46399,44.322001,570.23401,45.120001L571.01801,44.336C570.6400100000001,43.958,570.0939900000001,43.510000000000005,569.4780000000001,43.048C570.556,41.885999999999996,571.73199,40.556,572.586,39.562L571.8439900000001,39.1L571.67599,39.17L567.18201,39.17L567.6859999999999,37.504000000000005L573.35599,37.504000000000005L573.35599,36.510000000000005L567.966,36.510000000000005L568.42801,34.844L572.71201,34.844L572.71201,33.863999L568.694,33.863999L569.05801,32.45L568.0219999999999,32.309999L567.63,33.863999L564.87201,33.863999L564.87201,34.844L567.36401,34.844L566.90201,36.510000000000005L564.07401,36.510000000000005L564.07401,37.504000000000005L566.608,37.504000000000005C566.3140000000001,38.497999,566.0060100000001,39.422001,565.754,40.15L570.76599,40.15C570.14999,40.85,569.39401,41.704,568.66602,42.473999C568.21799,42.166,567.7560100000001,41.872,567.32199,41.605999L566.552,42.25ZM575.246,33.388L575.246,34.325998999999996L580.664,34.325998999999996L580.664,33.388L575.246,33.388ZM583.142,32.478C583.142,33.472,583.142,34.480000000000004,583.10001,35.474000000000004L581.09799,35.474000000000004L581.09799,36.482L583.05801,36.482C582.8900100000001,39.674,582.32999,42.6,580.4119900000001,44.35C580.69199,44.504000000000005,581.056,44.854,581.23801,45.106001C583.2959900000001,43.146,583.89801,39.954,584.0939900000001,36.482L586.17999,36.482C586.0260000000001,41.452,585.8439900000001,43.313998999999995,585.466,43.733999C585.32599,43.902,585.172,43.944,584.92001,43.944C584.62601,43.944,583.884,43.944,583.10001,43.860001C583.28201,44.167998999999995,583.39401,44.601999,583.422,44.896C584.164,44.952,584.93399,44.952,585.36801,44.91C585.81601,44.867999999999995,586.09601,44.742001,586.37601,44.378C586.866,43.761999,587.034,41.774,587.23001,36.006001C587.23001,35.851999,587.23001,35.474000000000004,587.23001,35.474000000000004L584.13599,35.474000000000004C584.164,34.480000000000004,584.17801,33.472,584.17801,32.478L583.142,32.478ZM575.246,43.384001L575.26001,43.370001L575.26001,43.398001C575.582,43.202,576.086,43.048,579.9780000000001,42.166L580.2439899999999,43.104L581.168,42.796C580.90201,41.816,580.2719999999999,40.15,579.73999,38.889999L578.87201,39.128C579.15201,39.785999000000004,579.43201,40.556,579.68399,41.284L576.35199,41.983999C576.89801,40.723999,577.42999,39.156,577.78,37.686001000000005L580.91602,37.686001000000005L580.91602,36.719999L574.7560100000001,36.719999L574.7560100000001,37.686001000000005L576.702,37.686001000000005C576.3380099999999,39.323999,575.75,40.976,575.55399,41.438C575.31601,41.969999,575.134,42.348,574.9100000000001,42.417998999999995C575.03601,42.67,575.19,43.174,575.246,43.384001ZM591.82199,44.784L592.77399,43.972C591.9060099999999,42.950001,590.646,41.676001,589.6379999999999,40.864000000000004L588.7280000000001,41.662001000000004C589.72198,42.473999,590.92599,43.677999,591.82199,44.784Z" fill="#2F2F2F" fill-opacity="1"/></g><g><path d="M37.332,68.80799999999999L44.556001,68.80799999999999L44.556001,70.823999L37.332,70.823999L37.332,68.80799999999999ZM36.296,67.856L36.296,71.790001L45.634001,71.790001L45.634001,67.856L36.296,67.856ZM35.6520001,73.091999L35.6520001,74.029999L40.3840003,74.029999C40.3280001,74.59,40.2580004,75.094,40.1600003,75.556L34.77000004,75.556L34.77000004,76.48L39.8660002,76.48C39.2220001,77.978001,37.8080001,78.804001,34.588,79.252001C34.77000004,79.476,35.008,79.882,35.1060001,80.134001C38.7880001,79.559999,40.3140001,78.45400000000001,41,76.48C41.868,78.733999,43.6040001,79.742001,46.768001,80.120001C46.88,79.826,47.132,79.392,47.370001,79.167999C44.528,78.944,42.8480005,78.174,42.0360003,76.48L47.230000000000004,76.48L47.230000000000004,75.556L41.2380004,75.556C41.3360004,75.094,41.4060001,74.576,41.4480004,74.029999L46.446,74.029999L46.446,73.091999L35.6520001,73.091999ZM52.059999000000005,75.318001L52.059999000000005,78.35600099999999C52.059999000000005,79.518,52.466,79.84,54.006001,79.84C54.327999,79.84,56.554001,79.84,56.889999,79.84C58.220000999999996,79.84,58.542,79.364,58.695999,77.445999C58.388000000000005,77.37599900000001,57.940000999999995,77.208,57.688,77.025999C57.617999999999995,78.608,57.519999999999996,78.846001,56.806,78.846001C56.316,78.846001,54.468,78.846001,54.09,78.846001C53.292,78.846001,53.152,78.761999,53.152,78.341999L53.152,75.318001L52.059999000000005,75.318001ZM58.290001000000004,75.751999C59.060001,76.788,59.970000999999996,78.174,60.375999,79.02799999999999L61.341999,78.496C60.908001,77.642,59.956001,76.28399999999999,59.200001,75.318001L58.290001000000004,75.751999ZM50.239999999999995,75.37400099999999C49.903999999999996,76.46600000000001,49.288,77.879999,48.574,78.775999L49.568,79.224001C50.226,78.299999,50.785999000000004,76.83,51.177999,75.737999L50.239999999999995,75.37400099999999ZM49.862,68.92L49.862,73.358L54.454,73.358L54.454,74.674L53.726,75.20599899999999C54.552,75.808001,55.546,76.676001,56.035999000000004,77.25L56.875999,76.577999C56.414001,76.073999,55.532,75.332001,54.776001,74.785999L55.504000000000005,74.785999L55.504000000000005,73.358L60.208,73.358L60.208,68.92L55.504000000000005,68.92L55.504000000000005,67.24L54.454,67.24L54.454,68.92L49.862,68.92ZM50.870001,69.872L54.454,69.872L54.454,72.406L50.870001,72.406L50.870001,69.872ZM55.504000000000005,69.872L59.144001,69.872L59.144001,72.406L55.504000000000005,72.406L55.504000000000005,69.872ZM69.560001,67.981999C70.19000199999999,68.891999,70.862,70.124,71.141998,70.866L72.024002,70.362C71.743999,69.62,71.043999,68.443999,70.414001,67.561999L69.560001,67.981999ZM73.732002,68.05199999999999C73.228001,71.048,72.444,73.666,70.848,75.72399899999999C69.448002,73.77799999999999,68.608002,71.23,68.104,68.262L67.096001,68.415999C67.683998,71.719999,68.594002,74.478001,70.119999,76.577999C69.02799999999999,77.712,67.62799799999999,78.636,65.79400100000001,79.322001C66.004002,79.532,66.298,79.91,66.424,80.134001C68.22999999999999,79.42,69.644001,78.496,70.75,77.37599900000001C71.813999,78.566,73.116001,79.504,74.768002,80.148001C74.936001,79.868,75.271999,79.44800000000001,75.524002,79.238001C73.87200200000001,78.65,72.556,77.726,71.506001,76.535999C73.298,74.323999,74.194,71.496,74.78200100000001,68.233999L73.732002,68.05199999999999ZM65.724001,67.29599999999999C64.940001,69.424,63.638000000000005,71.524,62.252001,72.882C62.448,73.119999,62.742001,73.666,62.854,73.917999C63.344,73.414,63.82,72.826,64.268,72.195999L64.268,80.091999L65.27600100000001,80.091999L65.27600100000001,70.613999C65.836,69.648,66.326,68.62599900000001,66.732002,67.589999L65.724001,67.29599999999999ZM79.52799999999999,80.10600099999999C79.849998,79.896,80.368,79.714001,84.274002,78.468C84.218002,78.243999,84.133999,77.837999,84.105999,77.54400100000001L80.689999,78.566L80.689999,75.486C81.529999,74.91199900000001,82.285999,74.282,82.888,73.610001C83.97999999999999,76.549999,85.94000199999999,78.677999,88.83800099999999,79.64399900000001C88.992001,79.364,89.299999,78.958,89.538002,78.733999C88.152,78.327999,86.961998,77.642,85.996002,76.732C86.87799799999999,76.186001,87.900002,75.458,88.712002,74.771999L87.844002,74.156C87.228001,74.757999,86.248001,75.514,85.408001,76.101999C84.792,75.37400099999999,84.288002,74.53399999999999,83.924,73.610001L89.076,73.610001L89.076,72.700001L83.504002,72.700001L83.504002,71.45400000000001L88.012001,71.45400000000001L88.012001,70.585999L83.504002,70.585999L83.504002,69.396L88.62799799999999,69.396L88.62799799999999,68.486L83.504002,68.486L83.504002,67.24L82.439999,67.24L82.439999,68.486L77.470001,68.486L77.470001,69.396L82.439999,69.396L82.439999,70.585999L78.183998,70.585999L78.183998,71.45400000000001L82.439999,71.45400000000001L82.439999,72.700001L76.91,72.700001L76.91,73.610001L81.557999,73.610001C80.228001,74.799999,78.240002,75.878,76.504002,76.438C76.728001,76.648001,77.035999,77.040001,77.20399900000001,77.292C77.987999,77.011999,78.813999,76.619999,79.612,76.158001L79.612,78.23C79.612,78.790001,79.304001,79.02799999999999,79.066002,79.153999C79.234001,79.378,79.458,79.854,79.52799999999999,80.10600099999999ZM98.092003,67.17C97.686001,68.36,96.93,69.48,96.062,70.208L96.439999,70.446L96.439999,71.41199900000001L92.057999,71.41199900000001L92.057999,72.293999L96.439999,72.293999L96.439999,73.554001L90.672001,73.554001L90.672001,74.478001L99.309998,74.478001L99.309998,75.709999L91.119999,75.709999L91.119999,76.633999L99.309998,76.633999L99.309998,78.860001C99.309998,79.056,99.239998,79.112,98.987999,79.12599900000001C98.736,79.139999,97.91,79.139999,96.958,79.112C97.112,79.392,97.293999,79.812,97.349998,80.10600099999999C98.498001,80.10600099999999,99.281998,80.091999,99.758003,79.952C100.234001,79.78399999999999,100.374001,79.49,100.374001,78.87400099999999L100.374001,76.633999L103.005997,76.633999L103.005997,75.709999L100.374001,75.709999L100.374001,74.478001L103.384003,74.478001L103.384003,73.554001L97.518002,73.554001L97.518002,72.293999L102.054001,72.293999L102.054001,71.41199900000001L97.518002,71.41199900000001L97.518002,70.446L97.293999,70.446C97.602001,70.11,97.896,69.731999,98.162003,69.311999L99.113998,69.311999C99.533997,69.858,99.940002,70.516,100.108002,70.978L101.017998,70.585999C100.863998,70.222,100.57,69.759999,100.248001,69.311999L103.230003,69.311999L103.230003,68.415999L98.666,68.415999C98.834,68.094,98.973999,67.757999,99.099998,67.408L98.092003,67.17ZM93.12200200000001,77.236C94.03200100000001,77.837999,95.04000099999999,78.733999,95.501999,79.392L96.313999,78.733999C95.83800099999999,78.076,94.802002,77.208,93.891998,76.633999L93.12200200000001,77.236ZM92.604,67.17C92.12799799999999,68.415999,91.344002,69.634,90.462002,70.46000000000001C90.714001,70.585999,91.147999,70.88,91.344002,71.048C91.806,70.585999,92.254002,69.983999,92.674,69.311999L93.234001,69.311999C93.5,69.858,93.751999,70.488,93.835999,70.908L94.774002,70.55799999999999C94.689999,70.236,94.493999,69.759999,94.28399999999999,69.311999L96.83200099999999,69.311999L96.83200099999999,68.415999L93.164001,68.415999C93.31800100000001,68.094,93.47200000000001,67.771999,93.598,67.436L92.604,67.17ZM107.5,72.195999C108.059998,72.195999,108.564003,71.790001,108.564003,71.16C108.564003,70.516,108.059998,70.096,107.5,70.096C106.940002,70.096,106.435997,70.516,106.435997,71.16C106.435997,71.790001,106.940002,72.195999,107.5,72.195999ZM106.365997,81.254C107.863998,80.68,108.788002,79.504,108.788002,77.879999C108.788002,76.83,108.354004,76.172001,107.584,76.172001C107.024002,76.172001,106.519997,76.521999,106.519997,77.18C106.519997,77.851999,106.996002,78.188,107.57,78.188L107.821999,78.16C107.779999,79.266001,107.178001,80.007999,106.043999,80.52600100000001L106.365997,81.254ZM123.040001,76.018C123.459999,76.718,123.963997,77.67,124.188004,78.285999L124.93,77.837999C124.720001,77.25,124.216003,76.34,123.753998,75.639999L123.040001,76.018ZM119.889999,75.709999C119.610001,76.563999,119.148003,77.431999,118.573997,78.048C118.783997,78.174,119.148003,78.440001,119.316002,78.58C119.862,77.922001,120.421997,76.9,120.744003,75.92L119.889999,75.709999ZM125.741997,68.584L125.741997,73.4C125.741997,75.261999,125.629997,77.67,124.440002,79.35C124.664001,79.476,125.084,79.798,125.251999,79.993999C126.540001,78.174,126.722,75.416,126.722,73.4L126.722,72.952L128.849998,72.952L128.849998,80.049999L129.872002,80.049999L129.872002,72.952L131.412003,72.952L131.412003,71.97200000000001L126.722,71.97200000000001L126.722,69.283999C128.20600100000001,69.059999,129.80200200000002,68.696,130.97799700000002,68.262L130.12400100000002,67.492C129.115997,67.912,127.309998,68.332,125.741997,68.584ZM120.996002,67.422C121.220001,67.814,121.444,68.28999999999999,121.612,68.71000000000001L118.853996,68.71000000000001L118.853996,69.592L125.042,69.592L125.042,68.71000000000001L122.704002,68.71000000000001C122.522003,68.247999,122.213997,67.646,121.947998,67.184L120.996002,67.422ZM123.278,69.662C123.110001,70.306,122.788002,71.257999,122.522003,71.902L118.643997,71.902L118.643997,72.798L121.514,72.798L121.514,74.254L118.699997,74.254L118.699997,75.177999L121.514,75.177999L121.514,78.747999C121.514,78.888,121.486,78.93,121.346001,78.93C121.192001,78.944,120.758003,78.944,120.267998,78.93C120.407997,79.181999,120.547997,79.573999,120.575996,79.826C121.262001,79.826,121.737999,79.812,122.059998,79.658001C122.382004,79.504,122.480003,79.252001,122.480003,78.761999L122.480003,75.177999L125.098,75.177999L125.098,74.254L122.480003,74.254L122.480003,72.798L125.265999,72.798L125.265999,71.902L123.473999,71.902C123.739998,71.313999,124.005997,70.55799999999999,124.258003,69.872L123.278,69.662ZM119.764,69.886C120.043999,70.516,120.253998,71.355999,120.309998,71.902L121.220001,71.65C121.150002,71.118,120.912003,70.292,120.617996,69.69L119.764,69.886ZM137.642,67.814L137.642,68.584L145.202,68.584L145.202,67.814L137.642,67.814ZM137.642,73.26L137.642,74.001999L145.286,74.001999L145.286,73.26L137.642,73.26ZM137.152,78.958L137.152,79.77L145.412,79.77L145.412,78.958L137.152,78.958ZM138.482,69.2L138.482,72.658001L144.376,72.658001L144.376,69.2L138.482,69.2ZM138.314,74.646L138.314,78.313999L144.53,78.313999L144.53,74.646L138.314,74.646ZM133.274002,70.46000000000001C133.17600299999998,71.58,132.980003,73.021999,132.825996,73.959999L136.298,73.959999C136.144,77.334,135.99,78.594,135.696,78.916C135.598,79.056,135.47199999999998,79.084,135.248,79.084C135.01,79.084,134.422,79.07,133.80599999999998,79.02799999999999C133.945999,79.266001,134.04399999999998,79.629999,134.058,79.896C134.674,79.938,135.29000000000002,79.938,135.626,79.91C136.018,79.868,136.256,79.78399999999999,136.494,79.49C136.872,79.02799999999999,137.054,77.586,137.22199999999998,73.52600100000001C137.236,73.386,137.236,73.077999,137.236,73.077999L133.889999,73.077999L134.114,71.341999L137.026,71.341999L137.026,67.814L132.83999599999999,67.814L132.83999599999999,68.696L136.11599999999999,68.696L136.11599999999999,70.46000000000001L133.274002,70.46000000000001ZM132.517998,77.445999L132.629997,78.23C133.582001,78.09,134.716,77.908001,135.878,77.712L135.85,76.983999L134.702,77.152L134.702,75.92L135.752,75.92L135.752,75.191999L134.702,75.191999L134.702,74.268L133.917999,74.268L133.917999,75.191999L132.825996,75.191999L132.825996,75.92L133.917999,75.92L133.917999,77.264L132.517998,77.445999ZM139.378,71.21600000000001L140.974,71.21600000000001L140.974,72.02799999999999L139.378,72.02799999999999L139.378,71.21600000000001ZM141.8,71.21600000000001L143.438,71.21600000000001L143.438,72.02799999999999L141.8,72.02799999999999L141.8,71.21600000000001ZM139.378,69.83L140.974,69.83L140.974,70.627999L139.378,70.627999L139.378,69.83ZM141.8,69.83L143.438,69.83L143.438,70.627999L141.8,70.627999L141.8,69.83ZM139.20999999999998,76.76L140.974,76.76L140.974,77.656L139.20999999999998,77.656L139.20999999999998,76.76ZM141.8,76.76L143.59199999999998,76.76L143.59199999999998,77.656L141.8,77.656L141.8,76.76ZM139.20999999999998,75.290001L140.974,75.290001L140.974,76.172001L139.20999999999998,76.172001L139.20999999999998,75.290001ZM141.8,75.290001L143.59199999999998,75.290001L143.59199999999998,76.172001L141.8,76.172001L141.8,75.290001ZM147.176,68.136C147.95999999999998,68.542,148.912,69.186,149.36,69.662L149.99,68.822C149.514,68.36,148.562,67.757999,147.77800000000002,67.394L147.176,68.136ZM146.53199999999998,71.916C147.358,72.279999,148.352,72.854,148.84199999999998,73.30199999999999L149.44400000000002,72.44800000000001C148.954,72.014,147.946,71.468,147.106,71.146L146.53199999999998,71.916ZM146.798,79.434L147.77800000000002,79.938C148.296,78.622,148.898,76.886,149.332,75.388L148.45,74.869999C147.974,76.46600000000001,147.288,78.313999,146.798,79.434ZM151.656,67.24L151.656,70.334L149.738,70.334L149.738,71.341999L151.54399999999998,71.341999C151.026,73.568001,150.15800000000002,75.836,149.164,76.997999C149.388,77.166,149.724,77.530001,149.892,77.768C150.578,76.844,151.18,75.402,151.656,73.792L151.656,80.10600099999999L152.636,80.10600099999999L152.636,73.903999C153.098,74.478001,153.61599999999999,75.164,153.84,75.542L154.4,74.604C154.162,74.323999,153.154,73.288,152.636,72.77L152.636,71.341999L154.26,71.341999L154.26,70.334L152.636,70.334L152.636,67.24L151.656,67.24ZM155.59,72.195999L157.914,72.195999L157.914,74.743999L155.59,74.743999L155.59,72.195999ZM155.59,71.257999L155.59,68.766L157.914,68.766L157.914,71.257999L155.59,71.257999ZM155.59,75.681999L157.914,75.681999L157.914,78.257999L155.59,78.257999L155.59,75.681999ZM154.624,67.814L154.624,80.063999L155.59,80.063999L155.59,79.224001L157.914,79.224001L157.914,79.96600000000001L158.922,79.96600000000001L158.922,67.814L154.624,67.814ZM161.05,68.247999C161.89,68.653999,162.89799,69.325999,163.37399,69.83L164.004,68.99C163.5,68.5,162.492,67.87,161.652,67.478L161.05,68.247999ZM160.518,71.916C161.344,72.265999,162.32401,72.854,162.828,73.30199999999999L163.42999,72.44800000000001C162.92599,72,161.93200000000002,71.468,161.106,71.146L160.518,71.916ZM160.798,79.308001L161.736,79.868C162.35201,78.594,163.06599,76.858,163.584,75.388L162.744,74.841999C162.17,76.41,161.372,78.23,160.798,79.308001ZM164.04601,70.165999L164.04601,80.035999L164.998,80.035999L164.998,70.165999L164.04601,70.165999ZM164.298,67.688C164.92799,68.346,165.642,69.27,165.964,69.872L166.748,69.311999C166.412,68.71000000000001,165.65601,67.828,165.026,67.19800000000001L164.298,67.688ZM165.754,77.208L165.754,78.132L171.13,78.132L171.13,77.208L168.974,77.208L168.974,74.71600000000001L170.752,74.71600000000001L170.752,73.806L168.974,73.806L168.974,71.566L170.99001,71.566L170.99001,70.656L165.95,70.656L165.95,71.566L167.994,71.566L167.994,73.806L166.132,73.806L166.132,74.71600000000001L167.994,74.71600000000001L167.994,77.208L165.754,77.208ZM167.09801,67.87L167.09801,68.835999L171.97,68.835999L171.97,78.691999C171.97,78.958,171.886,79.056,171.634,79.056C171.368,79.07,170.45801,79.07,169.52,79.042C169.674,79.322001,169.828,79.798,169.884,80.077999C171.088,80.077999,171.886,80.063999,172.32001,79.896C172.76801,79.714001,172.922,79.392,172.922,78.70599899999999L172.922,67.87L167.09801,67.87ZM177.82201,79.78399999999999L178.774,78.97200000000001C177.90601,77.950001,176.646,76.676001,175.638,75.864L174.728,76.662001C175.722,77.47399899999999,176.92599,78.677999,177.82201,79.78399999999999ZM196.28799,74.52C196.806,74.996,197.394,75.667999,197.674,76.115999L198.40201,75.681999C198.108,75.247999,197.506,74.59,196.974,74.142L196.28799,74.52ZM191.192,76.256001L191.192,77.152L198.87801,77.152L198.87801,76.256001L195.42,76.256001L195.42,73.889999L198.248,73.889999L198.248,72.98L195.42,72.98L195.42,70.978L198.584,70.978L198.584,70.03999999999999L191.388,70.03999999999999L191.388,70.978L194.42599,70.978L194.42599,72.98L191.78,72.98L191.78,73.889999L194.42599,73.889999L194.42599,76.256001L191.192,76.256001ZM189.20399,67.87L189.20399,80.120001L190.26801,80.120001L190.26801,79.42L199.69,79.42L199.69,80.120001L200.79601,80.120001L200.79601,67.87L189.20399,67.87ZM190.26801,78.440001L190.26801,68.849999L199.69,68.849999L199.69,78.440001L190.26801,78.440001ZM207.362,73.119999L207.362,74.323999L204.38,74.323999L204.38,73.119999L207.362,73.119999ZM203.39999,72.22399899999999L203.39999,80.10600099999999L204.38,80.10600099999999L204.38,77.25L207.362,77.25L207.362,78.888C207.362,79.07,207.32001,79.12599900000001,207.138,79.12599900000001C206.92799,79.139999,206.34,79.139999,205.68201,79.112C205.82201,79.392,205.976,79.798,206.032,80.077999C206.914,80.077999,207.51601,80.063999,207.908,79.91C208.286,79.742001,208.39799,79.44800000000001,208.39799,78.902L208.39799,72.22399899999999L203.39999,72.22399899999999ZM204.38,75.15L207.362,75.15L207.362,76.424L204.38,76.424L204.38,75.15ZM214.01199,68.28999999999999C213.214,68.71000000000001,211.95399,69.214,210.75,69.62L210.75,67.268L209.714,67.268L209.714,71.916C209.714,73.063999,210.064,73.386,211.408,73.386C211.688,73.386,213.508,73.386,213.81599,73.386C214.922,73.386,215.244,72.924,215.356,71.21600000000001C215.062,71.146,214.642,70.992,214.43201,70.809999C214.362,72.195999,214.26401,72.434,213.718,72.434C213.326,72.434,211.786,72.434,211.492,72.434C210.862,72.434,210.75,72.35,210.75,71.902L210.75,70.474C212.108,70.082,213.606,69.578,214.71201,69.073999L214.01199,68.28999999999999ZM214.17999,74.53399999999999C213.368,75.05199999999999,212.024,75.598,210.75,76.018L210.75,73.77799999999999L209.714,73.77799999999999L209.714,78.51C209.714,79.686001,210.078,79.993999,211.436,79.993999C211.73,79.993999,213.578,79.993999,213.886,79.993999C215.062,79.993999,215.356,79.49,215.48199,77.614C215.202,77.54400100000001,214.782,77.37599900000001,214.54401,77.208C214.48801,78.790001,214.37601,79.056,213.802,79.056C213.396,79.056,211.842,79.056,211.534,79.056C210.87601,79.056,210.75,78.97200000000001,210.75,78.524L210.75,76.886C212.164,76.493999,213.774,75.94800000000001,214.866,75.318001L214.17999,74.53399999999999ZM203.17599,71.257999C203.47,71.132,203.96001,71.062,207.79601,70.79599999999999C207.922,71.062,208.034,71.313999,208.118,71.538L209.028,71.118C208.73399,70.278,207.95,69.018,207.222,68.08L206.368,68.415999C206.718,68.891999,207.06799,69.452,207.37601,69.998L204.29601,70.165999C204.89799,69.424,205.528,68.486,206.01801,67.547999L204.92599,67.212C204.478,68.304,203.70799,69.41,203.47,69.70400000000001C203.23199,69.998,203.022,70.208,202.812,70.25C202.938,70.53,203.12,71.03399999999999,203.17599,71.257999ZM224.82001,67.268C224.12,69.228,222.64999,71.16,220.802,72.392C221.054,72.573999,221.40401,72.938,221.57201,73.147999C222.02,72.84,222.44,72.49,222.832,72.112L222.832,72.798L227.452,72.798L227.452,71.944C227.87199,72.364,228.29201,72.714001,228.726,73.007999C228.894,72.728001,229.244,72.336,229.496,72.12599900000001C228.026,71.313999,226.51401,69.62,225.674,67.94L225.828,67.547999L224.82001,67.268ZM227.34,71.832001L223.112,71.832001C223.952,70.978,224.65201,69.998,225.198,68.934C225.786,69.998,226.54201,71.006001,227.34,71.832001ZM222.146,74.379999L222.146,80.162001L223.18201,80.162001L223.18201,79.406L227.004,79.406L227.004,80.120001L228.06799,80.120001L228.06799,74.379999L222.146,74.379999ZM223.18201,78.45400000000001L223.18201,75.332001L227.004,75.332001L227.004,78.45400000000001L223.18201,78.45400000000001ZM217.036,68.57L217.036,77.74L218.01601,77.74L218.01601,76.396L220.69,76.396L220.69,68.57L217.036,68.57ZM218.01601,69.549999L219.696,69.549999L219.696,75.416L218.01601,75.416L218.01601,69.549999ZM232.548,71.257999C232.15601,72.112,231.48399,73.133999,230.658,73.75L231.51199,74.268C232.32401,73.596001,232.95399,72.532,233.40199,71.65L232.548,71.257999ZM234.92799,70.208C235.79601,70.613999,236.832,71.257999,237.336,71.747999L237.896,71.062C237.37801,70.599999,236.314,69.969999,235.46001,69.592L234.92799,70.208ZM240.20599,71.846001C241.10201,72.615999,242.12399,73.736,242.57201,74.478001L243.37,73.889999C242.908,73.147999,241.858,72.084,240.976,71.327999L240.20599,71.846001ZM239.632,70.068C238.554,71.383999,236.98599,72.476,235.17999,73.344L235.17999,71.03399999999999L234.228,71.03399999999999L234.228,73.736L234.228,73.77799999999999C233.052,74.268,231.79201,74.674,230.532,74.982C230.728,75.191999,231.036,75.639999,231.162,75.864C232.282,75.542,233.416,75.15,234.494,74.688C234.75999,74.968,235.25,75.05199999999999,236.104,75.05199999999999C236.412,75.05199999999999,238.75,75.05199999999999,239.086,75.05199999999999C240.304,75.05199999999999,240.612,74.646,240.752,72.98C240.48599,72.924,240.09399,72.78399999999999,239.856,72.629999C239.814,73.987999,239.688,74.184,239.01601,74.184C238.498,74.184,236.53799,74.184,236.16,74.184L235.62801,74.156C237.56,73.218,239.29601,72.014,240.528,70.516L239.632,70.068ZM232.254,76.256001L232.254,79.476L240.79401,79.476L240.79401,80.091999L241.84399,80.091999L241.84399,76.14399900000001L240.79401,76.14399900000001L240.79401,78.482L237.504,78.482L237.504,75.5L236.44,75.5L236.44,78.482L233.28999,78.482L233.28999,76.256001L232.254,76.256001ZM236.188,67.268C236.328,67.618,236.45399,68.066,236.53799,68.443999L231.078,68.443999L231.078,71.188L232.114,71.188L232.114,69.396L241.886,69.396L241.886,71.188L242.95,71.188L242.95,68.443999L237.63,68.443999C237.54601,68.038,237.364,67.52,237.18201,67.099999L236.188,67.268ZM249.362,73.119999L249.362,74.323999L246.38,74.323999L246.38,73.119999L249.362,73.119999ZM245.39999,72.22399899999999L245.39999,80.10600099999999L246.38,80.10600099999999L246.38,77.25L249.362,77.25L249.362,78.888C249.362,79.07,249.32001,79.12599900000001,249.138,79.12599900000001C248.92799,79.139999,248.34,79.139999,247.68201,79.112C247.82201,79.392,247.976,79.798,248.032,80.077999C248.914,80.077999,249.51601,80.063999,249.908,79.91C250.286,79.742001,250.39799,79.44800000000001,250.39799,78.902L250.39799,72.22399899999999L245.39999,72.22399899999999ZM246.38,75.15L249.362,75.15L249.362,76.424L246.38,76.424L246.38,75.15ZM256.01198999999997,68.28999999999999C255.214,68.71000000000001,253.95399,69.214,252.75,69.62L252.75,67.268L251.714,67.268L251.714,71.916C251.714,73.063999,252.064,73.386,253.408,73.386C253.688,73.386,255.508,73.386,255.81599,73.386C256.922,73.386,257.244,72.924,257.356,71.21600000000001C257.062,71.146,256.642,70.992,256.43201,70.809999C256.36199999999997,72.195999,256.26401,72.434,255.718,72.434C255.326,72.434,253.786,72.434,253.492,72.434C252.862,72.434,252.75,72.35,252.75,71.902L252.75,70.474C254.108,70.082,255.606,69.578,256.71200999999996,69.073999L256.01198999999997,68.28999999999999ZM256.17999,74.53399999999999C255.368,75.05199999999999,254.024,75.598,252.75,76.018L252.75,73.77799999999999L251.714,73.77799999999999L251.714,78.51C251.714,79.686001,252.078,79.993999,253.436,79.993999C253.73,79.993999,255.578,79.993999,255.886,79.993999C257.062,79.993999,257.356,79.49,257.48199,77.614C257.202,77.54400100000001,256.78200000000004,77.37599900000001,256.54400999999996,77.208C256.48801000000003,78.790001,256.37601,79.056,255.802,79.056C255.396,79.056,253.842,79.056,253.534,79.056C252.87601,79.056,252.75,78.97200000000001,252.75,78.524L252.75,76.886C254.164,76.493999,255.774,75.94800000000001,256.866,75.318001L256.17999,74.53399999999999ZM245.17599,71.257999C245.47,71.132,245.96001,71.062,249.79601,70.79599999999999C249.922,71.062,250.034,71.313999,250.118,71.538L251.028,71.118C250.73399,70.278,249.95,69.018,249.222,68.08L248.368,68.415999C248.718,68.891999,249.06799,69.452,249.37601,69.998L246.29601,70.165999C246.89799,69.424,247.528,68.486,248.01801,67.547999L246.92599,67.212C246.478,68.304,245.70799,69.41,245.47,69.70400000000001C245.23199,69.998,245.022,70.208,244.812,70.25C244.938,70.53,245.12,71.03399999999999,245.17599,71.257999ZM265.51801,73.30199999999999L269.802,73.30199999999999L269.802,74.53399999999999L265.51801,74.53399999999999L265.51801,73.30199999999999ZM265.51801,71.313999L269.802,71.313999L269.802,72.518L265.51801,72.518L265.51801,71.313999ZM265.07001,76.129999C264.64999,77.068001,264.034,78.048,263.39,78.733999C263.62801,78.87400099999999,264.034,79.12599900000001,264.23,79.280001C264.84599000000003,78.55199999999999,265.54601,77.417999,266.00800000000004,76.396L265.07001,76.129999ZM269.03200000000004,76.368C269.592,77.264,270.26401,78.440001,270.57201,79.139999L271.53799000000004,78.70599899999999C271.202,78.03399999999999,270.502,76.872,269.942,76.018L269.03200000000004,76.368ZM259.21799999999996,68.122C259.98801000000003,68.612,261.03799000000004,69.297999,261.55600000000004,69.731999L262.18600000000004,68.891999C261.64,68.486,260.59000000000003,67.842,259.834,67.394L259.21799999999996,68.122ZM258.53200000000004,71.902C259.31599,72.336,260.366,73.007999,260.89799,73.4L261.51401,72.559999C260.96799999999996,72.167999,259.90400999999997,71.566,259.134,71.16L258.53200000000004,71.902ZM258.826,79.336L259.76401,79.924C260.43600000000004,78.608,261.22,76.872,261.79400999999996,75.388L260.95399,74.799999C260.32401,76.396,259.442,78.243999,258.826,79.336ZM262.73199,67.926L262.73199,71.761999C262.73199,74.072001,262.578,77.25,260.996,79.504C261.23399,79.615999,261.68201,79.882,261.86400000000003,80.063999C263.53,77.712,263.754,74.212,263.754,71.761999L263.754,68.877999L271.31399999999996,68.877999L271.31399999999996,67.926L262.73199,67.926ZM267.10001,69.073999C267.01601,69.48,266.84801,70.054,266.69399999999996,70.502L264.56599,70.502L264.56599,75.346001L267.086,75.346001L267.086,79C267.086,79.153999,267.03,79.209999,266.86199999999997,79.224001C266.67999,79.224001,266.06399999999996,79.224001,265.40601000000004,79.209999C265.53200000000004,79.476,265.658,79.854,265.7,80.10600099999999C266.62399,80.120001,267.24001,80.120001,267.618,79.96600000000001C267.996,79.812,268.09398999999996,79.54599999999999,268.09398999999996,79.02799999999999L268.09398999999996,75.346001L270.78200000000004,75.346001L270.78200000000004,70.502L267.716,70.502C267.89799,70.138,268.08000000000004,69.717999,268.26198999999997,69.311999L267.10001,69.073999ZM284.13800000000003,69.27C283.158,70.768,281.81399999999996,72.153999,280.34398999999996,73.316L280.34398999999996,67.492L279.224,67.492L279.224,74.156C278.328,74.785999,277.40400999999997,75.332001,276.50800000000004,75.780001C276.774,75.976,277.11,76.34,277.278,76.577999C277.922,76.242001,278.58000000000004,75.864,279.224,75.444L279.224,77.865999C279.224,79.434,279.644,79.868,281.04400999999996,79.868C281.35201,79.868,283.214,79.868,283.536,79.868C285.02,79.868,285.31399999999996,78.944,285.46799999999996,76.326C285.14599999999996,76.242001,284.698,76.018,284.418,75.808001C284.32001,78.202,284.222,78.818001,283.48,78.818001C283.07401,78.818001,281.49199999999996,78.818001,281.15601000000004,78.818001C280.48399,78.818001,280.34398999999996,78.664,280.34398999999996,77.89399900000001L280.34398999999996,74.674C282.14999,73.358,283.858,71.747999,285.14599999999996,69.941999L284.13800000000003,69.27ZM276.382,67.24C275.528,69.382,274.10001,71.468,272.58799999999997,72.812C272.812,73.049999,273.16200000000003,73.596001,273.28799000000004,73.834C273.834,73.30199999999999,274.38,72.672001,274.89799,71.97200000000001L274.89799,80.120001L276.004,80.120001L276.004,70.334C276.536,69.452,277.026,68.5,277.418,67.561999L276.382,67.24ZM286.728,77.992001L286.728,79.042L299.314,79.042L299.314,77.992001L293.54599,77.992001L293.54599,69.9L298.60001,69.9L298.60001,68.822L287.45599000000004,68.822L287.45599000000004,69.9L292.384,69.9L292.384,77.992001L286.728,77.992001ZM308.09201,67.17C307.686,68.36,306.92999,69.48,306.06201,70.208L306.44,70.446L306.44,71.41199900000001L302.05801,71.41199900000001L302.05801,72.293999L306.44,72.293999L306.44,73.554001L300.672,73.554001L300.672,74.478001L309.31,74.478001L309.31,75.709999L301.12,75.709999L301.12,76.633999L309.31,76.633999L309.31,78.860001C309.31,79.056,309.23999,79.112,308.98801,79.12599900000001C308.73599,79.139999,307.91,79.139999,306.95801,79.112C307.112,79.392,307.29401,79.812,307.35001,80.10600099999999C308.49799,80.10600099999999,309.28201,80.091999,309.758,79.952C310.23401,79.78399999999999,310.37399,79.49,310.37399,78.87400099999999L310.37399,76.633999L313.00601,76.633999L313.00601,75.709999L310.37399,75.709999L310.37399,74.478001L313.384,74.478001L313.384,73.554001L307.51801,73.554001L307.51801,72.293999L312.05399,72.293999L312.05399,71.41199900000001L307.51801,71.41199900000001L307.51801,70.446L307.29401,70.446C307.60199,70.11,307.896,69.731999,308.16199,69.311999L309.11401,69.311999C309.534,69.858,309.94,70.516,310.108,70.978L311.01801,70.585999C310.86401,70.222,310.57001,69.759999,310.24799,69.311999L313.23001,69.311999L313.23001,68.415999L308.66602,68.415999C308.83401,68.094,308.974,67.757999,309.10001,67.408L308.09201,67.17ZM303.12201,77.236C304.03201,77.837999,305.04001,78.733999,305.50201,79.392L306.314,78.733999C305.83801,78.076,304.802,77.208,303.892,76.633999L303.12201,77.236ZM302.604,67.17C302.12799,68.415999,301.34399,69.634,300.46201,70.46000000000001C300.71399,70.585999,301.14801,70.88,301.34399,71.048C301.806,70.585999,302.254,69.983999,302.67401,69.311999L303.23401,69.311999C303.5,69.858,303.75201,70.488,303.836,70.908L304.77399,70.55799999999999C304.69,70.236,304.49399,69.759999,304.284,69.311999L306.832,69.311999L306.832,68.415999L303.164,68.415999C303.31799,68.094,303.47198,67.771999,303.59799,67.436L302.604,67.17ZM316.716,75.584C315.55399,75.584,314.58801,76.535999,314.58801,77.712C314.58801,78.902,315.55399,79.854,316.716,79.854C317.90601,79.854,318.858,78.902,318.858,77.712C318.858,76.535999,317.90601,75.584,316.716,75.584ZM316.716,79.139999C315.94601,79.139999,315.302,78.51,315.302,77.712C315.302,76.941999,315.94601,76.298,316.716,76.298C317.51401,76.298,318.14401,76.941999,318.14401,77.712C318.14401,78.51,317.51401,79.139999,316.716,79.139999Z" fill="#2F2F2F" fill-opacity="1"/></g><g><rect x="34" y="0" width="188" height="53" rx="10" fill="#00AD65" fill-opacity="1"/></g><g><path d="M69.509999,12.0699997C70.049999,13.1200008,70.62,14.5300007,70.86,15.4899998L59.6099999,15.4899998L59.6099999,22.030001L63.21,22.030001L63.21,19L80.67,19L80.67,22.030001L84.42,22.030001L84.42,15.4899998L72.389999,15.4899998L74.69999899999999,14.9200001C74.43,13.9300003,73.74,12.3700008,73.08,11.2600002L69.509999,12.0699997ZM59.01,23.560001L59.01,26.98L70.11,26.98L70.11,35.32C70.11,35.769999999999996,69.929999,35.860001,69.33,35.889999C68.67,35.889999,66.3599997,35.889999,64.4400001,35.799999C64.98,36.85,65.5500002,38.529999,65.7299995,39.610001C68.46000000000001,39.639999,70.53,39.580002,71.969999,39.009998C73.440001,38.470001,73.859999,37.389999,73.859999,35.41L73.859999,26.98L85.049999,26.98L85.049999,23.560001L59.01,23.560001ZM95.25,21.940001000000002L108.720001,21.940001000000002L108.720001,23.110001L95.25,23.110001L95.25,21.940001000000002ZM95.25,25.119999L108.720001,25.119999L108.720001,26.32L95.25,26.32L95.25,25.119999ZM95.25,18.759999999999998L108.720001,18.759999999999998L108.720001,19.93L95.25,19.93L95.25,18.759999999999998ZM91.77000000000001,16.75L91.77000000000001,28.33L96.57,28.33C94.77000000000001,29.92,91.950001,31.33,88.08,32.35C88.77,32.889999,89.759998,34.09,90.18,34.9C92.07,34.269999999999996,93.720001,33.58,95.189999,32.799999C96.09,33.760000000000005,97.110001,34.6,98.25,35.32C95.04000099999999,36.16,91.439999,36.639999,87.809999,36.82C88.32,37.57,88.889999,38.830002,89.130001,39.700001C93.66,39.279999,98.07,38.560001,101.91,37.209998999999996C105.360001,38.59,109.529999,39.369999,114.33000200000001,39.700001C114.779999,38.740002,115.650002,37.269999999999996,116.34,36.519999999999996C112.55999800000001,36.370001,109.110001,35.980000000000004,106.16999799999999,35.290001000000004C108.20999900000001,34.09,109.949997,32.59,111.239998,30.700001L108.989998,29.290001L108.389999,29.440001L99.84,29.440001C100.200001,29.08,100.55999800000001,28.720001,100.889999,28.33L112.349998,28.33L112.349998,16.75L103.260002,16.75L103.68,15.6100006L114.900002,15.6100006L114.900002,12.7000008L89.130001,12.7000008L89.130001,15.6100006L99.75,15.6100006L99.54000099999999,16.75L91.77000000000001,16.75ZM102.150002,34C100.70999900000001,33.43,99.47999999999999,32.709998999999996,98.45999900000001,31.869999L105.80999800000001,31.869999C104.79000099999999,32.709998999999996,103.529999,33.4,102.150002,34ZM124.650002,39.07L127.860001,36.309999000000005C126.360001,34.450001,123.449997,31.48,121.32,29.74L118.200001,32.440000999999995C120.27000000000001,34.239999999999995,122.82,36.82,124.650002,39.07ZM150.389999,30.25C149.82,31.869999,148.889999,33.58,147.779999,34.719999C148.440002,35.139999,149.58000199999998,35.980000000000004,150.120003,36.43C151.29000100000002,35.08,152.45999899999998,32.950001,153.18,30.970001L150.389999,30.25ZM157.62,31.27C158.45999999999998,32.65,159.48000000000002,34.57,159.95999999999998,35.769999999999996L162.39,34.299999C162.06,35.32,161.61,36.309999000000005,161.04000000000002,37.18C161.79000000000002,37.57,163.23000000000002,38.68,163.8,39.310001C166.41,35.530001,166.76999999999998,29.380001,166.76999999999998,24.970001L166.76999999999998,24.76L169.74,24.76L169.74,39.549999L173.22,39.549999L173.22,24.76L176.04000000000002,24.76L176.04000000000002,21.43L166.76999999999998,21.43L166.76999999999998,16.720001C169.74,16.18,172.86,15.3999996,175.35,14.4400005L172.56,11.7700005C170.37,12.790000899999999,166.74,13.7800007,163.44,14.3800011L163.44,24.970001C163.44,27.82,163.35,31.27,162.39,34.239999999999995C161.88,33.07,160.89,31.299999,159.95999999999998,29.98L157.62,31.27ZM153.059998,17.41L157.53,17.41C157.23000000000002,18.52,156.690002,20.08,156.239998,21.190001000000002L152.699997,21.190001000000002L154.139999,20.800001C153.989998,19.870001000000002,153.599998,18.460001,153.059998,17.41ZM152.849998,12.100000399999999C153.150002,12.8199997,153.480003,13.6900005,153.75,14.5L148.58999599999999,14.5L148.58999599999999,17.41L152.66999800000002,17.41L150.18,18.009999999999998C150.599998,18.970001,150.93,20.23,151.08000199999998,21.190001000000002L148.139999,21.190001000000002L148.139999,24.130001L153.870003,24.130001L153.870003,26.440001L148.32,26.440001L148.32,29.470001L153.870003,29.470001L153.870003,35.860001C153.870003,36.16,153.779999,36.25,153.449997,36.25C153.120003,36.25,152.16000400000001,36.25,151.260002,36.219999C151.68,37.059999000000005,152.099998,38.32,152.220001,39.16C153.83999599999999,39.16,155.04000100000002,39.130001,155.940002,38.650002C156.870003,38.139999,157.11,37.360001,157.11,35.92L157.11,29.470001L162.09,29.470001L162.09,26.440001L157.11,26.440001L157.11,24.130001L162.6,24.130001L162.6,21.190001000000002L159.45,21.190001000000002C159.87,20.23,160.35,19.059998999999998,160.8,17.890000999999998L158.22,17.41L162.12,17.41L162.12,14.5L157.35,14.5C157.01999999999998,13.5100002,156.510002,12.2800007,156.059998,11.350000399999999L152.849998,12.100000399999999ZM189.27,12.6400013L189.27,15.1300011L205.38,15.1300011L205.38,12.6400013L189.27,12.6400013ZM189.27,24.310001L189.27,26.650002L205.70999,26.650002L205.70999,24.310001L189.27,24.310001ZM188.28,36.459998999999996L188.28,39.07L205.92,39.07L205.92,36.459998999999996L188.28,36.459998999999996ZM190.86,15.9400005L190.86,23.440001L203.97,23.440001L203.97,15.9400005L190.86,15.9400005ZM190.53,27.58L190.53,35.5L204.33,35.5L204.33,27.58L190.53,27.58ZM179.45999999999998,18.220001C179.22,20.98,178.70999999999998,24.490002,178.26,26.74L185.55,26.74C185.31,33.010000000000005,184.98000000000002,35.440000999999995,184.47,36.07C184.2,36.4,183.93,36.459998999999996,183.51,36.459998999999996C182.97,36.459998999999996,181.92000000000002,36.43,180.75,36.34C181.2,37.120001,181.56,38.349998,181.59,39.220001C182.91,39.279999,184.2,39.25,184.95,39.16C185.85001,39.040001,186.48,38.77,187.08,37.989999999999995C187.89,36.940000999999995,188.28,33.700001,188.61,25.18C188.61,24.790001,188.64,23.889999,188.64,23.889999L181.86,23.889999L182.22,21.160001L188.19,21.160001L188.19,12.5799999L178.26,12.5799999L178.26,15.5200005L185.16,15.5200005L185.16,18.220001L179.45999999999998,18.220001ZM177.84,33.4L178.11,35.83C180.15,35.559999000000005,182.49,35.230000000000004,184.86,34.870001L184.74,32.559999000000005L182.91,32.799999L182.91,31L184.70999999999998,31L184.70999999999998,28.810001L182.91,28.810001L182.91,27.25L180.45,27.25L180.45,28.810001L178.53,28.810001L178.53,31L180.45,31L180.45,33.1L177.84,33.4ZM193.86,20.5L195.95999,20.5L195.95999,21.610001L193.86,21.610001L193.86,20.5ZM198.63,20.5L200.85001,20.5L200.85001,21.610001L198.63,21.610001L198.63,20.5ZM193.86,17.77L195.95999,17.77L195.95999,18.880001L193.86,18.880001L193.86,17.77ZM198.63,17.77L200.85001,17.77L200.85001,18.880001L198.63,18.880001L198.63,17.77ZM193.53,32.380001L195.99001,32.380001L195.99001,33.58L193.53,33.58L193.53,32.380001ZM198.66,32.380001L201.17999,32.380001L201.17999,33.58L198.66,33.58L198.66,32.380001ZM193.53,29.5L195.99001,29.5L195.99001,30.700001L193.53,30.700001L193.53,29.5ZM198.66,29.5L201.17999,29.5L201.17999,30.700001L198.66,30.700001L198.66,29.5Z" fill="#FFFFFF" fill-opacity="1"/></g></g></g></svg>