<svg xmlns="http://www.w3.org/2000/svg" xmlns:xlink="http://www.w3.org/1999/xlink" fill="none" version="1.1" width="680" height="89" viewBox="0 0 680 89"><defs><filter id="master_svg0_60_17452" filterUnits="objectBoundingBox" color-interpolation-filters="sRGB" x="-0.03076923076923077" y="-0.2909090909090909" width="1.0615384615384615" height="1.7272727272727273"><feFlood flood-opacity="0" result="BackgroundImageFix"/><feColorMatrix in="SourceAlpha" type="matrix" values="0 0 0 0 0 0 0 0 0 0 0 0 0 0 0 0 0 0 127 0"/><feOffset dy="4" dx="0"/><feGaussianBlur stdDeviation="5"/><feColorMatrix type="matrix" values="0 0 0 0 0 0 0 0 0 0 0 0 0 0 0 0 0 0 0.10000000149011612 0"/><feBlend mode="normal" in2="BackgroundImageFix" result="effect1_dropShadow"/><feBlend mode="normal" in="SourceGraphic" in2="effect1_dropShadow" result="shape"/></filter></defs><g><g><g filter="url(#master_svg0_60_17452)"><rect x="15" y="15" width="650" height="55" rx="10" fill="#FFFFFF" fill-opacity="1"/></g><g><path d="M159.5960007,41.605999C160.3520002,42.236000000000004,161.332001,43.104,161.822001,43.622L162.592,43.006001C162.088,42.502001,161.08,41.662001000000004,160.3380003,41.073999L159.5960007,41.605999ZM157.02,32.38C157.2720003,32.87,157.566,33.486000000000004,157.776,33.99L152.1620001,33.99L152.1620001,36.944L153.2120001,36.944L153.2120001,34.983999L162.746,34.983999L162.746,36.719999L153.2540002,36.719999L153.2540002,37.714000999999996L157.3980002,37.714000999999996L157.3980002,39.911999L153.618,39.911999L153.618,40.891999999999996L157.3980002,40.891999999999996L157.3980002,43.733999L151.92400002,43.733999L151.92400002,44.714000999999996L164.09,44.714000999999996L164.09,43.733999L158.5320001,43.733999L158.5320001,40.891999999999996L162.43800099999999,40.891999999999996L162.43800099999999,39.911999L158.5320001,39.911999L158.5320001,37.714000999999996L162.746,37.714000999999996L162.746,36.944L163.824,36.944L163.824,33.99L158.98,33.99C158.756,33.457999,158.3640003,32.702,158.0420003,32.127999L157.02,32.38ZM173.931999,32.254C173.917999,33.443999,173.917999,34.731999,173.834,36.034L170.698,36.034L170.698,37.042L173.75,37.042C173.428001,39.940000999999995,172.560001,42.726,170.096001,44.35C170.375999,44.532,170.712,44.882000000000005,170.880001,45.134001C171.748001,44.532,172.42000000000002,43.790001000000004,172.952,42.964000999999996C173.652,43.510000000000005,174.422001,44.294001,174.799999,44.826L175.57,44.098C175.178001,43.566,174.366001,42.823999,173.638,42.292L173.091999,42.754000000000005C173.778,41.605999,174.212,40.290001000000004,174.478001,38.917998999999995C175.192001,41.591999,176.27,43.818000999999995,177.908001,45.106001C178.076,44.84,178.412001,44.476,178.650002,44.280001C176.788,42.922001,175.625999,40.177999,175.024,37.042L178.440001,37.042L178.440001,36.034L174.841999,36.034C174.92600099999999,34.745999,174.92600099999999,33.457999,174.940001,32.254L173.931999,32.254ZM167.492001,32.268C167.072001,33.584,166.316,34.83,165.448,35.656C165.644,35.894,165.924,36.425999000000004,166.008,36.65C166.512,36.146,166.988,35.488,167.408001,34.774L170.558001,34.774L170.558001,33.794L167.92600099999999,33.794C168.122,33.388,168.290001,32.967999,168.444,32.547999000000004L167.492001,32.268ZM165.826,39.184L165.826,40.15L167.870001,40.15L167.870001,42.992001C167.870001,43.635999999999996,167.394001,44.084,167.142,44.252001C167.309999,44.434,167.562,44.812,167.66,45.035999000000004C167.898001,44.784,168.290001,44.532,171.006001,42.964000999999996C170.922001,42.754000000000005,170.796,42.348,170.754,42.068000999999995L168.85,43.117999999999995L168.85,40.15L170.726,40.15L170.726,39.184L168.85,39.184L168.85,37.293999L170.389999,37.293999L170.389999,36.341999L166.54,36.341999L166.54,37.293999L167.870001,37.293999L167.870001,39.184L165.826,39.184ZM185.439999,39.911999L185.439999,40.85L179.756001,40.85L179.756001,41.732L184.501999,41.732C183.158001,42.739999999999995,181.142,43.635999999999996,179.406,44.084C179.643999,44.308001000000004,179.938,44.700001,180.106001,44.966C181.898001,44.406,183.998001,43.341999,185.439999,42.110001L185.439999,45.106001L186.490002,45.106001L186.490002,42.068000999999995C187.917999,43.271999,190.046001,44.322001,191.880001,44.854C192.034,44.587998999999996,192.327999,44.209998999999996,192.55200200000002,43.986000000000004C190.80200200000002,43.566,188.813999,42.712,187.470001,41.732L192.25799899999998,41.732L192.25799899999998,40.85L186.490002,40.85L186.490002,39.911999L185.439999,39.911999ZM185.860001,36.271999L185.860001,37.195999L182.458,37.195999L182.458,36.271999L185.860001,36.271999ZM185.538002,32.464C185.762001,32.842,186,33.318,186.167999,33.724000000000004L183.004002,33.724000000000004C183.298,33.29,183.563999,32.842,183.80200200000002,32.422L182.709999,32.212C182.094,33.443999,180.959999,35.012,179.42000000000002,36.188C179.658001,36.327999,180.007999,36.635999999999996,180.190001,36.860001C180.624001,36.495999999999995,181.030001,36.117999999999995,181.408001,35.726L181.408001,40.205999L182.458,40.205999L182.458,39.757999L191.86600099999998,39.757999L191.86600099999998,38.917998999999995L186.868,38.917998999999995L186.868,37.952L190.886002,37.952L190.886002,37.195999L186.868,37.195999L186.868,36.271999L190.844002,36.271999L190.844002,35.516L186.868,35.516L186.868,34.592L191.417999,34.592L191.417999,33.724000000000004L187.274002,33.724000000000004C187.091999,33.275999999999996,186.784,32.66,186.476002,32.198L185.538002,32.464ZM185.860001,35.516L182.458,35.516L182.458,34.592L185.860001,34.592L185.860001,35.516ZM185.860001,37.952L185.860001,38.917998999999995L182.458,38.917998999999995L182.458,37.952L185.860001,37.952ZM194.175999,32.856L194.175999,45.120001L195.254002,45.120001L195.254002,44.532L204.704002,44.532L204.704002,45.120001L205.824001,45.120001L205.824001,32.856L194.175999,32.856ZM195.254002,43.58L195.254002,33.822L204.704002,33.822L204.704002,43.58L195.254002,43.58ZM200.700001,34.41L200.700001,36.202L196.178001,36.202L196.178001,37.139999L200.363998,37.139999C199.23,38.68,197.521999,40.066,195.967999,40.92C196.20600100000001,41.115999,196.5,41.438,196.639999,41.633999C198.040001,40.85,199.524002,39.674,200.700001,38.344L200.700001,41.605999C200.700001,41.774,200.658001,41.816,200.46200199999998,41.816C200.279999,41.83,199.692001,41.83,199.048,41.816C199.188,42.082001000000005,199.341999,42.487999,199.397999,42.768C200.307999,42.768,200.868,42.754000000000005,201.232002,42.586C201.610001,42.431999000000005,201.722,42.152,201.722,41.605999L201.722,37.139999L203.891998,37.139999L203.891998,36.202L201.722,36.202L201.722,34.41L200.700001,34.41ZM210.821999,44.784L211.774002,43.972C210.905998,42.950001,209.64600000000002,41.676001,208.638,40.864000000000004L207.728001,41.662001000000004C208.722,42.473999,209.925999,43.677999,210.821999,44.784ZM221.825996,33.15L221.825996,34.172L225.984001,34.172L225.984001,36.202L222.582001,36.202L222.582001,45.063998999999995L223.604004,45.063998999999995L223.604004,44.195999L232.466003,44.195999L232.466003,45.021999L233.515999,45.021999L233.515999,36.202L229.973999,36.202L229.973999,34.172L234.146004,34.172L234.146004,33.15L221.825996,33.15ZM223.604004,43.216L223.604004,40.584C223.786003,40.737999,224.108002,41.129999,224.220001,41.34C226.32,40.290001000000004,226.85199699999998,38.666,226.921997,37.167998999999995L228.952003,37.167998999999995L228.952003,39.379999C228.952003,40.513999999999996,229.232002,40.808001000000004,230.379997,40.808001000000004C230.617996,40.808001000000004,232.031998,40.808001000000004,232.283997,40.808001000000004L232.466003,40.808001000000004L232.466003,43.216L223.604004,43.216ZM223.604004,40.556L223.604004,37.167998999999995L225.970001,37.167998999999995C225.900002,38.4,225.466003,39.66,223.604004,40.556ZM226.935997,36.202L226.935997,34.172L228.952003,34.172L228.952003,36.202L226.935997,36.202ZM229.973999,37.167998999999995L232.466003,37.167998999999995L232.466003,39.785999000000004C232.438004,39.813998999999995,232.354004,39.813998999999995,232.185997,39.813998999999995C231.891998,39.813998999999995,230.716003,39.813998999999995,230.50599699999998,39.813998999999995C230.015999,39.813998999999995,229.973999,39.757999,229.973999,39.379999L229.973999,37.167998999999995ZM240.795998,32.478C241.019997,32.897999999999996,241.258003,33.415999,241.454002,33.849999L236.30200200000002,33.849999L236.30200200000002,36.691998999999996L237.35199699999998,36.691998999999996L237.35199699999998,34.844L246.606003,34.844L246.606003,36.691998999999996L247.711998,36.691998999999996L247.711998,33.849999L242.685997,33.849999C242.475998,33.388,242.139999,32.716,241.87400100000002,32.212L240.795998,32.478ZM244.183998,38.708C243.75,39.841999,243.134003,40.751999,242.33599900000002,41.507999C241.328003,41.101999,240.30599999999998,40.737999,239.33999599999999,40.416C239.690002,39.911999,240.06800099999998,39.323999,240.445999,38.708L244.183998,38.708ZM239.185997,38.708C238.68199900000002,39.519999999999996,238.150002,40.275999,237.702003,40.878C238.86399799999998,41.269999999999996,240.138,41.732,241.384003,42.25C240.026001,43.16,238.276001,43.747999,236.14800300000002,44.125999C236.372002,44.35,236.69400000000002,44.826,236.82,45.077999C239.10199699999998,44.587998999999996,241.00599699999998,43.860001,242.503998,42.726C244.267998,43.495999999999995,245.891998,44.322001,246.928001,45.021999L247.795998,44.111999999999995C246.718002,43.426001,245.122002,42.656,243.38600200000002,41.927999C244.239998,41.073999,244.89800300000002,40.010000000000005,245.388,38.708L248.08999599999999,38.708L248.08999599999999,37.714000999999996L241.019997,37.714000999999996C241.39800300000002,37.013999999999996,241.748001,36.313998999999995,242.02800000000002,35.656L240.893997,35.432C240.61399799999998,36.146,240.208,36.93,239.774002,37.714000999999996L235.966003,37.714000999999996L235.966003,38.708L239.185997,38.708ZM257.918,32.212C257.79200000000003,32.912,257.568,33.877999,257.344,34.634L255.44,34.634L255.44,45.120001L256.462,45.120001L256.462,44.252001L260.774,44.252001L260.774,45.021999L261.83799999999997,45.021999L261.83799999999997,34.634L258.352,34.634C258.562,33.948,258.786,33.122,258.98199999999997,32.38L257.918,32.212ZM256.462,43.257999L256.462,39.841999L260.774,39.841999L260.774,43.257999L256.462,43.257999ZM256.462,38.903999L256.462,35.613999L260.774,35.613999L260.774,38.903999L256.462,38.903999ZM251.24,32.268C250.87599899999998,33.681999,250.232002,35.054,249.461998,35.978C249.629997,36.216,249.91000400000001,36.733999,250.008003,36.958C250.470001,36.411999,250.889999,35.712,251.25400000000002,34.955999L254.90800000000002,34.955999L254.90800000000002,33.962L251.688,33.962C251.88400000000001,33.486000000000004,252.038,33.009999,252.178,32.519999999999996L251.24,32.268ZM249.882004,39.296L249.882004,40.261999L251.99599999999998,40.261999L251.99599999999998,42.865999C251.99599999999998,43.552,251.506,44.042,251.25400000000002,44.224001C251.422,44.391999999999996,251.702,44.756001,251.8,44.952C252.038,44.700001,252.416,44.448,254.894,42.964000999999996C254.796,42.754000000000005,254.684,42.348,254.642,42.068000999999995L252.962,43.034L252.962,40.261999L254.922,40.261999L254.922,39.296L252.962,39.296L252.962,37.42L254.51600000000002,37.42L254.51600000000002,36.468L250.54000100000002,36.468L250.54000100000002,37.42L251.99599999999998,37.42L251.99599999999998,39.296L249.882004,39.296ZM268.74,32.268L268.74,34.69L268.74,35.292L264.16200000000003,35.292L264.16200000000003,36.369999L268.68399999999997,36.369999C268.474,39.001999,267.55,42.082001000000005,263.742,44.35C264.008,44.532,264.38599999999997,44.924,264.554,45.176001C268.628,42.698,269.58,39.282,269.776,36.369999L274.578,36.369999C274.298,41.312,273.99,43.299999,273.486,43.775999C273.318,43.958,273.13599999999997,44,272.842,44C272.492,44,271.596,43.986000000000004,270.63,43.902C270.84000000000003,44.209998999999996,270.966,44.672001,270.994,44.980000000000004C271.86199999999997,45.021999,272.758,45.049999,273.234,45.007999C273.78,44.952,274.102,44.854,274.438,44.434C275.068,43.747999,275.348,41.648001,275.67,35.851999C275.68399999999997,35.698,275.698,35.292,275.698,35.292L269.832,35.292L269.832,34.69L269.832,32.268L268.74,32.268ZM283.39799,41.032C284.084,41.718,284.826,42.684,285.12,43.327999L285.96001,42.782C285.62399,42.138000000000005,284.868,41.214000999999996,284.18201,40.556L283.39799,41.032ZM285.98801000000003,32.226L285.98801000000003,33.752L283.25800000000004,33.752L283.25800000000004,34.731999L285.98801000000003,34.731999L285.98801000000003,36.495999999999995L282.446,36.495999999999995L282.446,37.489999999999995L287.696,37.489999999999995L287.696,39.156L282.66999999999996,39.156L282.66999999999996,40.15L287.696,40.15L287.696,43.818000999999995C287.696,44.013999999999996,287.64,44.07,287.416,44.07C287.17799,44.098,286.422,44.098,285.582,44.07C285.722,44.364000000000004,285.86199999999997,44.812,285.90400999999997,45.120001C286.96799999999996,45.120001,287.696,45.091999,288.13,44.938C288.578,44.769999999999996,288.70399,44.462,288.70399,43.818000999999995L288.70399,40.15L290.328,40.15L290.328,39.156L288.70399,39.156L288.70399,37.489999999999995L290.41200000000003,37.489999999999995L290.41200000000003,36.495999999999995L286.98199,36.495999999999995L286.98199,34.731999L289.76801,34.731999L289.76801,33.752L286.98199,33.752L286.98199,32.226L285.98801000000003,32.226ZM278.358,33.318C278.23199999999997,35.068,277.966,36.888000000000005,277.546,38.063998999999995C277.756,38.147999,278.176,38.372,278.358,38.511999C278.568,37.867999999999995,278.75,37.042,278.904,36.132000000000005L279.96799999999996,36.132000000000005L279.96799999999996,39.562C279.086,39.813998999999995,278.288,40.052,277.658,40.219999L277.882,41.284L279.96799999999996,40.611999999999995L279.96799999999996,45.120001L280.976,45.120001L280.976,40.290001000000004L282.418,39.813998999999995L282.334,38.834L280.976,39.254000000000005L280.976,36.132000000000005L282.30600000000004,36.132000000000005L282.30600000000004,35.124L280.976,35.124L280.976,32.254L279.96799999999996,32.254L279.96799999999996,35.124L279.058,35.124C279.12801,34.578,279.18401,34.032,279.24001,33.472L278.358,33.318ZM294.82201,44.784L295.774,43.972C294.90601000000004,42.950001,293.64599999999996,41.676001,292.63800000000003,40.864000000000004L291.728,41.662001000000004C292.722,42.473999,293.92599,43.677999,294.82201,44.784ZM305.826,33.15L305.826,34.172L309.98399,34.172L309.98399,36.202L306.582,36.202L306.582,45.063998999999995L307.60400000000004,45.063998999999995L307.60400000000004,44.195999L316.466,44.195999L316.466,45.021999L317.51601,45.021999L317.51601,36.202L313.974,36.202L313.974,34.172L318.14599999999996,34.172L318.14599999999996,33.15L305.826,33.15ZM307.60400000000004,43.216L307.60400000000004,40.584C307.786,40.737999,308.108,41.129999,308.22,41.34C310.32001,40.290001000000004,310.85201,38.666,310.922,37.167998999999995L312.952,37.167998999999995L312.952,39.379999C312.952,40.513999999999996,313.23199,40.808001000000004,314.38,40.808001000000004C314.618,40.808001000000004,316.03200000000004,40.808001000000004,316.284,40.808001000000004L316.466,40.808001000000004L316.466,43.216L307.60400000000004,43.216ZM307.60400000000004,40.556L307.60400000000004,37.167998999999995L309.97,37.167998999999995C309.89999,38.4,309.466,39.66,307.60400000000004,40.556ZM310.93600000000004,36.202L310.93600000000004,34.172L312.952,34.172L312.952,36.202L310.93600000000004,36.202ZM313.974,37.167998999999995L316.466,37.167998999999995L316.466,39.785999000000004C316.438,39.813998999999995,316.35400000000004,39.813998999999995,316.18600000000004,39.813998999999995C315.892,39.813998999999995,314.716,39.813998999999995,314.506,39.813998999999995C314.01601,39.813998999999995,313.974,39.757999,313.974,39.379999L313.974,37.167998999999995ZM324.79601,32.478C325.02,32.897999999999996,325.25800000000004,33.415999,325.45399,33.849999L320.302,33.849999L320.302,36.691998999999996L321.35201,36.691998999999996L321.35201,34.844L330.606,34.844L330.606,36.691998999999996L331.71200999999996,36.691998999999996L331.71200999999996,33.849999L326.68600000000004,33.849999C326.476,33.388,326.14,32.716,325.87399,32.212L324.79601,32.478ZM328.18401,38.708C327.75,39.841999,327.134,40.751999,326.336,41.507999C325.328,41.101999,324.30600000000004,40.737999,323.34000000000003,40.416C323.69,39.911999,324.06799,39.323999,324.446,38.708L328.18401,38.708ZM323.18600000000004,38.708C322.68201,39.519999999999996,322.14999,40.275999,321.702,40.878C322.86400000000003,41.269999999999996,324.13800000000003,41.732,325.384,42.25C324.026,43.16,322.276,43.747999,320.14799,44.125999C320.37199,44.35,320.69399999999996,44.826,320.82001,45.077999C323.10201,44.587998999999996,325.006,43.860001,326.504,42.726C328.26801,43.495999999999995,329.892,44.322001,330.92799,45.021999L331.79601,44.111999999999995C330.71799999999996,43.426001,329.12199,42.656,327.38599999999997,41.927999C328.24001,41.073999,328.89799,40.010000000000005,329.38800000000003,38.708L332.09000000000003,38.708L332.09000000000003,37.714000999999996L325.02,37.714000999999996C325.39799,37.013999999999996,325.748,36.313998999999995,326.028,35.656L324.894,35.432C324.61400000000003,36.146,324.20801,36.93,323.774,37.714000999999996L319.966,37.714000999999996L319.966,38.708L323.18600000000004,38.708ZM337.67599,35.823999L343.5,35.823999L343.5,37.322001L337.67599,37.322001L337.67599,35.823999ZM334.28799000000004,32.87L334.28799000000004,33.766L337.858,33.766C336.752,34.9,335.15601000000004,35.851999,333.60201,36.468C333.812,36.664,334.17599,37.056,334.31599,37.265999C335.086,36.916,335.884,36.468,336.64,35.964L336.64,38.175999000000004L344.578,38.175999000000004L344.578,34.969999L337.942,34.969999C338.37601,34.592,338.78200000000004,34.186,339.14599999999996,33.766L345.71200999999996,33.766L345.71200999999996,32.87L334.28799000000004,32.87ZM338.06799,39.66L337.84398999999996,39.674L334.246,39.674L334.246,40.625999L337.522,40.625999C336.76601,42.166,335.35201,43.243999,333.74199999999996,43.804001C333.938,44,334.23199,44.448,334.34398999999996,44.700001C336.34599000000003,43.916,338.12399,42.375999,338.908,39.925999000000004L338.26401,39.632000000000005L338.06799,39.66ZM339.58000000000004,38.4L339.58000000000004,43.93C339.58000000000004,44.098,339.524,44.153999,339.328,44.153999C339.14599999999996,44.167998999999995,338.474,44.167998999999995,337.802,44.139999C337.92799,44.42,338.082,44.812,338.12399,45.091999C339.062,45.091999,339.692,45.077999,340.09801,44.938C340.504,44.784,340.63,44.504000000000005,340.63,43.944L340.63,40.976C341.918,42.628,343.73801000000003,43.93,345.71200999999996,44.587998999999996C345.88,44.294001,346.188,43.860001,346.44,43.635999999999996C345.054,43.243999,343.73801000000003,42.558001000000004,342.65999999999997,41.676001C343.54201,41.158001,344.55,40.486000000000004,345.34801,39.855999L344.452,39.198C343.836,39.771999,342.856,40.513999999999996,341.974,41.073999C341.442,40.556,340.994,39.982,340.63,39.394001L340.63,38.4L339.58000000000004,38.4ZM348.246,35.389999L348.246,45.120001L349.28200000000004,45.120001L349.28200000000004,35.389999L348.246,35.389999ZM348.48399,32.926C349.04400999999996,33.513999999999996,349.786,34.34,350.13599999999997,34.858000000000004L350.96200999999996,34.242000000000004C350.59801,33.752,349.828,32.967999,349.26801,32.394L348.48399,32.926ZM355.28799000000004,35.544C355.75,35.992000000000004,356.33799999999997,36.608000000000004,356.64599999999996,36.972L357.304,36.439999C357.00999,36.09,356.394,35.488,355.93201,35.082L355.28799000000004,35.544ZM351.97,32.912L351.97,33.906L358.73199,33.906L358.73199,43.818000999999995C358.73199,44.013999999999996,358.67599,44.056,358.48,44.07C358.312,44.084,357.752,44.084,357.14999,44.07C357.28999,44.322001,357.42999,44.784,357.472,45.063998999999995C358.34000000000003,45.063998999999995,358.92799,45.035999000000004,359.29201,44.867999999999995C359.642,44.686001000000005,359.76801,44.391999999999996,359.76801,43.832001000000005L359.76801,32.912L351.97,32.912ZM356.95399,38.722C356.60400000000004,39.422001,356.12801,40.08,355.56799,40.667998999999995C355.37199,40.010000000000005,355.20399,39.226,355.078,38.372L357.976,37.993999L357.91999999999996,37.084L354.952,37.448C354.882,36.733999,354.812,35.992000000000004,354.784,35.25L353.86,35.25C353.90201,36.034,353.95801,36.818000999999995,354.04201,37.559999000000005L352.43201,37.728001L352.54400999999996,38.694L354.15400999999997,38.497999C354.308,39.59,354.51801,40.584,354.812,41.396C354.084,42.011999,353.25800000000004,42.544001,352.40400999999997,42.950001C352.60001,43.132000000000005,352.922,43.524,353.048,43.719999C353.78999,43.313998999999995,354.51801,42.823999,355.19,42.263999999999996C355.65201,43.117999999999995,356.26801,43.635999999999996,357.08000000000004,43.635999999999996C357.76601,43.635999999999996,358.04601,43.257999,358.18600000000004,42.263999999999996C357.99001,42.124001,357.73801000000003,41.9,357.584,41.704C357.528,42.389999,357.40201,42.726,357.12199,42.726C356.64599999999996,42.726,356.24001,42.306,355.918,41.605999C356.688,40.836,357.36,39.968,357.85001,39.001999L356.95399,38.722ZM351.78799000000004,35.082C351.312,36.622,350.5,38.133999,349.548,39.128C349.73,39.337998999999996,350.00999,39.799999,350.12199,39.982C350.416,39.66,350.696,39.296,350.96200999999996,38.889999L350.96200999999996,44.042L351.88599999999997,44.042L351.88599999999997,37.251999C352.17999,36.622,352.446,35.978,352.66999999999996,35.32L351.78799000000004,35.082ZM371.62601,41.004000000000005C372.424,41.969999,373.25,43.271999,373.558,44.139999L374.41200000000003,43.608000000000004C374.10400000000004,42.726,373.25,41.480000000000004,372.424,40.542L371.62601,41.004000000000005ZM366.76801,40.233999C367.692,40.864000000000004,368.756,41.858000000000004,369.274,42.544001L370.058,41.872C369.526,41.214000999999996,368.448,40.261999,367.50999,39.646L366.76801,40.233999ZM364.93401,40.625999L364.93401,43.524C364.93401,44.658001,365.368,44.966,367.034,44.966C367.37,44.966,369.82001,44.966,370.18401,44.966C371.472,44.966,371.82201,44.573999,371.976,42.964000999999996C371.668,42.908001,371.22,42.739999999999995,370.98199,42.586C370.89799,43.818000999999995,370.8,44.013999999999996,370.10001,44.013999999999996C369.554,44.013999999999996,367.496,44.013999999999996,367.09000000000003,44.013999999999996C366.19399999999996,44.013999999999996,366.03999,43.93,366.03999,43.510000000000005L366.03999,40.625999L364.93401,40.625999ZM362.918,40.85C362.666,41.927999,362.17599,43.16,361.60201,43.874001L362.56799,44.336C363.198,43.495999999999995,363.65999999999997,42.18,363.91200000000003,41.032L362.918,40.85ZM364.71001,36.062L371.31799,36.062L371.31799,38.526001L364.71001,38.526001L364.71001,36.062ZM363.60400000000004,35.068L363.60400000000004,39.534L372.48,39.534L372.48,35.068L370.198,35.068C370.688,34.354,371.20599000000004,33.486000000000004,371.65400999999997,32.688L370.576,32.254C370.21200999999996,33.094,369.59601,34.256,369.05,35.068L366.17999,35.068L367.006,34.647999999999996C366.754,33.99,366.11,33.023999,365.494,32.296L364.59801,32.716C365.18600000000004,33.429999,365.774,34.41,366.01198999999997,35.068L363.60400000000004,35.068ZM377.03,33.219999L377.03,37.406C377.03,39.519999999999996,376.90400999999997,42.431999000000005,375.56,44.476C375.84000000000003,44.587998999999996,376.31599,44.896,376.526,45.077999C377.94,42.922001,378.13599999999997,39.674,378.13599999999997,37.406L378.13599999999997,34.311999L388.09000000000003,34.311999L388.09000000000003,33.219999L377.03,33.219999ZM392.82201,44.784L393.774,43.972C392.90601000000004,42.950001,391.64599999999996,41.676001,390.63800000000003,40.864000000000004L389.728,41.662001000000004C390.722,42.473999,391.92599,43.677999,392.82201,44.784ZM404.274,33.205999C405.21200999999996,33.625999,406.36,34.311999,406.91999999999996,34.802L407.466,33.976C406.892,33.486000000000004,405.73,32.856,404.82001,32.464L404.274,33.205999ZM403.58799999999997,37.013999999999996C404.498,37.42,405.632,38.091999,406.20599000000004,38.568000999999995L406.724,37.714000999999996C406.13599999999997,37.251999,404.98801000000003,36.635999999999996,404.092,36.271999L403.58799999999997,37.013999999999996ZM403.994,44.224001L404.80600000000004,44.91C405.64599999999996,43.622,406.61199999999997,41.858000000000004,407.354,40.388000000000005L406.64,39.716C405.828,41.298,404.73599,43.146,403.994,44.224001ZM408.05399,33.304L408.05399,34.297999000000004L408.698,34.297999000000004L408.62799,34.311999C409.24399,37,410.12601,39.351999,411.39999,41.228001C410.14001,42.641999999999996,408.62799,43.635999999999996,406.96200999999996,44.238001C407.172,44.448,407.42401,44.84,407.564,45.106001C409.24399,44.434,410.75601,43.454,412.03,42.068000999999995C413.06601,43.356001,414.34,44.364000000000004,415.88,45.063998999999995C416.048,44.812,416.35599,44.42,416.59399,44.224001C415.026,43.58,413.73801,42.558001000000004,412.702,41.269999999999996C414.15799,39.365999,415.22198,36.832001000000005,415.72601,33.486000000000004L415.05399,33.262L414.88599,33.304L408.05399,33.304ZM409.63599,34.297999000000004L414.59201,34.297999000000004C414.116,36.804001,413.23401,38.82,412.07199,40.402C410.93799,38.694,410.15399,36.608000000000004,409.63599,34.297999000000004ZM423.41199,32.24L423.41199,34.745999L418.34399,34.745999L418.34399,41.396L419.39401,41.396L419.39401,40.528L423.41199,40.528L423.41199,45.106001L424.51801,45.106001L424.51801,40.528L428.54999,40.528L428.54999,41.326L429.62799,41.326L429.62799,34.745999L424.51801,34.745999L424.51801,32.24L423.41199,32.24ZM419.39401,39.492001L419.39401,35.768L423.41199,35.768L423.41199,39.492001L419.39401,39.492001ZM428.54999,39.492001L424.51801,39.492001L424.51801,35.768L428.54999,35.768L428.54999,39.492001ZM438.60199,32.632C439.03601,33.346000000000004,439.42801,34.311999,439.55399,34.955999L440.46399,34.62C440.32401,33.976,439.918,33.038,439.44199,32.337998999999996L438.60199,32.632ZM442.914,32.226C442.69,32.954,442.242,34.004,441.892,34.662L442.76001,34.9C443.12399,34.269999999999996,443.54401,33.318,443.922,32.478L442.914,32.226ZM438.09799,40.836L438.09799,41.83L440.74399,41.83L440.74399,45.134001L441.75201,45.134001L441.75201,41.83L444.496,41.83L444.496,40.836L441.75201,40.836L441.75201,38.806L443.936,38.806L443.936,37.826L441.75201,37.826L441.75201,35.936L444.18799,35.936L444.18799,34.969999L438.42001,34.969999L438.42001,35.936L440.74399,35.936L440.74399,37.826L438.616,37.826L438.616,38.806L440.74399,38.806L440.74399,40.836L438.09799,40.836ZM436.45999,36.16L436.45999,37.559999000000005L434.52802,37.559999000000005C434.62601,37.111999999999995,434.70999,36.65,434.78,36.16L436.45999,36.16ZM432.32999,32.94L432.32999,33.849999L434.02399,33.849999L433.89801,35.25L431.616,35.25L431.616,36.16L433.78601,36.16C433.716,36.65,433.63199,37.111999999999995,433.51999,37.559999000000005L432.26001,37.559999000000005L432.26001,38.469999L433.28201,38.469999C432.87601,39.827999,432.27399,40.948,431.392,41.802C431.616,41.983999,431.966,42.403999,432.09201,42.614000000000004C432.45599,42.236000000000004,432.79199,41.83,433.07199,41.382000000000005L433.07199,45.120001L434.03799,45.120001L434.03799,44.364000000000004L437.63599,44.364000000000004L437.63599,39.911999L433.828,39.911999C434.01001,39.464000999999996,434.164,38.973999,434.30399,38.469999L437.44,38.469999L437.44,36.16L438.28,36.16L438.28,35.25L437.44,35.25L437.44,32.94L432.32999,32.94ZM436.45999,35.25L434.892,35.25L435.03201,33.849999L436.45999,33.849999L436.45999,35.25ZM434.03799,40.836L436.61401,40.836L436.61401,43.440000999999995L434.03799,43.440000999999995L434.03799,40.836ZM453.34399,34.256L456.07401,34.256C455.69601,34.927999,455.17801,35.53,454.57599,36.062C453.98801,35.558,453.526,35.012,453.19,34.452L453.34399,34.256ZM453.358,32.24C452.784,33.653999,451.67801,34.914,450.45999,35.726C450.67001,35.908,451.01999,36.327999,451.146,36.524C451.64999,36.146,452.14001,35.698,452.58801,35.193999C452.91,35.684,453.32999,36.188,453.82001,36.65C452.784,37.378,451.57999,37.91,450.362,38.204C450.55801,38.4,450.79599,38.792,450.90799,39.029999000000004C452.19601,38.652,453.47,38.077999,454.57599,37.279999000000004C455.45801,37.938,456.564,38.497999,457.85199,38.848C457.992,38.582001000000005,458.29999,38.175999000000004,458.51001,37.966C457.26401,37.686001000000005,456.21399,37.209998999999996,455.34601,36.635999999999996C456.242,35.837998999999996,456.97,34.844,457.44601,33.653999L456.78799,33.374L456.60599,33.401999L453.87601,33.401999C454.04401,33.108000000000004,454.198,32.799999,454.33801,32.492000000000004L453.358,32.24ZM453.98801,38.175999000000004L453.98801,39.072001L451.39801,39.072001L451.39801,39.883999L453.98801,39.883999L453.98801,40.794001L451.48199,40.794001L451.48199,41.605999L453.98801,41.605999L453.98801,42.628L450.83801,42.628L450.83801,43.482L453.98801,43.482L453.98801,45.120001L455.01001,45.120001L455.01001,43.482L458.146,43.482L458.146,42.628L455.01001,42.628L455.01001,41.605999L457.57199,41.605999L457.57199,40.794001L455.01001,40.794001L455.01001,39.883999L457.61401,39.883999L457.61401,39.072001L455.01001,39.072001L455.01001,38.175999000000004L453.98801,38.175999000000004ZM447.68799,32.38L447.68799,42.278L446.806,42.348L446.806,34.578L445.98001,34.578L445.98001,43.271999L449.43799,42.992001L449.43799,43.524L450.23599,43.524L450.23599,34.564L449.43799,34.564L449.43799,42.138000000000005L448.54199,42.208L448.54199,32.38L447.68799,32.38ZM465.97198,33.038L465.97198,37.532C465.97198,39.702,465.776,42.487999,463.88599,44.448C464.12399,44.573999,464.53,44.924,464.68399,45.120001C466.70001,43.048,466.99399,39.869999,466.99399,37.532L466.99399,34.032L469.62601,34.032L469.62601,43.048C469.62601,44.252001,469.70999,44.504000000000005,469.948,44.714000999999996C470.15799,44.896,470.466,44.980000000000004,470.746,44.980000000000004C470.92801,44.980000000000004,471.25,44.980000000000004,471.45999,44.980000000000004C471.754,44.980000000000004,472.00601,44.924,472.202,44.784C472.41199,44.643999,472.52399,44.406,472.59399,44C472.64999,43.65,472.70599,42.614000000000004,472.70599,41.816C472.44,41.732,472.11801,41.563998999999995,471.90799,41.367999999999995C471.89401,42.306,471.88,43.048,471.83801,43.370001C471.82401,43.691998999999996,471.78201,43.818000999999995,471.698,43.902C471.642,43.972,471.53,44,471.418,44C471.27802,44,471.10999,44,471.01199,44C470.89999,44,470.82999,43.972,470.76001,43.916C470.69,43.860001,470.66199,43.594,470.66199,43.132000000000005L470.66199,33.038L465.97198,33.038ZM462.052,32.24L462.052,35.236000000000004L459.728,35.236000000000004L459.728,36.243999L461.91199,36.243999C461.40799,38.190000999999995,460.38599,40.374001,459.392,41.549999C459.56,41.802,459.82599,42.222,459.93799,42.502001C460.72198,41.535999000000004,461.478,39.954,462.052,38.316L462.052,45.106001L463.07401,45.106001L463.07401,38.68C463.62,39.379999,464.27802,40.247999,464.55801,40.723999L465.216,39.855999C464.89401,39.492001,463.564,37.993999,463.07401,37.504000000000005L463.07401,36.243999L465.146,36.243999L465.146,35.236000000000004L463.07401,35.236000000000004L463.07401,32.24L462.052,32.24ZM483.93399,32.954C484.42401,33.415999,484.97,34.087998999999996,485.194,34.535999000000004L485.922,34.073999C485.67001,33.639999,485.12399,33.009999,484.62,32.547999000000004L483.93399,32.954ZM485.33401,36.958C485.04001,38.344,484.62,39.604,484.07401,40.709998999999996C483.836,39.365999,483.64001,37.700001,483.52802,35.837998999999996L486.28601,35.837998999999996L486.28601,34.885999999999996L483.48599,34.885999999999996C483.45801,34.032,483.444,33.15,483.444,32.24L482.45001,32.24C482.46399,33.135999999999996,482.492,34.018,482.51999,34.885999999999996L478.20801,34.885999999999996L478.20801,35.837998999999996L482.57599,35.837998999999996C482.716,38.204,482.96799,40.332001000000005,483.34601,41.955999C482.68799,42.936001000000005,481.89001,43.761999,480.92401,44.406C481.134,44.546,481.51199,44.854,481.65201,45.007999C482.40799,44.448,483.06601,43.790001000000004,483.64001,43.034C484.06,44.308001000000004,484.59201,45.063998999999995,485.23599,45.063998999999995C486.034,45.063998999999995,486.34201,44.434,486.48199,42.530001C486.258,42.431999000000005,485.936,42.222,485.73999,41.997999C485.68399,43.440000999999995,485.55801,44.098,485.34799,44.098C485.01199,44.098,484.66199,43.327999,484.34,42.011999C485.17999,40.639999,485.79599,39.001999,486.216,37.098L485.33401,36.958ZM478.96399,36.552L478.96399,38.959998999999996L478.12399,38.959998999999996L478.12399,39.883999L478.95001,39.883999C478.88,41.34,478.60001,42.851999,477.508,44.07C477.71799,44.195999,478.04001,44.434,478.194,44.615999C479.41199,43.243999,479.72,41.549999,479.79001,39.883999L480.82599,39.883999L480.82599,43.608000000000004L481.67999,43.608000000000004L481.67999,39.883999L482.46399,39.883999L482.46399,38.959998999999996L481.67999,38.959998999999996L481.67999,36.552L480.82599,36.552L480.82599,38.959998999999996L479.80399,38.959998999999996L479.80399,36.552L478.96399,36.552ZM475.492,32.24L475.492,35.208L473.86801,35.208L473.86801,36.188L475.492,36.188L475.492,36.216C475.10001,38.133999,474.28799,40.374001,473.46201,41.549999C473.64401,41.802,473.896,42.25,474.008,42.530001C474.55399,41.704,475.07199,40.402,475.492,39.015999L475.492,45.106001L476.47198,45.106001L476.47198,37.91C476.78,38.483999,477.13,39.141999999999996,477.284,39.506001L477.87201,38.722C477.67599,38.372,476.78,37.042,476.47198,36.622L476.47198,36.188L477.71799,36.188L477.71799,35.208L476.47198,35.208L476.47198,32.24L475.492,32.24ZM496.46399,33.528L496.46399,41.284L497.45801,41.284L497.45801,33.528L496.46399,33.528ZM498.95599,32.38L498.95599,43.677999C498.95599,43.902,498.88599,43.972,498.67599,43.972C498.41,43.986000000000004,497.62601,43.986000000000004,496.79999,43.958C496.94,44.280001,497.09399,44.769999999999996,497.14999,45.063998999999995C498.20001,45.063998999999995,498.97,45.035999000000004,499.39001,44.867999999999995C499.82401,44.672001,499.992,44.364000000000004,499.992,43.664L499.992,32.38L498.95599,32.38ZM488.98801,32.575998999999996C488.694,33.934,488.21799,35.334,487.57401,36.271999C487.84,36.369999,488.302,36.552,488.51199,36.664C488.75,36.257999,488.98801,35.768,489.21201,35.222L491.04599,35.222L491.04599,36.691998999999996L487.63,36.691998999999996L487.63,37.658001L491.04599,37.658001L491.04599,39.086L488.27399,39.086L488.27399,43.972L489.22601,43.972L489.22601,40.038L491.04599,40.038L491.04599,45.106001L492.05399,45.106001L492.05399,40.038L494,40.038L494,42.908001C494,43.062,493.95801,43.104,493.80399,43.104C493.64999,43.117999999999995,493.18799,43.117999999999995,492.60001,43.09C492.72601,43.356001,492.85199,43.733999,492.89401,44.013999999999996C493.664,44.013999999999996,494.20999,44,494.53201,43.846001C494.88199,43.677999,494.966,43.412001000000004,494.966,42.936001000000005L494.966,39.086L492.05399,39.086L492.05399,37.658001L495.45599,37.658001L495.45599,36.691998999999996L492.05399,36.691998999999996L492.05399,35.222L494.91,35.222L494.91,34.256L492.05399,34.256L492.05399,32.296L491.04599,32.296L491.04599,34.256L489.56201,34.256C489.716,33.78,489.85599,33.275999999999996,489.96799,32.771999L488.98801,32.575998999999996ZM501.98001,33.36C502.75,34.046,503.67401,34.998,504.09399,35.627999L504.92001,34.998C504.47198,34.368,503.534,33.443999,502.76401,32.799999L501.98001,33.36ZM507.384,39.66L512.14401,39.66L512.14401,41.83L507.384,41.83L507.384,39.66ZM506.39001,38.763999999999996L506.39001,42.712L513.194,42.712L513.194,38.763999999999996L506.39001,38.763999999999996ZM509.31601,32.24L509.31601,34.004L507.57999,34.004C507.776,33.57,507.95801,33.108000000000004,508.09799,32.646L507.11801,32.422C506.72601,33.724000000000004,506.06799,35.025999999999996,505.25601,35.88C505.508,35.992000000000004,505.94199,36.230000000000004,506.138,36.383999C506.48801,35.978,506.82401,35.474000000000004,507.13199,34.914L509.31601,34.914L509.31601,36.719999L505.26999,36.719999L505.26999,37.615999L514.28601,37.615999L514.28601,36.719999L510.35199,36.719999L510.35199,34.914L513.67001,34.914L513.67001,34.004L510.35199,34.004L510.35199,32.24L509.31601,32.24ZM504.51401,37.615999L501.65799,37.615999L501.65799,38.596001L503.50601,38.596001L503.50601,42.782C502.93201,43.019999999999996,502.27399,43.510000000000005,501.65799,44.098L502.31601,45.021999C503.01599,44.224001,503.702,43.552,504.17801,43.552C504.45801,43.552,504.87799,43.916,505.396,44.224001C506.29199,44.742001,507.46799,44.854,509.10599,44.854C510.56201,44.854,513.05399,44.784,514.28601,44.714000999999996C514.29999,44.42,514.46799,43.916,514.5939900000001,43.635999999999996C513.1099899999999,43.818000999999995,510.772,43.902,509.12,43.902C507.62201,43.902,506.418,43.846001,505.578,43.341999C505.07401,43.062,504.79401,42.809999000000005,504.51401,42.698L504.51401,37.615999ZM523.0920100000001,32.17C522.6859999999999,33.36,521.92999,34.480000000000004,521.06201,35.208L521.44,35.446L521.44,36.411999L517.05801,36.411999L517.05801,37.293999L521.44,37.293999L521.44,38.554001L515.672,38.554001L515.672,39.478001L524.31,39.478001L524.31,40.709998999999996L516.12,40.709998999999996L516.12,41.633999L524.31,41.633999L524.31,43.860001C524.31,44.056,524.23999,44.111999999999995,523.98801,44.125999C523.73599,44.139999,522.9100000000001,44.139999,521.9580100000001,44.111999999999995C522.1120000000001,44.391999999999996,522.2940100000001,44.812,522.35001,45.106001C523.4979900000001,45.106001,524.28201,45.091999,524.758,44.952C525.23401,44.784,525.37399,44.489999999999995,525.37399,43.874001L525.37399,41.633999L528.0060100000001,41.633999L528.0060100000001,40.709998999999996L525.37399,40.709998999999996L525.37399,39.478001L528.384,39.478001L528.384,38.554001L522.51801,38.554001L522.51801,37.293999L527.05399,37.293999L527.05399,36.411999L522.51801,36.411999L522.51801,35.446L522.2940100000001,35.446C522.60199,35.11,522.896,34.731999,523.1619900000001,34.311999L524.11401,34.311999C524.534,34.858000000000004,524.94,35.516,525.108,35.978L526.01801,35.585999C525.86401,35.222,525.57001,34.759999,525.2479900000001,34.311999L528.23001,34.311999L528.23001,33.415999L523.66602,33.415999C523.83401,33.094,523.9739999999999,32.757999,524.10001,32.408L523.0920100000001,32.17ZM518.12201,42.236000000000004C519.03201,42.837998999999996,520.0400099999999,43.733999,520.5020099999999,44.391999999999996L521.3140000000001,43.733999C520.8380099999999,43.076,519.802,42.208,518.892,41.633999L518.12201,42.236000000000004ZM517.604,32.17C517.12799,33.415999,516.3439900000001,34.634,515.46201,35.46C515.71399,35.585999,516.14801,35.88,516.3439900000001,36.048C516.806,35.585999,517.254,34.983999,517.67401,34.311999L518.23401,34.311999C518.5,34.858000000000004,518.7520099999999,35.488,518.836,35.908L519.77399,35.558C519.69,35.236000000000004,519.4939899999999,34.759999,519.284,34.311999L521.832,34.311999L521.832,33.415999L518.164,33.415999C518.31799,33.094,518.47198,32.771999,518.59799,32.436L517.604,32.17ZM532.5,37.195999C533.06,37.195999,533.5640000000001,36.790001000000004,533.5640000000001,36.16C533.5640000000001,35.516,533.06,35.096000000000004,532.5,35.096000000000004C531.94,35.096000000000004,531.4359999999999,35.516,531.4359999999999,36.16C531.4359999999999,36.790001000000004,531.94,37.195999,532.5,37.195999ZM531.366,46.254000000000005C532.86401,45.68,533.78799,44.504000000000005,533.78799,42.879999C533.78799,41.83,533.354,41.172001,532.58401,41.172001C532.02399,41.172001,531.51999,41.521999,531.51999,42.18C531.51999,42.851999,531.996,43.188,532.57001,43.188L532.82199,43.16C532.78,44.266001,532.17801,45.007999,531.0440100000001,45.526001L531.366,46.254000000000005Z" fill="#2F2F2F" fill-opacity="1"/></g><g><rect x="34" y="0" width="105" height="53" rx="10" fill="#0056AD" fill-opacity="1"/></g><g><path d="M69.84,20.200001C70.53,21.97,71.099999,24.310001,71.219999,25.720001L74.309999,24.91C74.16,23.470001,73.469999,21.22,72.719999,19.48L69.84,20.200001ZM81.119999,19.450001C80.76,21.130000000000003,80.01,23.470001,79.35,24.970001L82.17,25.690001C82.83,24.280001,83.639999,22.18,84.359999,20.200001L81.119999,19.450001ZM62.2199998,29.68L62.2199998,16.15L64.5599999,16.15C63.9899998,18.190001000000002,63.269999999999996,20.740000000000002,62.6099997,22.6C64.5599999,24.610001,65.03999999999999,26.440001,65.0699997,27.790001C65.0699997,28.66,64.8899999,29.23,64.5,29.5C64.23,29.68,63.8999996,29.74,63.5699997,29.74C63.1799998,29.77,62.7599998,29.77,62.2199998,29.68ZM58.86,12.8199997L58.86,39.700001L62.2199998,39.700001L62.2199998,29.860001C62.6700001,30.790001,62.9099998,32.049999,62.9099998,32.889999C63.6900001,32.92,64.4699998,32.889999,65.03999999999999,32.83C65.76000020000001,32.739999999999995,66.3899994,32.5,66.8699999,32.17C67.92,31.48,68.37,30.220001,68.37,28.27C68.37,26.530001,67.95,24.490002,65.8499994,22.209999C66.7799997,19.9,67.92,16.66,68.759999,14.0799999L66.3299999,12.6700001L65.78999999999999,12.8199997L58.86,12.8199997ZM75.15,11.5L75.15,15.7299995L69.48,15.7299995L69.48,18.970001L75.15,18.970001L75.15,22.450001C75.15,23.560001,75.119999,24.73,75,25.900002L68.67,25.900002L68.67,29.26L74.279999,29.26C73.289999,32.260000000000005,71.13,35.08,66.5999994,37.059999000000005C67.5,37.780001,68.639999,39.130001,69.15,39.91C73.41,37.780001,75.809999,34.959998999999996,77.16,31.9C78.719999,35.260000000000005,80.939999,37.989999999999995,83.91,39.639999C84.42,38.68,85.529999,37.299999,86.34,36.639999C83.189999,35.200001,80.85,32.470000999999996,79.41,29.26L85.65,29.26L85.65,25.900002L78.629999,25.900002C78.75,24.73,78.779999,23.59,78.779999,22.450001L78.779999,18.970001L84.719999,18.970001L84.719999,15.7299995L78.779999,15.7299995L78.779999,11.5L75.15,11.5ZM88.469999,13.149999600000001L88.469999,16.630001L97.08000200000001,16.630001L97.08000200000001,19.870001000000002L90,19.870001000000002L90,39.580002L93.47999999999999,39.580002L93.47999999999999,37.870001L110.72999999999999,37.870001L110.72999999999999,39.52L114.389999,39.52L114.389999,19.870001000000002L106.889999,19.870001000000002L106.889999,16.630001L115.439999,16.630001L115.439999,13.149999600000001L88.469999,13.149999600000001ZM93.47999999999999,34.540001000000004L93.47999999999999,30.07C93.95999900000001,30.610001,94.439999,31.24,94.68,31.630001C98.939999,29.68,100.08000200000001,26.35,100.259998,23.200001L103.470001,23.200001L103.470001,26.380001C103.470001,29.83,104.129997,30.82,107.279999,30.82C107.91,30.82,109.889999,30.82,110.549999,30.82L110.72999999999999,30.82L110.72999999999999,34.540001000000004L93.47999999999999,34.540001000000004ZM93.47999999999999,28.630001L93.47999999999999,23.200001L97.049999,23.200001C96.900002,25.209999,96.20999900000001,27.16,93.47999999999999,28.630001ZM100.29000099999999,19.870001000000002L100.29000099999999,16.630001L103.470001,16.630001L103.470001,19.870001000000002L100.29000099999999,19.870001000000002ZM106.889999,23.200001L110.72999999999999,23.200001L110.72999999999999,27.43C110.610001,27.459999,110.45999900000001,27.49,110.189999,27.49C109.76999699999999,27.49,108.150002,27.49,107.82,27.49C106.97999999999999,27.49,106.889999,27.369999,106.889999,26.380001L106.889999,23.200001Z" fill="#FFFFFF" fill-opacity="1"/></g></g></g></svg>