<svg xmlns="http://www.w3.org/2000/svg" xmlns:xlink="http://www.w3.org/1999/xlink" fill="none" version="1.1" width="680" height="102" viewBox="0 0 680 102"><defs><filter id="master_svg0_70_06688" filterUnits="objectBoundingBox" color-interpolation-filters="sRGB" x="-0.03076923076923077" y="-0.23529411764705882" width="1.0615384615384615" height="1.588235294117647"><feFlood flood-opacity="0" result="BackgroundImageFix"/><feColorMatrix in="SourceAlpha" type="matrix" values="0 0 0 0 0 0 0 0 0 0 0 0 0 0 0 0 0 0 127 0"/><feOffset dy="4" dx="0"/><feGaussianBlur stdDeviation="5"/><feColorMatrix type="matrix" values="0 0 0 0 0 0 0 0 0 0 0 0 0 0 0 0 0 0 0.10000000149011612 0"/><feBlend mode="normal" in2="BackgroundImageFix" result="effect1_dropShadow"/><feBlend mode="normal" in="SourceGraphic" in2="effect1_dropShadow" result="shape"/></filter></defs><g><g><g filter="url(#master_svg0_70_06688)"><rect x="15" y="15" width="650" height="68" rx="10" fill="#FFFFFF" fill-opacity="1"/></g><g><path d="M157.1600003,27.547999400000002C157.5240002,28.2059994,157.9440002,29.1019993,158.112,29.661999700000003L151.95200002,29.661999700000003L151.95200002,30.683999999999997L155.7740002,30.683999999999997C155.6059999,33.903999,155.256,37.530001,151.64399999,39.322001C151.92400002,39.518,152.26,39.882000000000005,152.414,40.148001C155.0740004,38.761999,156.1240001,36.438,156.572,33.945999L161.584001,33.945999C161.360001,37.110001,161.08,38.468,160.6740007,38.832001000000005C160.4920006,38.972,160.3100004,39,160.0019999,39C159.6240005,39,158.6440001,38.986000000000004,157.6360002,38.902C157.8460002,39.181999000000005,157.9860001,39.615999,158.0140004,39.924C158.9520001,39.993999,159.8760004,40.007999,160.3660002,39.966C160.9120007,39.938,161.262,39.84,161.584001,39.476C162.13,38.93,162.410001,37.403999,162.690001,33.427999C162.718,33.274,162.732,32.924,162.732,32.924L156.7400002,32.924C156.8240004,32.181999,156.8800001,31.426000000000002,156.9220004,30.683999999999997L164.10399999999998,30.683999999999997L164.10399999999998,29.661999700000003L158.1960001,29.661999700000003L159.1900005,29.227999699999998C158.9940004,28.667999299999998,158.5600004,27.8140001,158.1680002,27.1559992L157.1600003,27.547999400000002ZM171.77752900000002,27.2539997C171.763529,28.3599997,171.77752900000002,29.7740002,171.56753,31.257998999999998L166.191529,31.257998999999998L166.191529,32.336L171.385529,32.336C170.825529,34.996,169.425529,37.712,165.925529,39.224001C166.219529,39.448,166.55553,39.826,166.72353,40.091999C170.13953,38.524,171.651529,35.836,172.33753000000002,33.134C173.429529,36.326,175.235531,38.804001,177.95153,40.091999C178.13353,39.784,178.46953,39.35,178.735531,39.111999999999995C176.019529,37.978001,174.18553,35.43,173.20553,32.336L178.51153,32.336L178.51153,31.257998999999998L172.687531,31.257998999999998C172.88353,29.788000099999998,172.89753,28.3879995,172.91153,27.2539997L171.77752900000002,27.2539997ZM185.303059,34.086C185.06506000000002,35.01,184.589058,35.99,184.00106,36.549999L184.827057,37.068000999999995C185.485058,36.382000000000005,185.94706,35.275999999999996,186.199059,34.282L185.303059,34.086ZM190.931061,34.184C190.609058,34.954,190.02105699999998,36.032,189.573059,36.704L190.413059,37.040001000000004C190.889061,36.382000000000005,191.435059,35.402,191.883057,34.534L190.931061,34.184ZM186.115059,27.2259998L186.115059,29.4239998L182.489059,29.4239998L182.489059,27.7439995L181.439058,27.7439995L181.439058,30.375999L191.897057,30.375999L191.897057,27.7439995L190.819057,27.7439995L190.819057,29.4239998L187.165058,29.4239998L187.165058,27.2259998L186.115059,27.2259998ZM183.833057,30.613999C183.777058,31.034,183.70705800000002,31.439999999999998,183.62305800000001,31.832L180.557058,31.832L180.557058,32.784L183.399059,32.784C182.811058,34.897999999999996,181.775059,36.577999,180.165058,37.684C180.389059,37.837998999999996,180.739059,38.216,180.893059,38.412001000000004C182.713058,37.138000000000005,183.833057,35.219999,184.463058,32.784L192.76506,32.784L192.76506,31.832L184.673058,31.832L184.855057,30.809998999999998L183.833057,30.613999ZM187.473061,33.246C187.263058,36.452,186.71706,38.370001,182.643059,39.266001C182.853058,39.476,183.119057,39.882000000000005,183.20306,40.148001C186.003059,39.489999999999995,187.305058,38.327999,187.935059,36.633999C188.50906,38.132000000000005,189.685059,39.489999999999995,192.415058,40.162001000000004C192.541058,39.854,192.80706,39.448,193.045059,39.224001C189.34906,38.412001000000004,188.663059,36.424,188.42505599999998,34.519999999999996C188.46706,34.114000000000004,188.50906,33.694,188.53706,33.246L187.473061,33.246ZM199.626587,34.086C199.388584,35.01,198.912586,35.99,198.324585,36.549999L199.150585,37.068000999999995C199.808586,36.382000000000005,200.27058399999999,35.275999999999996,200.522583,34.282L199.626587,34.086ZM205.254585,34.184C204.932587,34.954,204.344585,36.032,203.896584,36.704L204.73658799999998,37.040001000000004C205.212585,36.382000000000005,205.758583,35.402,206.206585,34.534L205.254585,34.184ZM200.438583,27.2259998L200.438583,29.4239998L196.81258400000002,29.4239998L196.81258400000002,27.7439995L195.762585,27.7439995L195.762585,30.375999L206.220585,30.375999L206.220585,27.7439995L205.142586,27.7439995L205.142586,29.4239998L201.488586,29.4239998L201.488586,27.2259998L200.438583,27.2259998ZM198.156586,30.613999C198.100586,31.034,198.030586,31.439999999999998,197.946587,31.832L194.880585,31.832L194.880585,32.784L197.72258399999998,32.784C197.134586,34.897999999999996,196.098583,36.577999,194.488586,37.684C194.712585,37.837998999999996,195.06258400000002,38.216,195.216583,38.412001000000004C197.036583,37.138000000000005,198.156586,35.219999,198.786583,32.784L207.088585,32.784L207.088585,31.832L198.996586,31.832L199.178585,30.809998999999998L198.156586,30.613999ZM201.796585,33.246C201.586586,36.452,201.040585,38.370001,196.966583,39.266001C197.176586,39.476,197.442585,39.882000000000005,197.526585,40.148001C200.326584,39.489999999999995,201.62858599999998,38.327999,202.258583,36.633999C202.832584,38.132000000000005,204.008583,39.489999999999995,206.738586,40.162001000000004C206.864586,39.854,207.130585,39.448,207.368584,39.224001C203.672585,38.412001000000004,202.98658799999998,36.424,202.748585,34.519999999999996C202.790585,34.114000000000004,202.832584,33.694,202.86058400000002,33.246L201.796585,33.246ZM212.32611500000002,32.812L218.836113,32.812L218.836113,33.763999999999996L212.32611500000002,33.763999999999996L212.32611500000002,32.812ZM212.32611500000002,31.174L218.836113,31.174L218.836113,32.098L212.32611500000002,32.098L212.32611500000002,31.174ZM211.276112,30.403999L211.276112,34.534L212.844112,34.534C212.046112,35.598,210.814114,36.577999,209.596115,37.222C209.820114,37.389999,210.184113,37.739999999999995,210.352112,37.908001C210.912113,37.572001,211.500114,37.152,212.060112,36.676001C212.648113,37.278,213.362114,37.809999000000005,214.202114,38.243999C212.508114,38.747999,210.604115,39.042,208.756115,39.181999000000005C208.924114,39.42,209.106113,39.854,209.162113,40.120001C211.290112,39.91,213.502113,39.504000000000005,215.406113,38.790001000000004C217.086113,39.448,219.060112,39.84,221.17410999999998,40.007999C221.314117,39.742001,221.552116,39.322001,221.776115,39.084C219.914116,38.972,218.164116,38.705999,216.638115,38.271999C217.926117,37.641999999999996,219.018112,36.83,219.746117,35.808L219.088112,35.374L218.92011300000001,35.43L213.306114,35.43C213.544113,35.15,213.768112,34.856,213.964111,34.562L213.880112,34.534L219.928116,34.534L219.928116,30.403999L211.276112,30.403999ZM212.03211199999998,27.2399998C211.37411500000002,28.6259995,210.17011300000001,29.9139996,208.966114,30.740000000000002C209.176113,30.936,209.498112,31.369999999999997,209.638115,31.58C210.366112,31.02,211.108112,30.292,211.738113,29.479999499999998L220.922112,29.479999499999998L220.922112,28.5979996L212.382114,28.5979996C212.606113,28.247999200000002,212.816113,27.8979998,212.984112,27.5339994L212.03211199999998,27.2399998ZM218.09411599999999,36.242001C217.394112,36.885999999999996,216.456116,37.417998999999995,215.364113,37.837998999999996C214.314114,37.417998999999995,213.432114,36.885999999999996,212.774113,36.242001L218.09411599999999,36.242001ZM229.85564399999998,27.198C228.427643,29.368000000000002,225.837646,31.243999000000002,223.177643,32.294C223.471642,32.532,223.765648,32.938,223.933647,33.218C224.661644,32.896,225.389648,32.518,226.08964500000002,32.084L226.08964500000002,32.784L233.159645,32.784L233.159645,31.846C233.88765,32.308,234.643646,32.714,235.441643,33.092C235.595642,32.756001,235.91764799999999,32.378,236.183647,32.139999C233.95764200000002,31.201999999999998,231.96964300000002,30.04,230.331642,28.3039999L230.779648,27.6739998L229.85564399999998,27.198ZM226.495644,31.817999999999998C227.68564600000002,31.034,228.791649,30.096,229.70164499999998,29.0599995C230.765648,30.179999000000002,231.88564300000002,31.061999999999998,233.103645,31.817999999999998L226.495644,31.817999999999998ZM225.361649,34.464L225.361649,40.091999L226.425644,40.091999L226.425644,39.308001000000004L232.949646,39.308001000000004L232.949646,40.035999000000004L234.05564900000002,40.035999000000004L234.05564900000002,34.464L225.361649,34.464ZM226.425644,38.327999L226.425644,35.416L232.949646,35.416L232.949646,38.327999L226.425644,38.327999ZM247.819176,27.2539997L247.819176,30.25L243.619179,30.25L243.619179,31.257998999999998L247.469177,31.257998999999998C246.405182,33.469999,244.57117499999998,35.822,242.807175,37.025999C243.05917399999998,37.236000000000004,243.38118,37.614000000000004,243.54917899999998,37.893999C245.10318,36.704,246.699181,34.716,247.819176,32.714L247.819176,38.691998999999996C247.819176,38.944,247.721176,39.028,247.469177,39.028C247.20317799999998,39.042,246.29317500000002,39.056,245.397179,39.028C245.53717799999998,39.322001,245.705177,39.812,245.761177,40.106001C246.965179,40.106001,247.791176,40.077999,248.253174,39.896C248.729179,39.728001,248.911179,39.42,248.911179,38.677999L248.911179,31.257998999999998L250.36718000000002,31.257998999999998L250.36718000000002,30.25L248.911179,30.25L248.911179,27.2539997L247.819176,27.2539997ZM240.119179,27.2399998L240.119179,30.236L237.781174,30.236L237.781174,31.257998999999998L239.979179,31.257998999999998C239.433174,33.204,238.369179,35.374,237.30517600000002,36.549999C237.48717499999998,36.816,237.767174,37.25,237.893181,37.558001000000004C238.719177,36.577999,239.517174,34.982,240.119179,33.33L240.119179,40.106001L241.169174,40.106001L241.169174,32.882C241.757179,33.638,242.485176,34.632,242.79317500000002,35.15L243.465179,34.254C243.115181,33.82,241.67318,32.139999,241.169174,31.622L241.169174,31.257998999999998L243.101181,31.257998999999998L243.101181,30.236L241.169174,30.236L241.169174,27.2399998L240.119179,27.2399998ZM252.02071,28.3319998C252.38470999999998,29.3119993,252.72071,30.599999,252.77670999999998,31.439999999999998L253.61671,31.23C253.51871,30.389999,253.19671,29.1019993,252.79071,28.1219997L252.02071,28.3319998ZM256.54271,28.0799999C256.34671000000003,29.0319996,255.94071,30.417999000000002,255.61871,31.257998999999998L256.30471,31.482C256.66871000000003,30.683999999999997,257.11671,29.368000000000002,257.46671000000003,28.317999800000003L256.54271,28.0799999ZM258.48870999999997,28.961999900000002C259.30071,29.451999700000002,260.26671,30.222,260.70071,30.753999999999998L261.26071,29.9559994C260.79871,29.4239998,259.83271,28.71,259.02071,28.2339993L258.48870999999997,28.961999900000002ZM257.77471,32.49C258.60071,32.938,259.62271,33.666,260.11271,34.17L260.63071,33.33C260.14071,32.826,259.10471,32.167999,258.26471,31.747999L257.77471,32.49ZM251.92271,31.944000000000003L251.92271,32.924L253.89670999999998,32.924C253.39271,34.478,252.51071000000002,36.326,251.69871,37.306C251.88071,37.572001,252.13271,38.019999999999996,252.24471,38.327999C252.93071,37.389999,253.64471,35.85,254.17671,34.337998999999996L254.17671,40.106001L255.15671,40.106001L255.15671,34.323999C255.67471,35.135999999999996,256.31871,36.200001,256.57071,36.732L257.27071,35.906C256.96271,35.444,255.56270999999998,33.568,255.15671,33.12L255.15671,32.924L257.45271,32.924L257.45271,31.944000000000003L255.15671,31.944000000000003L255.15671,27.2819996L254.17671,27.2819996L254.17671,31.944000000000003L251.92271,31.944000000000003ZM257.42471,36.158001L257.60671,37.124001L261.97471,36.326L261.97471,40.106001L262.98271,40.106001L262.98271,36.143999L264.78871,35.822L264.62071000000003,34.856L262.98271,35.15L262.98271,27.2399998L261.97471,27.2399998L261.97471,35.332L257.42471,36.158001ZM269.41024,39.784L270.36224,38.972C269.49424,37.950001,268.23425,36.676001,267.22624,35.864000000000004L266.31624,36.662001000000004C267.31024,37.473999,268.51424,38.677999,269.41024,39.784ZM283.57977,32.07L290.31378,32.07L290.31378,34.323999L283.57977,34.323999L283.57977,32.07ZM289.50176999999996,36.662001000000004C290.42578000000003,37.6,291.55976999999996,38.93,292.07777,39.728001L292.98778,39.111999999999995C292.42778,38.313998999999995,291.26578,37.054001,290.35577,36.129999L289.50176999999996,36.662001000000004ZM283.20177,36.143999C282.65578,37.096001,281.57777,38.271999,280.63977,39.028C280.86377,39.181999000000005,281.22776999999996,39.476,281.40977,39.686001000000005C282.40378,38.860001,283.50978,37.614000000000004,284.22377,36.521999L283.20177,36.143999ZM285.72177,27.4639997C286.01578,27.9259996,286.33777,28.4860001,286.57578,28.9759998L280.82178,28.9759998L280.82178,30.012L293.02977,30.012L293.02977,28.9759998L287.80777,28.9759998C287.56978000000004,28.4579992,287.10776999999996,27.6879997,286.72977000000003,27.1279993L285.72177,27.4639997ZM282.54377999999997,31.146L282.54377999999997,35.262L286.40778,35.262L286.40778,38.888000000000005C286.40778,39.084,286.35177999999996,39.139999,286.08577,39.153999C285.83376999999996,39.153999,284.96577,39.167998999999995,283.99977,39.139999C284.15378,39.434,284.29377999999997,39.84,284.36377,40.134001C285.59578,40.148001,286.39377,40.148001,286.88377,39.980000000000004C287.37378,39.826,287.51378,39.532,287.51378,38.902L287.51378,35.262L291.41976999999997,35.262L291.41976999999997,31.146L282.54377999999997,31.146ZM297.83331,35.346000000000004C297.25931,36.676001,296.27931,37.992001,295.22931,38.860001C295.4953,39.013999999999996,295.92931,39.35,296.12531,39.532C297.13329999999996,38.58,298.2113,37.110001,298.88329999999996,35.625999L297.83331,35.346000000000004ZM303.55931,35.766C304.6373,36.858000000000004,305.89731,38.398001,306.45731,39.364000000000004L307.39531,38.846001C306.80731000000003,37.865999,305.5193,36.396,304.42731000000003,35.332L303.55931,35.766ZM295.31331,29.1019993L295.31331,30.096L298.7153,30.096C298.1553,31.118000000000002,297.6373,31.93,297.38530000000003,32.252C296.9653,32.868,296.65729999999996,33.274,296.33531,33.358000000000004C296.47531000000004,33.652,296.65729999999996,34.198,296.7133,34.436C296.86731,34.309999,297.39931,34.24,298.23929999999996,34.24L301.33331,34.24L301.33331,38.664C301.33331,38.860001,301.29131,38.916,301.06731,38.916C300.8293,38.93,300.08731,38.93,299.2753,38.916C299.42931,39.209998999999996,299.61131,39.686001000000005,299.68129999999996,40.007999C300.67530999999997,40.007999,301.38931,39.980000000000004,301.8233,39.798C302.25730999999996,39.615999,302.39731,39.294001,302.39731,38.677999L302.39731,34.24L306.47131,34.24L306.47131,33.218L302.39731,33.218L302.39731,31.16L301.33331,31.16L301.33331,33.218L298.00131,33.218C298.67331,32.308,299.35929999999996,31.23,299.98929999999996,30.096L307.0733,30.096L307.0733,29.1019993L300.5213,29.1019993C300.7733,28.6119995,301.01131,28.1079998,301.23531,27.618000000000002L300.11531,27.1559992C299.86331,27.8140001,299.55530999999996,28.472000100000002,299.23330999999996,29.1019993L295.31331,29.1019993ZM314.71884,27.547999400000002C315.08284000000003,28.2059994,315.50284,29.1019993,315.67084,29.661999700000003L309.51083,29.661999700000003L309.51083,30.683999999999997L313.33284000000003,30.683999999999997C313.16484,33.903999,312.81483000000003,37.530001,309.20284000000004,39.322001C309.48283000000004,39.518,309.81883,39.882000000000005,309.97284,40.148001C312.63284,38.761999,313.68282999999997,36.438,314.13084000000003,33.945999L319.14284,33.945999C318.91884,37.110001,318.63883999999996,38.468,318.23283000000004,38.832001000000005C318.05084,38.972,317.86884,39,317.56084,39C317.18282999999997,39,316.20284000000004,38.986000000000004,315.19484,38.902C315.40483,39.181999000000005,315.54483,39.615999,315.57285,39.924C316.51083,39.993999,317.43484,40.007999,317.92484,39.966C318.47084,39.938,318.82083,39.84,319.14284,39.476C319.68884,38.93,319.96884,37.403999,320.24884,33.427999C320.27684,33.274,320.29083,32.924,320.29083,32.924L314.29884000000004,32.924C314.38284,32.181999,314.43884,31.426000000000002,314.48082999999997,30.683999999999997L321.66283999999996,30.683999999999997L321.66283999999996,29.661999700000003L315.75484,29.661999700000003L316.74884,29.227999699999998C316.55284,28.667999299999998,316.11884,27.8140001,315.72684000000004,27.1559992L314.71884,27.547999400000002ZM324.81438,28.276C325.52837,29.381999999999998,326.22836,30.851999,326.46637,31.775999L327.48837000000003,31.384C327.22237,30.432000000000002,326.48037999999997,29.0039997,325.76637,27.9259996L324.81438,28.276ZM334.01237000000003,27.7719994C333.62038,28.8779993,332.85037,30.432000000000002,332.24837,31.384L333.14436,31.733999C333.76038,30.823999,334.51637,29.381999999999998,335.10437,28.1639996L334.01237000000003,27.7719994ZM329.30836,27.2399998L329.30836,32.587998999999996L323.65237,32.587998999999996L323.65237,33.582L327.39036999999996,33.582C327.16637000000003,36.242001,326.63437,38.230000000000004,323.35837000000004,39.224001C323.59637,39.434,323.90437,39.854,324.01637,40.120001C327.54436999999996,38.958,328.24437,36.662001000000004,328.49637,33.582L331.10037,33.582L331.10037,38.552C331.10037,39.756001,331.43637,40.091999,332.69637,40.091999C332.94836,40.091999,334.44637,40.091999,334.72636,40.091999C335.91637000000003,40.091999,336.19637,39.489999999999995,336.32237,37.194C336.02837,37.110001,335.58037,36.927999,335.34238,36.745999999999995C335.28638,38.761999,335.20238,39.098,334.64236,39.098C334.30637,39.098,333.07437,39.098,332.80836,39.098C332.26237000000003,39.098,332.15038000000004,39.013999999999996,332.15038000000004,38.552L332.15038000000004,33.582L336.15437,33.582L336.15437,32.587998999999996L330.37238,32.587998999999996L330.37238,27.2399998L329.30836,27.2399998ZM343.53391,33.288L343.53391,35.304L340.06190000000004,35.304L340.06190000000004,33.288L343.53391,33.288ZM344.63991,33.288L348.23789999999997,33.288L348.23789999999997,35.304L344.63991,35.304L344.63991,33.288ZM343.53391,32.308L340.06190000000004,32.308L340.06190000000004,30.305999999999997L343.53391,30.305999999999997L343.53391,32.308ZM344.63991,32.308L344.63991,30.305999999999997L348.23789999999997,30.305999999999997L348.23789999999997,32.308L344.63991,32.308ZM338.96991,29.2699995L338.96991,37.194L340.06190000000004,37.194L340.06190000000004,36.326L343.53391,36.326L343.53391,37.809999000000005C343.53391,39.448,343.9959,39.882000000000005,345.5639,39.882000000000005C345.91391,39.882000000000005,348.27991,39.882000000000005,348.65790000000004,39.882000000000005C350.1559,39.882000000000005,350.4919,39.139999,350.6739,37.011999C350.3519,36.927999,349.9039,36.732,349.6239,36.535999000000004C349.52591,38.356001,349.38589,38.818000999999995,348.6019,38.818000999999995C348.0979,38.818000999999995,346.05391,38.818000999999995,345.63390000000004,38.818000999999995C344.7939,38.818000999999995,344.63991,38.65,344.63991,37.837998999999996L344.63991,36.326L349.3159,36.326L349.3159,29.2699995L344.63991,29.2699995L344.63991,27.2679996L343.53391,27.2679996L343.53391,29.2699995L338.96991,29.2699995ZM358.57144,28.8219995C359.39743,29.3959999,360.37744,30.236,360.81143,30.809998999999998L361.53943000000004,30.137999999999998C361.07744,29.549999200000002,360.08344,28.7379999,359.24343999999996,28.2059994L358.57144,28.8219995ZM358.01143,32.476C358.92143,33.049999,359.98543,33.931999,360.48944,34.534L361.18944,33.848C360.67143,33.246,359.57944,32.406,358.66943000000003,31.86L358.01143,32.476ZM356.73743,27.4359999C355.68744000000004,27.8979998,353.83943,28.317999800000003,352.27144,28.5699997C352.38344,28.7939997,352.52344,29.1440001,352.56543,29.381999999999998C353.18143,29.297999400000002,353.83943,29.1999998,354.49744,29.073999399999998L354.49744,31.188000000000002L352.13144,31.188000000000002L352.13144,32.167999L354.35744,32.167999C353.79744,33.778,352.83144,35.598,351.92143,36.591999C352.10344,36.844,352.35544,37.263999999999996,352.46744,37.558001000000004C353.18143,36.690000999999995,353.92343,35.304,354.49744,33.889999L354.49744,40.091999L355.53343,40.091999L355.53343,33.582C356.02344,34.282,356.61143000000004,35.205999,356.83543,35.668L357.47943,34.856C357.18543999999997,34.45,355.95343,32.896,355.53343,32.434L355.53343,32.167999L357.60544,32.167999L357.60544,31.188000000000002L355.53343,31.188000000000002L355.53343,28.8499994C356.21943999999996,28.6819992,356.84943999999996,28.4860001,357.38144,28.276L356.73743,27.4359999ZM357.43744000000004,36.34L357.59143,37.348L362.19743,36.591999L362.19743,40.091999L363.23343,40.091999L363.23343,36.41L365.03943000000004,36.115999L364.88544,35.15L363.23343,35.416L363.23343,27.2259998L362.19743,27.2259998L362.19743,35.584L357.43744000000004,36.34ZM374.44897000000003,27.2399998L374.44897000000003,29.4379997L371.14497,29.4379997L371.14497,30.417999000000002L374.44897000000003,30.417999000000002L374.44897000000003,32.532L371.42497000000003,32.532L371.42497000000003,33.497999L371.88696,33.497999L371.84497,33.511999C372.40497,35.01,373.17497000000003,36.312,374.16895999999997,37.375999C373.02097000000003,38.216,371.69096,38.804001,370.33296,39.167998999999995C370.54296999999997,39.391999999999996,370.79497000000003,39.826,370.90697,40.106001C372.34897,39.672001,373.72096,39.013999999999996,374.92497000000003,38.104C375.96097,39.013999999999996,377.22096,39.700001,378.67697,40.134001C378.83096,39.854,379.12496999999996,39.448,379.36296,39.224001C377.96297000000004,38.860001,376.74496,38.243999,375.72296,37.417998999999995C376.99696,36.242001,378.00496999999996,34.716,378.57896,32.784L377.90697,32.49L377.71097,32.532L375.48497,32.532L375.48497,30.417999000000002L378.85896,30.417999000000002L378.85896,29.4379997L375.48497,29.4379997L375.48497,27.2399998L374.44897000000003,27.2399998ZM372.88097,33.497999L377.24896,33.497999C376.73097,34.771999,375.93297,35.85,374.95297,36.732C374.05696,35.822,373.37097,34.730000000000004,372.88097,33.497999ZM368.34497,27.2399998L368.34497,30.067999999999998L366.53897,30.067999999999998L366.53897,31.048000000000002L368.34497,31.048000000000002L368.34497,34.128C367.60297,34.337998999999996,366.93097,34.519999999999996,366.37097,34.646L366.67897,35.668L368.34497,35.177999L368.34497,38.846001C368.34497,39.056,368.27495999999996,39.125999,368.07896,39.125999C367.89697,39.125999,367.29497000000003,39.125999,366.63696,39.111999999999995C366.76297,39.391999999999996,366.91696,39.826,366.95897,40.077999C367.92497000000003,40.091999,368.49896,40.049999,368.87697000000003,39.896C369.24097,39.728001,369.38097,39.448,369.38097,38.846001L369.38097,34.87L371.07497,34.351999L370.93497,33.4L369.38097,33.848L369.38097,31.048000000000002L370.93497,31.048000000000002L370.93497,30.067999999999998L369.38097,30.067999999999998L369.38097,27.2399998L368.34497,27.2399998ZM383.99850000000004,39.784L384.95050000000003,38.972C384.0825,37.950001,382.82249,36.676001,381.8145,35.864000000000004L380.9045,36.662001000000004C381.8985,37.473999,383.10249,38.677999,383.99850000000004,39.784ZM398.09803999999997,35.346000000000004C397.52403000000004,36.676001,396.54404,37.992001,395.49403,38.860001C395.76003000000003,39.013999999999996,396.19403,39.35,396.39003,39.532C397.39803,38.58,398.47603000000004,37.110001,399.14803,35.625999L398.09803999999997,35.346000000000004ZM403.82403999999997,35.766C404.90204,36.858000000000004,406.16202999999996,38.398001,406.72203,39.364000000000004L407.66003,38.846001C407.07202,37.865999,405.78403000000003,36.396,404.69203,35.332L403.82403999999997,35.766ZM395.57803,29.1019993L395.57803,30.096L398.98003,30.096C398.42003,31.118000000000002,397.90202,31.93,397.65002000000004,32.252C397.23003,32.868,396.92203,33.274,396.60004000000004,33.358000000000004C396.74004,33.652,396.92203,34.198,396.97803,34.436C397.13203,34.309999,397.66403,34.24,398.50403,34.24L401.59803999999997,34.24L401.59803999999997,38.664C401.59803999999997,38.860001,401.55602999999996,38.916,401.33203000000003,38.916C401.09402,38.93,400.35204,38.93,399.54002,38.916C399.69403,39.209998999999996,399.87604,39.686001000000005,399.94603,40.007999C400.94003,40.007999,401.65404,39.980000000000004,402.08803,39.798C402.52203,39.615999,402.66202999999996,39.294001,402.66202999999996,38.677999L402.66202999999996,34.24L406.73602,34.24L406.73602,33.218L402.66202999999996,33.218L402.66202999999996,31.16L401.59803999999997,31.16L401.59803999999997,33.218L398.26604,33.218C398.93803,32.308,399.62402,31.23,400.25403,30.096L407.33804,30.096L407.33804,29.1019993L400.78603,29.1019993C401.03801999999996,28.6119995,401.27603,28.1079998,401.50003000000004,27.618000000000002L400.38004,27.1559992C400.12804,27.8140001,399.82004,28.472000100000002,399.49802999999997,29.1019993L395.57803,29.1019993ZM414.98355,27.547999400000002C415.34753,28.2059994,415.76755,29.1019993,415.93555,29.661999700000003L409.77554,29.661999700000003L409.77554,30.683999999999997L413.59753,30.683999999999997C413.42953,33.903999,413.07956,37.530001,409.46756,39.322001C409.74756,39.518,410.08356,39.882000000000005,410.23755,40.148001C412.89755,38.761999,413.94754,36.438,414.39554,33.945999L419.40756,33.945999C419.18353,37.110001,418.90353,38.468,418.49756,38.832001000000005C418.31555,38.972,418.13354,39,417.82556,39C417.44754,39,416.46756,38.986000000000004,415.45953,38.902C415.66956,39.181999000000005,415.80954,39.615999,415.83755,39.924C416.77554,39.993999,417.69955,40.007999,418.18954,39.966C418.73553,39.938,419.08554,39.84,419.40756,39.476C419.95355,38.93,420.23355,37.403999,420.51355,33.427999C420.54153,33.274,420.55554,32.924,420.55554,32.924L414.56354,32.924C414.64755,32.181999,414.70355,31.426000000000002,414.74554,30.683999999999997L421.92755,30.683999999999997L421.92755,29.661999700000003L416.01956,29.661999700000003L417.01355,29.227999699999998C416.81754,28.667999299999998,416.38354,27.8140001,415.99155,27.1559992L414.98355,27.547999400000002ZM429.47507,33.288L429.47507,35.304L426.00305,35.304L426.00305,33.288L429.47507,33.288ZM430.58105,33.288L434.17908,33.288L434.17908,35.304L430.58105,35.304L430.58105,33.288ZM429.47507,32.308L426.00305,32.308L426.00305,30.305999999999997L429.47507,30.305999999999997L429.47507,32.308ZM430.58105,32.308L430.58105,30.305999999999997L434.17908,30.305999999999997L434.17908,32.308L430.58105,32.308ZM424.91107,29.2699995L424.91107,37.194L426.00305,37.194L426.00305,36.326L429.47507,36.326L429.47507,37.809999000000005C429.47507,39.448,429.93707,39.882000000000005,431.50507,39.882000000000005C431.85507,39.882000000000005,434.22107,39.882000000000005,434.59906,39.882000000000005C436.09708,39.882000000000005,436.43307,39.139999,436.61505,37.011999C436.29306,36.927999,435.84506,36.732,435.56506,36.535999000000004C435.46707,38.356001,435.32706,38.818000999999995,434.54306,38.818000999999995C434.03906,38.818000999999995,431.99506,38.818000999999995,431.57507,38.818000999999995C430.73508,38.818000999999995,430.58105,38.65,430.58105,37.837998999999996L430.58105,36.326L435.25708,36.326L435.25708,29.2699995L430.58105,29.2699995L430.58105,27.2679996L429.47507,27.2679996L429.47507,29.2699995L424.91107,29.2699995ZM441.02658,30.740000000000002L441.02658,31.622L449.41257,31.622L449.41257,30.740000000000002L441.02658,30.740000000000002ZM441.06857,27.211999900000002C440.39658,29.2419996,439.23459,31.188000000000002,437.86258,32.42C438.12857,32.559999,438.59058,32.882,438.80057,33.049999C439.65457,32.195999,440.46658,31.02,441.13858,29.717999499999998L450.44858,29.717999499999998L450.44858,28.7939997L441.58658,28.7939997C441.78259,28.3599997,441.96457,27.9119997,442.11859,27.4639997L441.06857,27.211999900000002ZM439.61258,32.728L439.61258,33.652L447.24258,33.652C447.39658,37.278,447.91458,40.106001,449.77658,40.106001C450.61658,40.106001,450.85458,39.448,450.95258,37.782C450.71457,37.641999999999996,450.42059,37.403999,450.21057,37.166C450.18259,38.341999,450.09857,39.07,449.84659,39.07C448.75458,39.084,448.36258,35.934,448.26459,32.728L439.61258,32.728ZM458.2341,34.912L458.2341,35.85L452.55011,35.85L452.55011,36.732L457.29611,36.732C455.95209,37.739999999999995,453.9361,38.635999999999996,452.2001,39.084C452.43811,39.308001000000004,452.73209,39.700001,452.90009,39.966C454.69211,39.406,456.79208,38.341999,458.2341,37.110001L458.2341,40.106001L459.28409,40.106001L459.28409,37.068000999999995C460.7121,38.271999,462.84009,39.322001,464.6741,39.854C464.82809,39.587998999999996,465.1221,39.209998999999996,465.3461,38.986000000000004C463.5961,38.566,461.60809,37.712,460.2641,36.732L465.05209,36.732L465.05209,35.85L459.28409,35.85L459.28409,34.912L458.2341,34.912ZM458.65408,31.271999L458.65408,32.195999L455.25211,32.195999L455.25211,31.271999L458.65408,31.271999ZM458.33209,27.4639997C458.55609,27.842,458.7941,28.317999800000003,458.9621,28.724L455.7981,28.724C456.0921,28.29,456.35809,27.842,456.5961,27.4219999L455.50409,27.211999900000002C454.88809,28.4439993,453.75409,30.012,452.21411,31.188000000000002C452.45209,31.327999,452.80209,31.636,452.9841,31.86C453.41809,31.496000000000002,453.8241,31.118000000000002,454.20209,30.726L454.20209,35.205999L455.25211,35.205999L455.25211,34.757999L464.6601,34.757999L464.6601,33.917999L459.66211,33.917999L459.66211,32.952L463.68008,32.952L463.68008,32.195999L459.66211,32.195999L459.66211,31.271999L463.63809,31.271999L463.63809,30.516L459.66211,30.516L459.66211,29.592L464.2121,29.592L464.2121,28.724L460.06808,28.724C459.88611,28.276,459.57809,27.6599998,459.27011,27.198L458.33209,27.4639997ZM458.65408,30.516L455.25211,30.516L455.25211,29.592L458.65408,29.592L458.65408,30.516ZM458.65408,32.952L458.65408,33.917999L455.25211,33.917999L455.25211,32.952L458.65408,32.952ZM467.29361,27.8559999L467.29361,40.120001L468.37161,40.120001L468.37161,39.532L477.82162,39.532L477.82162,40.120001L478.94162,40.120001L478.94162,27.8559999L467.29361,27.8559999ZM468.37161,38.58L468.37161,28.8219995L477.82162,28.8219995L477.82162,38.58L468.37161,38.58ZM473.81763,29.4099998L473.81763,31.201999999999998L469.29562,31.201999999999998L469.29562,32.139999L473.48163,32.139999C472.34763,33.68,470.63962,35.066,469.0856,35.92C469.32361,36.115999,469.61761,36.438,469.75763,36.633999C471.15762,35.85,472.6416,34.674,473.81763,33.344L473.81763,36.605999C473.81763,36.774,473.7756,36.816,473.57962,36.816C473.39761,36.83,472.8096,36.83,472.16562,36.816C472.3056,37.082001000000005,472.45963,37.487999,472.51562,37.768C473.42563,37.768,473.98563,37.754000000000005,474.34961,37.586C474.7276,37.431999000000005,474.8396,37.152,474.8396,36.605999L474.8396,32.139999L477.00961,32.139999L477.00961,31.201999999999998L474.8396,31.201999999999998L474.8396,29.4099998L473.81763,29.4099998ZM484.26312,39.784L485.21512,38.972C484.34714,37.950001,483.08713,36.676001,482.07913,35.864000000000004L481.16913,36.662001000000004C482.16312,37.473999,483.36713,38.677999,484.26312,39.784ZM500.09866,30.683999999999997C500.39264,30.866,500.70065,31.09,500.99466,31.313999000000003C500.54666,31.677999,500.05664,32,499.58066,32.266C499.70663,32.35,499.87463,32.49,500.02866,32.629999C499.88864,32.868,499.72064,33.106,499.53864,33.33L495.49265,33.33L495.49265,34.184L498.74066,34.184C497.77466,35.094,496.54266,35.808,495.24066,36.312C495.45065,36.480000000000004,495.77264,36.858000000000004,495.89865,37.054001C497.41064,36.382000000000005,498.86664,35.416,499.97266,34.184L503.76666,34.184C504.69064,35.388,506.21664,36.452,507.64465,36.997999C507.78464,36.745999999999995,508.06464,36.396,508.28864,36.200001C507.04266,35.822,505.74066,35.066,504.87265,34.184L508.05066,34.184L508.05066,33.33L500.65866,33.33C500.79865,33.134,500.92465,32.938,501.03665,32.728L500.64465,32.615999C500.98065,32.378,501.31665,32.112,501.65265,31.832C502.03064,32.139999,502.35266,32.462,502.57666,32.714L503.19266,32.139999C502.96866,31.874000000000002,502.63266,31.58,502.25464,31.271999C502.60464,30.922,502.92664,30.544,503.17865,30.179999000000002L502.35266,29.8999996C502.14264,30.193998999999998,501.89066,30.488,501.59665,30.768C501.28864,30.558,500.98065,30.348,500.68665,30.165999L500.09866,30.683999999999997ZM503.43066,34.59C502.46466,34.842,500.63065,35.052,499.09064,35.122C499.17465,35.29,499.28665,35.542,499.31464,35.71C499.94464,35.682,500.61664,35.639999,501.28864,35.57L501.28864,36.256001L498.09665,36.256001L498.09665,36.914L501.28864,36.914L501.28864,37.586L496.54266,37.586L496.54266,38.271999L501.28864,38.271999L501.28864,39.111999999999995C501.28864,39.294001,501.23264,39.35,501.00864,39.364000000000004C500.78464,39.378,500.01465,39.391999999999996,499.17465,39.35C499.30066,39.587998999999996,499.44064,39.882000000000005,499.48264,40.120001C500.56064,40.120001,501.27466,40.134001,501.69464,40.007999C502.12866,39.896,502.26865,39.672001,502.26865,39.139999L502.26865,38.271999L507.00064,38.271999L507.00064,37.586L502.26865,37.586L502.26865,36.914L505.44666,36.914L505.44666,36.256001L502.26865,36.256001L502.26865,35.458C502.94064,35.36,503.58466,35.262,504.10266,35.122L503.43066,34.59ZM500.14066,28.0099993C500.46265,28.1919994,500.81265,28.4159994,501.13464,28.653999300000002C500.75665,28.948,500.35065,29.227999699999998,499.93066,29.451999700000002L499.93066,28.6259995L498.40466,28.6259995L498.40466,27.2539997L497.52264,27.2539997L497.52264,28.6259995L495.60464,28.6259995L495.60464,29.4659996L497.34064,29.4659996C496.83664,30.334,496.02466,31.243999000000002,495.31064,31.719999C495.46466,31.958,495.64664,32.336,495.73065,32.573999C496.36066,32.112,497.00464,31.341999,497.52264,30.53L497.52264,32.91L498.40466,32.91L498.40466,30.389999C498.79666,30.796,499.27264,31.285999,499.45465,31.552L500.00064,30.823999C499.76263,30.599999,498.75464,29.802,498.40466,29.549999200000002L498.40466,29.4659996L499.91666,29.4659996L499.86066,29.4939995C500.05664,29.6199999,500.36465,29.9139996,500.50464,30.082C500.92465,29.816000000000003,501.37265,29.4939995,501.79266,29.1440001C502.14264,29.4239998,502.45065,29.6899996,502.66064,29.9279995L503.27664,29.368000000000002C503.05264,29.1440001,502.73065,28.8639994,502.36664,28.5979996C502.68866,28.276,502.96866,27.9259996,503.20663,27.5899992L502.40866,27.3519993C502.22665,27.618000000000002,501.98865,27.883999799999998,501.72266,28.1499996C501.38666,27.9119997,501.03665,27.701999700000002,500.71466,27.5339994L500.14066,28.0099993ZM505.08264,27.2399998L505.08264,28.6259995L503.29065,28.6259995L503.29065,29.4659996L504.76065,29.4659996C504.29865,30.292,503.58466,31.09,502.89865,31.509999999999998C503.10864,31.65,503.38864,31.958,503.52866,32.167999C504.07465,31.761999,504.63464,31.09,505.08264,30.362000000000002L505.08264,32.896L505.97864,32.896L505.97864,30.264C506.48264,31.061999999999998,507.14066,31.817999999999998,507.75665,32.266C507.91064,32.042,508.19064,31.733999,508.38666,31.58C507.64465,31.131999999999998,506.83264,30.32,506.30066,29.4659996L507.98065,29.4659996L507.98065,28.6259995L505.97864,28.6259995L505.97864,27.2399998L505.08264,27.2399998ZM511.51016,27.2819996C511.09018,28.5839996,510.36215,29.8439999,509.53616,30.67C509.70416,30.894,509.98416,31.426000000000002,510.08215,31.65C510.55817,31.16,511.02017,30.53,511.41217,29.8439999L514.63217,29.8439999L514.63217,28.8359995L511.94415,28.8359995C512.14017,28.4159994,512.30817,27.9819994,512.46216,27.547999400000002L511.51016,27.2819996ZM511.79016,40.021999C512.0001500000001,39.798,512.37817,39.587998999999996,514.71616,38.370001C514.64618,38.16,514.56216,37.754000000000005,514.53418,37.473999L512.88217,38.271999L512.88217,35.15L514.77216,35.15L514.77216,34.184L512.88217,34.184L512.88217,32.294L514.45016,32.294L514.45016,31.341999L510.64215,31.341999L510.64215,32.294L511.88815,32.294L511.88815,34.184L509.92816,34.184L509.92816,35.15L511.88815,35.15L511.88815,38.216C511.88815,38.761999,511.58017,39,511.34216,39.111999999999995C511.51016,39.336,511.72015,39.769999999999996,511.79016,40.021999ZM515.10815,27.9819994L515.10815,40.106001L516.08817,40.106001L516.08817,28.9200001L521.10016,28.9200001L521.10016,38.719999C521.10016,38.93,521.01617,39,520.82016,39C520.62418,39,519.96616,39.013999999999996,519.23816,38.986000000000004C519.37817,39.238001,519.53217,39.672001,519.57416,39.924C520.58215,39.924,521.18417,39.91,521.56216,39.742001C521.94016,39.573999,522.08017,39.294001,522.08017,38.733999L522.08017,27.9819994L515.10815,27.9819994ZM519.60217,29.4379997C519.32217,30.572,519.0001500000001,31.705999,518.62216,32.798C518.14618,31.93,517.64215,31.076,517.16617,30.292L516.42416,30.683999999999997C517.01218,31.664,517.64215,32.798,518.20218,33.917999C517.6141700000001,35.444,516.9141500000001,36.83,516.1581699999999,37.893999C516.38217,38.019999999999996,516.78818,38.271999,516.94217,38.412001000000004C517.58615,37.445999,518.18817,36.269999999999996,518.72015,34.968C519.1961699999999,35.948,519.60217,36.885999999999996,519.86816,37.641999999999996L520.66617,37.208C520.34418,36.269999999999996,519.79816,35.08,519.16815,33.848C519.67218,32.49,520.10617,31.048000000000002,520.48416,29.6059999L519.60217,29.4379997ZM529.85168,34.912L529.85168,35.85L524.16769,35.85L524.16769,36.732L528.9137000000001,36.732C527.56967,37.739999999999995,525.55368,38.635999999999996,523.8176900000001,39.084C524.05569,39.308001000000004,524.3496700000001,39.700001,524.51767,39.966C526.30969,39.406,528.40967,38.341999,529.85168,37.110001L529.85168,40.106001L530.90167,40.106001L530.90167,37.068000999999995C532.32968,38.271999,534.45767,39.322001,536.29169,39.854C536.44568,39.587998999999996,536.73969,39.209998999999996,536.9636800000001,38.986000000000004C535.2136800000001,38.566,533.22568,37.712,531.88168,36.732L536.66968,36.732L536.66968,35.85L530.90167,35.85L530.90167,34.912L529.85168,34.912ZM530.27167,31.271999L530.27167,32.195999L526.86969,32.195999L526.86969,31.271999L530.27167,31.271999ZM529.94968,27.4639997C530.17368,27.842,530.4116799999999,28.317999800000003,530.57968,28.724L527.4156800000001,28.724C527.70969,28.29,527.97568,27.842,528.2136800000001,27.4219999L527.12167,27.211999900000002C526.50568,28.4439993,525.37167,30.012,523.8317,31.188000000000002C524.06967,31.327999,524.41968,31.636,524.60168,31.86C525.03568,31.496000000000002,525.44168,31.118000000000002,525.81967,30.726L525.81967,35.205999L526.86969,35.205999L526.86969,34.757999L536.2776799999999,34.757999L536.2776799999999,33.917999L531.2796900000001,33.917999L531.2796900000001,32.952L535.2976699999999,32.952L535.2976699999999,32.195999L531.2796900000001,32.195999L531.2796900000001,31.271999L535.25568,31.271999L535.25568,30.516L531.2796900000001,30.516L531.2796900000001,29.592L535.82968,29.592L535.82968,28.724L531.6856700000001,28.724C531.50369,28.276,531.19568,27.6599998,530.8877,27.198L529.94968,27.4639997ZM530.27167,30.516L526.86969,30.516L526.86969,29.592L530.27167,29.592L530.27167,30.516ZM530.27167,32.952L530.27167,33.917999L526.86969,33.917999L526.86969,32.952L530.27167,32.952ZM538.91119,27.8559999L538.91119,40.120001L539.9892,40.120001L539.9892,39.532L549.43921,39.532L549.43921,40.120001L550.5591999999999,40.120001L550.5591999999999,27.8559999L538.91119,27.8559999ZM539.9892,38.58L539.9892,28.8219995L549.43921,28.8219995L549.43921,38.58L539.9892,38.58ZM545.43521,29.4099998L545.43521,31.201999999999998L540.9132099999999,31.201999999999998L540.9132099999999,32.139999L545.0992100000001,32.139999C543.9652100000001,33.68,542.2572,35.066,540.70319,35.92C540.94119,36.115999,541.2352000000001,36.438,541.3752099999999,36.633999C542.77521,35.85,544.25919,34.674,545.43521,33.344L545.43521,36.605999C545.43521,36.774,545.39319,36.816,545.1972000000001,36.816C545.0152,36.83,544.42719,36.83,543.7832000000001,36.816C543.92319,37.082001000000005,544.0772099999999,37.487999,544.13321,37.768C545.04321,37.768,545.60321,37.754000000000005,545.9671900000001,37.586C546.34521,37.431999000000005,546.45721,37.152,546.45721,36.605999L546.45721,32.139999L548.6272,32.139999L548.6272,31.201999999999998L546.45721,31.201999999999998L546.45721,29.4099998L545.43521,29.4099998ZM555.88071,39.784L556.8326999999999,38.972C555.9647199999999,37.950001,554.70471,36.676001,553.69672,35.864000000000004L552.7867100000001,36.662001000000004C553.7807,37.473999,554.98471,38.677999,555.88071,39.784ZM572.79422,27.2399998L572.79422,29.7459993L567.72623,29.7459993L567.72623,36.396L568.77625,36.396L568.77625,35.528L572.79422,35.528L572.79422,40.106001L573.9002399999999,40.106001L573.9002399999999,35.528L577.9322199999999,35.528L577.9322199999999,36.326L579.01022,36.326L579.01022,29.7459993L573.9002399999999,29.7459993L573.9002399999999,27.2399998L572.79422,27.2399998ZM568.77625,34.492000000000004L568.77625,30.768L572.79422,30.768L572.79422,34.492000000000004L568.77625,34.492000000000004ZM577.9322199999999,34.492000000000004L573.9002399999999,34.492000000000004L573.9002399999999,30.768L577.9322199999999,30.768L577.9322199999999,34.492000000000004ZM588.99374,34.519999999999996C589.51175,34.996,590.0997600000001,35.668,590.37976,36.115999L591.10776,35.682C590.81375,35.248,590.21176,34.59,589.67975,34.141999999999996L588.99374,34.519999999999996ZM583.89774,36.256001L583.89774,37.152L591.58374,37.152L591.58374,36.256001L588.12576,36.256001L588.12576,33.889999L590.9537399999999,33.889999L590.9537399999999,32.980000000000004L588.12576,32.980000000000004L588.12576,30.978L591.28976,30.978L591.28976,30.04L584.09375,30.04L584.09375,30.978L587.13174,30.978L587.13174,32.980000000000004L584.48575,32.980000000000004L584.48575,33.889999L587.13174,33.889999L587.13174,36.256001L583.89774,36.256001ZM581.90976,27.8699999L581.90976,40.120001L582.97375,40.120001L582.97375,39.42L592.39575,39.42L592.39575,40.120001L593.5017399999999,40.120001L593.5017399999999,27.8699999L581.90976,27.8699999ZM582.97375,38.440000999999995L582.97375,28.8499994L592.39575,28.8499994L592.39575,38.440000999999995L582.97375,38.440000999999995ZM597.38126,33.385999999999996C597.26926,34.394,597.05927,35.639999,596.86328,36.480000000000004L600.60126,36.480000000000004C599.4392700000001,37.698,597.66125,38.761999,596.00928,39.308001000000004C596.24725,39.504000000000005,596.54126,39.882000000000005,596.69525,40.134001C598.36127,39.476,600.19525,38.285999000000004,601.42728,36.885999999999996L601.42728,40.120001L602.46326,40.120001L602.46326,36.480000000000004L606.52325,36.480000000000004C606.38327,37.754000000000005,606.22928,38.299999,606.0332599999999,38.495999999999995C605.9212600000001,38.594,605.7812799999999,38.608000000000004,605.52927,38.608000000000004C605.27725,38.622,604.6192599999999,38.608000000000004,603.93326,38.538C604.08728,38.804001,604.21326,39.209998999999996,604.22726,39.504000000000005C604.95526,39.546,605.6412700000001,39.546,605.99127,39.518C606.39728,39.489999999999995,606.64926,39.406,606.88727,39.167998999999995C607.25128,38.818000999999995,607.43326,37.964000999999996,607.62927,36.004000000000005C607.64328,35.864000000000004,607.65726,35.584,607.65726,35.584L602.46326,35.584L602.46326,34.282L607.18127,34.282L607.18127,31.188000000000002L596.86328,31.188000000000002L596.86328,32.084L601.42728,32.084L601.42728,33.385999999999996L597.38126,33.385999999999996ZM598.26328,34.282L601.42728,34.282L601.42728,35.584L598.06726,35.584L598.26328,34.282ZM602.46326,32.084L606.15927,32.084L606.15927,33.385999999999996L602.46326,33.385999999999996L602.46326,32.084ZM597.99725,27.1700001C597.50726,28.5139999,596.6672699999999,29.788000099999998,595.67328,30.627999000000003C595.9392700000001,30.753999999999998,596.35925,30.992,596.5552700000001,31.146C597.08728,30.642,597.60526,29.9980001,598.0532499999999,29.255999600000003L598.82327,29.255999600000003C599.1172799999999,29.816000000000003,599.39728,30.502000000000002,599.52325,30.95L600.44727,30.613999C600.3492699999999,30.264,600.12527,29.7319994,599.8732600000001,29.255999600000003L602.12726,29.255999600000003L602.12726,28.4439993L598.51526,28.4439993C598.68326,28.1079998,598.83728,27.7579994,598.96326,27.408L597.99725,27.1700001ZM603.40128,27.1700001C603.0372600000001,28.4579992,602.37927,29.6899996,601.52527,30.502000000000002C601.79126,30.627999000000003,602.2392600000001,30.894,602.44928,31.048000000000002C602.88327,30.572,603.3032499999999,29.9559994,603.6672699999999,29.255999600000003L604.6192599999999,29.255999600000003C605.08127,29.802,605.51526,30.502000000000002,605.71127,30.964L606.6212800000001,30.572C606.45328,30.208,606.13126,29.703999500000002,605.76727,29.255999600000003L608.2872600000001,29.255999600000003L608.2872600000001,28.4439993L604.04526,28.4439993C604.18527,28.1079998,604.31128,27.7579994,604.40927,27.408L603.40128,27.1700001ZM611.32678,29.2419996L611.32678,30.375999L621.39279,30.375999L621.39279,29.2419996L611.32678,29.2419996ZM610.1507899999999,37.544001L610.1507899999999,38.719999L622.5827899999999,38.719999L622.5827899999999,37.544001L610.1507899999999,37.544001ZM625.9023099999999,31.439999999999998L625.9023099999999,35.794L630.10229,35.794L630.10229,36.760000000000005L625.45432,36.760000000000005L625.45432,37.6L630.10229,37.6L630.10229,38.818000999999995L624.4042999999999,38.818000999999995L624.4042999999999,39.672001L636.96231,39.672001L636.96231,38.818000999999995L631.1523099999999,38.818000999999995L631.1523099999999,37.6L636.08029,37.6L636.08029,36.760000000000005L631.1523099999999,36.760000000000005L631.1523099999999,35.794L635.54831,35.794L635.54831,31.439999999999998L631.1523099999999,31.439999999999998L631.1523099999999,30.585999L636.8923,30.585999L636.8923,29.717999499999998L631.1523099999999,29.717999499999998L631.1523099999999,28.6399994C632.79031,28.5139999,634.33029,28.3459997,635.5343,28.1359997L634.9743000000001,27.323999399999998C632.7623,27.7159996,628.80029,27.9819994,625.5382999999999,28.066000000000003C625.6362899999999,28.276,625.74829,28.653999300000002,625.7623,28.8919992C627.13431,28.8639994,628.63229,28.807999600000002,630.10229,28.724L630.10229,29.717999499999998L624.48831,29.717999499999998L624.48831,30.585999L630.10229,30.585999L630.10229,31.439999999999998L625.9023099999999,31.439999999999998ZM626.9242899999999,33.96L630.10229,33.96L630.10229,35.024L626.9242899999999,35.024L626.9242899999999,33.96ZM631.1523099999999,33.96L634.48431,33.96L634.48431,35.024L631.1523099999999,35.024L631.1523099999999,33.96ZM626.9242899999999,32.195999L630.10229,32.195999L630.10229,33.246L626.9242899999999,33.246L626.9242899999999,32.195999ZM631.1523099999999,32.195999L634.48431,32.195999L634.48431,33.246L631.1523099999999,33.246L631.1523099999999,32.195999ZM646.8898300000001,28.038000099999998L646.8898300000001,32.728L647.8558,32.728L647.8558,28.038000099999998L646.8898300000001,28.038000099999998ZM649.5078100000001,27.323999399999998L649.5078100000001,33.582C649.5078100000001,33.763999999999996,649.45181,33.82,649.22781,33.834C649.01782,33.848,648.31781,33.848,647.51981,33.82C647.67383,34.1,647.81381,34.506001,647.8698099999999,34.785999000000004C648.86383,34.785999000000004,649.5498,34.771999,649.96982,34.604C650.3898300000001,34.45,650.5018299999999,34.184,650.5018299999999,33.596000000000004L650.5018299999999,27.323999399999998L649.5078100000001,27.323999399999998ZM643.43182,28.7379999L643.43182,30.67L641.69583,30.67L641.69583,30.585999L641.69583,28.7379999L643.43182,28.7379999ZM638.93781,30.67L638.93781,31.608L640.64581,31.608C640.49182,32.546,640.02982,33.497999,638.82581,34.24C639.0218199999999,34.379999,639.37183,34.771999,639.51181,34.968C640.93982,34.086,641.4718,32.826,641.62582,31.608L643.43182,31.608L643.43182,34.618L644.42581,34.618L644.42581,31.608L646.0218199999999,31.608L646.0218199999999,30.67L644.42581,30.67L644.42581,28.7379999L645.72781,28.7379999L645.72781,27.8140001L639.39981,27.8140001L639.39981,28.7379999L640.72983,28.7379999L640.72983,30.572L640.72983,30.67L638.93781,30.67ZM644.53781,34.351999L644.53781,35.906L640.11383,35.906L640.11383,36.872L644.53781,36.872L644.53781,38.65L638.6578099999999,38.65L638.6578099999999,39.629999L651.32782,39.629999L651.32782,38.65L645.61581,38.65L645.61581,36.872L649.87183,36.872L649.87183,35.906L645.61581,35.906L645.61581,34.351999L644.53781,34.351999ZM157.9720001,53.038002L157.9720001,57.531998C157.9720001,59.702,157.776,62.487999,155.8860002,64.448002C156.1240001,64.57400100000001,156.5300002,64.924,156.684,65.119999C158.7000003,63.048,158.9940004,59.869999,158.9940004,57.531998L158.9940004,54.031998L161.626,54.031998L161.626,63.048C161.626,64.251999,161.71,64.504002,161.948,64.714001C162.158,64.896,162.466001,64.97999999999999,162.746,64.97999999999999C162.928,64.97999999999999,163.25,64.97999999999999,163.46,64.97999999999999C163.754001,64.97999999999999,164.006001,64.924,164.202001,64.78399999999999C164.412001,64.644001,164.524,64.405998,164.594001,64C164.650001,63.650002,164.706,62.613998,164.706,61.816002C164.440001,61.731998,164.118,61.563999,163.908,61.368C163.894,62.306,163.88,63.048,163.838,63.369999C163.824,63.692001,163.782001,63.818001,163.698,63.902C163.642,63.972,163.530001,64,163.418,64C163.278001,64,163.110001,64,163.012,64C162.900001,64,162.83,63.972,162.76,63.916C162.690001,63.860001,162.662001,63.594002,162.662001,63.132L162.662001,53.038002L157.9720001,53.038002ZM154.052,52.239998L154.052,55.236L151.72800004,55.236L151.72800004,56.243999L153.9120002,56.243999C153.408,58.189999,152.386,60.374001,151.39200002,61.549999C151.56,61.802002,151.82600003,62.222,151.93800002,62.501999C152.722,61.535999,153.4780002,59.953999,154.052,58.316002L154.052,65.105999L155.0740004,65.105999L155.0740004,58.68C155.6200004,59.380001,156.2780004,60.248001,156.5580001,60.723999L157.2160001,59.855999C156.8940001,59.492001,155.5640001,57.993999,155.0740004,57.503998L155.0740004,56.243999L157.1460004,56.243999L157.1460004,55.236L155.0740004,55.236L155.0740004,52.239998L154.052,52.239998ZM175.934,52.953999C176.424,53.416,176.970001,54.087997,177.194,54.535999L177.922001,54.073997C177.67000000000002,53.639999,177.124001,53.009998,176.619999,52.548L175.934,52.953999ZM177.334,56.958C177.040001,58.344002,176.619999,59.604,176.074001,60.709999C175.836,59.366001,175.639999,57.700001,175.528,55.837997L178.285999,55.837997L178.285999,54.886002L175.486,54.886002C175.458,54.031998,175.444,53.150002,175.444,52.239998L174.450001,52.239998C174.464001,53.136002,174.492001,54.017998,174.52,54.886002L170.208,54.886002L170.208,55.837997L174.576,55.837997C174.716,58.203999,174.968,60.332001,175.346001,61.956001C174.688,62.936001,173.889999,63.762001,172.924,64.405998C173.133999,64.54600099999999,173.512001,64.854,173.652,65.007999C174.408001,64.448002,175.066,63.790001,175.639999,63.034C176.060001,64.307999,176.591999,65.063999,177.236,65.063999C178.034,65.063999,178.341999,64.433998,178.482,62.529999C178.257999,62.431999,177.936001,62.222,177.740002,61.998001C177.684,63.439999,177.558001,64.098,177.348,64.098C177.012001,64.098,176.662001,63.327999,176.34,62.012001C177.18,60.639999,177.796001,59.001999,178.216,57.098L177.334,56.958ZM170.964001,56.551998L170.964001,58.959999L170.124001,58.959999L170.124001,59.883999L170.950001,59.883999C170.880001,61.34,170.6,62.852001,169.507999,64.07C169.718,64.195999,170.040001,64.433998,170.194,64.616001C171.412001,63.243999,171.720001,61.549999,171.790001,59.883999L172.826,59.883999L172.826,63.608002L173.68,63.608002L173.68,59.883999L174.464001,59.883999L174.464001,58.959999L173.68,58.959999L173.68,56.551998L172.826,56.551998L172.826,58.959999L171.804001,58.959999L171.804001,56.551998L170.964001,56.551998ZM167.492001,52.239998L167.492001,55.208L165.868,55.208L165.868,56.188L167.492001,56.188L167.492001,56.216C167.1,58.133999,166.288,60.374001,165.462,61.549999C165.644,61.802002,165.89600000000002,62.25,166.008,62.529999C166.554,61.703999,167.072001,60.402,167.492001,59.015999L167.492001,65.105999L168.472,65.105999L168.472,57.91C168.780001,58.484001,169.130001,59.141998,169.284,59.506001L169.872,58.722C169.67600099999999,58.372002,168.780001,57.042,168.472,56.622002L168.472,56.188L169.718,56.188L169.718,55.208L168.472,55.208L168.472,52.239998L167.492001,52.239998ZM187.091999,52.169998C186.686001,53.360001,185.93,54.48,185.062,55.208L185.439999,55.445999L185.439999,56.411999L181.058001,56.411999L181.058001,57.293999L185.439999,57.293999L185.439999,58.554001L179.672001,58.554001L179.672001,59.478001L188.310001,59.478001L188.310001,60.709999L180.120001,60.709999L180.120001,61.633999L188.310001,61.633999L188.310001,63.860001C188.310001,64.056,188.240002,64.112,187.987999,64.12599900000001C187.736,64.139999,186.91,64.139999,185.958,64.112C186.112,64.391998,186.29399899999999,64.812,186.349998,65.105999C187.498001,65.105999,188.282001,65.091999,188.75799899999998,64.952C189.234001,64.78399999999999,189.374001,64.490002,189.374001,63.874001L189.374001,61.633999L192.006001,61.633999L192.006001,60.709999L189.374001,60.709999L189.374001,59.478001L192.384003,59.478001L192.384003,58.554001L186.518002,58.554001L186.518002,57.293999L191.054001,57.293999L191.054001,56.411999L186.518002,56.411999L186.518002,55.445999L186.29399899999999,55.445999C186.602001,55.110001,186.89600000000002,54.731998,187.162003,54.312L188.113998,54.312C188.534,54.858002,188.940002,55.515999,189.108002,55.978001L190.018002,55.585999C189.863998,55.222,189.57,54.759998,189.248001,54.312L192.23,54.312L192.23,53.416L187.666,53.416C187.834,53.094002,187.973999,52.757999,188.099998,52.408001L187.091999,52.169998ZM182.122,62.236C183.032001,62.838001,184.040001,63.734001,184.501999,64.391998L185.313999,63.734001C184.838001,63.076,183.80200200000002,62.208,182.892,61.633999L182.122,62.236ZM181.60399999999998,52.169998C181.128,53.416,180.344,54.633999,179.462,55.459999C179.714001,55.585999,180.148001,55.880001,180.344,56.048C180.806,55.585999,181.254,54.984001,181.674,54.312L182.234001,54.312C182.5,54.858002,182.752001,55.487999,182.836,55.908001L183.774002,55.557999C183.689999,55.236,183.493999,54.759998,183.284,54.312L185.832001,54.312L185.832001,53.416L182.164,53.416C182.318001,53.094002,182.472,52.771999,182.598,52.436001L181.60399999999998,52.169998ZM195.716,60.584C194.554001,60.584,193.588001,61.535999,193.588001,62.712002C193.588001,63.902,194.554001,64.854,195.716,64.854C196.905998,64.854,197.858002,63.902,197.858002,62.712002C197.858002,61.535999,196.905998,60.584,195.716,60.584ZM195.716,64.139999C194.945999,64.139999,194.30200200000002,63.509998,194.30200200000002,62.712002C194.30200200000002,61.942001,194.945999,61.298,195.716,61.298C196.514,61.298,197.144001,61.942001,197.144001,62.712002C197.144001,63.509998,196.514,64.139999,195.716,64.139999Z" fill="#2F2F2F" fill-opacity="1"/></g><g><rect x="34" y="0" width="105" height="53" rx="10" fill="#00AD65" fill-opacity="1"/></g><g><path d="M59.3099999,14.0200005L59.3099999,38.68L62.9400001,38.68L62.9400001,36.700001L80.85,36.700001L80.85,38.439999L84.66,38.439999L84.66,14.0200005L59.3099999,14.0200005ZM62.9400001,33.219999L62.9400001,29.110001C63.6900001,29.799999,64.58999969999999,31.059999,64.9199996,31.84C69.63,29.290001,70.28999999999999,24.82,70.41,17.5L73.35,17.5L73.35,25.42C73.35,28.51,73.94999899999999,29.950001,76.799999,29.950001C77.34,29.950001,78.84,29.950001,79.41,29.950001C79.889999,29.950001,80.43,29.950001,80.85,29.860001L80.85,33.219999L62.9400001,33.219999ZM62.9400001,28.900002L62.9400001,17.5L66.8999996,17.5C66.8099995,23.560001,66.53999999999999,26.860001,62.9400001,28.900002ZM76.709999,17.5L80.85,17.5L80.85,26.83C80.369999,26.92,79.74,26.950001,79.32,26.950001C78.869999,26.950001,77.76,26.950001,77.34,26.950001C76.77,26.950001,76.709999,26.530001,76.709999,25.540001L76.709999,17.5ZM91.529999,13.0300007L91.529999,23.41C91.529999,28.360001,91.139999,33.459998999999996,87.690001,37.360001C88.620001,37.93,90.09,39.16,90.779999,39.970001C94.799999,35.41,95.220001,29.26,95.220001,23.41L95.220001,13.0300007L91.529999,13.0300007ZM100.70999900000001,14.3199997L100.70999900000001,36.790001000000004L104.400002,36.790001000000004L104.400002,14.3199997L100.70999900000001,14.3199997ZM109.889999,12.970001199999999L109.889999,39.610001L113.66999799999999,39.610001L113.66999799999999,12.970001199999999L109.889999,12.970001199999999Z" fill="#FFFFFF" fill-opacity="1"/></g></g></g></svg>