<svg xmlns="http://www.w3.org/2000/svg" xmlns:xlink="http://www.w3.org/1999/xlink" fill="none" version="1.1" width="181" height="95" viewBox="0 0 181 95"><g><g><path d="M2.7550001,29.294998C4.1500001,31.364998,5.6800003,34.154999,6.2650003,35.954998L11.395,33.029999C10.7650003,31.23,9.0550003,28.574997,7.5700002,26.684998L2.7550001,29.294998ZM20.08,47.970001L19.855001,50.220001L3.1600001,50.220001L3.1600001,55.889999L17.92,55.889999C15.85,58.724998,11.665,60.525002,2.5300001,61.650002C3.7,63,5.1400003,65.474998,5.5900002,67.139999C15.625001,65.610001,20.800001,63.044998,23.59,59.264999C27.415001,63.855,32.769999999999996,66.150002,41.230003,67.004997C42.040001,65.25,43.705002,62.549999,45.100002,61.200001C36.82,60.884998,31.150002,59.355,28.045002,55.889999L43.885002,55.889999L43.885002,50.220001L26.695002,50.220001L26.920002,47.970001L20.08,47.970001ZM26.965,24.344997C25.300001,27.18,21.700001,30.509998,18.055,32.489998L18.055,24.524998L11.71,24.524998L11.71,35.144997C8.1100001,37.125,4.5550001,39.059998,2.125,40.184998L4.735000100000001,45.900002C6.8950005,44.595001,9.3250008,43.110001,11.71,41.535L11.71,48.014999L18.055,48.014999L18.055,42.57C19.18,43.830002,20.845001,46.439999,21.43,47.970001C32.815000999999995,45.989998,41.59,41.084999,45.010002,29.834999L41.095001,28.079998L40.015003,28.215L31.870001,28.215L33.130001,26.459999L26.965,24.344997ZM23.320002,37.125C24.400002,38.205002,25.570002,39.509998,26.560001,40.769997C24.040001,41.580002,21.16,42.119999,18.055,42.525002L18.055,33.165001C19.18,34.424999,20.665001,36.314999,21.475,37.485001C23.275002,36.449997,25.075001,35.099998,26.785002,33.614998L36.775002,33.614998C35.515003,35.549999,33.850002,37.079998,31.870001,38.339996C30.745001,36.989998,29.215002,35.459999,27.955002,34.334999L23.320002,37.125ZM46.855,56.16L47.935001,62.865002C53.244999,61.605,60.174999,59.939999,66.790001,58.275002C65.574997,59.759998,64.135002,61.064999,62.380001,62.279999C63.955002,63.404999,65.934998,65.654999,66.880005,67.275002C75.340004,61.244999,77.770004,52.064999,78.490005,40.139999L82.044998,40.139999C81.775002,53.459999,81.460007,58.860001,80.514999,60.075001C80.065002,60.705002,79.615005,60.884998,78.895004,60.884998C77.904999,60.884998,76.105003,60.84,74.080002,60.705002C75.160004,62.415001,75.925003,65.160004,76.014999,66.915001C78.309998,66.959999,80.604996,67.004997,82.089996,66.690002C83.800003,66.330002,84.970001,65.790001,86.139999,64.035004C87.625,61.875,87.985001,55.080002,88.345001,36.764999C88.345001,36,88.389999,33.974998,88.389999,33.974998L78.714996,33.974998L78.805,24.57L72.415001,24.57L72.370003,33.974998L67.285004,33.974998L67.285004,40.139999L72.190002,40.139999C71.830002,46.485001,70.885002,51.75,68.365005,56.025002L67.915001,51.974998L66.25,52.334999L66.25,26.234997L49.959999,26.234997L49.959999,55.619999L46.855,56.16ZM55.720001,54.494999L55.720001,50.309998L60.220001,50.309998L60.220001,53.595001L55.720001,54.494999ZM55.720001,41.129997L60.220001,41.129997L60.220001,44.639999L55.720001,44.639999L55.720001,41.129997ZM55.720001,35.459999L55.720001,32.084999L60.220001,32.084999L60.220001,35.459999L55.720001,35.459999ZM110.035,47.43L110.035,50.040001L93.294998,50.040001L93.294998,56.025002L110.035,56.025002L110.035,60.029999C110.035,60.615002,109.765,60.794998,108.865,60.794998C107.965,60.84,104.41,60.84,101.89,60.705002C102.88,62.369999,104.095,65.160004,104.5,67.004997C108.19,67.004997,111.205,66.915001,113.59,65.970001C115.975,65.07,116.74001,63.404999,116.74001,60.209999L116.74001,56.025002L133.84,56.025002L133.84,50.040001L116.74001,50.040001L116.74001,49.77C120.43,47.834999,123.85001,45.404999,126.505,42.974998L122.36501,39.689999L121.015,40.004997L101.62,40.004997L101.62,45.629997L113.59,45.629997C112.465,46.305,111.205,46.934998,110.035,47.43ZM109.045,26.234997C110.035,27.809998,111.07,29.834999,111.7,31.499998L105.355,31.499998L107.11,30.689999C106.39,28.98,104.635,26.639999,103.105,24.93L97.525002,27.404999C98.470001,28.619999,99.504997,30.149998,100.270004,31.499998L93.654999,31.499998L93.654999,41.939999L99.775002,41.939999L99.775002,37.214996L127.045,37.214996L127.045,41.939999L133.48001,41.939999L133.48001,31.499998L127.405,31.499998C128.53,30.059998,129.7,28.439999,130.825,26.82L123.985,24.84C123.175,26.864998,121.825,29.43,120.475,31.499998L115.39,31.499998L118.315,30.375C117.73,28.574997,116.245,25.965,114.85,24.074997L109.045,26.234997ZM157.55499,23.984997C153.28,30.689999,145.22501,34.829998,136.675,37.125C138.34,38.790001,140.14,41.309998,141.03999,43.199997C142.75,42.614998,144.46001,41.939999,146.08,41.220001L146.08,43.290001L154.89999,43.290001L154.89999,47.16L141.175,47.16L141.175,53.009998L146.35001,53.009998L143.64999,54.134998C144.955,56.07,146.30499,58.59,147.02499,60.525002L138.88,60.525002L138.88,66.464996L178.21001,66.464996L178.21001,60.525002L169.52499,60.525002C170.785,58.814999,172.27,56.52,173.71001,54.27L170.155,53.009998L175.645,53.009998L175.645,47.16L161.965,47.16L161.965,43.290001L170.605,43.290001L170.605,40.68C172.405,41.535,174.25,42.254997,176.095,42.884998C177.08501,41.220001,179.11,38.564999,180.595,37.169998C173.89,35.459999,166.87,32.174999,162.505,28.574997L163.765,26.73L157.55499,23.984997ZM164.575,37.305L153.235,37.305C155.17,36,157.015,34.559998,158.67999,32.939999C160.48,34.470001,162.46001,35.954998,164.575,37.305ZM154.89999,53.009998L154.89999,60.525002L149.72501,60.525002L153.00999,59.084999C152.425,57.375,151.075,54.989998,149.67999,53.009998L154.89999,53.009998ZM161.965,53.009998L167.095,53.009998C166.24001,55.169998,164.935,57.779999,163.81,59.535L166.24001,60.525002L161.965,60.525002L161.965,53.009998Z" fill="#FFFFFF" fill-opacity="1"/></g><g><g><rect x="0" y="88" width="181" height="7" rx="3.5" fill="#FFFFFF" fill-opacity="1"/></g></g></g></svg>