<svg xmlns="http://www.w3.org/2000/svg" xmlns:xlink="http://www.w3.org/1999/xlink" fill="none" version="1.1" width="181" height="95" viewBox="0 0 181 95"><g><g><path d="M20.035,47.43L20.035,50.040001L3.2950001,50.040001L3.2950001,56.025002L20.035,56.025002L20.035,60.029999C20.035,60.615002,19.765001,60.794998,18.865,60.794998C17.965,60.84,14.410001,60.84,11.89,60.705002C12.88,62.369999,14.095,65.160004,14.500001,67.004997C18.190001,67.004997,21.205,66.915001,23.59,65.970001C25.975,65.07,26.740002,63.404999,26.740002,60.209999L26.740002,56.025002L43.84,56.025002L43.84,50.040001L26.740002,50.040001L26.740002,49.77C30.43,47.834999,33.850002,45.404999,36.505001,42.974998L32.365002000000004,39.689999L31.015001,40.004997L11.620001,40.004997L11.620001,45.629997L23.59,45.629997C22.465,46.305,21.205,46.934998,20.035,47.43ZM19.045,26.234997C20.035,27.809998,21.070002,29.834999,21.700001,31.499998L15.355,31.499998L17.110001,30.689999C16.39,28.98,14.635,26.639999,13.105,24.93L7.5250001,27.404999C8.470000299999999,28.619999,9.5050001,30.149998,10.2700005,31.499998L3.6550002,31.499998L3.6550002,41.939999L9.7750006,41.939999L9.7750006,37.214996L37.045002,37.214996L37.045002,41.939999L43.480003,41.939999L43.480003,31.499998L37.405003,31.499998C38.530003,30.059998,39.700001,28.439999,40.825001,26.82L33.985001,24.84C33.175003,26.864998,31.825001,29.43,30.475,31.499998L25.390001,31.499998L28.315001,30.375C27.730001,28.574997,26.245001,25.965,24.85,24.074997L19.045,26.234997ZM48.790001,26.234997L48.790001,67.095001L54.459999,67.095001L54.459999,52.424999C55.044998,53.91,55.360001,55.755001,55.360001,57.014999C56.440002,57.014999,57.474998,57.014999,58.240002,56.880001C59.275002,56.700001,60.174999,56.384998,60.940002,55.799999C62.470001,54.630001,63.099998,52.650002,63.099998,49.455002C63.099998,46.889999,62.650002,43.739998,60.220001,40.275002C61.255001,37.214996,62.470001,33.254997,63.459999,29.654999L63.459999,39.059998L66.970001,39.059998L66.970001,43.650002L85.824997,43.650002L85.824997,39.059998L89.335007,39.059998L89.335007,29.609997L80.514999,29.609997C79.975006,27.899998,79.074997,25.695,78.130005,23.984997L71.875,25.695C72.415001,26.864998,73,28.259998,73.449997,29.609997L63.459999,29.609997L63.82,28.395L59.544998,26.009998L58.645,26.234997L48.790001,26.234997ZM69.445,38.07L69.445,35.189999L83.080002,35.189999L83.080002,38.07L69.445,38.07ZM63.550003,46.035L63.550003,51.84L68.455002,51.84C67.959999,56.744999,66.43,59.985001,59.59,62.009998C60.940002,63.27,62.605003,65.699997,63.235001,67.32C71.964996,64.260002,74.035004,59.084999,74.709999,51.84L76.735001,51.84L76.735001,59.625C76.735001,64.800003,77.68,66.599998,82.18,66.599998C82.990005,66.599998,83.934998,66.599998,84.790001,66.599998C88.255005,66.599998,89.740005,64.800003,90.235001,58.364998C88.660004,57.959999,86.095001,57.014999,84.925003,56.025002C84.835007,60.435001,84.654999,61.154999,84.115005,61.154999C83.934998,61.154999,83.529999,61.154999,83.395004,61.154999C82.945,61.154999,82.900002,60.974998,82.900002,59.580002L82.900002,51.84L89.514999,51.84L89.514999,46.035L63.550003,46.035ZM54.459999,51.48L54.459999,32.040001L56.845001,32.040001C56.260002,34.919998,55.450001,38.43,54.775002,40.949997C56.98,43.875,57.385002,46.709999,57.385002,48.689999C57.385002,49.950001,57.16,50.805,56.709999,51.165001C56.395,51.389999,55.990002,51.48,55.584999,51.48L54.459999,51.48ZM96.400002,24.524998L96.400002,33.345001L92.529999,33.345001L92.529999,39.239998L96.400002,39.239998L96.400002,39.869999C95.410004,44.775002,93.565002,50.489998,91.449997,54.134998C92.349998,55.665001,93.699997,58.095001,94.285004,59.849998C95.050003,58.544998,95.769997,57.014999,96.400002,55.259998L96.400002,67.275002L102.07,67.275002L102.07,49.004997C102.655,50.625,103.15,52.200001,103.51,53.415001L106.075,49.004997L106.075,54.404999C106.075,56.654999,104.77,58.5,103.825,59.310001C104.725,60.209999,106.255,62.325001,106.75,63.494999C107.515,62.549999,108.73,61.424999,114.985,57.735001L115.345,59.174999L119.08,57.375C117.64,59.805,115.885,62.145,113.725,64.305C115.165,64.980003,117.28,66.510002,118.27,67.455002C120.925,64.665001,122.995,61.605,124.61501,58.41L124.61501,61.290001C124.61501,63.990002,124.84,64.754997,125.56,65.565002C126.235,66.330002,127.315,66.644997,128.485,66.644997C129.02499,66.644997,129.88,66.644997,130.51001,66.644997C131.36501,66.644997,132.22,66.375,132.85001,65.925003C133.48001,65.385002,133.88501,64.665001,134.155,63.674999C134.425,62.595001,134.60501,60.029999,134.64999,57.779999C133.61501,57.419998,132.265,56.700001,131.5,56.07C131.545,58.049999,131.5,59.715,131.41,60.435001C131.32001,60.884998,131.23001,61.244999,131.095,61.424999C130.96001,61.560001,130.78,61.650002,130.55499,61.650002C130.375,61.650002,130.14999,61.650002,130.015,61.650002C129.79001,61.650002,129.565,61.560001,129.47501,61.380001C129.38501,61.244999,129.38501,60.974998,129.38501,60.75L129.38501,48.869999L128.215,48.869999L128.755,46.845001L134.38,46.845001L134.425,41.580002L129.7,41.580002C130.19501,38.07,130.42,34.784996,130.51001,31.904999L133.92999,31.904999L133.92999,26.414997L118.72,26.414997L118.72,31.904999L125.515,31.904999C125.38,34.784996,125.155,38.114998,124.57,41.580002L123.08501,41.580002L124.435,33.704998L119.62,33.704998C119.35,35.73,118.585,40.860001,118.225,41.759998C118.045,42.254997,117.91,42.57,117.685,42.75L117.685,26.594997L106.075,26.594997L106.075,46.845001C104.95,44.595001,102.745,40.455002,102.07,39.330002L102.07,39.239998L105.31,39.239998L105.31,33.345001L102.07,33.345001L102.07,24.524998L96.400002,24.524998ZM113.14,39.195L113.14,42.254997L110.98,42.254997L110.98,39.195L113.14,39.195ZM113.14,34.695L110.98,34.695L110.98,31.724998L113.14,31.724998L113.14,34.695ZM118.945,47.474998C119.35,47.114998,121.06,46.845001,122.5,46.845001L123.445,46.845001C122.59,50.040001,121.33,53.325001,119.62,56.43C118.9,54.044998,117.37,50.580002,116.065,47.924999L111.925,49.77L113.41,53.279999L110.98,54.540001L110.98,47.384998L117.685,47.384998L117.685,44.324997C118.18,45.360001,118.72,46.665001,118.945,47.474998ZM138.07001,31.544998C140.86,33.794998,144.235,37.125,145.58501,39.464996L150.39999,34.470001C148.825,32.129997,145.315,29.114998,142.48,27.09L138.07001,31.544998ZM137.125,57.195L142.075,62.055C145.045,57.735001,147.97,53.055,150.49001,48.645L146.30499,43.965C143.28999,48.915001,139.645,54.044998,137.125,57.195ZM158.095,32.939999L170.425,32.939999L170.425,40.949997L158.095,40.949997L158.095,32.939999ZM151.795,26.73L151.795,47.16L155.62,47.16C155.215,54.044998,154.315,59.040001,146.395,62.145C147.83501,63.360001,149.545,65.745003,150.265,67.364998C159.94,63.224998,161.56,56.25,162.145,47.16L164.935,47.16L164.935,59.264999C164.935,64.889999,166.06,66.824997,170.965,66.824997C171.82001,66.824997,173.35001,66.824997,174.295,66.824997C178.345,66.824997,179.875,64.665001,180.41501,56.970001C178.75,56.52,176.005,55.485001,174.745,54.404999C174.61,60.075001,174.42999,60.974998,173.62,60.974998C173.30499,60.974998,172.36,60.974998,172.09,60.974998C171.37,60.974998,171.235,60.794998,171.235,59.220001L171.235,47.16L177.13,47.16L177.13,26.73L151.795,26.73Z" fill="#FFFFFF" fill-opacity="1"/></g><g><g><rect x="0" y="88" width="181" height="7" rx="3.5" fill="#FFFFFF" fill-opacity="1"/></g></g></g></svg>